<svg width="206" height="28" viewBox="0 0 206 28" fill="none" xmlns="http://www.w3.org/2000/svg">
<rect x="0.5" y="4.5" width="205" height="19" rx="9.5" fill="white"/>
<path d="M27.5 14.0046C27.5 21.4705 21.4507 27.5 13.9954 27.5C6.54008 27.5 0.5 21.4614 0.5 14.0046C0.5 6.54778 6.54008 0.5 13.9954 0.5C21.4507 0.5 27.5 6.54778 27.5 13.9954" fill="white"/>
<path d="M54.5 14.0046C54.5 21.4705 48.4507 27.5 40.9954 27.5C33.5401 27.5 27.5 21.4614 27.5 14.0046C27.5 6.54778 33.5401 0.5 40.9954 0.5C48.4507 0.5 54.5 6.54778 54.5 13.9954" fill="white"/>
<path d="M81.5 14.0046C81.5 21.4705 75.4507 27.5 67.9954 27.5C60.5401 27.5 54.5 21.4614 54.5 14.0046C54.5 6.54778 60.5401 0.5 67.9954 0.5C75.4507 0.5 81.5 6.54778 81.5 13.9954" fill="white"/>
<path d="M23.5 14.0032C23.5 19.257 19.2431 23.5 13.9967 23.5C8.75043 23.5 4.5 19.2506 4.5 14.0032C4.5 8.75585 8.75043 4.5 13.9967 4.5C19.2431 4.5 23.5 8.75585 23.5 13.9968" fill="white"/>
<path d="M20.2803 10.9735V12.1648H21.5V13.0699H20.2803V14.2553H19.3429V13.0699H18.1232V12.1648H19.3429V10.9735H20.2803ZM13.785 17.9867C13.4425 17.9166 13.1541 17.794 12.9197 17.6013C12.6854 17.4144 12.5052 17.1575 12.379 16.8363C12.2528 16.5151 12.1927 16.1122 12.1927 15.6275C12.1927 15.1429 12.3069 14.7341 12.5292 14.4013C12.7515 14.0684 13.094 13.8699 13.5446 13.8115V13.7881C13.3103 13.7356 13.112 13.6597 12.9558 13.5487C12.7996 13.4378 12.6734 13.3151 12.5833 13.1691C12.4931 13.0232 12.427 12.8713 12.397 12.702C12.3609 12.5385 12.3489 12.3691 12.3489 12.194C12.3489 11.8845 12.397 11.5983 12.4871 11.3356C12.5833 11.0786 12.7335 10.8567 12.9438 10.6699C13.1541 10.483 13.4245 10.3429 13.7609 10.2378C14.0914 10.1327 14.494 10.0859 14.9567 10.0859C15.4193 10.0859 15.8279 10.1327 16.1584 10.2378C16.4888 10.3429 16.7532 10.4889 16.9695 10.6699C17.1798 10.8567 17.33 11.0786 17.4262 11.3356C17.5223 11.5983 17.5704 11.8845 17.5704 12.194C17.5704 12.3633 17.5524 12.5327 17.5163 12.702C17.4803 12.8713 17.4202 13.029 17.33 13.1691C17.2399 13.3151 17.1137 13.4378 16.9635 13.5487C16.8073 13.6538 16.609 13.7356 16.3687 13.7881V13.8115C16.609 13.8582 16.8193 13.9341 16.9936 14.0451C17.1678 14.156 17.306 14.2903 17.4142 14.4538C17.5223 14.6115 17.6004 14.7925 17.6485 14.991C17.6966 15.1896 17.7206 15.3998 17.7206 15.6275C17.7206 16.1122 17.6605 16.521 17.5343 16.8363C17.4082 17.1516 17.2279 17.4086 16.9936 17.6013C16.7592 17.794 16.4708 17.9166 16.1283 17.9867C15.7858 18.0509 15.3953 18.0859 14.9627 18.0859C14.53 18.0859 14.1395 18.0509 13.797 17.9867M14.4519 12.8013C14.482 12.9297 14.524 13.0232 14.5721 13.0932C14.6202 13.1633 14.6803 13.21 14.7464 13.2392C14.8124 13.2684 14.8845 13.2801 14.9567 13.2801C15.1069 13.2801 15.2391 13.2159 15.3472 13.0874C15.4494 12.9589 15.5034 12.702 15.5034 12.3166C15.5034 12.1239 15.4914 11.9662 15.4614 11.8436C15.4313 11.721 15.3893 11.6275 15.3412 11.5575C15.2931 11.4874 15.233 11.4407 15.167 11.4115C15.1009 11.3881 15.0288 11.3706 14.9567 11.3706C14.8845 11.3706 14.8064 11.3823 14.7464 11.4115C14.6803 11.4348 14.6262 11.4874 14.5721 11.5575C14.524 11.6275 14.482 11.7268 14.4519 11.8436C14.4219 11.9662 14.4039 12.1239 14.4039 12.3166C14.4039 12.5093 14.4159 12.667 14.4519 12.7954M14.488 16.591C14.6021 16.7487 14.7524 16.8246 14.9567 16.8246C15.1609 16.8246 15.3052 16.7487 15.4193 16.591C15.5275 16.4392 15.5876 16.1239 15.5876 15.6567C15.5876 15.1896 15.5335 14.8918 15.4193 14.7341C15.3052 14.5823 15.1549 14.5005 14.9567 14.5005C14.7584 14.5005 14.6021 14.5764 14.488 14.7341C14.3798 14.8918 14.3258 15.1954 14.3258 15.6567C14.3258 16.1181 14.3798 16.4392 14.488 16.591ZM9.03219 12.5969H7.5V11.3064C7.82446 11.3064 8.11288 11.2889 8.34721 11.248C8.58155 11.2071 8.78584 11.1429 8.95408 11.0494C9.12232 10.956 9.26052 10.8334 9.36867 10.6699C9.47682 10.5122 9.56094 10.3137 9.63305 10.0859H11.1652V17.9633H9.0382V12.5969H9.03219Z" fill="#555555"/>
<path fill-rule="evenodd" clip-rule="evenodd" d="M23.5 14.0032C23.5 19.257 19.2431 23.5 13.9967 23.5C8.75043 23.5 4.5 19.2506 4.5 14.0032C4.5 8.75585 8.75043 4.5 13.9967 4.5C19.2431 4.5 23.5 8.75585 23.5 13.9968H25.5C25.5 7.65024 20.3466 2.5 13.9967 2.5C7.64423 2.5 2.5 7.65291 2.5 14.0032C2.5 20.3553 7.64599 25.5 13.9967 25.5C20.3448 25.5 25.5 20.3644 25.5 14.0032H23.5Z" fill="black"/>
<path d="M50.5 14.0032C50.5 19.257 46.2431 23.5 40.9967 23.5C35.7504 23.5 31.5 19.2506 31.5 14.0032C31.5 8.75585 35.7504 4.5 40.9967 4.5C46.2431 4.5 50.5 8.75585 50.5 13.9968" fill="white"/>
<path d="M37.7017 8.5C36.8091 8.5 36.3229 8.92303 36.0762 9.54348C35.8948 9.96651 34.7409 12.6598 34.7409 12.6598C34.0298 12.8572 33.5 13.4918 33.5 14.2532V18.1028H34.799C34.799 18.1028 34.77 19.104 34.77 19.4283C34.77 20.0135 35.2707 20.5 35.8585 20.5C36.4463 20.5 36.9543 20.0135 36.9543 19.4283V18.1028H45.0312V19.4283C45.0312 20.0135 45.5174 20.5 46.1197 20.5C46.7221 20.5 47.201 20.0135 47.201 19.4283C47.201 19.104 47.201 18.1028 47.201 18.1028H48.5V14.2532C48.5 13.4988 47.9775 12.8572 47.2518 12.6598C47.2518 12.6598 46.1052 9.96651 45.9238 9.54348C45.6553 8.92303 45.1836 8.5 44.2983 8.5M34.7845 14.7961C34.7845 14.2109 35.2852 13.7244 35.873 13.7244C36.4608 13.7244 36.9688 14.2109 36.9688 14.7961C36.9688 15.3813 36.4753 15.8749 35.873 15.8749C35.2707 15.8749 34.7845 15.3884 34.7845 14.7961ZM45.0385 14.7961C45.0385 14.2109 45.5247 13.7244 46.127 13.7244C46.7293 13.7244 47.2083 14.2109 47.2083 14.7961C47.2083 15.3813 46.7293 15.8749 46.127 15.8749C45.5247 15.8749 45.0385 15.3884 45.0385 14.7961ZM44.2475 9.61398C44.6176 9.61398 44.8135 9.76204 44.9804 10.1639C45.1546 10.5729 46.0181 12.5823 46.0181 12.5823H35.9891C35.9891 12.5823 36.8599 10.5729 37.0341 10.1639C37.1938 9.76204 37.397 9.61398 37.7671 9.61398H44.2475Z" fill="#555555"/>
<path fill-rule="evenodd" clip-rule="evenodd" d="M50.5 14.0032C50.5 19.257 46.2431 23.5 40.9967 23.5C35.7504 23.5 31.5 19.2506 31.5 14.0032C31.5 8.75585 35.7504 4.5 40.9967 4.5C46.2431 4.5 50.5 8.75585 50.5 13.9968H52.5C52.5 7.65024 47.3466 2.5 40.9967 2.5C34.6442 2.5 29.5 7.65291 29.5 14.0032C29.5 20.3553 34.646 25.5 40.9967 25.5C47.3448 25.5 52.5 20.3644 52.5 14.0032H50.5Z" fill="black"/>
<path fill-rule="evenodd" clip-rule="evenodd" d="M48.4998 22.5002L32.4998 6.50015L33.9141 5.08594L49.9141 21.0859L48.4998 22.5002Z" fill="black"/>
<path d="M77.5 14.0032C77.5 19.257 73.2431 23.5 67.9967 23.5C62.7504 23.5 58.5 19.2506 58.5 14.0032C58.5 8.75585 62.7504 4.5 67.9967 4.5C73.2431 4.5 77.5 8.75585 77.5 13.9968" fill="white"/>
<path d="M72.9643 10.1388L72.5532 9.75586C72.5062 9.45738 72.4593 9.27716 72.4593 9.27716L71.9484 9.18142H71.9425L71.5432 8.81535C71.3553 8.64076 71.0969 8.60134 70.909 8.70271L70.2748 8.11137L70.0047 8.37606L70.6448 8.96741C70.5508 9.14763 70.5978 9.39543 70.7857 9.57001L71.2085 9.96424L71.2555 10.1726L71.643 10.4261L71.8486 10.7245C71.8486 10.7245 71.7429 11.5524 71.643 12.1212C71.5373 12.6901 70.9266 13.2251 70.9266 13.2251C70.9266 13.2251 70.2513 12.5943 69.6935 12.1043C69.1356 11.6144 68.8537 11.2596 68.0316 10.8034C67.2095 10.3528 67.8672 9.69955 68.1549 9.50243C68.4427 9.30532 68.7304 9.40106 68.9359 9.36163C69.1415 9.32221 69.0827 9.26026 69.0827 9.26026V8.74776L69.0593 8.4718L69.2061 8.35354L69.4527 8.23527C69.4527 8.23527 69.4527 8.09447 69.3705 7.95931C69.2883 7.81851 69.0358 7.52566 69.0358 7.52566C69.0358 7.52566 69.1062 7.16522 68.9007 6.48376C68.6952 5.79668 67.6441 5.56578 66.9276 5.50382C66.2112 5.43624 65.6005 6.28665 65.6005 6.28665C65.6005 6.28665 65.395 6.64709 65.1895 6.64709C64.9839 6.64709 64.8136 6.64709 64.338 6.97373C63.8624 7.30038 63.7919 8.28032 63.9974 9.22647C64.2029 10.1726 65.1542 10.9217 65.1542 10.9217L64.5435 11.6425C64.5435 11.6425 64.3028 11.9692 63.6216 12.752C62.9404 13.5348 62.5 14.5148 62.5 14.5148C62.5 14.5148 62.6351 14.7457 63.7919 15.399C64.9487 16.0523 66.1995 16.4972 66.1995 16.4972C66.1995 16.4972 66.3111 17.3532 66.0762 17.7474C65.8354 18.1417 65.6005 18.4289 65.5301 19.3131C65.4596 20.1917 66.1114 20.8787 66.3169 21.0759C66.5225 21.273 65.5 23.5 65.5 23.5C66 24.0064 69.5 24.0064 70.5 23.5L70.6976 20.5465L71.279 20.293C71.279 20.293 72.7059 19.5496 72.9467 19.116C73.1933 18.6823 73.8392 17.4321 73.2755 16.5197C72.7294 15.6411 71.1087 14.6387 71.1087 14.6387C71.1087 14.6387 71.091 14.7344 71.2555 14.7513C71.4199 14.7738 71.8133 14.8076 71.8133 14.8076C71.8133 14.8076 71.9366 14.5936 72.4299 12.7633C72.6413 11.9748 72.6765 11.2201 72.6531 10.6175L72.9936 10.2796L72.976 10.1388M65.718 8.65202C65.8824 8.69145 66.2523 9.00683 66.2523 9.00683C66.2523 9.00683 66.3346 9.33911 66.2934 9.55875C66.2523 9.77276 66.0292 9.89103 66.0292 9.89103L65.8237 9.93045C65.8237 9.93045 65.7415 9.71081 65.6769 9.4799C65.6181 9.24337 65.4713 8.88856 65.4478 8.66892C65.4302 8.45491 65.5535 8.6126 65.718 8.65202ZM66.2112 15.3032L66.1877 15.4046C66.1877 15.4046 65.5947 14.7738 65.2423 14.6556C64.8959 14.5373 64.4437 14.3402 64.4437 14.3402C64.4437 14.3402 64.3439 14.3008 64.6903 14.0248C65.0368 13.7488 65.5712 13.1181 65.5712 13.1181L65.8178 12.9998C65.8178 12.9998 66.3698 13.884 66.3522 14.3008C66.3346 14.7175 66.2112 15.3032 66.2112 15.3032Z" fill="#555555"/>
<path fill-rule="evenodd" clip-rule="evenodd" d="M77.5 14.0032C77.5 19.257 73.2431 23.5 67.9967 23.5C62.7504 23.5 58.5 19.2506 58.5 14.0032C58.5 8.75585 62.7504 4.5 67.9967 4.5C73.2431 4.5 77.5 8.75585 77.5 13.9968H79.5C79.5 7.65024 74.3466 2.5 67.9967 2.5C61.6442 2.5 56.5 7.65291 56.5 14.0032C56.5 20.3553 61.646 25.5 67.9967 25.5C74.3448 25.5 79.5 20.3644 79.5 14.0032H77.5Z" fill="black"/>
<path fill-rule="evenodd" clip-rule="evenodd" d="M75.4998 22.5002L59.4998 6.50015L60.9141 5.08594L76.9141 21.0859L75.4998 22.5002Z" fill="black"/>
<path d="M87.0673 15.73V14.141H87.4453C87.7347 14.141 87.926 14.2017 88.0193 14.323C88.1173 14.4397 88.1663 14.6473 88.1663 14.946C88.1663 15.1187 88.1453 15.2703 88.1033 15.401C88.066 15.5317 87.9867 15.6227 87.8653 15.674C87.8093 15.6973 87.7417 15.7137 87.6623 15.723C87.5877 15.7277 87.4593 15.73 87.2773 15.73H87.0673ZM87.0673 13.371V12.02H87.5223C87.7323 12.0247 87.8723 12.0737 87.9423 12.167C88.017 12.2603 88.0543 12.412 88.0543 12.622C88.0543 12.8973 88.0193 13.0863 87.9493 13.189C87.8887 13.2683 87.8047 13.3197 87.6973 13.343C87.59 13.3617 87.4407 13.371 87.2493 13.371H87.0673ZM87.8163 16.5C88.1663 16.5 88.4417 16.4253 88.6423 16.276C88.8477 16.1267 89.0017 15.8863 89.1043 15.555C89.151 15.3777 89.1743 15.163 89.1743 14.911C89.1743 14.5563 89.1137 14.274 88.9923 14.064C88.871 13.854 88.6773 13.7303 88.4113 13.693V13.679C88.654 13.5903 88.8197 13.4527 88.9083 13.266C88.997 13.0747 89.0413 12.846 89.0413 12.58C89.0413 12.3747 89.0227 12.1997 88.9853 12.055C88.9527 11.9057 88.885 11.7657 88.7823 11.635C88.6563 11.4763 88.5047 11.3737 88.3273 11.327C88.15 11.2757 87.9307 11.25 87.6693 11.25H86.0873V16.5H87.8163ZM90.635 16.5L90.894 15.17H92.042L92.301 16.5H93.351L92.161 11.25H90.838L89.585 16.5H90.635ZM91.342 12.909C91.37 12.7783 91.398 12.58 91.426 12.314L91.44 12.181C91.4446 12.0923 91.4563 11.9757 91.475 11.831H91.489C91.5076 11.9757 91.5193 12.0923 91.524 12.181L91.538 12.314C91.566 12.58 91.594 12.7783 91.622 12.909L91.888 14.4H91.048L91.342 12.909ZM95.3009 14.617C95.2542 14.8597 95.2145 15.1583 95.1819 15.513C95.1819 15.527 95.1772 15.5713 95.1679 15.646C95.1492 15.7813 95.1399 15.8817 95.1399 15.947H95.1259C95.1259 15.8817 95.1165 15.7813 95.0979 15.646C95.0885 15.5713 95.0839 15.527 95.0839 15.513C95.0512 15.1583 95.0115 14.8597 94.9649 14.617L94.3489 11.25H93.2989L94.4609 16.5H95.7699L96.9039 11.25H95.8539L95.3009 14.617ZM97.8947 16.5L98.1537 15.17H99.3017L99.5607 16.5H100.611L99.4207 11.25H98.0977L96.8447 16.5H97.8947ZM98.6017 12.909C98.6297 12.7783 98.6577 12.58 98.6857 12.314L98.6997 12.181C98.7044 12.0923 98.7161 11.9757 98.7347 11.831H98.7487C98.7674 11.9757 98.7791 12.0923 98.7837 12.181L98.7977 12.314C98.8257 12.58 98.8537 12.7783 98.8817 12.909L99.1477 14.4H98.3077L98.6017 12.909ZM102.288 14.239C102.498 14.239 102.664 14.2437 102.785 14.253C102.907 14.2577 103.019 14.2763 103.121 14.309C103.196 14.3323 103.257 14.372 103.303 14.428C103.35 14.4793 103.383 14.5423 103.401 14.617C103.425 14.6917 103.439 14.7663 103.443 14.841C103.448 14.911 103.453 15.0067 103.457 15.128V15.17C103.457 15.1793 103.457 15.247 103.457 15.373C103.462 15.6297 103.469 15.8513 103.478 16.038C103.492 16.2247 103.52 16.3787 103.562 16.5H104.64V16.402C104.594 16.374 104.556 16.3063 104.528 16.199C104.5 16.087 104.479 15.954 104.465 15.8C104.451 15.6413 104.442 15.4803 104.437 15.317C104.433 15.149 104.43 14.9577 104.43 14.743C104.43 14.4723 104.372 14.2553 104.255 14.092C104.143 13.9287 103.95 13.8283 103.674 13.791V13.777C103.833 13.7537 103.964 13.7047 104.066 13.63C104.174 13.5507 104.258 13.4527 104.318 13.336C104.379 13.2193 104.421 13.0933 104.444 12.958C104.468 12.818 104.479 12.6687 104.479 12.51C104.479 12.2767 104.442 12.0783 104.367 11.915C104.297 11.7517 104.195 11.621 104.059 11.523C103.929 11.425 103.772 11.355 103.59 11.313C103.413 11.271 103.212 11.25 102.988 11.25H101.133V16.5H102.113V14.239H102.288ZM102.113 12.02H102.841C103.051 12.0247 103.205 12.0737 103.303 12.167C103.406 12.2557 103.457 12.4377 103.457 12.713C103.457 12.9603 103.404 13.147 103.296 13.273C103.194 13.3943 103.056 13.4597 102.883 13.469H102.113V12.02ZM106.414 16.5V11.25H105.434V16.5H106.414ZM108.012 16.5L108.271 15.17H109.419L109.678 16.5H110.728L109.538 11.25H108.215L106.962 16.5H108.012ZM108.719 12.909C108.747 12.7783 108.775 12.58 108.803 12.314L108.817 12.181C108.822 12.0923 108.833 11.9757 108.852 11.831H108.866C108.885 11.9757 108.896 12.0923 108.901 12.181L108.915 12.314C108.943 12.58 108.971 12.7783 108.999 12.909L109.265 14.4H108.425L108.719 12.909ZM112.42 16.5V15.576H111.496V16.5H112.42ZM115.717 14.631C115.717 14.6637 115.714 14.7173 115.71 14.792C115.71 14.9227 115.705 15.044 115.696 15.156C115.686 15.2633 115.665 15.3707 115.633 15.478C115.6 15.5807 115.551 15.667 115.486 15.737C115.42 15.8023 115.332 15.835 115.22 15.835C115.061 15.835 114.933 15.8 114.835 15.73C114.741 15.6553 114.671 15.562 114.625 15.45C114.578 15.3333 114.548 15.2143 114.534 15.093C114.52 14.9717 114.513 14.8387 114.513 14.694V13.238C114.513 13.042 114.52 12.8717 114.534 12.727C114.548 12.5777 114.578 12.4423 114.625 12.321C114.671 12.195 114.741 12.097 114.835 12.027C114.933 11.9523 115.061 11.915 115.22 11.915C115.318 11.915 115.397 11.9383 115.458 11.985C115.518 12.0317 115.563 12.0947 115.591 12.174C115.623 12.2533 115.647 12.3327 115.661 12.412C115.675 12.4867 115.686 12.587 115.696 12.713C115.7 12.797 115.705 12.853 115.71 12.881H116.676C116.676 12.7503 116.669 12.6173 116.655 12.482C116.585 11.5907 116.106 11.138 115.22 11.124C114.842 11.124 114.538 11.18 114.31 11.292C114.081 11.404 113.911 11.5627 113.799 11.768C113.691 11.9687 113.619 12.1997 113.582 12.461C113.544 12.7177 113.519 13.049 113.505 13.455V14.204C113.505 14.6193 113.521 14.9647 113.554 15.24C113.586 15.5107 113.659 15.751 113.771 15.961C113.883 16.171 114.055 16.3343 114.289 16.451C114.522 16.5677 114.832 16.626 115.22 16.626C115.486 16.626 115.71 16.584 115.892 16.5C116.074 16.416 116.221 16.2993 116.333 16.15C116.445 15.996 116.526 15.8187 116.578 15.618C116.634 15.4173 116.669 15.1887 116.683 14.932C116.683 14.9133 116.687 14.862 116.697 14.778C116.701 14.694 116.704 14.645 116.704 14.631H115.717ZM117.436 14.204C117.436 14.6193 117.453 14.9647 117.485 15.24C117.518 15.5107 117.59 15.751 117.702 15.961C117.814 16.171 117.987 16.3343 118.22 16.451C118.454 16.5677 118.764 16.626 119.151 16.626C119.539 16.626 119.849 16.5677 120.082 16.451C120.316 16.3343 120.488 16.171 120.6 15.961C120.712 15.751 120.785 15.5107 120.817 15.24C120.85 14.9647 120.866 14.6193 120.866 14.204V13.455C120.852 13.049 120.827 12.7177 120.789 12.461C120.752 12.1997 120.677 11.9687 120.565 11.768C120.458 11.5627 120.29 11.404 120.061 11.292C119.833 11.18 119.529 11.124 119.151 11.124C118.773 11.124 118.47 11.18 118.241 11.292C118.013 11.404 117.842 11.5627 117.73 11.768C117.623 11.9687 117.551 12.1997 117.513 12.461C117.476 12.7177 117.45 13.049 117.436 13.455V14.204ZM118.444 13.238C118.444 13.042 118.451 12.8717 118.465 12.727C118.479 12.5777 118.51 12.4423 118.556 12.321C118.603 12.195 118.673 12.097 118.766 12.027C118.864 11.9523 118.993 11.915 119.151 11.915C119.315 11.915 119.445 11.9593 119.543 12.048C119.641 12.132 119.711 12.2417 119.753 12.377C119.8 12.5077 119.828 12.643 119.837 12.783C119.851 12.923 119.858 13.084 119.858 13.266V14.61C119.858 14.7873 119.851 14.939 119.837 15.065C119.828 15.191 119.802 15.3147 119.76 15.436C119.718 15.5527 119.646 15.6483 119.543 15.723C119.445 15.7977 119.315 15.835 119.151 15.835C118.993 15.835 118.864 15.8 118.766 15.73C118.673 15.6553 118.603 15.562 118.556 15.45C118.51 15.3333 118.479 15.2143 118.465 15.093C118.451 14.9717 118.444 14.8387 118.444 14.694V13.238ZM121.212 17.158H121.821L123.473 11.25H122.864L121.212 17.158ZM125.834 14.631C125.834 14.6637 125.831 14.7173 125.827 14.792C125.827 14.9227 125.822 15.044 125.813 15.156C125.803 15.2633 125.782 15.3707 125.75 15.478C125.717 15.5807 125.668 15.667 125.603 15.737C125.537 15.8023 125.449 15.835 125.337 15.835C125.178 15.835 125.05 15.8 124.952 15.73C124.858 15.6553 124.788 15.562 124.742 15.45C124.695 15.3333 124.665 15.2143 124.651 15.093C124.637 14.9717 124.63 14.8387 124.63 14.694V13.238C124.63 13.042 124.637 12.8717 124.651 12.727C124.665 12.5777 124.695 12.4423 124.742 12.321C124.788 12.195 124.858 12.097 124.952 12.027C125.05 11.9523 125.178 11.915 125.337 11.915C125.435 11.915 125.514 11.9383 125.575 11.985C125.635 12.0317 125.68 12.0947 125.708 12.174C125.74 12.2533 125.764 12.3327 125.778 12.412C125.792 12.4867 125.803 12.587 125.813 12.713C125.817 12.797 125.822 12.853 125.827 12.881H126.793C126.793 12.7503 126.786 12.6173 126.772 12.482C126.702 11.5907 126.223 11.138 125.337 11.124C124.959 11.124 124.655 11.18 124.427 11.292C124.198 11.404 124.028 11.5627 123.916 11.768C123.808 11.9687 123.736 12.1997 123.699 12.461C123.661 12.7177 123.636 13.049 123.622 13.455V14.204C123.622 14.6193 123.638 14.9647 123.671 15.24C123.703 15.5107 123.776 15.751 123.888 15.961C124 16.171 124.172 16.3343 124.406 16.451C124.639 16.5677 124.949 16.626 125.337 16.626C125.603 16.626 125.827 16.584 126.009 16.5C126.191 16.416 126.338 16.2993 126.45 16.15C126.562 15.996 126.643 15.8187 126.695 15.618C126.751 15.4173 126.786 15.1887 126.8 14.932C126.8 14.9133 126.804 14.862 126.814 14.778C126.818 14.694 126.821 14.645 126.821 14.631H125.834ZM127.553 14.204C127.553 14.6193 127.57 14.9647 127.602 15.24C127.635 15.5107 127.707 15.751 127.819 15.961C127.931 16.171 128.104 16.3343 128.337 16.451C128.571 16.5677 128.881 16.626 129.268 16.626C129.656 16.626 129.966 16.5677 130.199 16.451C130.433 16.3343 130.605 16.171 130.717 15.961C130.829 15.751 130.902 15.5107 130.934 15.24C130.967 14.9647 130.983 14.6193 130.983 14.204V13.455C130.969 13.049 130.944 12.7177 130.906 12.461C130.869 12.1997 130.794 11.9687 130.682 11.768C130.575 11.5627 130.407 11.404 130.178 11.292C129.95 11.18 129.646 11.124 129.268 11.124C128.89 11.124 128.587 11.18 128.358 11.292C128.13 11.404 127.959 11.5627 127.847 11.768C127.74 11.9687 127.668 12.1997 127.63 12.461C127.593 12.7177 127.567 13.049 127.553 13.455V14.204ZM128.561 13.238C128.561 13.042 128.568 12.8717 128.582 12.727C128.596 12.5777 128.627 12.4423 128.673 12.321C128.72 12.195 128.79 12.097 128.883 12.027C128.981 11.9523 129.11 11.915 129.268 11.915C129.432 11.915 129.562 11.9593 129.66 12.048C129.758 12.132 129.828 12.2417 129.87 12.377C129.917 12.5077 129.945 12.643 129.954 12.783C129.968 12.923 129.975 13.084 129.975 13.266V14.61C129.975 14.7873 129.968 14.939 129.954 15.065C129.945 15.191 129.919 15.3147 129.877 15.436C129.835 15.5527 129.763 15.6483 129.66 15.723C129.562 15.7977 129.432 15.835 129.268 15.835C129.11 15.835 128.981 15.8 128.883 15.73C128.79 15.6553 128.72 15.562 128.673 15.45C128.627 15.3333 128.596 15.2143 128.582 15.093C128.568 14.9717 128.561 14.8387 128.561 14.694V13.238ZM134.227 12.279C134.227 12.6757 134.243 13.168 134.276 13.756C134.299 14.1853 134.332 14.6823 134.374 15.247H134.36C134.243 14.827 134.129 14.4537 134.017 14.127C133.909 13.7957 133.79 13.4737 133.66 13.161L132.897 11.25H131.882V16.5H132.862V15.513C132.862 15.3263 132.857 15.1117 132.848 14.869C132.843 14.6217 132.831 14.3463 132.813 14.043C132.799 13.8097 132.782 13.581 132.764 13.357C132.75 13.1283 132.731 12.8577 132.708 12.545H132.722C132.843 12.9743 132.957 13.3547 133.065 13.686C133.177 14.0127 133.296 14.3277 133.422 14.631L134.185 16.5H135.207V11.25H134.227V12.279ZM139.108 12.846V12.79C139.108 12.5893 139.096 12.405 139.073 12.237C139.05 12.069 138.989 11.8987 138.891 11.726C138.798 11.5533 138.644 11.411 138.429 11.299C138.219 11.1823 137.937 11.124 137.582 11.124C137.069 11.124 136.684 11.243 136.427 11.481C136.17 11.7143 136.042 12.0573 136.042 12.51C136.042 12.7993 136.126 13.0677 136.294 13.315C136.415 13.469 136.551 13.6067 136.7 13.728C136.854 13.8493 137.057 13.9917 137.309 14.155C137.552 14.3137 137.729 14.4373 137.841 14.526C137.972 14.6147 138.07 14.715 138.135 14.827C138.2 14.939 138.233 15.0697 138.233 15.219C138.233 15.6297 138.03 15.835 137.624 15.835C137.405 15.835 137.246 15.7603 137.148 15.611C137.055 15.4617 137.008 15.2423 137.008 14.953V14.645H136.028V15.03C136.028 15.2727 136.056 15.492 136.112 15.688C136.173 15.8793 136.266 16.045 136.392 16.185C136.518 16.325 136.684 16.4323 136.889 16.507C137.094 16.5863 137.339 16.626 137.624 16.626C138.114 16.626 138.506 16.4953 138.8 16.234C139.094 15.9727 139.241 15.5993 139.241 15.114C139.241 14.8807 139.208 14.68 139.143 14.512C139.078 14.3393 138.963 14.1737 138.8 14.015C138.735 13.9497 138.648 13.8773 138.541 13.798C138.438 13.7187 138.336 13.644 138.233 13.574C138.13 13.4993 138.03 13.4293 137.932 13.364C137.834 13.2987 137.727 13.2287 137.61 13.154L137.596 13.147C137.405 13.021 137.265 12.9113 137.176 12.818C137.092 12.72 137.05 12.5823 137.05 12.405C137.05 12.2323 137.097 12.1087 137.19 12.034C137.283 11.9547 137.416 11.915 137.589 11.915C137.822 11.915 137.976 11.9943 138.051 12.153C138.126 12.3117 138.163 12.5427 138.163 12.846H139.108ZM142.403 14.827C142.403 14.981 142.396 15.114 142.382 15.226C142.372 15.338 142.344 15.4407 142.298 15.534C142.256 15.6227 142.188 15.695 142.095 15.751C142.006 15.807 141.885 15.835 141.731 15.835C141.572 15.835 141.444 15.807 141.346 15.751C141.252 15.695 141.182 15.6227 141.136 15.534C141.094 15.4407 141.066 15.338 141.052 15.226C141.038 15.114 141.031 14.981 141.031 14.827V11.25H140.051V14.911C140.051 15.513 140.172 15.9493 140.415 16.22C140.662 16.4907 141.098 16.626 141.724 16.626C142.344 16.626 142.776 16.4907 143.019 16.22C143.261 15.9493 143.383 15.513 143.383 14.911V11.25H142.403V14.827ZM145.303 14.848C145.303 13.6907 145.275 12.6477 145.219 11.719H145.254L146.283 16.5H146.878L147.928 11.719H147.942C147.886 12.6477 147.858 13.6907 147.858 14.848V16.5H148.838V11.25H147.284L146.759 13.686C146.726 13.84 146.698 14.0033 146.675 14.176C146.656 14.3487 146.633 14.589 146.605 14.897H146.591C146.544 14.4443 146.484 14.0407 146.409 13.686L145.884 11.25H144.323V16.5H145.303V14.848ZM149.729 14.204C149.729 14.6193 149.746 14.9647 149.778 15.24C149.811 15.5107 149.883 15.751 149.995 15.961C150.107 16.171 150.28 16.3343 150.513 16.451C150.747 16.5677 151.057 16.626 151.444 16.626C151.832 16.626 152.142 16.5677 152.375 16.451C152.609 16.3343 152.781 16.171 152.893 15.961C153.005 15.751 153.078 15.5107 153.11 15.24C153.143 14.9647 153.159 14.6193 153.159 14.204V13.455C153.145 13.049 153.12 12.7177 153.082 12.461C153.045 12.1997 152.97 11.9687 152.858 11.768C152.751 11.5627 152.583 11.404 152.354 11.292C152.126 11.18 151.822 11.124 151.444 11.124C151.066 11.124 150.763 11.18 150.534 11.292C150.306 11.404 150.135 11.5627 150.023 11.768C149.916 11.9687 149.844 12.1997 149.806 12.461C149.769 12.7177 149.743 13.049 149.729 13.455V14.204ZM150.737 13.238C150.737 13.042 150.744 12.8717 150.758 12.727C150.772 12.5777 150.803 12.4423 150.849 12.321C150.896 12.195 150.966 12.097 151.059 12.027C151.157 11.9523 151.286 11.915 151.444 11.915C151.608 11.915 151.738 11.9593 151.836 12.048C151.934 12.132 152.004 12.2417 152.046 12.377C152.093 12.5077 152.121 12.643 152.13 12.783C152.144 12.923 152.151 13.084 152.151 13.266V14.61C152.151 14.7873 152.144 14.939 152.13 15.065C152.121 15.191 152.095 15.3147 152.053 15.436C152.011 15.5527 151.939 15.6483 151.836 15.723C151.738 15.7977 151.608 15.835 151.444 15.835C151.286 15.835 151.157 15.8 151.059 15.73C150.966 15.6553 150.896 15.562 150.849 15.45C150.803 15.3333 150.772 15.2143 150.758 15.093C150.744 14.9717 150.737 14.8387 150.737 14.694V13.238ZM155.199 14.239C155.409 14.239 155.574 14.2437 155.696 14.253C155.817 14.2577 155.929 14.2763 156.032 14.309C156.106 14.3323 156.167 14.372 156.214 14.428C156.26 14.4793 156.293 14.5423 156.312 14.617C156.335 14.6917 156.349 14.7663 156.354 14.841C156.358 14.911 156.363 15.0067 156.368 15.128V15.17C156.368 15.1793 156.368 15.247 156.368 15.373C156.372 15.6297 156.379 15.8513 156.389 16.038C156.403 16.2247 156.431 16.3787 156.473 16.5H157.551V16.402C157.504 16.374 157.467 16.3063 157.439 16.199C157.411 16.087 157.39 15.954 157.376 15.8C157.362 15.6413 157.352 15.4803 157.348 15.317C157.343 15.149 157.341 14.9577 157.341 14.743C157.341 14.4723 157.282 14.2553 157.166 14.092C157.054 13.9287 156.86 13.8283 156.585 13.791V13.777C156.743 13.7537 156.874 13.7047 156.977 13.63C157.084 13.5507 157.168 13.4527 157.229 13.336C157.289 13.2193 157.331 13.0933 157.355 12.958C157.378 12.818 157.39 12.6687 157.39 12.51C157.39 12.2767 157.352 12.0783 157.278 11.915C157.208 11.7517 157.105 11.621 156.97 11.523C156.839 11.425 156.683 11.355 156.501 11.313C156.323 11.271 156.123 11.25 155.899 11.25H154.044V16.5H155.024V14.239H155.199ZM155.024 12.02H155.752C155.962 12.0247 156.116 12.0737 156.214 12.167C156.316 12.2557 156.368 12.4377 156.368 12.713C156.368 12.9603 156.314 13.147 156.207 13.273C156.104 13.3943 155.966 13.4597 155.794 13.469H155.024V12.02ZM161.067 16.5V15.73H159.289V14.113H160.927V13.343H159.289V12.02H161.067V11.25H158.309V16.5H161.067ZM164.784 12.846V12.79C164.784 12.5893 164.772 12.405 164.749 12.237C164.726 12.069 164.665 11.8987 164.567 11.726C164.474 11.5533 164.32 11.411 164.105 11.299C163.895 11.1823 163.613 11.124 163.258 11.124C162.745 11.124 162.36 11.243 162.103 11.481C161.846 11.7143 161.718 12.0573 161.718 12.51C161.718 12.7993 161.802 13.0677 161.97 13.315C162.091 13.469 162.227 13.6067 162.376 13.728C162.53 13.8493 162.733 13.9917 162.985 14.155C163.228 14.3137 163.405 14.4373 163.517 14.526C163.648 14.6147 163.746 14.715 163.811 14.827C163.876 14.939 163.909 15.0697 163.909 15.219C163.909 15.6297 163.706 15.835 163.3 15.835C163.081 15.835 162.922 15.7603 162.824 15.611C162.731 15.4617 162.684 15.2423 162.684 14.953V14.645H161.704V15.03C161.704 15.2727 161.732 15.492 161.788 15.688C161.849 15.8793 161.942 16.045 162.068 16.185C162.194 16.325 162.36 16.4323 162.565 16.507C162.77 16.5863 163.015 16.626 163.3 16.626C163.79 16.626 164.182 16.4953 164.476 16.234C164.77 15.9727 164.917 15.5993 164.917 15.114C164.917 14.8807 164.884 14.68 164.819 14.512C164.754 14.3393 164.639 14.1737 164.476 14.015C164.411 13.9497 164.324 13.8773 164.217 13.798C164.114 13.7187 164.012 13.644 163.909 13.574C163.806 13.4993 163.706 13.4293 163.608 13.364C163.51 13.2987 163.403 13.2287 163.286 13.154L163.272 13.147C163.081 13.021 162.941 12.9113 162.852 12.818C162.768 12.72 162.726 12.5823 162.726 12.405C162.726 12.2323 162.773 12.1087 162.866 12.034C162.959 11.9547 163.092 11.915 163.265 11.915C163.498 11.915 163.652 11.9943 163.727 12.153C163.802 12.3117 163.839 12.5427 163.839 12.846H164.784ZM166.706 12.02H167.154C167.453 12.02 167.658 12.0643 167.77 12.153C167.887 12.2417 167.945 12.4283 167.945 12.713C167.945 13.0117 167.885 13.224 167.763 13.35C167.642 13.4713 167.465 13.532 167.231 13.532H166.706V12.02ZM166.706 16.5V14.302H167.364C167.588 14.302 167.791 14.2787 167.973 14.232C168.16 14.1807 168.323 14.099 168.463 13.987C168.636 13.8517 168.76 13.6743 168.834 13.455C168.914 13.231 168.953 12.993 168.953 12.741C168.953 12.545 168.932 12.3607 168.89 12.188C168.848 12.0107 168.778 11.852 168.68 11.712C168.587 11.5673 168.461 11.4553 168.302 11.376C168.144 11.292 167.952 11.25 167.728 11.25H165.726V16.5H166.706ZM169.567 14.204C169.567 14.6193 169.583 14.9647 169.616 15.24C169.649 15.5107 169.721 15.751 169.833 15.961C169.945 16.171 170.118 16.3343 170.351 16.451C170.584 16.5677 170.895 16.626 171.282 16.626C171.669 16.626 171.98 16.5677 172.213 16.451C172.446 16.3343 172.619 16.171 172.731 15.961C172.843 15.751 172.915 15.5107 172.948 15.24C172.981 14.9647 172.997 14.6193 172.997 14.204V13.455C172.983 13.049 172.957 12.7177 172.92 12.461C172.883 12.1997 172.808 11.9687 172.696 11.768C172.589 11.5627 172.421 11.404 172.192 11.292C171.963 11.18 171.66 11.124 171.282 11.124C170.904 11.124 170.601 11.18 170.372 11.292C170.143 11.404 169.973 11.5627 169.861 11.768C169.754 11.9687 169.681 12.1997 169.644 12.461C169.607 12.7177 169.581 13.049 169.567 13.455V14.204ZM170.575 13.238C170.575 13.042 170.582 12.8717 170.596 12.727C170.61 12.5777 170.64 12.4423 170.687 12.321C170.734 12.195 170.804 12.097 170.897 12.027C170.995 11.9523 171.123 11.915 171.282 11.915C171.445 11.915 171.576 11.9593 171.674 12.048C171.772 12.132 171.842 12.2417 171.884 12.377C171.931 12.5077 171.959 12.643 171.968 12.783C171.982 12.923 171.989 13.084 171.989 13.266V14.61C171.989 14.7873 171.982 14.939 171.968 15.065C171.959 15.191 171.933 15.3147 171.891 15.436C171.849 15.5527 171.777 15.6483 171.674 15.723C171.576 15.7977 171.445 15.835 171.282 15.835C171.123 15.835 170.995 15.8 170.897 15.73C170.804 15.6553 170.734 15.562 170.687 15.45C170.64 15.3333 170.61 15.2143 170.596 15.093C170.582 14.9717 170.575 14.8387 170.575 14.694V13.238ZM176.24 12.279C176.24 12.6757 176.257 13.168 176.289 13.756C176.313 14.1853 176.345 14.6823 176.387 15.247H176.373C176.257 14.827 176.142 14.4537 176.03 14.127C175.923 13.7957 175.804 13.4737 175.673 13.161L174.91 11.25H173.895V16.5H174.875V15.513C174.875 15.3263 174.871 15.1117 174.861 14.869C174.857 14.6217 174.845 14.3463 174.826 14.043C174.812 13.8097 174.796 13.581 174.777 13.357C174.763 13.1283 174.745 12.8577 174.721 12.545H174.735C174.857 12.9743 174.971 13.3547 175.078 13.686C175.19 14.0127 175.309 14.3277 175.435 14.631L176.198 16.5H177.22V11.25H176.24V12.279ZM181.122 12.846V12.79C181.122 12.5893 181.11 12.405 181.087 12.237C181.063 12.069 181.003 11.8987 180.905 11.726C180.811 11.5533 180.657 11.411 180.443 11.299C180.233 11.1823 179.95 11.124 179.596 11.124C179.082 11.124 178.697 11.243 178.441 11.481C178.184 11.7143 178.056 12.0573 178.056 12.51C178.056 12.7993 178.14 13.0677 178.308 13.315C178.429 13.469 178.564 13.6067 178.714 13.728C178.868 13.8493 179.071 13.9917 179.323 14.155C179.565 14.3137 179.743 14.4373 179.855 14.526C179.985 14.6147 180.083 14.715 180.149 14.827C180.214 14.939 180.247 15.0697 180.247 15.219C180.247 15.6297 180.044 15.835 179.638 15.835C179.418 15.835 179.26 15.7603 179.162 15.611C179.068 15.4617 179.022 15.2423 179.022 14.953V14.645H178.042V15.03C178.042 15.2727 178.07 15.492 178.126 15.688C178.186 15.8793 178.28 16.045 178.406 16.185C178.532 16.325 178.697 16.4323 178.903 16.507C179.108 16.5863 179.353 16.626 179.638 16.626C180.128 16.626 180.52 16.4953 180.814 16.234C181.108 15.9727 181.255 15.5993 181.255 15.114C181.255 14.8807 181.222 14.68 181.157 14.512C181.091 14.3393 180.977 14.1737 180.814 14.015C180.748 13.9497 180.662 13.8773 180.555 13.798C180.452 13.7187 180.349 13.644 180.247 13.574C180.144 13.4993 180.044 13.4293 179.946 13.364C179.848 13.2987 179.74 13.2287 179.624 13.154L179.61 13.147C179.418 13.021 179.278 12.9113 179.19 12.818C179.106 12.72 179.064 12.5823 179.064 12.405C179.064 12.2323 179.11 12.1087 179.204 12.034C179.297 11.9547 179.43 11.915 179.603 11.915C179.836 11.915 179.99 11.9943 180.065 12.153C180.139 12.3117 180.177 12.5427 180.177 12.846H181.122ZM182.701 16.5L182.96 15.17H184.108L184.367 16.5H185.417L184.227 11.25H182.904L181.651 16.5H182.701ZM183.408 12.909C183.436 12.7783 183.464 12.58 183.492 12.314L183.506 12.181C183.511 12.0923 183.523 11.9757 183.541 11.831H183.555C183.574 11.9757 183.586 12.0923 183.59 12.181L183.604 12.314C183.632 12.58 183.66 12.7783 183.688 12.909L183.954 14.4H183.114L183.408 12.909ZM186.913 15.73V14.141H187.291C187.58 14.141 187.772 14.2017 187.865 14.323C187.963 14.4397 188.012 14.6473 188.012 14.946C188.012 15.1187 187.991 15.2703 187.949 15.401C187.912 15.5317 187.832 15.6227 187.711 15.674C187.655 15.6973 187.587 15.7137 187.508 15.723C187.433 15.7277 187.305 15.73 187.123 15.73H186.913ZM186.913 13.371V12.02H187.368C187.578 12.0247 187.718 12.0737 187.788 12.167C187.863 12.2603 187.9 12.412 187.9 12.622C187.9 12.8973 187.865 13.0863 187.795 13.189C187.734 13.2683 187.65 13.3197 187.543 13.343C187.436 13.3617 187.286 13.371 187.095 13.371H186.913ZM187.662 16.5C188.012 16.5 188.287 16.4253 188.488 16.276C188.693 16.1267 188.847 15.8863 188.95 15.555C188.997 15.3777 189.02 15.163 189.02 14.911C189.02 14.5563 188.959 14.274 188.838 14.064C188.717 13.854 188.523 13.7303 188.257 13.693V13.679C188.5 13.5903 188.665 13.4527 188.754 13.266C188.843 13.0747 188.887 12.846 188.887 12.58C188.887 12.3747 188.868 12.1997 188.831 12.055C188.798 11.9057 188.731 11.7657 188.628 11.635C188.502 11.4763 188.35 11.3737 188.173 11.327C187.996 11.2757 187.776 11.25 187.515 11.25H185.933V16.5H187.662ZM192.644 16.5V15.73H190.824V11.25H189.844V16.5H192.644ZM196.074 16.5V15.73H194.296V14.113H195.934V13.343H194.296V12.02H196.074V11.25H193.316V16.5H196.074Z" fill="black"/>
<a href="https://www.tapintoyourbeer.com/agegate?destination=">
<rect fill="black" fill-opacity="0" x="0.132324" y="2.0365" width="110.735" height="3.927"/>
</a>
</svg>
