<svg width="329" height="138" viewBox="0 0 329 138" fill="none" xmlns="http://www.w3.org/2000/svg">
<path d="M181.159 24.2274C179.949 23.0252 178.176 21.855 175.849 20.7266C183.611 17.433 181.659 12.9849 172.357 9.53271L168.93 10.6056C164.991 11.8392 160.74 11.8424 156.799 10.6145L153.4 9.55574L142.889 14.1619C142.889 14.1619 149.765 16.7322 152.616 18.6001V31.1307C150.487 32.5244 146.588 33.7622 142.891 33.7627H166.363C166.363 33.7627 172.915 33.7214 175.849 33.0719C178.172 32.4407 179.941 31.653 181.155 30.7089C182.333 29.7919 182.924 28.774 182.928 27.6592C182.928 26.5444 182.337 25.4019 181.159 24.2274ZM162.906 14.1625C166.152 14.1625 169.398 16.0429 169.398 17.8936C169.398 20.3587 165.589 21.6477 162.906 21.6477V14.1619V14.1625ZM162.906 32.1058V24.2881C166.264 24.2881 171.34 25.8876 171.292 28.607C171.176 31.1443 168.88 32.1063 162.906 32.1063V32.1058Z" fill="white"/>
<path d="M166.129 6.9134H166.13L165.781 5.14074H166.802C167.367 5.1219 167.799 4.54357 167.793 4.07358H165.801L166.303 3.59522H167.967C168.366 3.65018 168.551 3.92913 168.586 4.4232L168.605 2.44119C168.605 2.04656 168.265 1.49022 167.615 1.47138C167.612 1.47138 167.608 1.47086 167.605 1.47033H166.565C166.565 1.06943 166.214 0.5 165.542 0.5C165.519 0.5 165.495 0.50157 165.472 0.503664H159.321C159.32 0.895146 159.627 1.35571 160.154 1.45672L159.688 6.91288C159.119 8.47305 156.899 8.95141 155.286 8.34796C157.139 9.77206 160.494 10.2834 162.908 9.36331C165.323 10.2834 168.677 9.77258 170.53 8.34796C168.917 8.95141 166.698 8.47305 166.129 6.91288L166.129 6.9134ZM164.507 2.73061C164.01 2.73061 163.75 2.3093 163.75 2.01307H165.259C165.259 2.3721 164.88 2.73061 164.507 2.73061Z" fill="white"/>
<path d="M144.327 41.8499C144.501 41.8897 144.671 41.9541 144.838 42.043C145.005 42.1325 145.154 42.2451 145.286 42.3801C145.418 42.5156 145.522 42.6726 145.599 42.8511C145.675 43.0296 145.714 43.2279 145.714 43.4462C145.714 43.8298 145.632 44.1522 145.469 44.4129C145.305 44.674 145.09 44.886 144.822 45.0477C144.555 45.21 144.249 45.3256 143.905 45.3947C143.561 45.4643 143.208 45.4989 142.847 45.4989H139.5V38.4773H142.534C142.832 38.4773 143.15 38.4988 143.488 38.5417C143.825 38.5851 144.136 38.6704 144.421 38.7997C144.706 38.9284 144.942 39.1169 145.13 39.3649C145.318 39.613 145.412 39.9386 145.412 40.3421C145.412 40.7189 145.313 41.0298 145.115 41.2742C144.916 41.5191 144.654 41.7007 144.327 41.8195V41.8494V41.8499ZM141.815 40.3128V41.1758H142.482C142.656 41.1758 142.798 41.1376 142.909 41.0617C143.021 40.9858 143.076 40.8686 143.076 40.7095C143.076 40.5776 143.017 40.4781 142.899 40.4117C142.781 40.3457 142.624 40.3128 142.43 40.3128H141.815ZM141.815 42.6931V43.6451H142.555C142.749 43.6451 142.907 43.6037 143.029 43.521C143.15 43.4383 143.211 43.3174 143.211 43.1589C143.211 43.0662 143.186 42.9903 143.133 42.9307C143.081 42.871 143.017 42.8234 142.94 42.7867C142.864 42.7506 142.782 42.7255 142.695 42.7124C142.608 42.6993 142.527 42.6925 142.451 42.6925H141.815V42.6931Z" fill="white"/>
<path d="M148.883 38.4778H151.52L154.398 45.4993H151.697L151.312 44.4678H148.966L148.601 45.4993H145.974L148.883 38.4778ZM150.165 40.9277L149.561 42.6632H150.759L150.165 40.9277Z" fill="white"/>
<path d="M153.856 38.4778H156.66L157.88 42.8218H157.922L159.089 38.4778H161.893L159.224 45.4993H156.472L153.855 38.4778H153.856Z" fill="white"/>
<path d="M164.26 38.4778H166.898L169.775 45.4993H167.075L166.689 44.4678H164.343L163.978 45.4993H161.351L164.26 38.4778ZM165.543 40.9277L164.938 42.6632H166.137L165.543 40.9277Z" fill="white"/>
<path d="M170.401 38.4778H173.581C173.942 38.4778 174.301 38.5123 174.66 38.5819C175.017 38.651 175.337 38.7735 175.619 38.9488C175.9 39.1241 176.127 39.3591 176.301 39.6528C176.475 39.9469 176.562 40.3159 176.562 40.7586C176.562 41.2014 176.451 41.5667 176.229 41.8944C176.007 42.2215 175.688 42.4748 175.273 42.6532L177.146 45.4999H174.295L172.881 42.9908H172.809V45.4999H170.401V38.4783V38.4778ZM172.788 41.4432H173.275C173.357 41.4432 173.449 41.4369 173.549 41.4233C173.649 41.4102 173.742 41.382 173.828 41.3391C173.914 41.2961 173.986 41.2365 174.045 41.1606C174.104 41.0847 174.133 40.9837 174.133 40.8581C174.133 40.7325 174.109 40.6336 174.06 40.5603C174.012 40.4875 173.95 40.4331 173.874 40.397C173.799 40.3609 173.716 40.3373 173.626 40.3274C173.537 40.3174 173.454 40.3122 173.378 40.3122H172.788V41.4427V41.4432Z" fill="white"/>
<path d="M177.949 38.4778H180.451V45.4993H177.949V38.4778Z" fill="white"/>
<path d="M183.985 38.4778H186.623L189.5 45.4993H186.8L186.414 44.4678H184.068L183.703 45.4993H181.076L183.985 38.4778ZM185.267 40.9277L184.663 42.6632H185.862L185.267 40.9277Z" fill="white"/>
<path d="M39.7538 71.5V69.3H34.6738V64.68H39.3538V62.48H34.6738V58.7H39.7538V56.5H31.8738V71.5H39.7538ZM49.9538 71.5V69.3H44.7538V56.5H41.9538V71.5H49.9538ZM64.7538 71.5V69.3H59.6738V64.68H64.3538V62.48H59.6738V58.7H64.7538V56.5H56.8738V71.5H64.7538ZM72.7738 63.9L76.3738 56.5H73.2138L72.1338 59.04C72.1071 59.0933 72.0471 59.2333 71.9538 59.46C71.7271 59.9533 71.5538 60.3733 71.4338 60.72C71.3138 61.0533 71.2404 61.4067 71.2138 61.78H71.1538C71.1538 61.5 71.1071 61.2333 71.0138 60.98C70.9338 60.7133 70.8138 60.3867 70.6538 60L70.6138 59.9L69.0938 56.5H65.9538L69.4938 63.9L65.8138 71.5H68.8738L70.1138 68.74C70.1671 68.62 70.2071 68.5333 70.2338 68.48C70.4738 67.9333 70.6604 67.4733 70.7938 67.1C70.9271 66.7267 71.0204 66.34 71.0738 65.94H71.1138C71.2338 66.58 71.4271 67.2133 71.6938 67.84L73.2938 71.5H76.4938L72.7738 63.9ZM84.127 66.16C84.127 66.2533 84.1204 66.4067 84.107 66.62C84.107 66.9933 84.0937 67.34 84.067 67.66C84.0404 67.9667 83.9804 68.2733 83.887 68.58C83.7937 68.8733 83.6537 69.12 83.467 69.32C83.2804 69.5067 83.027 69.6 82.707 69.6C82.2537 69.6 81.887 69.5 81.607 69.3C81.3404 69.0867 81.1404 68.82 81.007 68.5C80.8737 68.1667 80.787 67.8267 80.747 67.48C80.707 67.1333 80.687 66.7533 80.687 66.34V62.18C80.687 61.62 80.707 61.1333 80.747 60.72C80.787 60.2933 80.8737 59.9067 81.007 59.56C81.1404 59.2 81.3404 58.92 81.607 58.72C81.887 58.5067 82.2537 58.4 82.707 58.4C82.987 58.4 83.2137 58.4667 83.387 58.6C83.5604 58.7333 83.687 58.9133 83.767 59.14C83.8604 59.3667 83.927 59.5933 83.967 59.82C84.007 60.0333 84.0404 60.32 84.067 60.68C84.0804 60.92 84.0937 61.08 84.107 61.16H86.867C86.867 60.7867 86.847 60.4067 86.807 60.02C86.607 57.4733 85.2404 56.18 82.707 56.14C81.627 56.14 80.7604 56.3 80.107 56.62C79.4537 56.94 78.967 57.3933 78.647 57.98C78.3404 58.5533 78.1337 59.2133 78.027 59.96C77.9204 60.6933 77.847 61.64 77.807 62.8V64.94C77.807 66.1267 77.8537 67.1133 77.947 67.9C78.0404 68.6733 78.247 69.36 78.567 69.96C78.887 70.56 79.3804 71.0267 80.047 71.36C80.7137 71.6933 81.6004 71.86 82.707 71.86C83.467 71.86 84.107 71.74 84.627 71.5C85.147 71.26 85.567 70.9267 85.887 70.5C86.207 70.06 86.4404 69.5533 86.587 68.98C86.747 68.4067 86.847 67.7533 86.887 67.02C86.887 66.9667 86.9004 66.82 86.927 66.58C86.9404 66.34 86.947 66.2 86.947 66.16H84.127ZM96.9803 71.5V69.3H91.9003V64.68H96.5803V62.48H91.9003V58.7H96.9803V56.5H89.1003V71.5H96.9803ZM107.6 61.06V60.9C107.6 60.3267 107.567 59.8 107.5 59.32C107.434 58.84 107.26 58.3533 106.98 57.86C106.714 57.3667 106.274 56.96 105.66 56.64C105.06 56.3067 104.254 56.14 103.24 56.14C101.774 56.14 100.674 56.48 99.9403 57.16C99.207 57.8267 98.8403 58.8067 98.8403 60.1C98.8403 60.9267 99.0803 61.6933 99.5603 62.4C99.907 62.84 100.294 63.2333 100.72 63.58C101.16 63.9267 101.74 64.3333 102.46 64.8C103.154 65.2533 103.66 65.6067 103.98 65.86C104.354 66.1133 104.634 66.4 104.82 66.72C105.007 67.04 105.1 67.4133 105.1 67.84C105.1 69.0133 104.52 69.6 103.36 69.6C102.734 69.6 102.28 69.3867 102 68.96C101.734 68.5333 101.6 67.9067 101.6 67.08V66.2H98.8003V67.3C98.8003 67.9933 98.8803 68.62 99.0403 69.18C99.2136 69.7267 99.4803 70.2 99.8403 70.6C100.2 71 100.674 71.3067 101.26 71.52C101.847 71.7467 102.547 71.86 103.36 71.86C104.76 71.86 105.88 71.4867 106.72 70.74C107.56 69.9933 107.98 68.9267 107.98 67.54C107.98 66.8733 107.887 66.3 107.7 65.82C107.514 65.3267 107.187 64.8533 106.72 64.4C106.534 64.2133 106.287 64.0067 105.98 63.78C105.687 63.5533 105.394 63.34 105.1 63.14C104.807 62.9267 104.52 62.7267 104.24 62.54C103.96 62.3533 103.654 62.1533 103.32 61.94L103.28 61.92C102.734 61.56 102.334 61.2467 102.08 60.98C101.84 60.7 101.72 60.3067 101.72 59.8C101.72 59.3067 101.854 58.9533 102.12 58.74C102.387 58.5133 102.767 58.4 103.26 58.4C103.927 58.4 104.367 58.6267 104.58 59.08C104.794 59.5333 104.9 60.1933 104.9 61.06H107.6ZM110.154 64.94C110.154 66.1267 110.2 67.1133 110.294 67.9C110.387 68.6733 110.594 69.36 110.914 69.96C111.234 70.56 111.727 71.0267 112.394 71.36C113.06 71.6933 113.947 71.86 115.054 71.86C116.16 71.86 117.047 71.6933 117.714 71.36C118.38 71.0267 118.874 70.56 119.194 69.96C119.514 69.36 119.72 68.6733 119.814 67.9C119.907 67.1133 119.954 66.1267 119.954 64.94V62.8C119.914 61.64 119.84 60.6933 119.734 59.96C119.627 59.2133 119.414 58.5533 119.094 57.98C118.787 57.3933 118.307 56.94 117.654 56.62C117 56.3 116.134 56.14 115.054 56.14C113.974 56.14 113.107 56.3 112.454 56.62C111.8 56.94 111.314 57.3933 110.994 57.98C110.687 58.5533 110.48 59.2133 110.374 59.96C110.267 60.6933 110.194 61.64 110.154 62.8V64.94ZM113.034 62.18C113.034 61.62 113.054 61.1333 113.094 60.72C113.134 60.2933 113.22 59.9067 113.354 59.56C113.487 59.2 113.687 58.92 113.954 58.72C114.234 58.5067 114.6 58.4 115.054 58.4C115.52 58.4 115.894 58.5267 116.174 58.78C116.454 59.02 116.654 59.3333 116.774 59.72C116.907 60.0933 116.987 60.48 117.014 60.88C117.054 61.28 117.074 61.74 117.074 62.26V66.1C117.074 66.6067 117.054 67.04 117.014 67.4C116.987 67.76 116.914 68.1133 116.794 68.46C116.674 68.7933 116.467 69.0667 116.174 69.28C115.894 69.4933 115.52 69.6 115.054 69.6C114.6 69.6 114.234 69.5 113.954 69.3C113.687 69.0867 113.487 68.82 113.354 68.5C113.22 68.1667 113.134 67.8267 113.094 67.48C113.054 67.1333 113.034 66.7533 113.034 66.34V62.18ZM130.4 69.3V58.7H132.24C133.053 58.7 133.593 59.0667 133.86 59.8C134.14 60.52 134.28 61.8 134.28 63.64C134.28 64.8667 134.253 65.82 134.2 66.5C134.16 67.1667 134.053 67.7067 133.88 68.12C133.707 68.5333 133.44 68.8333 133.08 69.02C132.733 69.2067 132.247 69.3 131.62 69.3H130.4ZM132.78 71.5C133.22 71.5 133.607 71.4733 133.94 71.42C134.273 71.3667 134.58 71.26 134.86 71.1C135.407 70.78 135.84 70.3467 136.16 69.8C136.48 69.2533 136.707 68.64 136.84 67.96C136.987 67.2667 137.073 66.58 137.1 65.9C137.14 65.22 137.16 64.38 137.16 63.38C137.16 62.06 137.1 60.9933 136.98 60.18C136.86 59.3533 136.647 58.6933 136.34 58.2C135.953 57.5733 135.447 57.1133 134.82 56.82C134.58 56.7 134.34 56.62 134.1 56.58C133.86 56.5267 133.64 56.5 133.44 56.5H127.6V71.5H132.78ZM147.547 71.5V69.3H142.467V64.68H147.147V62.48H142.467V58.7H147.547V56.5H139.667V71.5H147.547ZM156.567 71.5L157.307 67.7H160.587L161.327 71.5H164.327L160.927 56.5H157.147L153.567 71.5H156.567ZM158.587 61.24C158.667 60.8667 158.747 60.3 158.827 59.54L158.867 59.16C158.88 58.9067 158.913 58.5733 158.967 58.16H159.007C159.06 58.5733 159.093 58.9067 159.107 59.16L159.147 59.54C159.227 60.3 159.307 60.8667 159.387 61.24L160.147 65.5H157.747L158.587 61.24ZM173.86 71.5V69.3H168.66V56.5H165.86V71.5H173.86ZM181.92 66.16C181.92 66.2533 181.913 66.4067 181.9 66.62C181.9 66.9933 181.887 67.34 181.86 67.66C181.833 67.9667 181.773 68.2733 181.68 68.58C181.587 68.8733 181.447 69.12 181.26 69.32C181.073 69.5067 180.82 69.6 180.5 69.6C180.047 69.6 179.68 69.5 179.4 69.3C179.133 69.0867 178.933 68.82 178.8 68.5C178.667 68.1667 178.58 67.8267 178.54 67.48C178.5 67.1333 178.48 66.7533 178.48 66.34V62.18C178.48 61.62 178.5 61.1333 178.54 60.72C178.58 60.2933 178.667 59.9067 178.8 59.56C178.933 59.2 179.133 58.92 179.4 58.72C179.68 58.5067 180.047 58.4 180.5 58.4C180.78 58.4 181.007 58.4667 181.18 58.6C181.353 58.7333 181.48 58.9133 181.56 59.14C181.653 59.3667 181.72 59.5933 181.76 59.82C181.8 60.0333 181.833 60.32 181.86 60.68C181.873 60.92 181.887 61.08 181.9 61.16H184.66C184.66 60.7867 184.64 60.4067 184.6 60.02C184.4 57.4733 183.033 56.18 180.5 56.14C179.42 56.14 178.553 56.3 177.9 56.62C177.247 56.94 176.76 57.3933 176.44 57.98C176.133 58.5533 175.927 59.2133 175.82 59.96C175.713 60.6933 175.64 61.64 175.6 62.8V64.94C175.6 66.1267 175.647 67.1133 175.74 67.9C175.833 68.6733 176.04 69.36 176.36 69.96C176.68 70.56 177.173 71.0267 177.84 71.36C178.507 71.6933 179.393 71.86 180.5 71.86C181.26 71.86 181.9 71.74 182.42 71.5C182.94 71.26 183.36 70.9267 183.68 70.5C184 70.06 184.233 69.5533 184.38 68.98C184.54 68.4067 184.64 67.7533 184.68 67.02C184.68 66.9667 184.693 66.82 184.72 66.58C184.733 66.34 184.74 66.2 184.74 66.16H181.92ZM186.833 64.94C186.833 66.1267 186.88 67.1133 186.973 67.9C187.067 68.6733 187.273 69.36 187.593 69.96C187.913 70.56 188.407 71.0267 189.073 71.36C189.74 71.6933 190.627 71.86 191.733 71.86C192.84 71.86 193.727 71.6933 194.393 71.36C195.06 71.0267 195.553 70.56 195.873 69.96C196.193 69.36 196.4 68.6733 196.493 67.9C196.587 67.1133 196.633 66.1267 196.633 64.94V62.8C196.593 61.64 196.52 60.6933 196.413 59.96C196.307 59.2133 196.093 58.5533 195.773 57.98C195.467 57.3933 194.987 56.94 194.333 56.62C193.68 56.3 192.813 56.14 191.733 56.14C190.653 56.14 189.787 56.3 189.133 56.62C188.48 56.94 187.993 57.3933 187.673 57.98C187.367 58.5533 187.16 59.2133 187.053 59.96C186.947 60.6933 186.873 61.64 186.833 62.8V64.94ZM189.713 62.18C189.713 61.62 189.733 61.1333 189.773 60.72C189.813 60.2933 189.9 59.9067 190.033 59.56C190.167 59.2 190.367 58.92 190.633 58.72C190.913 58.5067 191.28 58.4 191.733 58.4C192.2 58.4 192.573 58.5267 192.853 58.78C193.133 59.02 193.333 59.3333 193.453 59.72C193.587 60.0933 193.667 60.48 193.693 60.88C193.733 61.28 193.753 61.74 193.753 62.26V66.1C193.753 66.6067 193.733 67.04 193.693 67.4C193.667 67.76 193.593 68.1133 193.473 68.46C193.353 68.7933 193.147 69.0667 192.853 69.28C192.573 69.4933 192.2 69.6 191.733 69.6C191.28 69.6 190.913 69.5 190.633 69.3C190.367 69.0867 190.167 68.82 190.033 68.5C189.9 68.1667 189.813 67.8267 189.773 67.48C189.733 67.1333 189.713 66.7533 189.713 66.34V62.18ZM202 71.5V64.64H205.92V71.5H208.72V56.5H205.92V62.44H202V56.5H199.2V71.5H202ZM211.286 64.94C211.286 66.1267 211.333 67.1133 211.426 67.9C211.52 68.6733 211.726 69.36 212.046 69.96C212.366 70.56 212.86 71.0267 213.526 71.36C214.193 71.6933 215.08 71.86 216.186 71.86C217.293 71.86 218.18 71.6933 218.846 71.36C219.513 71.0267 220.006 70.56 220.326 69.96C220.646 69.36 220.853 68.6733 220.946 67.9C221.04 67.1133 221.086 66.1267 221.086 64.94V62.8C221.046 61.64 220.973 60.6933 220.866 59.96C220.76 59.2133 220.546 58.5533 220.226 57.98C219.92 57.3933 219.44 56.94 218.786 56.62C218.133 56.3 217.266 56.14 216.186 56.14C215.106 56.14 214.24 56.3 213.586 56.62C212.933 56.94 212.446 57.3933 212.126 57.98C211.82 58.5533 211.613 59.2133 211.506 59.96C211.4 60.6933 211.326 61.64 211.286 62.8V64.94ZM214.166 62.18C214.166 61.62 214.186 61.1333 214.226 60.72C214.266 60.2933 214.353 59.9067 214.486 59.56C214.62 59.2 214.82 58.92 215.086 58.72C215.366 58.5067 215.733 58.4 216.186 58.4C216.653 58.4 217.026 58.5267 217.306 58.78C217.586 59.02 217.786 59.3333 217.906 59.72C218.04 60.0933 218.12 60.48 218.146 60.88C218.186 61.28 218.206 61.74 218.206 62.26V66.1C218.206 66.6067 218.186 67.04 218.146 67.4C218.12 67.76 218.046 68.1133 217.926 68.46C217.806 68.7933 217.6 69.0667 217.306 69.28C217.026 69.4933 216.653 69.6 216.186 69.6C215.733 69.6 215.366 69.5 215.086 69.3C214.82 69.0867 214.62 68.82 214.486 68.5C214.353 68.1667 214.266 67.8267 214.226 67.48C214.186 67.1333 214.166 66.7533 214.166 66.34V62.18ZM231.653 71.5V69.3H226.453V56.5H223.653V71.5H231.653ZM246.453 71.5V69.3H241.373V64.68H246.053V62.48H241.373V58.7H246.453V56.5H238.573V71.5H246.453ZM257.073 61.06V60.9C257.073 60.3267 257.04 59.8 256.973 59.32C256.906 58.84 256.733 58.3533 256.453 57.86C256.186 57.3667 255.746 56.96 255.133 56.64C254.533 56.3067 253.726 56.14 252.713 56.14C251.246 56.14 250.146 56.48 249.413 57.16C248.68 57.8267 248.313 58.8067 248.313 60.1C248.313 60.9267 248.553 61.6933 249.033 62.4C249.38 62.84 249.766 63.2333 250.193 63.58C250.633 63.9267 251.213 64.3333 251.933 64.8C252.626 65.2533 253.133 65.6067 253.453 65.86C253.826 66.1133 254.106 66.4 254.293 66.72C254.48 67.04 254.573 67.4133 254.573 67.84C254.573 69.0133 253.993 69.6 252.833 69.6C252.206 69.6 251.753 69.3867 251.473 68.96C251.206 68.5333 251.073 67.9067 251.073 67.08V66.2H248.273V67.3C248.273 67.9933 248.353 68.62 248.513 69.18C248.686 69.7267 248.953 70.2 249.313 70.6C249.673 71 250.146 71.3067 250.733 71.52C251.32 71.7467 252.02 71.86 252.833 71.86C254.233 71.86 255.353 71.4867 256.193 70.74C257.033 69.9933 257.453 68.9267 257.453 67.54C257.453 66.8733 257.36 66.3 257.173 65.82C256.986 65.3267 256.66 64.8533 256.193 64.4C256.006 64.2133 255.76 64.0067 255.453 63.78C255.16 63.5533 254.866 63.34 254.573 63.14C254.28 62.9267 253.993 62.7267 253.713 62.54C253.433 62.3533 253.126 62.1533 252.793 61.94L252.753 61.92C252.206 61.56 251.806 61.2467 251.553 60.98C251.313 60.7 251.193 60.3067 251.193 59.8C251.193 59.3067 251.326 58.9533 251.593 58.74C251.86 58.5133 252.24 58.4 252.733 58.4C253.4 58.4 253.84 58.6267 254.053 59.08C254.266 59.5333 254.373 60.1933 254.373 61.06H257.073ZM21.5018 78.7H22.7818C23.6351 78.7 24.2218 78.8267 24.5418 79.08C24.8751 79.3333 25.0418 79.8667 25.0418 80.68C25.0418 81.5333 24.8685 82.14 24.5218 82.5C24.1751 82.8467 23.6685 83.02 23.0018 83.02H21.5018V78.7ZM21.5018 91.5V85.22H23.3818C24.0218 85.22 24.6018 85.1533 25.1218 85.02C25.6551 84.8733 26.1218 84.64 26.5218 84.32C27.0151 83.9333 27.3685 83.4267 27.5818 82.8C27.8085 82.16 27.9218 81.48 27.9218 80.76C27.9218 80.2 27.8618 79.6733 27.7418 79.18C27.6218 78.6733 27.4218 78.22 27.1418 77.82C26.8751 77.4067 26.5151 77.0867 26.0618 76.86C25.6085 76.62 25.0618 76.5 24.4218 76.5H18.7018V91.5H21.5018ZM37.6151 91.5V89.3H32.5351V84.68H37.2151V82.48H32.5351V78.7H37.6151V76.5H29.7351V91.5H37.6151ZM43.0751 85.04C43.6751 85.04 44.1484 85.0533 44.4951 85.08C44.8417 85.0933 45.1617 85.1467 45.4551 85.24C45.6684 85.3067 45.8417 85.42 45.9751 85.58C46.1084 85.7267 46.2017 85.9067 46.2551 86.12C46.3217 86.3333 46.3617 86.5467 46.3751 86.76C46.3884 86.96 46.4017 87.2333 46.4151 87.58V87.7C46.4151 87.7267 46.4151 87.92 46.4151 88.28C46.4284 89.0133 46.4484 89.6467 46.4751 90.18C46.5151 90.7133 46.5951 91.1533 46.7151 91.5H49.7951V91.22C49.6617 91.14 49.5551 90.9467 49.4751 90.64C49.3951 90.32 49.3351 89.94 49.2951 89.5C49.2551 89.0467 49.2284 88.5867 49.2151 88.12C49.2017 87.64 49.1951 87.0933 49.1951 86.48C49.1951 85.7067 49.0284 85.0867 48.6951 84.62C48.3751 84.1533 47.8217 83.8667 47.0351 83.76V83.72C47.4884 83.6533 47.8617 83.5133 48.1551 83.3C48.4617 83.0733 48.7017 82.7933 48.8751 82.46C49.0484 82.1267 49.1684 81.7667 49.2351 81.38C49.3017 80.98 49.3351 80.5533 49.3351 80.1C49.3351 79.4333 49.2284 78.8667 49.0151 78.4C48.8151 77.9333 48.5217 77.56 48.1351 77.28C47.7617 77 47.3151 76.8 46.7951 76.68C46.2884 76.56 45.7151 76.5 45.0751 76.5H39.7751V91.5H42.5751V85.04H43.0751ZM42.5751 78.7H44.6551C45.2551 78.7133 45.6951 78.8533 45.9751 79.12C46.2684 79.3733 46.4151 79.8933 46.4151 80.68C46.4151 81.3867 46.2617 81.92 45.9551 82.28C45.6617 82.6267 45.2684 82.8133 44.7751 82.84H42.5751V78.7ZM50.8416 86.74C50.8416 86.8467 50.8416 86.9733 50.8416 87.12C50.8283 87.2933 50.8216 87.4267 50.8216 87.52C50.8216 88.1333 50.855 88.7 50.9216 89.22C51.0016 89.74 51.1083 90.1067 51.2416 90.32C51.6016 90.8667 52.035 91.26 52.5416 91.5C53.0483 91.74 53.575 91.86 54.1216 91.86C54.935 91.86 55.615 91.7933 56.1616 91.66C56.7083 91.54 57.1683 91.28 57.5416 90.88C57.8883 90.5067 58.1083 90.06 58.2016 89.54C58.3083 89.0067 58.3616 88.3067 58.3616 87.44V76.5H55.5616V88.02C55.5616 88.5533 55.5016 88.9533 55.3816 89.22C55.275 89.4733 54.995 89.6 54.5416 89.6C54.2216 89.6 53.995 89.5133 53.8616 89.34C53.7283 89.1533 53.655 88.9067 53.6416 88.6V86.74H50.8416ZM67.6484 86.72C67.6484 87.16 67.6284 87.54 67.5884 87.86C67.5617 88.18 67.4817 88.4733 67.3484 88.74C67.2284 88.9933 67.035 89.2 66.7684 89.36C66.515 89.52 66.1684 89.6 65.7284 89.6C65.275 89.6 64.9084 89.52 64.6284 89.36C64.3617 89.2 64.1617 88.9933 64.0284 88.74C63.9084 88.4733 63.8284 88.18 63.7884 87.86C63.7484 87.54 63.7284 87.16 63.7284 86.72V76.5H60.9284V86.96C60.9284 88.68 61.275 89.9267 61.9684 90.7C62.675 91.4733 63.9217 91.86 65.7084 91.86C67.4817 91.86 68.715 91.4733 69.4084 90.7C70.1017 89.9267 70.4484 88.68 70.4484 86.96V76.5H67.6484V86.72ZM76.0349 89.3V78.7H77.8749C78.6883 78.7 79.2283 79.0667 79.4949 79.8C79.7749 80.52 79.9149 81.8 79.9149 83.64C79.9149 84.8667 79.8883 85.82 79.8349 86.5C79.7949 87.1667 79.6883 87.7067 79.5149 88.12C79.3416 88.5333 79.0749 88.8333 78.7149 89.02C78.3683 89.2067 77.8816 89.3 77.2549 89.3H76.0349ZM78.4149 91.5C78.8549 91.5 79.2416 91.4733 79.5749 91.42C79.9083 91.3667 80.2149 91.26 80.4949 91.1C81.0416 90.78 81.4749 90.3467 81.7949 89.8C82.1149 89.2533 82.3416 88.64 82.4749 87.96C82.6216 87.2667 82.7083 86.58 82.7349 85.9C82.7749 85.22 82.7949 84.38 82.7949 83.38C82.7949 82.06 82.7349 80.9933 82.6149 80.18C82.4949 79.3533 82.2816 78.6933 81.9749 78.2C81.5883 77.5733 81.0816 77.1133 80.4549 76.82C80.2149 76.7 79.9749 76.62 79.7349 76.58C79.4949 76.5267 79.2749 76.5 79.0749 76.5H73.2349V91.5H78.4149ZM88.2015 91.5V76.5H85.4015V91.5H88.2015ZM97.0079 86.16C97.0079 86.2533 97.0012 86.4067 96.9879 86.62C96.9879 86.9933 96.9746 87.34 96.9479 87.66C96.9212 87.9667 96.8612 88.2733 96.7679 88.58C96.6746 88.8733 96.5346 89.12 96.3479 89.32C96.1612 89.5067 95.9079 89.6 95.5879 89.6C95.1346 89.6 94.7679 89.5 94.4879 89.3C94.2212 89.0867 94.0212 88.82 93.8879 88.5C93.7546 88.1667 93.6679 87.8267 93.6279 87.48C93.5879 87.1333 93.5679 86.7533 93.5679 86.34V82.18C93.5679 81.62 93.5879 81.1333 93.6279 80.72C93.6679 80.2933 93.7546 79.9067 93.8879 79.56C94.0212 79.2 94.2212 78.92 94.4879 78.72C94.7679 78.5067 95.1346 78.4 95.5879 78.4C95.8679 78.4 96.0946 78.4667 96.2679 78.6C96.4412 78.7333 96.5679 78.9133 96.6479 79.14C96.7412 79.3667 96.8079 79.5933 96.8479 79.82C96.8879 80.0333 96.9212 80.32 96.9479 80.68C96.9612 80.92 96.9746 81.08 96.9879 81.16H99.7479C99.7479 80.7867 99.7279 80.4067 99.6879 80.02C99.4879 77.4733 98.1212 76.18 95.5879 76.14C94.5079 76.14 93.6412 76.3 92.9879 76.62C92.3346 76.94 91.8479 77.3933 91.5279 77.98C91.2212 78.5533 91.0146 79.2133 90.9079 79.96C90.8012 80.6933 90.7279 81.64 90.6879 82.8V84.94C90.6879 86.1267 90.7346 87.1133 90.8279 87.9C90.9212 88.6733 91.1279 89.36 91.4479 89.96C91.7679 90.56 92.2612 91.0267 92.9279 91.36C93.5946 91.6933 94.4812 91.86 95.5879 91.86C96.3479 91.86 96.9879 91.74 97.5079 91.5C98.0279 91.26 98.4479 90.9267 98.7679 90.5C99.0879 90.06 99.3212 89.5533 99.4679 88.98C99.6279 88.4067 99.7279 87.7533 99.7679 87.02C99.7679 86.9667 99.7812 86.82 99.8079 86.58C99.8212 86.34 99.8279 86.2 99.8279 86.16H97.0079ZM104.881 91.5V76.5H102.081V91.5H104.881ZM109.448 91.5L110.188 87.7H113.468L114.208 91.5H117.208L113.808 76.5H110.028L106.448 91.5H109.448ZM111.468 81.24C111.548 80.8667 111.628 80.3 111.708 79.54L111.748 79.16C111.761 78.9067 111.794 78.5733 111.848 78.16H111.888C111.941 78.5733 111.974 78.9067 111.988 79.16L112.028 79.54C112.108 80.3 112.188 80.8667 112.268 81.24L113.028 85.5H110.628L111.468 81.24ZM126.741 91.5V89.3H121.541V76.5H118.741V91.5H126.741ZM136.541 78.7H137.821C138.674 78.7 139.261 78.8267 139.581 79.08C139.914 79.3333 140.081 79.8667 140.081 80.68C140.081 81.5333 139.908 82.14 139.561 82.5C139.214 82.8467 138.708 83.02 138.041 83.02H136.541V78.7ZM136.541 91.5V85.22H138.421C139.061 85.22 139.641 85.1533 140.161 85.02C140.694 84.8733 141.161 84.64 141.561 84.32C142.054 83.9333 142.408 83.4267 142.621 82.8C142.848 82.16 142.961 81.48 142.961 80.76C142.961 80.2 142.901 79.6733 142.781 79.18C142.661 78.6733 142.461 78.22 142.181 77.82C141.914 77.4067 141.554 77.0867 141.101 76.86C140.648 76.62 140.101 76.5 139.461 76.5H133.741V91.5H136.541ZM145.932 91.5L146.672 87.7H149.952L150.692 91.5H153.692L150.292 76.5H146.512L142.932 91.5H145.932ZM147.952 81.24C148.032 80.8667 148.112 80.3 148.192 79.54L148.232 79.16C148.245 78.9067 148.279 78.5733 148.332 78.16H148.372C148.425 78.5733 148.459 78.9067 148.472 79.16L148.512 79.54C148.592 80.3 148.672 80.8667 148.752 81.24L149.512 85.5H147.112L147.952 81.24ZM158.485 85.04C159.085 85.04 159.559 85.0533 159.905 85.08C160.252 85.0933 160.572 85.1467 160.865 85.24C161.079 85.3067 161.252 85.42 161.385 85.58C161.519 85.7267 161.612 85.9067 161.665 86.12C161.732 86.3333 161.772 86.5467 161.785 86.76C161.799 86.96 161.812 87.2333 161.825 87.58V87.7C161.825 87.7267 161.825 87.92 161.825 88.28C161.839 89.0133 161.859 89.6467 161.885 90.18C161.925 90.7133 162.005 91.1533 162.125 91.5H165.205V91.22C165.072 91.14 164.965 90.9467 164.885 90.64C164.805 90.32 164.745 89.94 164.705 89.5C164.665 89.0467 164.639 88.5867 164.625 88.12C164.612 87.64 164.605 87.0933 164.605 86.48C164.605 85.7067 164.439 85.0867 164.105 84.62C163.785 84.1533 163.232 83.8667 162.445 83.76V83.72C162.899 83.6533 163.272 83.5133 163.565 83.3C163.872 83.0733 164.112 82.7933 164.285 82.46C164.459 82.1267 164.579 81.7667 164.645 81.38C164.712 80.98 164.745 80.5533 164.745 80.1C164.745 79.4333 164.639 78.8667 164.425 78.4C164.225 77.9333 163.932 77.56 163.545 77.28C163.172 77 162.725 76.8 162.205 76.68C161.699 76.56 161.125 76.5 160.485 76.5H155.185V91.5H157.985V85.04H158.485ZM157.985 78.7H160.065C160.665 78.7133 161.105 78.8533 161.385 79.12C161.679 79.3733 161.825 79.8933 161.825 80.68C161.825 81.3867 161.672 81.92 161.365 82.28C161.072 82.6267 160.679 82.8133 160.185 82.84H157.985V78.7ZM169.272 91.5L170.012 87.7H173.292L174.032 91.5H177.032L173.632 76.5H169.852L166.272 91.5H169.272ZM171.292 81.24C171.372 80.8667 171.452 80.3 171.532 79.54L171.572 79.16C171.585 78.9067 171.618 78.5733 171.672 78.16H171.712C171.765 78.5733 171.798 78.9067 171.812 79.16L171.852 79.54C171.932 80.3 172.012 80.8667 172.092 81.24L172.852 85.5H170.452L171.292 81.24ZM191.565 91.5V89.3H186.365V76.5H183.565V91.5H191.565ZM195.385 91.5L196.125 87.7H199.405L200.145 91.5H203.145L199.745 76.5H195.965L192.385 91.5H195.385ZM197.405 81.24C197.485 80.8667 197.565 80.3 197.645 79.54L197.685 79.16C197.698 78.9067 197.732 78.5733 197.785 78.16H197.825C197.878 78.5733 197.912 78.9067 197.925 79.16L197.965 79.54C198.045 80.3 198.125 80.8667 198.205 81.24L198.965 85.5H196.565L197.405 81.24ZM218.098 81.06V80.9C218.098 80.3267 218.065 79.8 217.998 79.32C217.932 78.84 217.758 78.3533 217.478 77.86C217.212 77.3667 216.772 76.96 216.158 76.64C215.558 76.3067 214.752 76.14 213.738 76.14C212.272 76.14 211.172 76.48 210.438 77.16C209.705 77.8267 209.338 78.8067 209.338 80.1C209.338 80.9267 209.578 81.6933 210.058 82.4C210.405 82.84 210.792 83.2333 211.218 83.58C211.658 83.9267 212.238 84.3333 212.958 84.8C213.652 85.2533 214.158 85.6067 214.478 85.86C214.852 86.1133 215.132 86.4 215.318 86.72C215.505 87.04 215.598 87.4133 215.598 87.84C215.598 89.0133 215.018 89.6 213.858 89.6C213.232 89.6 212.778 89.3867 212.498 88.96C212.232 88.5333 212.098 87.9067 212.098 87.08V86.2H209.298V87.3C209.298 87.9933 209.378 88.62 209.538 89.18C209.712 89.7267 209.978 90.2 210.338 90.6C210.698 91 211.172 91.3067 211.758 91.52C212.345 91.7467 213.045 91.86 213.858 91.86C215.258 91.86 216.378 91.4867 217.218 90.74C218.058 89.9933 218.478 88.9267 218.478 87.54C218.478 86.8733 218.385 86.3 218.198 85.82C218.012 85.3267 217.685 84.8533 217.218 84.4C217.032 84.2133 216.785 84.0067 216.478 83.78C216.185 83.5533 215.892 83.34 215.598 83.14C215.305 82.9267 215.018 82.7267 214.738 82.54C214.458 82.3533 214.152 82.1533 213.818 81.94L213.778 81.92C213.232 81.56 212.832 81.2467 212.578 80.98C212.338 80.7 212.218 80.3067 212.218 79.8C212.218 79.3067 212.352 78.9533 212.618 78.74C212.885 78.5133 213.265 78.4 213.758 78.4C214.425 78.4 214.865 78.6267 215.078 79.08C215.292 79.5333 215.398 80.1933 215.398 81.06H218.098ZM222.612 91.5L223.352 87.7H226.632L227.372 91.5H230.372L226.972 76.5H223.192L219.612 91.5H222.612ZM224.632 81.24C224.712 80.8667 224.792 80.3 224.872 79.54L224.912 79.16C224.925 78.9067 224.958 78.5733 225.012 78.16H225.052C225.105 78.5733 225.138 78.9067 225.152 79.16L225.192 79.54C225.272 80.3 225.352 80.8667 225.432 81.24L226.192 85.5H223.792L224.632 81.24ZM239.905 91.5V89.3H234.705V76.5H231.905V91.5H239.905ZM248.625 86.72C248.625 87.16 248.605 87.54 248.565 87.86C248.538 88.18 248.458 88.4733 248.325 88.74C248.205 88.9933 248.012 89.2 247.745 89.36C247.492 89.52 247.145 89.6 246.705 89.6C246.252 89.6 245.885 89.52 245.605 89.36C245.338 89.2 245.138 88.9933 245.005 88.74C244.885 88.4733 244.805 88.18 244.765 87.86C244.725 87.54 244.705 87.16 244.705 86.72V76.5H241.905V86.96C241.905 88.68 242.252 89.9267 242.945 90.7C243.652 91.4733 244.898 91.86 246.685 91.86C248.458 91.86 249.692 91.4733 250.385 90.7C251.078 89.9267 251.425 88.68 251.425 86.96V76.5H248.625V86.72ZM257.011 89.3V78.7H258.851C259.665 78.7 260.205 79.0667 260.471 79.8C260.751 80.52 260.891 81.8 260.891 83.64C260.891 84.8667 260.865 85.82 260.811 86.5C260.771 87.1667 260.665 87.7067 260.491 88.12C260.318 88.5333 260.051 88.8333 259.691 89.02C259.345 89.2067 258.858 89.3 258.231 89.3H257.011ZM259.391 91.5C259.831 91.5 260.218 91.4733 260.551 91.42C260.885 91.3667 261.191 91.26 261.471 91.1C262.018 90.78 262.451 90.3467 262.771 89.8C263.091 89.2533 263.318 88.64 263.451 87.96C263.598 87.2667 263.685 86.58 263.711 85.9C263.751 85.22 263.771 84.38 263.771 83.38C263.771 82.06 263.711 80.9933 263.591 80.18C263.471 79.3533 263.258 78.6933 262.951 78.2C262.565 77.5733 262.058 77.1133 261.431 76.82C261.191 76.7 260.951 76.62 260.711 76.58C260.471 76.5267 260.251 76.5 260.051 76.5H254.211V91.5H259.391ZM269.658 91.5V88.86H267.018V91.5H269.658Z" fill="white"/>
<path d="M2.6155 114.5V103.076H5.5275C6.5195 103.076 9.0635 103.076 9.0635 106.356C9.0635 108.484 7.7035 109.668 5.7675 109.668H4.0235V114.5H2.6155ZM4.0235 104.228V108.516H5.7035C6.7275 108.516 7.5915 107.812 7.5915 106.292C7.5915 105.044 6.9995 104.228 5.6075 104.228H4.0235ZM10.3186 114.5V103.076H14.0146C15.8066 103.076 16.9426 104.132 16.9426 105.94C16.9426 107.188 16.5106 108.5 15.1826 108.82V108.852C16.1746 108.964 16.7346 109.78 16.7986 110.756L16.8946 112.708C16.9586 113.972 17.1666 114.292 17.5026 114.5H15.8066C15.5666 114.26 15.4546 113.412 15.4226 112.852L15.3266 111.076C15.2146 109.508 14.3506 109.412 13.6306 109.412H11.7266V114.5H10.3186ZM11.7266 104.228V108.26H13.1186C13.9506 108.26 15.4706 108.26 15.4706 106.052C15.4706 104.932 14.7186 104.228 13.4066 104.228H11.7266ZM22.1355 102.852C25.2875 102.852 25.8155 105.908 25.8155 108.788C25.8155 111.668 25.2875 114.724 22.1355 114.724C18.9835 114.724 18.4555 111.668 18.4555 108.788C18.4555 105.908 18.9835 102.852 22.1355 102.852ZM22.1355 104.004C20.1835 104.004 19.9275 106.148 19.9275 108.788C19.9275 111.428 20.1835 113.572 22.1355 113.572C24.0875 113.572 24.3435 111.428 24.3435 108.788C24.3435 106.148 24.0875 104.004 22.1355 104.004ZM34.2421 103.076V114.5H32.8341V108.996H28.9141V114.5H27.5061V103.076H28.9141V107.748H32.8341V103.076H34.2421ZM36.0999 114.5V103.076H37.5079V114.5H36.0999ZM36.0039 102.452L37.1239 100.18H38.6919L36.9639 102.452H36.0039ZM40.7735 109.06V113.348H42.6935C44.1815 113.348 44.6935 112.34 44.6935 111.236C44.6935 109.668 43.6855 109.06 42.4535 109.06H40.7735ZM39.3655 114.5V103.076H42.8695C44.3575 103.076 45.7975 103.78 45.7975 106.004C45.7975 107.044 45.1735 108.084 44.1335 108.388V108.42C45.5415 108.756 46.1655 109.828 46.1655 111.236C46.1655 113.556 44.8535 114.5 42.4695 114.5H39.3655ZM40.7735 104.228V108.004H42.3895C42.9815 108.004 44.3255 107.86 44.3255 106.1C44.3255 104.916 43.7335 104.228 42.3575 104.228H40.7735ZM46.6064 114.5L49.9024 103.076H51.7904L54.8624 114.5H53.3904L52.5744 111.364H48.9264L48.0784 114.5H46.6064ZM50.7984 104.692L49.2144 110.212H52.2864L50.8304 104.692H50.7984ZM61.9184 106.036H60.5104C60.5104 104.836 60.0784 104.004 58.7344 104.004C57.5504 104.004 56.8464 104.644 56.8464 105.86C56.8464 109.076 62.2384 107.156 62.2384 111.332C62.2384 113.972 60.3024 114.724 58.6864 114.724C56.0144 114.724 55.2304 113.348 55.2304 110.916H56.6384C56.6384 112.196 56.7184 113.572 58.7824 113.572C59.9024 113.572 60.7664 112.772 60.7664 111.556C60.7664 108.324 55.3744 110.196 55.3744 106.004C55.3744 104.948 55.8224 102.852 58.7184 102.852C60.8944 102.852 61.8864 103.94 61.9184 106.036ZM63.6624 114.5V103.076H69.5664V104.324H65.0704V107.908H69.3104V109.156H65.0704V113.252H69.7584V114.5H63.6624ZM74.9124 114.5V103.076H80.8164V104.324H76.3204V107.908H80.5604V109.156H76.3204V113.252H81.0084V114.5H74.9124ZM82.3186 114.5V103.076H83.7266V113.252H88.3666V114.5H82.3186ZM93.2718 114.5V103.076H99.1758V104.324H94.6798V107.908H98.9198V109.156H94.6798V113.252H99.3678V114.5H93.2718ZM102.822 108.692L100.006 103.076H101.574L103.654 107.348L105.75 103.076H107.222L104.374 108.692L107.414 114.5H105.846L103.574 109.924L101.254 114.5H99.782L102.822 108.692ZM108.381 114.5V103.076H111.293C112.285 103.076 114.829 103.076 114.829 106.356C114.829 108.484 113.469 109.668 111.533 109.668H109.789V114.5H108.381ZM109.789 104.228V108.516H111.469C112.493 108.516 113.357 107.812 113.357 106.292C113.357 105.044 112.765 104.228 111.373 104.228H109.789ZM116.084 114.5V103.076H121.988V104.324H117.492V107.908H121.732V109.156H117.492V113.252H122.18V114.5H116.084ZM123.491 114.5V103.076H125.315L129.091 112.612H129.123V103.076H130.531V114.5H128.595L124.931 105.252H124.899V114.5H123.491ZM133.933 104.228V113.348H135.405C137.837 113.348 138.109 110.852 138.109 108.804C138.109 106.596 137.965 104.228 135.405 104.228H133.933ZM132.525 114.5V103.076H135.581C139.133 103.076 139.581 105.636 139.581 108.788C139.581 111.668 138.861 114.5 135.725 114.5H132.525ZM141.272 114.5V103.076H142.68V114.5H141.272ZM148.057 102.852C151.209 102.852 151.737 105.908 151.737 108.788C151.737 111.668 151.209 114.724 148.057 114.724C144.905 114.724 144.377 111.668 144.377 108.788C144.377 105.908 144.905 102.852 148.057 102.852ZM148.057 104.004C146.105 104.004 145.849 106.148 145.849 108.788C145.849 111.428 146.105 113.572 148.057 113.572C150.009 113.572 150.265 111.428 150.265 108.788C150.265 106.148 150.009 104.004 148.057 104.004ZM158.824 104.228V113.348H160.296C162.728 113.348 163 110.852 163 108.804C163 106.596 162.856 104.228 160.296 104.228H158.824ZM157.416 114.5V103.076H160.472C164.024 103.076 164.472 105.636 164.472 108.788C164.472 111.668 163.752 114.5 160.616 114.5H157.416ZM166.162 114.5V103.076H172.066V104.324H167.57V107.908H171.81V109.156H167.57V113.252H172.258V114.5H166.162ZM178.82 109.06V113.348H180.74C182.228 113.348 182.74 112.34 182.74 111.236C182.74 109.668 181.732 109.06 180.5 109.06H178.82ZM177.412 114.5V103.076H180.916C182.404 103.076 183.844 103.78 183.844 106.004C183.844 107.044 183.22 108.084 182.18 108.388V108.42C183.588 108.756 184.212 109.828 184.212 111.236C184.212 113.556 182.9 114.5 180.516 114.5H177.412ZM178.82 104.228V108.004H180.436C181.028 108.004 182.372 107.86 182.372 106.1C182.372 104.916 181.78 104.228 180.404 104.228H178.82ZM185.709 114.5V103.076H191.613V104.324H187.117V107.908H191.357V109.156H187.117V113.252H191.805V114.5H185.709ZM194.524 109.06V113.348H196.444C197.932 113.348 198.444 112.34 198.444 111.236C198.444 109.668 197.436 109.06 196.204 109.06H194.524ZM193.116 114.5V103.076H196.62C198.108 103.076 199.548 103.78 199.548 106.004C199.548 107.044 198.924 108.084 197.884 108.388V108.42C199.292 108.756 199.916 109.828 199.916 111.236C199.916 113.556 198.604 114.5 196.22 114.5H193.116ZM194.524 104.228V108.004H196.14C196.732 108.004 198.076 107.86 198.076 106.1C198.076 104.916 197.484 104.228 196.108 104.228H194.524ZM201.412 114.5V103.076H202.82V114.5H201.412ZM206.23 104.228V113.348H207.702C210.134 113.348 210.406 110.852 210.406 108.804C210.406 106.596 210.262 104.228 207.702 104.228H206.23ZM204.822 114.5V103.076H207.878C211.43 103.076 211.878 105.636 211.878 108.788C211.878 111.668 211.158 114.5 208.022 114.5H204.822ZM212.513 114.5L215.809 103.076H217.697L220.769 114.5H219.297L218.481 111.364H214.833L213.985 114.5H212.513ZM216.705 104.692L215.121 110.212H218.193L216.737 104.692H216.705ZM227.825 106.036H226.417C226.417 104.836 225.985 104.004 224.641 104.004C223.457 104.004 222.753 104.644 222.753 105.86C222.753 109.076 228.145 107.156 228.145 111.332C228.145 113.972 226.209 114.724 224.593 114.724C221.921 114.724 221.137 113.348 221.137 110.916H222.545C222.545 112.196 222.625 113.572 224.689 113.572C225.809 113.572 226.673 112.772 226.673 111.556C226.673 108.324 221.281 110.196 221.281 106.004C221.281 104.948 221.729 102.852 224.625 102.852C226.801 102.852 227.793 103.94 227.825 106.036ZM233.412 114.5V103.076H239.316V104.324H234.82V107.908H239.06V109.156H234.82V113.252H239.508V114.5H233.412ZM240.851 114.5V103.076H243.219L245.507 112.132H245.539L247.827 103.076H250.195V114.5H248.787V104.516H248.755L246.227 114.5H244.819L242.291 104.516H242.259V114.5H240.851ZM253.492 109.06V113.348H255.412C256.9 113.348 257.412 112.34 257.412 111.236C257.412 109.668 256.404 109.06 255.172 109.06H253.492ZM252.084 114.5V103.076H255.588C257.076 103.076 258.516 103.78 258.516 106.004C258.516 107.044 257.892 108.084 256.852 108.388V108.42C258.26 108.756 258.884 109.828 258.884 111.236C258.884 113.556 257.572 114.5 255.188 114.5H252.084ZM253.492 104.228V108.004H255.108C255.7 108.004 257.044 107.86 257.044 106.1C257.044 104.916 256.452 104.228 255.076 104.228H253.492ZM260.381 114.5V103.076H264.077C265.869 103.076 267.005 104.132 267.005 105.94C267.005 107.188 266.573 108.5 265.245 108.82V108.852C266.237 108.964 266.797 109.78 266.861 110.756L266.957 112.708C267.021 113.972 267.229 114.292 267.565 114.5H265.869C265.629 114.26 265.517 113.412 265.485 112.852L265.389 111.076C265.277 109.508 264.413 109.412 263.693 109.412H261.789V114.5H260.381ZM261.789 104.228V108.26H263.181C264.013 108.26 265.533 108.26 265.533 106.052C265.533 104.932 264.781 104.228 263.469 104.228H261.789ZM268.678 114.5V103.076H270.086V114.5H268.678ZM270.888 114.5L274.184 103.076H276.072L279.144 114.5H277.672L276.856 111.364H273.208L272.36 114.5H270.888ZM275.08 104.692L273.496 110.212H276.568L275.112 104.692H275.08ZM286.84 106.244H285.368C285.304 105.044 284.856 104.004 283.464 104.004C281.512 104.004 281.256 106.148 281.256 108.788C281.256 111.428 281.512 113.572 283.464 113.572C285.416 113.572 285.56 111.236 285.56 109.716H283.304V108.564H286.84V114.5H285.784V112.948H285.752C285.448 113.924 284.536 114.724 283.288 114.724C280.312 114.724 279.784 111.86 279.784 108.788C279.784 105.908 280.312 102.852 283.464 102.852C286.744 102.852 286.824 105.652 286.84 106.244ZM287.481 114.5L290.777 103.076H292.665L295.737 114.5H294.265L293.449 111.364H289.801L288.953 114.5H287.481ZM291.673 104.692L290.089 110.212H293.161L291.705 104.692H291.673ZM296.537 114.5V103.076H298.361L302.137 112.612H302.169V103.076H303.577V114.5H301.641L297.977 105.252H297.945V114.5H296.537ZM308.9 104.324V114.5H307.492V104.324H304.628V103.076H311.78V104.324H308.9ZM312.834 114.5V103.076H318.738V104.324H314.242V107.908H318.482V109.156H314.242V113.252H318.93V114.5H312.834ZM326.497 106.036H325.089C325.089 104.836 324.657 104.004 323.312 104.004C322.129 104.004 321.424 104.644 321.424 105.86C321.424 109.076 326.817 107.156 326.817 111.332C326.817 113.972 324.881 114.724 323.265 114.724C320.593 114.724 319.809 113.348 319.809 110.916H321.217C321.217 112.196 321.297 113.572 323.361 113.572C324.481 113.572 325.345 112.772 325.345 111.556C325.345 108.324 319.953 110.196 319.953 106.004C319.953 104.948 320.401 102.852 323.297 102.852C325.473 102.852 326.465 103.94 326.497 106.036ZM98.1611 132.5L101.457 121.076H103.345L106.417 132.5H104.945L104.129 129.364H100.481L99.6331 132.5H98.1611ZM102.353 122.692L100.769 128.212H103.841L102.385 122.692H102.353ZM111.093 132.5V121.076H113.461L115.749 130.132H115.781L118.069 121.076H120.437V132.5H119.029V122.516H118.997L116.469 132.5H115.061L112.533 122.516H112.501V132.5H111.093ZM122.326 132.5V121.076H128.23V122.324H123.734V125.908H127.974V127.156H123.734V131.252H128.422V132.5H122.326ZM129.733 132.5V121.076H131.557L135.333 130.612H135.365V121.076H136.773V132.5H134.837L131.173 123.252H131.141V132.5H129.733ZM142.143 120.852C145.295 120.852 145.823 123.908 145.823 126.788C145.823 129.668 145.295 132.724 142.143 132.724C138.991 132.724 138.463 129.668 138.463 126.788C138.463 123.908 138.991 120.852 142.143 120.852ZM142.143 122.004C140.191 122.004 139.935 124.148 139.935 126.788C139.935 129.428 140.191 131.572 142.143 131.572C144.095 131.572 144.351 129.428 144.351 126.788C144.351 124.148 144.095 122.004 142.143 122.004ZM147.514 132.5V121.076H151.21C153.002 121.076 154.138 122.132 154.138 123.94C154.138 125.188 153.706 126.5 152.378 126.82V126.852C153.37 126.964 153.93 127.78 153.994 128.756L154.09 130.708C154.154 131.972 154.362 132.292 154.698 132.5H153.002C152.762 132.26 152.65 131.412 152.618 130.852L152.522 129.076C152.41 127.508 151.546 127.412 150.826 127.412H148.922V132.5H147.514ZM148.922 122.228V126.26H150.314C151.146 126.26 152.666 126.26 152.666 124.052C152.666 122.932 151.914 122.228 150.602 122.228H148.922ZM155.811 132.5V121.076H161.715V122.324H157.219V125.908H161.459V127.156H157.219V131.252H161.907V132.5H155.811ZM169.473 124.036H168.065C168.065 122.836 167.633 122.004 166.289 122.004C165.105 122.004 164.401 122.644 164.401 123.86C164.401 127.076 169.793 125.156 169.793 129.332C169.793 131.972 167.857 132.724 166.241 132.724C163.569 132.724 162.785 131.348 162.785 128.916H164.193C164.193 130.196 164.273 131.572 166.337 131.572C167.457 131.572 168.321 130.772 168.321 129.556C168.321 126.324 162.929 128.196 162.929 124.004C162.929 122.948 163.377 120.852 166.273 120.852C168.449 120.852 169.441 121.94 169.473 124.036ZM176.613 122.228V131.348H178.085C180.517 131.348 180.789 128.852 180.789 126.804C180.789 124.596 180.645 122.228 178.085 122.228H176.613ZM175.205 132.5V121.076H178.261C181.813 121.076 182.261 123.636 182.261 126.788C182.261 129.668 181.541 132.5 178.405 132.5H175.205ZM183.951 132.5V121.076H189.855V122.324H185.359V125.908H189.599V127.156H185.359V131.252H190.047V132.5H183.951ZM195.201 132.5V121.076H201.105V122.324H196.609V125.908H200.849V127.156H196.609V131.252H201.297V132.5H195.201ZM204.16 122.228V131.348H205.632C208.064 131.348 208.336 128.852 208.336 126.804C208.336 124.596 208.192 122.228 205.632 122.228H204.16ZM202.752 132.5V121.076H205.808C209.36 121.076 209.808 123.636 209.808 126.788C209.808 129.668 209.088 132.5 205.952 132.5H202.752ZM210.442 132.5L213.738 121.076H215.626L218.698 132.5H217.226L216.41 129.364H212.762L211.914 132.5H210.442ZM214.634 122.692L213.05 128.212H216.122L214.666 122.692H214.634ZM221.05 122.228V131.348H222.522C224.954 131.348 225.226 128.852 225.226 126.804C225.226 124.596 225.082 122.228 222.522 122.228H221.05ZM219.642 132.5V121.076H222.698C226.25 121.076 226.698 123.636 226.698 126.788C226.698 129.668 225.978 132.5 222.842 132.5H219.642ZM228.645 132.5V130.804H230.117V132.5H228.645Z" fill="white"/>
</svg>
