<svg width="489" height="42" viewBox="0 0 489 42" fill="none" xmlns="http://www.w3.org/2000/svg">
<path d="M9.16 18V15.8H4.08V11.18H8.76V8.98H4.08V5.2H9.16V3H1.28V18H9.16ZM19.36 18V15.8H14.16V3H11.36V18H19.36ZM34.16 18V15.8H29.08V11.18H33.76V8.98H29.08V5.2H34.16V3H26.28V18H34.16ZM42.18 10.4L45.78 3H42.62L41.54 5.54C41.5133 5.59333 41.4533 5.73333 41.36 5.96C41.1333 6.45333 40.96 6.87333 40.84 7.22C40.72 7.55333 40.6467 7.90667 40.62 8.28H40.56C40.56 8 40.5133 7.73333 40.42 7.48C40.34 7.21333 40.22 6.88667 40.06 6.5L40.02 6.4L38.5 3H35.36L38.9 10.4L35.22 18H38.28L39.52 15.24C39.5733 15.12 39.6133 15.0333 39.64 14.98C39.88 14.4333 40.0667 13.9733 40.2 13.6C40.3333 13.2267 40.4267 12.84 40.48 12.44H40.52C40.64 13.08 40.8333 13.7133 41.1 14.34L42.7 18H45.9L42.18 10.4ZM53.5333 12.66C53.5333 12.7533 53.5266 12.9067 53.5133 13.12C53.5133 13.4933 53.4999 13.84 53.4733 14.16C53.4466 14.4667 53.3866 14.7733 53.2933 15.08C53.1999 15.3733 53.0599 15.62 52.8733 15.82C52.6866 16.0067 52.4333 16.1 52.1133 16.1C51.6599 16.1 51.2933 16 51.0133 15.8C50.7466 15.5867 50.5466 15.32 50.4133 15C50.2799 14.6667 50.1933 14.3267 50.1533 13.98C50.1133 13.6333 50.0933 13.2533 50.0933 12.84V8.68C50.0933 8.12 50.1133 7.63333 50.1533 7.22C50.1933 6.79333 50.2799 6.40667 50.4133 6.06C50.5466 5.7 50.7466 5.42 51.0133 5.22C51.2933 5.00667 51.6599 4.9 52.1133 4.9C52.3933 4.9 52.6199 4.96667 52.7933 5.1C52.9666 5.23333 53.0933 5.41333 53.1733 5.64C53.2666 5.86667 53.3333 6.09333 53.3733 6.32C53.4133 6.53333 53.4466 6.82 53.4733 7.18C53.4866 7.42 53.4999 7.58 53.5133 7.66H56.2733C56.2733 7.28667 56.2533 6.90667 56.2133 6.52C56.0133 3.97333 54.6466 2.68 52.1133 2.64C51.0333 2.64 50.1666 2.8 49.5133 3.12C48.8599 3.44 48.3733 3.89333 48.0533 4.48C47.7466 5.05333 47.5399 5.71333 47.4333 6.46C47.3266 7.19333 47.2533 8.14 47.2133 9.3V11.44C47.2133 12.6267 47.2599 13.6133 47.3533 14.4C47.4466 15.1733 47.6533 15.86 47.9733 16.46C48.2933 17.06 48.7866 17.5267 49.4533 17.86C50.1199 18.1933 51.0066 18.36 52.1133 18.36C52.8733 18.36 53.5133 18.24 54.0333 18C54.5533 17.76 54.9733 17.4267 55.2933 17C55.6133 16.56 55.8466 16.0533 55.9933 15.48C56.1533 14.9067 56.2533 14.2533 56.2933 13.52C56.2933 13.4667 56.3066 13.32 56.3333 13.08C56.3466 12.84 56.3533 12.7 56.3533 12.66H53.5333ZM66.3866 18V15.8H61.3066V11.18H65.9866V8.98H61.3066V5.2H66.3866V3H58.5066V18H66.3866ZM77.0066 7.56V7.4C77.0066 6.82667 76.9732 6.3 76.9066 5.82C76.8399 5.34 76.6666 4.85333 76.3866 4.36C76.1199 3.86667 75.6799 3.46 75.0666 3.14C74.4666 2.80667 73.6599 2.64 72.6466 2.64C71.1799 2.64 70.0799 2.98 69.3466 3.66C68.6132 4.32667 68.2466 5.30667 68.2466 6.6C68.2466 7.42667 68.4866 8.19333 68.9666 8.9C69.3132 9.34 69.6999 9.73333 70.1266 10.08C70.5666 10.4267 71.1466 10.8333 71.8666 11.3C72.5599 11.7533 73.0666 12.1067 73.3866 12.36C73.7599 12.6133 74.0399 12.9 74.2266 13.22C74.4132 13.54 74.5066 13.9133 74.5066 14.34C74.5066 15.5133 73.9266 16.1 72.7666 16.1C72.1399 16.1 71.6866 15.8867 71.4066 15.46C71.1399 15.0333 71.0066 14.4067 71.0066 13.58V12.7H68.2066V13.8C68.2066 14.4933 68.2866 15.12 68.4466 15.68C68.6199 16.2267 68.8866 16.7 69.2466 17.1C69.6066 17.5 70.0799 17.8067 70.6666 18.02C71.2532 18.2467 71.9532 18.36 72.7666 18.36C74.1666 18.36 75.2866 17.9867 76.1266 17.24C76.9666 16.4933 77.3866 15.4267 77.3866 14.04C77.3866 13.3733 77.2932 12.8 77.1066 12.32C76.9199 11.8267 76.5932 11.3533 76.1266 10.9C75.9399 10.7133 75.6932 10.5067 75.3866 10.28C75.0932 10.0533 74.7999 9.84 74.5066 9.64C74.2132 9.42667 73.9266 9.22667 73.6466 9.04C73.3666 8.85333 73.0599 8.65333 72.7266 8.44L72.6866 8.42C72.1399 8.06 71.7399 7.74667 71.4866 7.48C71.2466 7.2 71.1266 6.80667 71.1266 6.3C71.1266 5.80667 71.2599 5.45333 71.5266 5.24C71.7932 5.01333 72.1732 4.9 72.6666 4.9C73.3332 4.9 73.7732 5.12667 73.9866 5.58C74.1999 6.03333 74.3066 6.69333 74.3066 7.56H77.0066ZM79.5598 11.44C79.5598 12.6267 79.6065 13.6133 79.6998 14.4C79.7932 15.1733 79.9998 15.86 80.3198 16.46C80.6398 17.06 81.1332 17.5267 81.7998 17.86C82.4665 18.1933 83.3532 18.36 84.4598 18.36C85.5665 18.36 86.4532 18.1933 87.1198 17.86C87.7865 17.5267 88.2798 17.06 88.5998 16.46C88.9198 15.86 89.1265 15.1733 89.2198 14.4C89.3132 13.6133 89.3598 12.6267 89.3598 11.44V9.3C89.3198 8.14 89.2465 7.19333 89.1398 6.46C89.0332 5.71333 88.8198 5.05333 88.4998 4.48C88.1932 3.89333 87.7132 3.44 87.0598 3.12C86.4065 2.8 85.5398 2.64 84.4598 2.64C83.3798 2.64 82.5132 2.8 81.8598 3.12C81.2065 3.44 80.7198 3.89333 80.3998 4.48C80.0932 5.05333 79.8865 5.71333 79.7798 6.46C79.6732 7.19333 79.5998 8.14 79.5598 9.3V11.44ZM82.4398 8.68C82.4398 8.12 82.4598 7.63333 82.4998 7.22C82.5398 6.79333 82.6265 6.40667 82.7598 6.06C82.8932 5.7 83.0932 5.42 83.3598 5.22C83.6398 5.00667 84.0065 4.9 84.4598 4.9C84.9265 4.9 85.2998 5.02667 85.5798 5.28C85.8598 5.52 86.0598 5.83333 86.1798 6.22C86.3132 6.59333 86.3932 6.98 86.4198 7.38C86.4598 7.78 86.4798 8.24 86.4798 8.76V12.6C86.4798 13.1067 86.4598 13.54 86.4198 13.9C86.3932 14.26 86.3198 14.6133 86.1998 14.96C86.0798 15.2933 85.8732 15.5667 85.5798 15.78C85.2998 15.9933 84.9265 16.1 84.4598 16.1C84.0065 16.1 83.6398 16 83.3598 15.8C83.0932 15.5867 82.8932 15.32 82.7598 15C82.6265 14.6667 82.5398 14.3267 82.4998 13.98C82.4598 13.6333 82.4398 13.2533 82.4398 12.84V8.68ZM99.8064 15.8V5.2H101.646C102.46 5.2 103 5.56667 103.266 6.3C103.546 7.02 103.686 8.3 103.686 10.14C103.686 11.3667 103.66 12.32 103.606 13C103.566 13.6667 103.46 14.2067 103.286 14.62C103.113 15.0333 102.846 15.3333 102.486 15.52C102.14 15.7067 101.653 15.8 101.026 15.8H99.8064ZM102.186 18C102.626 18 103.013 17.9733 103.346 17.92C103.68 17.8667 103.986 17.76 104.266 17.6C104.813 17.28 105.246 16.8467 105.566 16.3C105.886 15.7533 106.113 15.14 106.246 14.46C106.393 13.7667 106.48 13.08 106.506 12.4C106.546 11.72 106.566 10.88 106.566 9.88C106.566 8.56 106.506 7.49333 106.386 6.68C106.266 5.85333 106.053 5.19333 105.746 4.7C105.36 4.07333 104.853 3.61333 104.226 3.32C103.986 3.2 103.746 3.12 103.506 3.08C103.266 3.02667 103.046 3 102.846 3H97.0064V18H102.186ZM116.953 18V15.8H111.873V11.18H116.553V8.98H111.873V5.2H116.953V3H109.073V18H116.953ZM125.973 18L126.713 14.2H129.993L130.733 18H133.733L130.333 3H126.553L122.973 18H125.973ZM127.993 7.74C128.073 7.36667 128.153 6.8 128.233 6.04L128.273 5.66C128.286 5.40667 128.32 5.07333 128.373 4.66H128.413C128.466 5.07333 128.5 5.40667 128.513 5.66L128.553 6.04C128.633 6.8 128.713 7.36667 128.793 7.74L129.553 12H127.153L127.993 7.74ZM143.266 18V15.8H138.066V3H135.266V18H143.266ZM151.326 12.66C151.326 12.7533 151.32 12.9067 151.306 13.12C151.306 13.4933 151.293 13.84 151.266 14.16C151.24 14.4667 151.18 14.7733 151.086 15.08C150.993 15.3733 150.853 15.62 150.666 15.82C150.48 16.0067 150.226 16.1 149.906 16.1C149.453 16.1 149.086 16 148.806 15.8C148.54 15.5867 148.34 15.32 148.206 15C148.073 14.6667 147.986 14.3267 147.946 13.98C147.906 13.6333 147.886 13.2533 147.886 12.84V8.68C147.886 8.12 147.906 7.63333 147.946 7.22C147.986 6.79333 148.073 6.40667 148.206 6.06C148.34 5.7 148.54 5.42 148.806 5.22C149.086 5.00667 149.453 4.9 149.906 4.9C150.186 4.9 150.413 4.96667 150.586 5.1C150.76 5.23333 150.886 5.41333 150.966 5.64C151.06 5.86667 151.126 6.09333 151.166 6.32C151.206 6.53333 151.24 6.82 151.266 7.18C151.28 7.42 151.293 7.58 151.306 7.66H154.066C154.066 7.28667 154.046 6.90667 154.006 6.52C153.806 3.97333 152.44 2.68 149.906 2.64C148.826 2.64 147.96 2.8 147.306 3.12C146.653 3.44 146.166 3.89333 145.846 4.48C145.54 5.05333 145.333 5.71333 145.226 6.46C145.12 7.19333 145.046 8.14 145.006 9.3V11.44C145.006 12.6267 145.053 13.6133 145.146 14.4C145.24 15.1733 145.446 15.86 145.766 16.46C146.086 17.06 146.58 17.5267 147.246 17.86C147.913 18.1933 148.8 18.36 149.906 18.36C150.666 18.36 151.306 18.24 151.826 18C152.346 17.76 152.766 17.4267 153.086 17C153.406 16.56 153.64 16.0533 153.786 15.48C153.946 14.9067 154.046 14.2533 154.086 13.52C154.086 13.4667 154.1 13.32 154.126 13.08C154.14 12.84 154.146 12.7 154.146 12.66H151.326ZM156.24 11.44C156.24 12.6267 156.286 13.6133 156.38 14.4C156.473 15.1733 156.68 15.86 157 16.46C157.32 17.06 157.813 17.5267 158.48 17.86C159.146 18.1933 160.033 18.36 161.14 18.36C162.246 18.36 163.133 18.1933 163.8 17.86C164.466 17.5267 164.96 17.06 165.28 16.46C165.6 15.86 165.806 15.1733 165.9 14.4C165.993 13.6133 166.04 12.6267 166.04 11.44V9.3C166 8.14 165.926 7.19333 165.82 6.46C165.713 5.71333 165.5 5.05333 165.18 4.48C164.873 3.89333 164.393 3.44 163.74 3.12C163.086 2.8 162.22 2.64 161.14 2.64C160.06 2.64 159.193 2.8 158.54 3.12C157.886 3.44 157.4 3.89333 157.08 4.48C156.773 5.05333 156.566 5.71333 156.46 6.46C156.353 7.19333 156.28 8.14 156.24 9.3V11.44ZM159.12 8.68C159.12 8.12 159.14 7.63333 159.18 7.22C159.22 6.79333 159.306 6.40667 159.44 6.06C159.573 5.7 159.773 5.42 160.04 5.22C160.32 5.00667 160.686 4.9 161.14 4.9C161.606 4.9 161.98 5.02667 162.26 5.28C162.54 5.52 162.74 5.83333 162.86 6.22C162.993 6.59333 163.073 6.98 163.1 7.38C163.14 7.78 163.16 8.24 163.16 8.76V12.6C163.16 13.1067 163.14 13.54 163.1 13.9C163.073 14.26 163 14.6133 162.88 14.96C162.76 15.2933 162.553 15.5667 162.26 15.78C161.98 15.9933 161.606 16.1 161.14 16.1C160.686 16.1 160.32 16 160.04 15.8C159.773 15.5867 159.573 15.32 159.44 15C159.306 14.6667 159.22 14.3267 159.18 13.98C159.14 13.6333 159.12 13.2533 159.12 12.84V8.68ZM171.406 18V11.14H175.326V18H178.126V3H175.326V8.94H171.406V3H168.606V18H171.406ZM180.693 11.44C180.693 12.6267 180.739 13.6133 180.833 14.4C180.926 15.1733 181.133 15.86 181.453 16.46C181.773 17.06 182.266 17.5267 182.933 17.86C183.599 18.1933 184.486 18.36 185.593 18.36C186.699 18.36 187.586 18.1933 188.253 17.86C188.919 17.5267 189.413 17.06 189.733 16.46C190.053 15.86 190.259 15.1733 190.353 14.4C190.446 13.6133 190.493 12.6267 190.493 11.44V9.3C190.453 8.14 190.379 7.19333 190.273 6.46C190.166 5.71333 189.953 5.05333 189.633 4.48C189.326 3.89333 188.846 3.44 188.193 3.12C187.539 2.8 186.673 2.64 185.593 2.64C184.513 2.64 183.646 2.8 182.993 3.12C182.339 3.44 181.853 3.89333 181.533 4.48C181.226 5.05333 181.019 5.71333 180.913 6.46C180.806 7.19333 180.733 8.14 180.693 9.3V11.44ZM183.573 8.68C183.573 8.12 183.593 7.63333 183.633 7.22C183.673 6.79333 183.759 6.40667 183.893 6.06C184.026 5.7 184.226 5.42 184.493 5.22C184.773 5.00667 185.139 4.9 185.593 4.9C186.059 4.9 186.433 5.02667 186.713 5.28C186.993 5.52 187.193 5.83333 187.313 6.22C187.446 6.59333 187.526 6.98 187.553 7.38C187.593 7.78 187.613 8.24 187.613 8.76V12.6C187.613 13.1067 187.593 13.54 187.553 13.9C187.526 14.26 187.453 14.6133 187.333 14.96C187.213 15.2933 187.006 15.5667 186.713 15.78C186.433 15.9933 186.059 16.1 185.593 16.1C185.139 16.1 184.773 16 184.493 15.8C184.226 15.5867 184.026 15.32 183.893 15C183.759 14.6667 183.673 14.3267 183.633 13.98C183.593 13.6333 183.573 13.2533 183.573 12.84V8.68ZM201.059 18V15.8H195.859V3H193.059V18H201.059ZM215.859 18V15.8H210.779V11.18H215.459V8.98H210.779V5.2H215.859V3H207.979V18H215.859ZM226.479 7.56V7.4C226.479 6.82667 226.446 6.3 226.379 5.82C226.313 5.34 226.139 4.85333 225.859 4.36C225.593 3.86667 225.153 3.46 224.539 3.14C223.939 2.80667 223.133 2.64 222.119 2.64C220.653 2.64 219.553 2.98 218.819 3.66C218.086 4.32667 217.719 5.30667 217.719 6.6C217.719 7.42667 217.959 8.19333 218.439 8.9C218.786 9.34 219.173 9.73333 219.599 10.08C220.039 10.4267 220.619 10.8333 221.339 11.3C222.033 11.7533 222.539 12.1067 222.859 12.36C223.233 12.6133 223.513 12.9 223.699 13.22C223.886 13.54 223.979 13.9133 223.979 14.34C223.979 15.5133 223.399 16.1 222.239 16.1C221.613 16.1 221.159 15.8867 220.879 15.46C220.613 15.0333 220.479 14.4067 220.479 13.58V12.7H217.679V13.8C217.679 14.4933 217.759 15.12 217.919 15.68C218.093 16.2267 218.359 16.7 218.719 17.1C219.079 17.5 219.553 17.8067 220.139 18.02C220.726 18.2467 221.426 18.36 222.239 18.36C223.639 18.36 224.759 17.9867 225.599 17.24C226.439 16.4933 226.859 15.4267 226.859 14.04C226.859 13.3733 226.766 12.8 226.579 12.32C226.393 11.8267 226.066 11.3533 225.599 10.9C225.413 10.7133 225.166 10.5067 224.859 10.28C224.566 10.0533 224.273 9.84 223.979 9.64C223.686 9.42667 223.399 9.22667 223.119 9.04C222.839 8.85333 222.533 8.65333 222.199 8.44L222.159 8.42C221.613 8.06 221.213 7.74667 220.959 7.48C220.719 7.2 220.599 6.80667 220.599 6.3C220.599 5.80667 220.733 5.45333 220.999 5.24C221.266 5.01333 221.646 4.9 222.139 4.9C222.806 4.9 223.246 5.12667 223.459 5.58C223.673 6.03333 223.779 6.69333 223.779 7.56H226.479ZM236.973 5.2H238.253C239.106 5.2 239.693 5.32667 240.013 5.58C240.346 5.83333 240.513 6.36667 240.513 7.18C240.513 8.03333 240.339 8.64 239.993 9C239.646 9.34667 239.139 9.52 238.473 9.52H236.973V5.2ZM236.973 18V11.72H238.853C239.493 11.72 240.073 11.6533 240.593 11.52C241.126 11.3733 241.593 11.14 241.993 10.82C242.486 10.4333 242.839 9.92667 243.053 9.3C243.279 8.66 243.393 7.98 243.393 7.26C243.393 6.7 243.333 6.17333 243.213 5.68C243.093 5.17333 242.893 4.72 242.613 4.32C242.346 3.90667 241.986 3.58667 241.533 3.36C241.079 3.12 240.533 3 239.893 3H234.173V18H236.973ZM253.086 18V15.8H248.006V11.18H252.686V8.98H248.006V5.2H253.086V3H245.206V18H253.086ZM258.546 11.54C259.146 11.54 259.619 11.5533 259.966 11.58C260.312 11.5933 260.632 11.6467 260.926 11.74C261.139 11.8067 261.312 11.92 261.446 12.08C261.579 12.2267 261.672 12.4067 261.726 12.62C261.792 12.8333 261.832 13.0467 261.846 13.26C261.859 13.46 261.872 13.7333 261.886 14.08V14.2C261.886 14.2267 261.886 14.42 261.886 14.78C261.899 15.5133 261.919 16.1467 261.946 16.68C261.986 17.2133 262.066 17.6533 262.186 18H265.266V17.72C265.132 17.64 265.026 17.4467 264.946 17.14C264.866 16.82 264.806 16.44 264.766 16C264.726 15.5467 264.699 15.0867 264.686 14.62C264.672 14.14 264.666 13.5933 264.666 12.98C264.666 12.2067 264.499 11.5867 264.166 11.12C263.846 10.6533 263.292 10.3667 262.506 10.26V10.22C262.959 10.1533 263.332 10.0133 263.626 9.8C263.932 9.57333 264.172 9.29333 264.346 8.96C264.519 8.62667 264.639 8.26667 264.706 7.88C264.772 7.48 264.806 7.05333 264.806 6.6C264.806 5.93333 264.699 5.36667 264.486 4.9C264.286 4.43333 263.992 4.06 263.606 3.78C263.232 3.5 262.786 3.3 262.266 3.18C261.759 3.06 261.186 3 260.546 3H255.246V18H258.046V11.54H258.546ZM258.046 5.2H260.126C260.726 5.21333 261.166 5.35333 261.446 5.62C261.739 5.87333 261.886 6.39333 261.886 7.18C261.886 7.88667 261.732 8.42 261.426 8.78C261.132 9.12667 260.739 9.31333 260.246 9.34H258.046V5.2ZM266.312 13.24C266.312 13.3467 266.312 13.4733 266.312 13.62C266.299 13.7933 266.292 13.9267 266.292 14.02C266.292 14.6333 266.326 15.2 266.392 15.72C266.472 16.24 266.579 16.6067 266.712 16.82C267.072 17.3667 267.506 17.76 268.012 18C268.519 18.24 269.046 18.36 269.592 18.36C270.406 18.36 271.086 18.2933 271.632 18.16C272.179 18.04 272.639 17.78 273.012 17.38C273.359 17.0067 273.579 16.56 273.672 16.04C273.779 15.5067 273.832 14.8067 273.832 13.94V3H271.032V14.52C271.032 15.0533 270.972 15.4533 270.852 15.72C270.746 15.9733 270.466 16.1 270.012 16.1C269.692 16.1 269.466 16.0133 269.332 15.84C269.199 15.6533 269.126 15.4067 269.112 15.1V13.24H266.312ZM283.119 13.22C283.119 13.66 283.099 14.04 283.059 14.36C283.032 14.68 282.952 14.9733 282.819 15.24C282.699 15.4933 282.506 15.7 282.239 15.86C281.986 16.02 281.639 16.1 281.199 16.1C280.746 16.1 280.379 16.02 280.099 15.86C279.832 15.7 279.632 15.4933 279.499 15.24C279.379 14.9733 279.299 14.68 279.259 14.36C279.219 14.04 279.199 13.66 279.199 13.22V3H276.399V13.46C276.399 15.18 276.746 16.4267 277.439 17.2C278.146 17.9733 279.392 18.36 281.179 18.36C282.952 18.36 284.186 17.9733 284.879 17.2C285.572 16.4267 285.919 15.18 285.919 13.46V3H283.119V13.22ZM291.506 15.8V5.2H293.346C294.159 5.2 294.699 5.56667 294.966 6.3C295.246 7.02 295.386 8.3 295.386 10.14C295.386 11.3667 295.359 12.32 295.306 13C295.266 13.6667 295.159 14.2067 294.986 14.62C294.812 15.0333 294.546 15.3333 294.186 15.52C293.839 15.7067 293.352 15.8 292.726 15.8H291.506ZM293.886 18C294.326 18 294.712 17.9733 295.046 17.92C295.379 17.8667 295.686 17.76 295.966 17.6C296.512 17.28 296.946 16.8467 297.266 16.3C297.586 15.7533 297.812 15.14 297.946 14.46C298.092 13.7667 298.179 13.08 298.206 12.4C298.246 11.72 298.266 10.88 298.266 9.88C298.266 8.56 298.206 7.49333 298.086 6.68C297.966 5.85333 297.752 5.19333 297.446 4.7C297.059 4.07333 296.552 3.61333 295.926 3.32C295.686 3.2 295.446 3.12 295.206 3.08C294.966 3.02667 294.746 3 294.546 3H288.706V18H293.886ZM303.672 18V3H300.872V18H303.672ZM312.479 12.66C312.479 12.7533 312.472 12.9067 312.459 13.12C312.459 13.4933 312.445 13.84 312.419 14.16C312.392 14.4667 312.332 14.7733 312.239 15.08C312.145 15.3733 312.005 15.62 311.819 15.82C311.632 16.0067 311.379 16.1 311.059 16.1C310.605 16.1 310.239 16 309.959 15.8C309.692 15.5867 309.492 15.32 309.359 15C309.225 14.6667 309.139 14.3267 309.099 13.98C309.059 13.6333 309.039 13.2533 309.039 12.84V8.68C309.039 8.12 309.059 7.63333 309.099 7.22C309.139 6.79333 309.225 6.40667 309.359 6.06C309.492 5.7 309.692 5.42 309.959 5.22C310.239 5.00667 310.605 4.9 311.059 4.9C311.339 4.9 311.565 4.96667 311.739 5.1C311.912 5.23333 312.039 5.41333 312.119 5.64C312.212 5.86667 312.279 6.09333 312.319 6.32C312.359 6.53333 312.392 6.82 312.419 7.18C312.432 7.42 312.445 7.58 312.459 7.66H315.219C315.219 7.28667 315.199 6.90667 315.159 6.52C314.959 3.97333 313.592 2.68 311.059 2.64C309.979 2.64 309.112 2.8 308.459 3.12C307.805 3.44 307.319 3.89333 306.999 4.48C306.692 5.05333 306.485 5.71333 306.379 6.46C306.272 7.19333 306.199 8.14 306.159 9.3V11.44C306.159 12.6267 306.205 13.6133 306.299 14.4C306.392 15.1733 306.599 15.86 306.919 16.46C307.239 17.06 307.732 17.5267 308.399 17.86C309.065 18.1933 309.952 18.36 311.059 18.36C311.819 18.36 312.459 18.24 312.979 18C313.499 17.76 313.919 17.4267 314.239 17C314.559 16.56 314.792 16.0533 314.939 15.48C315.099 14.9067 315.199 14.2533 315.239 13.52C315.239 13.4667 315.252 13.32 315.279 13.08C315.292 12.84 315.299 12.7 315.299 12.66H312.479ZM320.352 18V3H317.552V18H320.352ZM324.918 18L325.658 14.2H328.938L329.678 18H332.678L329.278 3H325.498L321.918 18H324.918ZM326.938 7.74C327.018 7.36667 327.098 6.8 327.178 6.04L327.218 5.66C327.232 5.40667 327.265 5.07333 327.318 4.66H327.358C327.412 5.07333 327.445 5.40667 327.458 5.66L327.498 6.04C327.578 6.8 327.658 7.36667 327.738 7.74L328.498 12H326.098L326.938 7.74ZM342.212 18V15.8H337.012V3H334.212V18H342.212ZM352.012 5.2H353.292C354.145 5.2 354.732 5.32667 355.052 5.58C355.385 5.83333 355.552 6.36667 355.552 7.18C355.552 8.03333 355.378 8.64 355.032 9C354.685 9.34667 354.178 9.52 353.512 9.52H352.012V5.2ZM352.012 18V11.72H353.892C354.532 11.72 355.112 11.6533 355.632 11.52C356.165 11.3733 356.632 11.14 357.032 10.82C357.525 10.4333 357.878 9.92667 358.092 9.3C358.318 8.66 358.432 7.98 358.432 7.26C358.432 6.7 358.372 6.17333 358.252 5.68C358.132 5.17333 357.932 4.72 357.652 4.32C357.385 3.90667 357.025 3.58667 356.572 3.36C356.118 3.12 355.572 3 354.932 3H349.212V18H352.012ZM361.403 18L362.143 14.2H365.423L366.163 18H369.163L365.763 3H361.983L358.403 18H361.403ZM363.423 7.74C363.503 7.36667 363.583 6.8 363.663 6.04L363.703 5.66C363.716 5.40667 363.749 5.07333 363.803 4.66H363.843C363.896 5.07333 363.929 5.40667 363.943 5.66L363.983 6.04C364.063 6.8 364.143 7.36667 364.223 7.74L364.983 12H362.583L363.423 7.74ZM373.956 11.54C374.556 11.54 375.029 11.5533 375.376 11.58C375.723 11.5933 376.043 11.6467 376.336 11.74C376.549 11.8067 376.723 11.92 376.856 12.08C376.989 12.2267 377.083 12.4067 377.136 12.62C377.203 12.8333 377.243 13.0467 377.256 13.26C377.269 13.46 377.283 13.7333 377.296 14.08V14.2C377.296 14.2267 377.296 14.42 377.296 14.78C377.309 15.5133 377.329 16.1467 377.356 16.68C377.396 17.2133 377.476 17.6533 377.596 18H380.676V17.72C380.543 17.64 380.436 17.4467 380.356 17.14C380.276 16.82 380.216 16.44 380.176 16C380.136 15.5467 380.109 15.0867 380.096 14.62C380.083 14.14 380.076 13.5933 380.076 12.98C380.076 12.2067 379.909 11.5867 379.576 11.12C379.256 10.6533 378.703 10.3667 377.916 10.26V10.22C378.369 10.1533 378.743 10.0133 379.036 9.8C379.343 9.57333 379.583 9.29333 379.756 8.96C379.929 8.62667 380.049 8.26667 380.116 7.88C380.183 7.48 380.216 7.05333 380.216 6.6C380.216 5.93333 380.109 5.36667 379.896 4.9C379.696 4.43333 379.403 4.06 379.016 3.78C378.643 3.5 378.196 3.3 377.676 3.18C377.169 3.06 376.596 3 375.956 3H370.656V18H373.456V11.54H373.956ZM373.456 5.2H375.536C376.136 5.21333 376.576 5.35333 376.856 5.62C377.149 5.87333 377.296 6.39333 377.296 7.18C377.296 7.88667 377.143 8.42 376.836 8.78C376.543 9.12667 376.149 9.31333 375.656 9.34H373.456V5.2ZM384.743 18L385.483 14.2H388.763L389.503 18H392.503L389.103 3H385.323L381.743 18H384.743ZM386.763 7.74C386.843 7.36667 386.923 6.8 387.003 6.04L387.043 5.66C387.056 5.40667 387.089 5.07333 387.143 4.66H387.183C387.236 5.07333 387.269 5.40667 387.283 5.66L387.323 6.04C387.403 6.8 387.483 7.36667 387.563 7.74L388.323 12H385.923L386.763 7.74ZM407.036 18V15.8H401.836V3H399.036V18H407.036ZM410.856 18L411.596 14.2H414.876L415.616 18H418.616L415.216 3H411.436L407.856 18H410.856ZM412.876 7.74C412.956 7.36667 413.036 6.8 413.116 6.04L413.156 5.66C413.169 5.40667 413.202 5.07333 413.256 4.66H413.296C413.349 5.07333 413.382 5.40667 413.396 5.66L413.436 6.04C413.516 6.8 413.596 7.36667 413.676 7.74L414.436 12H412.036L412.876 7.74ZM433.569 7.56V7.4C433.569 6.82667 433.536 6.3 433.469 5.82C433.402 5.34 433.229 4.85333 432.949 4.36C432.682 3.86667 432.242 3.46 431.629 3.14C431.029 2.80667 430.222 2.64 429.209 2.64C427.742 2.64 426.642 2.98 425.909 3.66C425.176 4.32667 424.809 5.30667 424.809 6.6C424.809 7.42667 425.049 8.19333 425.529 8.9C425.876 9.34 426.262 9.73333 426.689 10.08C427.129 10.4267 427.709 10.8333 428.429 11.3C429.122 11.7533 429.629 12.1067 429.949 12.36C430.322 12.6133 430.602 12.9 430.789 13.22C430.976 13.54 431.069 13.9133 431.069 14.34C431.069 15.5133 430.489 16.1 429.329 16.1C428.702 16.1 428.249 15.8867 427.969 15.46C427.702 15.0333 427.569 14.4067 427.569 13.58V12.7H424.769V13.8C424.769 14.4933 424.849 15.12 425.009 15.68C425.182 16.2267 425.449 16.7 425.809 17.1C426.169 17.5 426.642 17.8067 427.229 18.02C427.816 18.2467 428.516 18.36 429.329 18.36C430.729 18.36 431.849 17.9867 432.689 17.24C433.529 16.4933 433.949 15.4267 433.949 14.04C433.949 13.3733 433.856 12.8 433.669 12.32C433.482 11.8267 433.156 11.3533 432.689 10.9C432.502 10.7133 432.256 10.5067 431.949 10.28C431.656 10.0533 431.362 9.84 431.069 9.64C430.776 9.42667 430.489 9.22667 430.209 9.04C429.929 8.85333 429.622 8.65333 429.289 8.44L429.249 8.42C428.702 8.06 428.302 7.74667 428.049 7.48C427.809 7.2 427.689 6.80667 427.689 6.3C427.689 5.80667 427.822 5.45333 428.089 5.24C428.356 5.01333 428.736 4.9 429.229 4.9C429.896 4.9 430.336 5.12667 430.549 5.58C430.762 6.03333 430.869 6.69333 430.869 7.56H433.569ZM438.082 18L438.822 14.2H442.102L442.842 18H445.842L442.442 3H438.662L435.082 18H438.082ZM440.102 7.74C440.182 7.36667 440.262 6.8 440.342 6.04L440.382 5.66C440.396 5.40667 440.429 5.07333 440.482 4.66H440.522C440.576 5.07333 440.609 5.40667 440.622 5.66L440.662 6.04C440.742 6.8 440.822 7.36667 440.902 7.74L441.662 12H439.262L440.102 7.74ZM455.376 18V15.8H450.176V3H447.376V18H455.376ZM464.096 13.22C464.096 13.66 464.076 14.04 464.036 14.36C464.009 14.68 463.929 14.9733 463.796 15.24C463.676 15.4933 463.482 15.7 463.216 15.86C462.962 16.02 462.616 16.1 462.176 16.1C461.722 16.1 461.356 16.02 461.076 15.86C460.809 15.7 460.609 15.4933 460.476 15.24C460.356 14.9733 460.276 14.68 460.236 14.36C460.196 14.04 460.176 13.66 460.176 13.22V3H457.376V13.46C457.376 15.18 457.722 16.4267 458.416 17.2C459.122 17.9733 460.369 18.36 462.156 18.36C463.929 18.36 465.162 17.9733 465.856 17.2C466.549 16.4267 466.896 15.18 466.896 13.46V3H464.096V13.22ZM472.482 15.8V5.2H474.322C475.136 5.2 475.676 5.56667 475.942 6.3C476.222 7.02 476.362 8.3 476.362 10.14C476.362 11.3667 476.336 12.32 476.282 13C476.242 13.6667 476.136 14.2067 475.962 14.62C475.789 15.0333 475.522 15.3333 475.162 15.52C474.816 15.7067 474.329 15.8 473.702 15.8H472.482ZM474.862 18C475.302 18 475.689 17.9733 476.022 17.92C476.356 17.8667 476.662 17.76 476.942 17.6C477.489 17.28 477.922 16.8467 478.242 16.3C478.562 15.7533 478.789 15.14 478.922 14.46C479.069 13.7667 479.156 13.08 479.182 12.4C479.222 11.72 479.242 10.88 479.242 9.88C479.242 8.56 479.182 7.49333 479.062 6.68C478.942 5.85333 478.729 5.19333 478.422 4.7C478.036 4.07333 477.529 3.61333 476.902 3.32C476.662 3.2 476.422 3.12 476.182 3.08C475.942 3.02667 475.722 3 475.522 3H469.682V18H474.862ZM485.129 18V15.36H482.489V18H485.129Z" fill="white"/>
<path d="M0.928 37V25.576H3.84C4.832 25.576 7.376 25.576 7.376 28.856C7.376 30.984 6.016 32.168 4.08 32.168H2.336V37H0.928ZM2.336 26.728V31.016H4.016C5.04 31.016 5.904 30.312 5.904 28.792C5.904 27.544 5.312 26.728 3.92 26.728H2.336ZM8.63113 37V25.576H12.3271C14.1191 25.576 15.2551 26.632 15.2551 28.44C15.2551 29.688 14.8231 31 13.4951 31.32V31.352C14.4871 31.464 15.0471 32.28 15.1111 33.256L15.2071 35.208C15.2711 36.472 15.4791 36.792 15.8151 37H14.1191C13.8791 36.76 13.7671 35.912 13.7351 35.352L13.6391 33.576C13.5271 32.008 12.6631 31.912 11.9431 31.912H10.0391V37H8.63113ZM10.0391 26.728V30.76H11.4311C12.2631 30.76 13.7831 30.76 13.7831 28.552C13.7831 27.432 13.0311 26.728 11.7191 26.728H10.0391ZM20.448 25.352C23.6 25.352 24.128 28.408 24.128 31.288C24.128 34.168 23.6 37.224 20.448 37.224C17.296 37.224 16.768 34.168 16.768 31.288C16.768 28.408 17.296 25.352 20.448 25.352ZM20.448 26.504C18.496 26.504 18.24 28.648 18.24 31.288C18.24 33.928 18.496 36.072 20.448 36.072C22.4 36.072 22.656 33.928 22.656 31.288C22.656 28.648 22.4 26.504 20.448 26.504ZM32.5546 25.576V37H31.1466V31.496H27.2266V37H25.8186V25.576H27.2266V30.248H31.1466V25.576H32.5546ZM34.4124 37V25.576H35.8204V37H34.4124ZM34.3164 24.952L35.4364 22.68H37.0044L35.2764 24.952H34.3164ZM39.086 31.56V35.848H41.006C42.494 35.848 43.006 34.84 43.006 33.736C43.006 32.168 41.998 31.56 40.766 31.56H39.086ZM37.678 37V25.576H41.182C42.67 25.576 44.11 26.28 44.11 28.504C44.11 29.544 43.486 30.584 42.446 30.888V30.92C43.854 31.256 44.478 32.328 44.478 33.736C44.478 36.056 43.166 37 40.782 37H37.678ZM39.086 26.728V30.504H40.702C41.294 30.504 42.638 30.36 42.638 28.6C42.638 27.416 42.046 26.728 40.67 26.728H39.086ZM44.9189 37L48.2149 25.576H50.1029L53.1749 37H51.7029L50.8869 33.864H47.2389L46.3909 37H44.9189ZM49.1109 27.192L47.5269 32.712H50.5989L49.1429 27.192H49.1109ZM60.2309 28.536H58.8229C58.8229 27.336 58.3909 26.504 57.0469 26.504C55.8629 26.504 55.1589 27.144 55.1589 28.36C55.1589 31.576 60.5509 29.656 60.5509 33.832C60.5509 36.472 58.6149 37.224 56.9989 37.224C54.3269 37.224 53.5429 35.848 53.5429 33.416H54.9509C54.9509 34.696 55.0309 36.072 57.0949 36.072C58.2149 36.072 59.0789 35.272 59.0789 34.056C59.0789 30.824 53.6869 32.696 53.6869 28.504C53.6869 27.448 54.1349 25.352 57.0309 25.352C59.2069 25.352 60.1989 26.44 60.2309 28.536ZM61.9749 37V25.576H67.8789V26.824H63.3829V30.408H67.6229V31.656H63.3829V35.752H68.0709V37H61.9749ZM73.2249 37V25.576H79.1289V26.824H74.6329V30.408H78.8729V31.656H74.6329V35.752H79.3209V37H73.2249ZM80.6311 37V25.576H82.0391V35.752H86.6791V37H80.6311ZM91.5843 37V25.576H97.4883V26.824H92.9923V30.408H97.2323V31.656H92.9923V35.752H97.6803V37H91.5843ZM101.135 31.192L98.3185 25.576H99.8865L101.967 29.848L104.063 25.576H105.535L102.687 31.192L105.727 37H104.159L101.887 32.424L99.5665 37H98.0945L101.135 31.192ZM106.694 37V25.576H109.606C110.598 25.576 113.142 25.576 113.142 28.856C113.142 30.984 111.782 32.168 109.846 32.168H108.102V37H106.694ZM108.102 26.728V31.016H109.782C110.806 31.016 111.67 30.312 111.67 28.792C111.67 27.544 111.078 26.728 109.686 26.728H108.102ZM114.397 37V25.576H120.301V26.824H115.805V30.408H120.045V31.656H115.805V35.752H120.493V37H114.397ZM121.803 37V25.576H123.627L127.403 35.112H127.435V25.576H128.843V37H126.907L123.243 27.752H123.211V37H121.803ZM132.246 26.728V35.848H133.718C136.15 35.848 136.422 33.352 136.422 31.304C136.422 29.096 136.278 26.728 133.718 26.728H132.246ZM130.838 37V25.576H133.894C137.446 25.576 137.894 28.136 137.894 31.288C137.894 34.168 137.174 37 134.038 37H130.838ZM139.584 37V25.576H140.992V37H139.584ZM146.37 25.352C149.522 25.352 150.05 28.408 150.05 31.288C150.05 34.168 149.522 37.224 146.37 37.224C143.218 37.224 142.69 34.168 142.69 31.288C142.69 28.408 143.218 25.352 146.37 25.352ZM146.37 26.504C144.418 26.504 144.162 28.648 144.162 31.288C144.162 33.928 144.418 36.072 146.37 36.072C148.322 36.072 148.578 33.928 148.578 31.288C148.578 28.648 148.322 26.504 146.37 26.504ZM157.136 26.728V35.848H158.608C161.04 35.848 161.312 33.352 161.312 31.304C161.312 29.096 161.168 26.728 158.608 26.728H157.136ZM155.728 37V25.576H158.784C162.336 25.576 162.784 28.136 162.784 31.288C162.784 34.168 162.064 37 158.928 37H155.728ZM164.475 37V25.576H170.379V26.824H165.883V30.408H170.123V31.656H165.883V35.752H170.571V37H164.475ZM177.133 31.56V35.848H179.053C180.541 35.848 181.053 34.84 181.053 33.736C181.053 32.168 180.045 31.56 178.813 31.56H177.133ZM175.725 37V25.576H179.229C180.717 25.576 182.157 26.28 182.157 28.504C182.157 29.544 181.533 30.584 180.493 30.888V30.92C181.901 31.256 182.525 32.328 182.525 33.736C182.525 36.056 181.213 37 178.829 37H175.725ZM177.133 26.728V30.504H178.749C179.341 30.504 180.685 30.36 180.685 28.6C180.685 27.416 180.093 26.728 178.717 26.728H177.133ZM184.022 37V25.576H189.926V26.824H185.43V30.408H189.67V31.656H185.43V35.752H190.118V37H184.022ZM192.836 31.56V35.848H194.756C196.244 35.848 196.756 34.84 196.756 33.736C196.756 32.168 195.748 31.56 194.516 31.56H192.836ZM191.428 37V25.576H194.932C196.42 25.576 197.86 26.28 197.86 28.504C197.86 29.544 197.236 30.584 196.196 30.888V30.92C197.604 31.256 198.228 32.328 198.228 33.736C198.228 36.056 196.916 37 194.532 37H191.428ZM192.836 26.728V30.504H194.452C195.044 30.504 196.388 30.36 196.388 28.6C196.388 27.416 195.796 26.728 194.42 26.728H192.836ZM199.725 37V25.576H201.133V37H199.725ZM204.543 26.728V35.848H206.015C208.447 35.848 208.719 33.352 208.719 31.304C208.719 29.096 208.575 26.728 206.015 26.728H204.543ZM203.135 37V25.576H206.191C209.743 25.576 210.191 28.136 210.191 31.288C210.191 34.168 209.471 37 206.335 37H203.135ZM210.825 37L214.121 25.576H216.009L219.081 37H217.609L216.793 33.864H213.145L212.297 37H210.825ZM215.017 27.192L213.433 32.712H216.505L215.049 27.192H215.017ZM226.137 28.536H224.729C224.729 27.336 224.297 26.504 222.953 26.504C221.769 26.504 221.065 27.144 221.065 28.36C221.065 31.576 226.457 29.656 226.457 33.832C226.457 36.472 224.521 37.224 222.905 37.224C220.233 37.224 219.449 35.848 219.449 33.416H220.857C220.857 34.696 220.937 36.072 223.001 36.072C224.121 36.072 224.985 35.272 224.985 34.056C224.985 30.824 219.593 32.696 219.593 28.504C219.593 27.448 220.041 25.352 222.937 25.352C225.113 25.352 226.105 26.44 226.137 28.536ZM231.725 37V25.576H237.629V26.824H233.133V30.408H237.373V31.656H233.133V35.752H237.821V37H231.725ZM239.163 37V25.576H241.531L243.819 34.632H243.851L246.139 25.576H248.507V37H247.099V27.016H247.067L244.539 37H243.131L240.603 27.016H240.571V37H239.163ZM251.805 31.56V35.848H253.725C255.213 35.848 255.725 34.84 255.725 33.736C255.725 32.168 254.717 31.56 253.485 31.56H251.805ZM250.397 37V25.576H253.901C255.389 25.576 256.829 26.28 256.829 28.504C256.829 29.544 256.205 30.584 255.165 30.888V30.92C256.573 31.256 257.197 32.328 257.197 33.736C257.197 36.056 255.885 37 253.501 37H250.397ZM251.805 26.728V30.504H253.421C254.013 30.504 255.357 30.36 255.357 28.6C255.357 27.416 254.765 26.728 253.389 26.728H251.805ZM258.694 37V25.576H262.39C264.182 25.576 265.318 26.632 265.318 28.44C265.318 29.688 264.886 31 263.558 31.32V31.352C264.55 31.464 265.11 32.28 265.174 33.256L265.27 35.208C265.334 36.472 265.542 36.792 265.878 37H264.182C263.942 36.76 263.83 35.912 263.798 35.352L263.702 33.576C263.59 32.008 262.726 31.912 262.006 31.912H260.102V37H258.694ZM260.102 26.728V30.76H261.494C262.326 30.76 263.846 30.76 263.846 28.552C263.846 27.432 263.094 26.728 261.782 26.728H260.102ZM266.991 37V25.576H268.399V37H266.991ZM269.2 37L272.496 25.576H274.384L277.456 37H275.984L275.168 33.864H271.52L270.672 37H269.2ZM273.392 27.192L271.808 32.712H274.88L273.424 27.192H273.392ZM285.152 28.744H283.68C283.616 27.544 283.168 26.504 281.776 26.504C279.824 26.504 279.568 28.648 279.568 31.288C279.568 33.928 279.824 36.072 281.776 36.072C283.728 36.072 283.872 33.736 283.872 32.216H281.616V31.064H285.152V37H284.096V35.448H284.064C283.76 36.424 282.848 37.224 281.6 37.224C278.624 37.224 278.096 34.36 278.096 31.288C278.096 28.408 278.624 25.352 281.776 25.352C285.056 25.352 285.136 28.152 285.152 28.744ZM285.794 37L289.09 25.576H290.978L294.05 37H292.578L291.762 33.864H288.114L287.266 37H285.794ZM289.986 27.192L288.402 32.712H291.474L290.018 27.192H289.986ZM294.85 37V25.576H296.674L300.45 35.112H300.482V25.576H301.89V37H299.954L296.29 27.752H296.258V37H294.85ZM307.213 26.824V37H305.805V26.824H302.941V25.576H310.093V26.824H307.213ZM311.147 37V25.576H317.051V26.824H312.555V30.408H316.795V31.656H312.555V35.752H317.243V37H311.147ZM324.809 28.536H323.401C323.401 27.336 322.969 26.504 321.625 26.504C320.441 26.504 319.737 27.144 319.737 28.36C319.737 31.576 325.129 29.656 325.129 33.832C325.129 36.472 323.193 37.224 321.577 37.224C318.905 37.224 318.121 35.848 318.121 33.416H319.529C319.529 34.696 319.609 36.072 321.673 36.072C322.793 36.072 323.657 35.272 323.657 34.056C323.657 30.824 318.265 32.696 318.265 28.504C318.265 27.448 318.713 25.352 321.609 25.352C323.785 25.352 324.777 26.44 324.809 28.536ZM328.747 37L332.043 25.576H333.931L337.003 37H335.531L334.715 33.864H331.067L330.219 37H328.747ZM332.939 27.192L331.355 32.712H334.427L332.971 27.192H332.939ZM341.679 37V25.576H344.047L346.335 34.632H346.367L348.655 25.576H351.023V37H349.615V27.016H349.583L347.055 37H345.647L343.119 27.016H343.087V37H341.679ZM352.912 37V25.576H358.816V26.824H354.32V30.408H358.56V31.656H354.32V35.752H359.008V37H352.912ZM360.319 37V25.576H362.143L365.919 35.112H365.951V25.576H367.359V37H365.423L361.759 27.752H361.727V37H360.319ZM372.729 25.352C375.881 25.352 376.409 28.408 376.409 31.288C376.409 34.168 375.881 37.224 372.729 37.224C369.577 37.224 369.049 34.168 369.049 31.288C369.049 28.408 369.577 25.352 372.729 25.352ZM372.729 26.504C370.777 26.504 370.521 28.648 370.521 31.288C370.521 33.928 370.777 36.072 372.729 36.072C374.681 36.072 374.937 33.928 374.937 31.288C374.937 28.648 374.681 26.504 372.729 26.504ZM378.1 37V25.576H381.796C383.588 25.576 384.724 26.632 384.724 28.44C384.724 29.688 384.292 31 382.964 31.32V31.352C383.956 31.464 384.516 32.28 384.58 33.256L384.676 35.208C384.74 36.472 384.948 36.792 385.284 37H383.588C383.348 36.76 383.236 35.912 383.204 35.352L383.108 33.576C382.996 32.008 382.132 31.912 381.412 31.912H379.508V37H378.1ZM379.508 26.728V30.76H380.9C381.732 30.76 383.252 30.76 383.252 28.552C383.252 27.432 382.5 26.728 381.188 26.728H379.508ZM386.397 37V25.576H392.301V26.824H387.805V30.408H392.045V31.656H387.805V35.752H392.493V37H386.397ZM400.059 28.536H398.651C398.651 27.336 398.219 26.504 396.875 26.504C395.691 26.504 394.987 27.144 394.987 28.36C394.987 31.576 400.379 29.656 400.379 33.832C400.379 36.472 398.443 37.224 396.827 37.224C394.155 37.224 393.371 35.848 393.371 33.416H394.779C394.779 34.696 394.859 36.072 396.923 36.072C398.043 36.072 398.907 35.272 398.907 34.056C398.907 30.824 393.515 32.696 393.515 28.504C393.515 27.448 393.963 25.352 396.859 25.352C399.035 25.352 400.027 26.44 400.059 28.536ZM407.199 26.728V35.848H408.671C411.103 35.848 411.375 33.352 411.375 31.304C411.375 29.096 411.231 26.728 408.671 26.728H407.199ZM405.791 37V25.576H408.847C412.399 25.576 412.847 28.136 412.847 31.288C412.847 34.168 412.127 37 408.991 37H405.791ZM414.537 37V25.576H420.441V26.824H415.945V30.408H420.185V31.656H415.945V35.752H420.633V37H414.537ZM425.787 37V25.576H431.691V26.824H427.195V30.408H431.435V31.656H427.195V35.752H431.883V37H425.787ZM434.746 26.728V35.848H436.218C438.65 35.848 438.922 33.352 438.922 31.304C438.922 29.096 438.778 26.728 436.218 26.728H434.746ZM433.338 37V25.576H436.394C439.946 25.576 440.394 28.136 440.394 31.288C440.394 34.168 439.674 37 436.538 37H433.338ZM441.028 37L444.324 25.576H446.212L449.284 37H447.812L446.996 33.864H443.348L442.5 37H441.028ZM445.22 27.192L443.636 32.712H446.708L445.252 27.192H445.22ZM451.636 26.728V35.848H453.108C455.54 35.848 455.812 33.352 455.812 31.304C455.812 29.096 455.668 26.728 453.108 26.728H451.636ZM450.228 37V25.576H453.284C456.836 25.576 457.284 28.136 457.284 31.288C457.284 34.168 456.564 37 453.428 37H450.228ZM459.231 37V35.304H460.703V37H459.231Z" fill="white"/>
</svg>
