<svg width="235" height="76" viewBox="0 0 235 76" fill="none" xmlns="http://www.w3.org/2000/svg">
<path d="M31.1338 47.429C32.0903 45.8277 46.0025 25.6756 47.0821 24.2015C48.0562 24.6408 49.0185 25.1033 49.9749 25.6062C47.7041 28.6354 44.4417 33.6994 41.1734 38.4629C37.465 43.7408 34.7953 47.4752 32.7005 49.2673C31.8849 49.961 31.304 50.3136 30.77 50.3136C30.6896 50.3192 30.6089 50.3083 30.5329 50.2818C30.4569 50.2552 30.3872 50.2135 30.3283 50.1593C30.2694 50.105 30.2225 50.0394 30.1904 49.9665C30.1584 49.8936 30.142 49.815 30.1422 49.7355C30.1422 49.3598 30.3241 48.7875 31.1338 47.4232V47.429ZM89.8574 47.4579C90.761 47.4579 92.2045 46.822 94.3345 44.4923C96.5962 42.0544 98.6069 39.4015 100.337 36.5725C100.485 36.3147 100.566 36.0247 100.572 35.7285C100.572 34.844 99.985 34.3353 98.9699 34.3353C97.2096 34.3353 95.4493 35.5262 93.0553 38.5033C90.984 41.0585 88.8717 44.8623 88.8717 46.5387C88.8717 46.9723 88.989 47.4636 89.8868 47.4636L89.8574 47.4579ZM187.536 34.8094C187.536 34.3527 187.331 34.0521 186.826 34.0521C184.99 34.0521 182.432 36.798 179.785 41.5383C183.306 40.9602 187.525 37.3818 187.525 34.8094H187.536ZM146.915 34.8094C146.924 34.7087 146.912 34.6072 146.877 34.512C146.843 34.4168 146.788 34.3303 146.715 34.2585C146.643 34.1868 146.556 34.1316 146.459 34.0969C146.363 34.0622 146.26 34.0489 146.158 34.0578C144.034 34.0578 141.241 37.7807 139.116 41.573C142.637 40.9949 146.891 37.6073 146.891 34.8209L146.915 34.8094ZM48.2029 38.116V39.3126C42.4467 39.4051 38.8733 43.2263 38.8733 47.1746C38.8733 49.3019 40.0468 50.7761 43.1449 50.7761C50.3622 50.7761 55.3262 43.1511 55.3262 38.1507C55.3262 35.8788 54.4989 33.8613 50.8551 33.8613H49.13C48.6819 33.8524 48.2339 33.8853 47.7921 33.9596L48.8659 32.3814C51.9816 32.3814 54.4402 32.3178 56.2122 31.5027C60.1377 29.6644 62.1973 25.3577 62.1973 23.0858C62.1973 21.5423 61.6105 20.3052 59.5685 20.3052C56.5291 20.3052 53.8006 23.1956 52.0521 25.3981C53.2125 26.0853 54.3276 26.8441 55.3908 27.67L54.669 28.5892C53.6014 27.766 52.4759 27.0184 51.301 26.352C49.394 28.8609 45.0402 35.4857 42.0418 39.8098C43.8956 38.6868 46.0267 38.0869 48.2029 38.0755V38.116ZM44.8466 20.0913L50.2213 19.8659C49.7285 20.5364 48.8366 21.7446 47.8039 23.1725C48.7779 23.6234 49.7637 24.1148 50.7377 24.6235C54.0529 20.4728 57.1452 18.5825 61.1704 18.5825C65.5184 18.5825 67.1496 21.0278 67.1496 23.5251C67.1496 25.7912 65.8 28.3926 64.2157 29.9534C62.0682 32.0692 59.1226 33.0578 56.7345 33.5723C58.0547 34.2891 60.4663 35.3065 60.4663 39.093C60.4663 42.2609 58.706 45.1571 56.6699 47.4174C60.5836 45.1744 66.3046 39.8098 68.8336 36.7922C69.4203 36.0869 70.4589 34.6591 70.9929 33.9018L75.687 33.6185C75.687 33.6185 69.7079 42.5268 68.4111 44.712C67.6894 45.9491 67.4958 46.4982 67.4958 46.9202C67.4958 47.2035 67.6718 47.4983 68.2057 47.4983C70.0247 47.4983 73.4456 44.4807 75.8748 41.3706C76.9896 39.9427 81.009 33.9364 81.009 33.9364L85.7735 33.6416C81.9126 39.4803 80.6511 41.4458 80.6511 41.4458C79.4071 43.417 78.3568 45.186 78.081 46.1109C78.0075 46.3453 77.9661 46.5883 77.9578 46.8335C77.9396 46.9249 77.9441 47.0193 77.9708 47.1086C77.9976 47.198 78.0459 47.2796 78.1116 47.3466C78.1773 47.4136 78.2584 47.4639 78.3481 47.4934C78.4378 47.5228 78.5334 47.5305 78.6267 47.5157C81.3963 47.5157 86.3544 41.0758 87.927 39.1161C90.8256 35.5146 94.3462 33.0057 98.1367 33.0057C99.8618 33.0057 100.977 33.659 101.511 34.7689C103.013 32.3352 105.841 27.7336 107.742 24.6351L48.7368 2.32097L46.4719 1.45962L45.1458 3.46558L34.6896 19.334C37.8027 19.6613 40.8598 20.3841 43.7845 21.4845C44.1777 20.9584 44.5004 20.5249 44.8466 20.0913ZM18.6005 28.7626C19.5041 31.3466 22.4732 32.9942 27.49 32.9942C30.9885 33.0316 34.4271 32.0981 37.4122 30.3003C33.6804 35.5551 28.7516 42.7985 26.9326 45.7178C26.0466 47.1573 25.4246 48.3192 25.4246 49.4176C25.4246 51.2559 27.2788 52.308 29.4029 52.308C31.967 52.308 34.0325 50.4986 36.6436 47.2382L37.5531 46.0126C37.4723 46.4205 37.4271 46.8343 37.4181 47.2497C37.4181 49.9841 39.108 52.2964 44.4124 52.2964C51.6472 52.2964 58.3481 48.5562 64.9081 42.4054L66.3046 41.1047C64.2099 43.9258 63.3708 45.8797 63.3708 47.0763C63.3708 48.5793 64.4387 49.4754 66.1462 49.4754C68.769 49.4754 71.6031 47.4463 73.8622 45.1571L74.8831 44.1107C74.3029 45.066 73.9535 46.1401 73.8622 47.2497C73.8622 48.4753 74.6132 49.4927 76.4557 49.4927C79.677 49.4927 82.7517 46.637 85.3335 43.92C84.9154 44.8101 84.6668 45.7682 84.6 46.7468C84.6 48.4811 85.7735 49.4638 87.6218 49.4638C90.0452 49.4638 92.4685 48.1747 95.2498 45.0704C95.6077 44.6773 96.1593 44.0645 96.6522 43.4691C96.028 44.5521 95.6571 45.7589 95.5667 47.0012C95.5667 48.5273 96.5055 49.4523 98.3245 49.4523C102.256 49.4523 105.794 45.3016 107.918 42.995C106.885 44.683 106.24 45.8855 106.24 47.0416C106.24 48.7354 107.484 49.458 109.004 49.458C112.466 49.458 115.652 46.4057 118.081 43.3997C117.494 44.5559 116.86 45.712 116.86 46.9434C116.86 48.562 117.981 49.4349 119.865 49.4349C121.555 49.4349 123.714 48.7875 126.12 46.6774C128.14 44.8676 129.904 42.7989 131.365 40.5266C131.999 41.5174 132.991 42.2343 134.141 42.5326C133.655 43.5554 133.383 44.6644 133.343 45.793C133.343 47.9897 134.727 49.4465 137.732 49.4465C142.801 49.4465 147.014 45.1513 149.631 42.4054C148.34 44.5732 147.906 45.8739 147.906 46.9434C147.906 48.5273 148.945 49.4638 150.84 49.4638C154.144 49.4638 157.647 46.1225 160.686 43.2205C161.754 42.1973 164.207 39.752 167.692 36.0927C167.451 37.1911 167.105 38.9831 166.935 39.8329C165.732 46.4289 163.902 48.5042 161.654 48.5042C159.665 48.5042 160.158 46.3768 158.685 46.3768C158.546 46.3797 158.408 46.4103 158.281 46.4666C158.154 46.523 158.039 46.6041 157.945 46.705C157.85 46.8059 157.777 46.9245 157.73 47.0539C157.682 47.1832 157.662 47.3206 157.67 47.4579C157.67 48.614 159.02 49.5737 161.384 49.5737C165.885 49.5737 169.083 46.8393 171.612 44.6021C172.873 43.4806 174.141 42.3418 175.537 41.1336C174.583 42.6008 174.036 44.2893 173.953 46.03C173.953 48.007 175.267 49.4985 178.125 49.4985C183.658 49.4523 187.853 44.4345 190.112 41.544C193.234 37.5899 195.646 34.607 197.071 34.607C197.14 34.598 197.21 34.6043 197.275 34.6255C197.341 34.6468 197.401 34.6823 197.45 34.7296C197.5 34.7769 197.538 34.8346 197.562 34.8985C197.586 34.9623 197.595 35.0307 197.588 35.0984C197.588 35.7112 197.142 36.4453 196.314 37.8732C193.662 42.4401 189.831 48.0475 189.226 49.0534L193.733 48.8857C195.839 45.5271 201.56 38.1565 204.418 35.7516C203.724 36.6563 203.316 37.7419 203.244 38.8733C203.244 40.5266 204.33 41.5498 206.495 41.5498C207.495 41.5612 208.481 41.3247 209.364 40.8619L209 40.0006C208.511 40.2863 207.955 40.4417 207.387 40.4515C206.378 40.4515 206.084 39.7751 206.084 39.0178C206.084 37.2836 207.739 35.0579 209.458 34.5261C209.458 33.7168 208.666 33.1271 207.428 33.1271C205.714 33.1271 203.391 34.4509 198.568 40.5266C199.999 37.931 200.733 36.6939 200.733 35.2082C200.733 34.0521 199.941 33.1849 198.28 33.1849C195.182 33.1849 193.216 35.9135 189.132 41.018C186.557 44.2379 183.171 47.6313 179.873 47.6313C178.7 47.6313 178.113 47.0532 178.113 46.0647C178.192 44.8467 178.547 43.6616 179.152 42.5962C183.411 42.1453 189.496 38.7461 189.496 35.0811C189.496 33.5318 188.44 32.9075 186.633 32.9075C184.456 32.9075 181.739 33.9307 178.882 36.561C176.024 39.1912 171.436 43.4517 169.106 45.29C170.11 43.7882 170.603 42.0107 170.514 40.2145C170.514 38.3819 170.315 36.9772 170.315 35.1967C170.314 34.9376 170.332 34.6787 170.368 34.422C170.82 34.3716 171.239 34.1641 171.55 33.8367C171.86 33.5093 172.043 33.0835 172.063 32.6358C172.067 32.4661 172.035 32.2976 171.97 32.1406C171.904 31.9836 171.807 31.8414 171.684 31.7228C171.561 31.6042 171.414 31.5117 171.254 31.451C171.093 31.3903 170.921 31.3626 170.749 31.3697C169.617 31.3697 168.637 32.2022 168.167 34.0636C166.788 35.5724 164.553 37.8616 162.558 39.8445C157.77 44.6599 154.49 47.5561 152.7 47.5561C152.598 47.5704 152.494 47.5612 152.396 47.5291C152.298 47.4971 152.208 47.4431 152.135 47.3715C152.062 47.2998 152.006 47.2123 151.973 47.116C151.94 47.0197 151.93 46.917 151.943 46.8162C151.943 45.845 153.346 43.417 154.566 41.5094C154.566 41.5094 155.798 39.5323 159.589 33.6243L155.1 33.8844C154.754 34.4625 153.533 36.0985 153.287 36.4049C150.136 40.4862 144.321 47.6313 139.539 47.6313C138.072 47.6313 137.597 46.8971 137.597 45.897C137.694 44.7479 138.034 43.6315 138.594 42.6193C144.562 41.8042 148.957 37.879 148.957 35.1042C148.957 33.6358 148.059 32.9306 146.122 32.9306C140.724 32.9306 136.411 38.2143 134.669 41.5325C134.103 41.4052 133.575 41.1506 133.126 40.7885C132.677 40.4264 132.32 39.9668 132.081 39.4456C133.742 36.6997 134.681 34.3642 134.681 33.5318C134.681 33.0924 134.152 32.7514 133.454 32.7514C133.105 32.7472 132.76 32.8303 132.452 32.9931C132.144 33.1559 131.883 33.3929 131.694 33.6821C131.007 34.6764 130.52 36.5725 130.602 38.6478C129.523 41.7406 124.952 47.5619 121.69 47.5619C121.068 47.5619 120.833 47.2671 120.833 46.7931C120.833 45.8219 122.006 43.6078 124.113 40.2087C124.389 39.7693 126.923 35.6418 128.185 33.6532L123.72 33.896C122.658 35.4973 121.766 36.8962 120.645 38.4571C115.881 45.0126 112.659 47.5677 110.958 47.5677C110.465 47.5677 110.212 47.3422 110.212 46.9145C110.303 46.2707 110.538 45.6547 110.899 45.1108C112.342 42.4401 115.822 37.3876 118.345 33.6647L113.821 33.8844C113.299 34.6533 111.814 36.6939 111.239 37.4107C104.902 45.2669 101.851 47.533 100.314 47.533C99.762 47.533 99.5684 47.2093 99.5684 46.7526C99.5684 45.4692 100.983 43.0644 103.793 38.3935L114.689 20.7966L115.863 22.2071L115.094 23.4673L235 0.5L209.047 40.0295L210.221 40.7694L210.866 42.1453C209.743 42.839 208.454 43.2297 207.129 43.2783H206.917L185.847 75.3678L93.7242 57.3662L0 71.986L24.697 34.5088C21.5813 33.8844 18.935 32.1964 18.5946 28.7279L18.6005 28.7626ZM164.283 26.4502C164.304 26.2037 164.272 25.9555 164.187 25.7223C164.103 25.4892 163.969 25.2765 163.795 25.0985C163.62 24.9206 163.409 24.7814 163.176 24.6905C162.942 24.5996 162.691 24.559 162.44 24.5715C161.68 24.6074 160.963 24.9332 160.442 25.4802C159.921 26.0271 159.636 26.7522 159.647 27.5024C159.63 27.7511 159.667 28.0006 159.758 28.2333C159.849 28.4659 159.991 28.6761 160.173 28.8487C160.356 29.0214 160.575 29.1524 160.815 29.2324C161.054 29.3124 161.309 29.3395 161.56 29.3118C162.299 29.2732 162.995 28.9567 163.504 28.4274C164.013 27.8981 164.296 27.1966 164.295 26.4676L164.283 26.4502ZM21.5637 29.8841C21.3305 29.1241 21.2754 28.3219 21.4024 27.5378C21.5294 26.7538 21.8354 26.0084 22.2971 25.3577C23.8169 23.265 27.138 22.0048 31.7206 22.0048C32.1196 22.0048 32.5127 22.0048 32.8941 22.0048L26.5277 31.7166C26.9032 31.7455 27.2964 31.7571 27.7012 31.7571C34.6486 31.7166 38.6386 28.1556 40.1055 26.5138L43.0393 22.5077C39.3152 21.1024 35.3623 20.3776 31.3744 20.3688C24.562 20.3688 20.4077 23.0916 20.4019 26.959C20.3941 27.4932 20.4938 28.0237 20.6952 28.5198C20.8966 29.0159 21.1958 29.4678 21.5754 29.8494L21.5637 29.8841ZM193.832 72.356C193.665 72.1748 193.461 72.0299 193.234 71.9304C193.007 71.8308 192.761 71.7789 192.512 71.7779C192.138 71.7772 191.772 71.886 191.461 72.0905C191.149 72.295 190.907 72.5859 190.763 72.9265C190.62 73.2671 190.582 73.6419 190.656 74.0035C190.729 74.365 190.909 74.697 191.174 74.9574C191.348 75.1294 191.555 75.2658 191.783 75.3589C192.01 75.4521 192.254 75.5 192.501 75.5C192.747 75.5 192.991 75.4521 193.218 75.3589C193.446 75.2658 193.653 75.1294 193.827 74.9574C194.002 74.785 194.142 74.58 194.237 74.3543C194.332 74.1286 194.381 73.8866 194.381 73.6422C194.381 73.3978 194.332 73.1558 194.237 72.9301C194.142 72.7045 194.002 72.4995 193.827 72.3271L193.832 72.356ZM193.586 74.7435C193.446 74.8897 193.276 75.0062 193.089 75.0858C192.901 75.1655 192.699 75.2065 192.495 75.2065C192.29 75.2065 192.088 75.1655 191.9 75.0858C191.713 75.0062 191.544 74.8897 191.403 74.7435C191.255 74.5997 191.139 74.4275 191.061 74.2375C190.983 74.0476 190.946 73.844 190.951 73.6393C190.947 73.4348 190.985 73.2316 191.063 73.0419C191.141 72.8522 191.256 72.6798 191.403 72.5352C191.544 72.3888 191.715 72.2727 191.904 72.1942C192.092 72.1156 192.296 72.0762 192.501 72.0785C192.704 72.0764 192.906 72.1165 193.093 72.1962C193.28 72.2759 193.448 72.3933 193.586 72.541C193.876 72.8364 194.038 73.2313 194.038 73.6422C194.038 74.0532 193.876 74.4481 193.586 74.7435ZM193.046 73.8012C193.146 73.7653 193.235 73.7044 193.304 73.6245C193.373 73.5446 193.42 73.4484 193.44 73.3453C193.461 73.2422 193.453 73.1358 193.419 73.0363C193.385 72.9369 193.325 72.8479 193.246 72.778C193.078 72.6512 192.87 72.5877 192.659 72.5988H191.65V74.7435H192.113V73.8764H192.635L192.988 74.7435H193.475L193.046 73.8012ZM192.084 72.9341H192.6C192.847 72.9341 192.97 73.0323 192.97 73.2289C192.97 73.4312 192.835 73.5353 192.565 73.5353H192.084V72.9341Z" fill="#CF0A2C"/>
<path d="M159.647 27.5195C159.636 26.7694 159.921 26.0442 160.442 25.4973C160.963 24.9504 161.68 24.6245 162.44 24.5886C162.692 24.5744 162.944 24.6138 163.179 24.7039C163.414 24.7941 163.627 24.9329 163.803 25.1111C163.978 25.2892 164.113 25.5025 164.198 25.7365C164.283 25.9705 164.316 26.2198 164.294 26.4674C164.3 27.1975 164.021 27.9017 163.514 28.4344C163.007 28.9671 162.312 29.2874 161.572 29.3289C161.32 29.3567 161.066 29.3296 160.826 29.2495C160.586 29.1695 160.368 29.0385 160.185 28.8659C160.002 28.6932 159.861 28.4831 159.77 28.2504C159.679 28.0177 159.641 27.7682 159.659 27.5195H159.647ZM179.797 41.5438C183.317 40.9657 187.536 37.3874 187.536 34.8149C187.536 34.3582 187.331 34.0576 186.826 34.0576C184.99 34.0576 182.437 36.8035 179.785 41.5438H179.797ZM139.14 41.5438C142.66 40.9657 146.914 37.5782 146.914 34.7976C146.927 34.6967 146.916 34.5943 146.884 34.4978C146.851 34.4013 146.798 34.3132 146.726 34.2396C146.655 34.1661 146.568 34.1091 146.472 34.0726C146.375 34.0361 146.272 34.0211 146.169 34.0287C144.045 34.0287 141.252 37.7516 139.128 41.5438H139.14ZM100.337 36.5723C100.485 36.3145 100.566 36.0244 100.572 35.7283C100.572 34.8438 99.9848 34.3351 98.9697 34.3351C97.2094 34.3351 95.4491 35.526 93.0551 38.5031C90.9838 41.0582 88.8715 44.862 88.8715 46.5385C88.8715 46.972 88.9888 47.4576 89.8866 47.4576C90.7843 47.4576 92.2337 46.8275 94.3636 44.4978C96.6155 42.0568 98.6163 39.402 100.337 36.5723ZM85.3333 43.9198C82.7574 46.6368 79.6769 49.4925 76.4555 49.4925C74.6189 49.4925 73.862 48.4751 73.862 47.2495C73.9534 46.1399 74.3027 45.0658 74.883 44.1105L73.862 45.1569C71.6088 47.4692 68.7689 49.4752 66.146 49.4752C64.4385 49.4752 63.3706 48.5791 63.3706 47.0761C63.3706 45.8795 64.2156 43.9198 66.3044 41.1045L64.9197 42.4052C58.3596 48.556 51.6646 52.2962 44.4239 52.2962C39.143 52.2962 37.4297 49.9839 37.4297 47.2495C37.4348 46.8345 37.4761 46.4206 37.5529 46.0124L36.6317 47.2206C34.0206 50.481 31.9375 52.2904 29.391 52.2904C27.2669 52.2904 25.4127 51.2557 25.4127 49.4C25.4127 48.3016 26.0347 47.1397 26.9207 45.7003C28.7221 42.8098 33.6685 35.5433 37.4003 30.2769C34.4204 32.0787 30.9861 33.0183 27.4898 32.9882C21.3757 32.9882 18.3011 30.5602 18.3011 26.9356C18.3011 22.2531 23.1888 19.1546 31.1161 19.1546C35.4468 19.1563 39.7405 19.9401 43.7844 21.4669C44.1775 20.9409 44.5002 20.5073 44.8464 20.0737L50.227 19.8425C49.7283 20.5189 48.8364 21.7271 47.8037 23.1549C48.7777 23.6058 49.7635 24.0972 50.7375 24.6002C54.0528 20.4553 57.145 18.5649 61.1702 18.5649C65.5182 18.5649 67.1494 21.0102 67.1494 23.5076C67.1494 25.7679 65.7998 28.375 64.2156 29.9359C62.068 32.0517 59.1224 33.0402 56.7343 33.5547C58.0545 34.2715 60.4661 35.2889 60.4661 39.0754C60.4661 42.2433 58.7058 45.1395 56.6697 47.3998C60.5893 45.18 66.3044 39.8096 68.8334 36.792C69.4202 36.0867 70.4588 34.6588 70.9927 33.9015L75.6868 33.6125C75.6868 33.6125 69.7077 42.5266 68.4168 44.7117C67.6892 45.9488 67.4956 46.498 67.4956 46.92C67.4956 47.2033 67.6716 47.4981 68.2114 47.4981C70.0245 47.4981 73.4454 44.4805 75.8746 41.3704C76.9895 39.9425 81.0088 33.9362 81.0088 33.9362L85.7734 33.6414C81.9124 39.4801 80.6509 41.4398 80.6509 41.4398C79.4069 43.4168 78.3625 45.18 78.0809 46.1107C78.0068 46.345 77.9654 46.5881 77.9576 46.8333C77.9394 46.9247 77.9439 47.0191 77.9707 47.1084C77.9974 47.1977 78.0457 47.2794 78.1114 47.3464C78.1771 47.4133 78.2582 47.4637 78.3479 47.4931C78.4376 47.5226 78.5332 47.5302 78.6265 47.5154C81.3961 47.5154 86.3543 41.0756 87.9268 39.1159C90.8254 35.5144 94.346 33.0055 98.1365 33.0055C99.8616 33.0055 100.976 33.6587 101.51 34.7687C103.904 30.8897 109.678 21.4727 109.678 21.4727L114.695 20.779C111.145 26.5136 104.339 37.4972 103.805 38.3933C100.994 43.0642 99.58 45.469 99.58 46.7524C99.58 47.2091 99.7736 47.5328 100.325 47.5328C101.874 47.5328 104.92 45.2725 111.251 37.4105C111.838 36.6937 113.31 34.6531 113.838 33.8842L118.356 33.6645C115.833 37.3874 112.354 42.4399 110.91 45.1106C110.544 45.653 110.306 46.2693 110.212 46.9142C110.212 47.3362 110.464 47.5675 110.957 47.5675C112.677 47.5675 115.88 45.0181 120.598 38.4569C121.719 36.896 122.611 35.4971 123.673 33.8958L128.138 33.6587C126.876 35.6416 124.342 39.7691 124.072 40.2085C121.942 43.6076 120.786 45.8217 120.786 46.7928C120.786 47.2669 121.02 47.5559 121.642 47.5559C124.905 47.5559 129.476 41.7404 130.561 38.6476C130.497 36.5492 130.96 34.6762 131.647 33.6819C131.836 33.3927 132.097 33.1557 132.405 32.9929C132.713 32.8301 133.058 32.7469 133.407 32.7512C134.111 32.7512 134.633 33.0864 134.633 33.5316C134.633 34.364 133.695 36.6995 132.034 39.4396C132.272 39.9669 132.632 40.4319 133.086 40.7974C133.539 41.1628 134.073 41.4184 134.645 41.5438C136.405 38.2256 140.701 32.9419 146.099 32.9419C148.035 32.9419 148.933 33.6472 148.933 35.1155C148.933 37.9077 144.544 41.8329 138.571 42.6306C138.01 43.6428 137.67 44.7593 137.573 45.9084C137.573 46.92 138.048 47.6426 139.515 47.6426C144.297 47.6426 150.112 40.4975 153.263 36.4162C153.51 36.1098 154.73 34.4449 155.076 33.8958L159.565 33.6356C155.775 39.561 154.542 41.5438 154.542 41.5438C153.322 43.4515 151.92 45.8795 151.92 46.8506C151.906 46.9515 151.916 47.0541 151.949 47.1505C151.983 47.2468 152.038 47.3342 152.111 47.4059C152.185 47.4776 152.274 47.5316 152.372 47.5636C152.47 47.5957 152.574 47.6049 152.676 47.5906C154.466 47.5906 157.746 44.7002 162.534 39.8789C164.529 37.8672 166.765 35.5722 168.144 34.0981C168.613 32.2367 169.593 31.4042 170.725 31.4042C170.906 31.3849 171.089 31.4043 171.261 31.461C171.434 31.5177 171.591 31.6105 171.724 31.7329C171.857 31.8553 171.961 32.0045 172.03 32.1703C172.098 32.336 172.13 32.5145 172.122 32.6933C172.101 33.1411 171.919 33.5669 171.608 33.8943C171.297 34.2217 170.878 34.4292 170.426 34.4796C170.39 34.7363 170.373 34.9952 170.373 35.2543C170.373 37.0348 170.573 38.4395 170.573 40.272C170.662 42.0683 170.169 43.8458 169.165 45.3476C171.512 43.5093 176.153 39.1795 178.94 36.6185C181.727 34.0576 184.514 32.965 186.691 32.965C188.499 32.965 189.555 33.5894 189.555 35.1386C189.555 38.8037 183.47 42.2028 179.21 42.6537C178.606 43.7192 178.251 44.9043 178.171 46.1223C178.171 47.105 178.758 47.6889 179.932 47.6889C183.235 47.6889 186.615 44.2897 189.191 41.0756C193.298 35.9711 195.24 33.2425 198.339 33.2425C199.999 33.2425 200.797 34.0981 200.797 35.2658C200.797 36.7515 200.058 37.9886 198.626 40.5842C203.449 34.5027 205.773 33.1847 207.486 33.1847C208.724 33.1847 209.505 33.7628 209.517 34.5837C207.797 35.1155 206.143 37.318 206.143 39.0754C206.143 39.8327 206.436 40.5091 207.445 40.5091C208.014 40.4993 208.57 40.3439 209.059 40.0581L209.423 40.9195C208.533 41.3713 207.543 41.5978 206.542 41.5785C204.376 41.5785 203.291 40.5553 203.291 38.902C203.362 37.7686 203.77 36.6808 204.464 35.7745C201.607 38.1852 195.886 45.5557 193.779 48.9144L189.273 49.0821C189.86 48.0762 193.709 42.4688 196.361 37.9019C197.194 36.474 197.635 35.7399 197.635 35.1271C197.641 35.0592 197.632 34.9906 197.608 34.9266C197.585 34.8625 197.547 34.8045 197.497 34.7568C197.448 34.7091 197.388 34.6729 197.322 34.651C197.257 34.629 197.187 34.6218 197.118 34.6299C195.692 34.6299 193.281 37.6013 190.159 41.567C187.877 44.4574 183.658 49.4636 178.171 49.4636C175.314 49.4636 174 47.9664 174 45.9951C174.086 44.2549 174.632 42.567 175.584 41.0987C174.193 42.3242 172.92 43.4631 171.658 44.5672C169.129 46.8044 165.932 49.5387 161.431 49.5387C159.084 49.5387 157.717 48.5502 157.717 47.423C157.71 47.2859 157.73 47.1489 157.778 47.0199C157.825 46.8908 157.899 46.7725 157.993 46.6718C158.088 46.571 158.202 46.49 158.329 46.4333C158.456 46.3767 158.593 46.3456 158.732 46.3419C160.205 46.3419 159.712 48.4693 161.701 48.4693C163.948 48.4693 165.779 46.4171 166.982 39.798C167.14 38.9251 167.498 37.1562 167.739 36.0578C164.247 39.7229 161.801 42.1624 160.733 43.1856C157.699 46.076 154.19 49.4289 150.887 49.4289C148.986 49.4289 147.953 48.4924 147.953 46.9085C147.953 45.8506 148.387 44.5383 149.678 42.3705C147.061 45.1164 142.848 49.4058 137.778 49.4058C134.774 49.4058 133.389 47.9548 133.389 45.7581C133.43 44.6294 133.702 43.5205 134.187 42.4977C133.038 42.1994 132.046 41.4825 131.412 40.4917C129.949 42.7729 128.18 44.8495 126.155 46.6657C123.749 48.7757 121.59 49.4231 119.9 49.4231C118.022 49.4231 116.895 48.5502 116.895 46.9316C116.895 45.706 117.523 44.5383 118.116 43.3879C115.687 46.394 112.501 49.4463 109.039 49.4463C107.519 49.4463 106.275 48.7236 106.275 47.0299C106.275 45.8737 106.92 44.6713 107.953 42.9833C105.829 45.2956 102.291 49.4405 98.3595 49.4405C96.5405 49.4405 95.6017 48.5155 95.6017 46.9894C95.6913 45.7462 96.0644 44.5389 96.6931 43.4573C96.1943 44.0354 95.6428 44.6655 95.2848 45.0586C92.486 48.1629 90.0626 49.452 87.6569 49.452C85.791 49.452 84.635 48.4404 84.635 46.735C84.7033 45.7604 84.9518 44.8063 85.3685 43.9198H85.3333ZM40.1053 26.5136L43.0392 22.5075C39.3151 21.1022 35.3622 20.3774 31.3742 20.3686C24.5619 20.3686 20.4076 23.0913 20.4017 26.9587C20.4017 29.9359 23.0304 31.7684 27.707 31.7568C30.0331 31.801 32.342 31.3562 34.4799 30.4521C36.6178 29.548 38.5356 28.2054 40.1053 26.5136ZM41.1498 38.4395C44.4415 33.6992 47.7039 28.6121 49.9513 25.5771C49.0124 25.0877 48.058 24.6291 47.0878 24.2013C46.0023 25.6754 32.0901 45.8274 31.1337 47.4287C30.3239 48.7815 30.142 49.3538 30.142 49.7411C30.1418 49.8205 30.1583 49.8992 30.1903 49.9721C30.2223 50.045 30.2692 50.1106 30.3281 50.1648C30.3871 50.2191 30.4567 50.2608 30.5327 50.2873C30.6087 50.3139 30.6894 50.3247 30.7699 50.3192C31.3038 50.3192 31.8847 49.9723 32.7003 49.2728C34.7951 47.4808 37.4649 43.7463 41.1498 38.4511V38.4395ZM47.7978 33.9651L48.8657 32.387C51.9873 32.387 54.4459 32.3234 56.2121 31.5083C60.1434 29.6642 62.1971 25.3574 62.1971 23.0856C62.1971 21.5421 61.6103 20.305 59.5684 20.305C56.5289 20.305 53.8005 23.1954 52.0519 25.3979C53.2123 26.0851 54.3274 26.8439 55.3906 27.6698L54.6689 28.5889C53.6013 27.7657 52.4758 27.0181 51.3008 26.3517C49.3938 28.8606 45.04 35.4855 42.0417 39.8096C43.8942 38.6838 46.0261 38.0837 48.2027 38.0753V39.2777C42.4465 39.3644 38.8731 43.1856 38.8731 47.1339C38.8731 49.2613 40.0466 50.7354 43.1448 50.7354C50.3679 50.7354 55.326 43.1104 55.326 38.11C55.326 35.8381 54.4987 33.8206 50.8549 33.8206H49.1298C48.6836 33.8114 48.2376 33.8443 47.7978 33.9189" fill="white"/>
</svg>
