<svg width="146" height="46" viewBox="0 0 146 46" fill="none" xmlns="http://www.w3.org/2000/svg">
<path d="M19.3427 28.7831C19.9369 27.801 28.5803 15.441 29.251 14.5369C29.8562 14.8064 30.454 15.09 31.0482 15.3985C29.6374 17.2564 27.6106 20.3623 25.5801 23.2839C23.2762 26.521 21.6175 28.8115 20.3161 29.9106C19.8093 30.3361 19.4484 30.5523 19.1167 30.5523C19.0667 30.5558 19.0166 30.5491 18.9693 30.5328C18.9221 30.5165 18.8789 30.491 18.8423 30.4577C18.8057 30.4244 18.7765 30.3842 18.7566 30.3395C18.7367 30.2947 18.7265 30.2465 18.7266 30.1978C18.7266 29.9673 18.8396 29.6163 19.3427 28.7795V28.7831ZM55.8263 28.8008C56.3877 28.8008 57.2845 28.4108 58.6078 26.9819C60.013 25.4867 61.2622 23.8596 62.3371 22.1245C62.4291 21.9664 62.4792 21.7885 62.4829 21.6068C62.4829 21.0643 62.1183 20.7523 61.4877 20.7523C60.3941 20.7523 59.3004 21.4827 57.8131 23.3087C56.5262 24.8759 55.2139 27.2089 55.2139 28.2371C55.2139 28.503 55.2868 28.8044 55.8445 28.8044L55.8263 28.8008ZM116.512 21.0431C116.512 20.763 116.384 20.5786 116.071 20.5786C114.93 20.5786 113.34 22.2628 111.696 25.1701C113.884 24.8156 116.505 22.6209 116.505 21.0431H116.512ZM91.2746 21.0431C91.2807 20.9814 91.2728 20.9191 91.2514 20.8607C91.23 20.8023 91.1956 20.7492 91.1507 20.7052C91.1058 20.6612 91.0515 20.6274 90.9916 20.6061C90.9318 20.5848 90.8678 20.5766 90.8043 20.5821C89.4847 20.5821 87.7495 22.8655 86.4298 25.1914C88.6171 24.8369 91.26 22.7591 91.26 21.0502L91.2746 21.0431ZM29.9473 23.0711V23.8051C26.3711 23.8618 24.1511 26.2054 24.1511 28.6271C24.1511 29.9319 24.8801 30.836 26.8049 30.836C31.2888 30.836 34.3729 26.1594 34.3729 23.0924C34.3729 21.699 33.8589 20.4616 31.5951 20.4616H30.5233C30.2449 20.4561 29.9666 20.4763 29.6921 20.5219L30.3592 19.5539C32.295 19.5539 33.8224 19.5149 34.9233 19.015C37.3621 17.8875 38.6417 15.246 38.6417 13.8526C38.6417 12.9059 38.2771 12.1472 37.0085 12.1472C35.1202 12.1472 33.4251 13.92 32.3387 15.2709C33.0597 15.6923 33.7525 16.1577 34.413 16.6643L33.9646 17.228C33.3013 16.7231 32.6021 16.2646 31.8721 15.8559C30.6873 17.3947 27.9824 21.4579 26.1196 24.11C27.2713 23.4212 28.5953 23.0533 29.9473 23.0463V23.0711ZM27.8621 12.016L31.2013 11.8777C30.8951 12.289 30.341 13.03 29.6994 13.9058C30.3046 14.1824 30.917 14.4837 31.5221 14.7957C33.5818 12.25 35.503 11.0906 38.0037 11.0906C40.705 11.0906 41.7184 12.5904 41.7184 14.1221C41.7184 15.512 40.88 17.1075 39.8957 18.0648C38.5615 19.3625 36.7315 19.9688 35.2478 20.2843C36.068 20.724 37.5663 21.348 37.5663 23.6704C37.5663 25.6133 36.4727 27.3897 35.2077 28.776C37.6392 27.4003 41.1935 24.11 42.7647 22.2592C43.1292 21.8266 43.7745 20.9509 44.1062 20.4864L47.0226 20.3127C47.0226 20.3127 43.3079 25.7764 42.5022 27.1167C42.0538 27.8754 41.9335 28.2123 41.9335 28.4711C41.9335 28.6448 42.0429 28.8256 42.3746 28.8256C43.5047 28.8256 45.63 26.9748 47.1392 25.0673C47.8319 24.1916 50.329 20.5077 50.329 20.5077L53.2891 20.3269C50.8904 23.9079 50.1066 25.1134 50.1066 25.1134C49.3338 26.3225 48.6812 27.4074 48.5099 27.9747C48.4642 28.1185 48.4385 28.2675 48.4334 28.4179C48.422 28.474 48.4248 28.5318 48.4414 28.5866C48.4581 28.6414 48.4881 28.6915 48.5289 28.7326C48.5697 28.7736 48.6201 28.8045 48.6758 28.8226C48.7316 28.8407 48.7909 28.8453 48.8489 28.8363C50.5696 28.8363 53.65 24.8865 54.627 23.6845C56.4278 21.4756 58.6151 19.9368 60.97 19.9368C62.0418 19.9368 62.7344 20.3375 63.0662 21.0183C63.9994 19.5256 65.7565 16.7033 66.9376 14.8028L30.279 1.11686L28.8719 0.588568L28.048 1.81889L21.5519 11.5515C23.486 11.7523 25.3852 12.1956 27.2023 12.8705C27.4465 12.5478 27.647 12.2819 27.8621 12.016ZM11.5561 17.3344C12.1175 18.9193 13.962 19.9298 17.0789 19.9298C19.2524 19.9527 21.3887 19.3802 23.2433 18.2775C20.9248 21.5005 17.8627 25.9431 16.7326 27.7336C16.1821 28.6165 15.7957 29.3291 15.7957 30.0028C15.7957 31.1303 16.9477 31.7756 18.2673 31.7756C19.8604 31.7756 21.1436 30.6658 22.7658 28.6661L23.3308 27.9144C23.2806 28.1645 23.2526 28.4184 23.247 28.6732C23.247 30.3502 24.2969 31.7685 27.5924 31.7685C32.0872 31.7685 36.2503 29.4745 40.3259 25.702L41.1935 24.9042C39.8921 26.6345 39.3708 27.8329 39.3708 28.5668C39.3708 29.4887 40.0343 30.0382 41.0951 30.0382C42.7246 30.0382 44.4853 28.7937 45.8888 27.3897L46.5231 26.7479C46.1626 27.3338 45.9456 27.9926 45.8888 28.6732C45.8888 29.4248 46.3554 30.0489 47.5001 30.0489C49.5015 30.0489 51.4117 28.2973 53.0157 26.6309C52.756 27.1769 52.6015 27.7645 52.56 28.3647C52.56 29.4284 53.2891 30.0311 54.4374 30.0311C55.943 30.0311 57.4485 29.2405 59.1765 27.3365C59.3988 27.0954 59.7415 26.7196 60.0477 26.3544C59.6599 27.0186 59.4295 27.7588 59.3733 28.5207C59.3733 29.4568 59.9566 30.024 61.0867 30.024C63.5291 30.024 65.7273 27.4783 67.047 26.0636C66.4054 27.0989 66.0044 27.8364 66.0044 28.5455C66.0044 29.5844 66.7772 30.0276 67.7214 30.0276C69.8722 30.0276 71.8517 28.1555 73.3609 26.3118C72.9963 27.0209 72.6026 27.7301 72.6026 28.4853C72.6026 29.478 73.2989 30.0134 74.4691 30.0134C75.519 30.0134 76.8605 29.6163 78.3551 28.3222C79.6101 27.2122 80.7063 25.9433 81.6142 24.5497C82.008 25.1573 82.6243 25.597 83.3385 25.78C83.0366 26.4073 82.868 27.0875 82.8427 27.7797C82.8427 29.127 83.703 30.0205 85.5695 30.0205C88.7191 30.0205 91.3366 27.3861 92.9624 25.702C92.1604 27.0316 91.8907 27.8293 91.8907 28.4853C91.8907 29.4568 92.5359 30.0311 93.7134 30.0311C95.7658 30.0311 97.9421 27.9818 99.8305 26.2019C100.494 25.5743 102.018 24.0746 104.183 21.8302C104.034 22.5039 103.819 23.603 103.713 24.1242C102.966 28.1697 101.828 29.4426 100.432 29.4426C99.1961 29.4426 99.5024 28.1378 98.5874 28.1378C98.5007 28.1396 98.4153 28.1583 98.3362 28.1929C98.2572 28.2275 98.1861 28.2772 98.1273 28.339C98.0684 28.4009 98.0229 28.4737 97.9936 28.553C97.9643 28.6324 97.9518 28.7167 97.9567 28.8008C97.9567 29.5099 98.7951 30.0985 100.264 30.0985C103.06 30.0985 105.047 28.4214 106.618 27.0493C107.402 26.3615 108.189 25.663 109.057 24.9219C108.464 25.8218 108.125 26.8574 108.073 27.9251C108.073 29.1377 108.889 30.0524 110.665 30.0524C114.102 30.024 116.709 26.9465 118.112 25.1737C120.052 22.7485 121.55 20.919 122.436 20.919C122.478 20.9134 122.522 20.9173 122.562 20.9303C122.603 20.9433 122.64 20.9652 122.671 20.9942C122.702 21.0231 122.726 21.0586 122.741 21.0977C122.755 21.1369 122.761 21.1788 122.757 21.2204C122.757 21.5962 122.48 22.0465 121.966 22.9222C120.318 25.7232 117.937 29.1625 117.562 29.7794L120.362 29.6766C121.67 27.6166 125.225 23.096 127 21.621C126.569 22.1759 126.316 22.8417 126.271 23.5356C126.271 24.5497 126.945 25.1772 128.29 25.1772C128.912 25.1842 129.525 25.0391 130.073 24.7553L129.847 24.227C129.543 24.4023 129.198 24.4976 128.845 24.5036C128.218 24.5036 128.035 24.0887 128.035 23.6243C128.035 22.5606 129.063 21.1955 130.131 20.8693C130.131 20.373 129.639 20.0113 128.87 20.0113C127.806 20.0113 126.362 20.8232 123.365 24.5497C124.255 22.9577 124.711 22.1989 124.711 21.2877C124.711 20.5786 124.218 20.0468 123.187 20.0468C121.262 20.0468 120.041 21.7203 117.504 24.851C115.903 26.8259 113.8 28.9072 111.751 28.9072C111.022 28.9072 110.657 28.5526 110.657 27.9463C110.707 27.1993 110.927 26.4724 111.303 25.819C113.949 25.5424 117.73 23.4576 117.73 21.2097C117.73 20.2595 117.073 19.8766 115.951 19.8766C114.598 19.8766 112.91 20.5041 111.135 22.1174C109.36 23.7306 106.509 26.3437 105.062 27.4712C105.686 26.5501 105.992 25.4599 105.937 24.3582C105.937 23.2342 105.813 22.3727 105.813 21.2806C105.812 21.1217 105.823 20.9629 105.845 20.8055C106.126 20.7746 106.387 20.6473 106.58 20.4465C106.773 20.2457 106.886 19.9846 106.899 19.7099C106.901 19.6059 106.881 19.5025 106.841 19.4062C106.8 19.3099 106.74 19.2227 106.663 19.15C106.587 19.0773 106.496 19.0205 106.396 18.9833C106.296 18.946 106.189 18.9291 106.082 18.9334C105.379 18.9334 104.77 19.444 104.478 20.5857C103.622 21.5111 102.233 22.9151 100.993 24.1313C98.0187 27.0848 95.9809 28.8611 94.869 28.8611C94.8055 28.8699 94.7407 28.8642 94.6798 28.8445C94.6189 28.8249 94.5635 28.7918 94.5179 28.7478C94.4724 28.7039 94.4379 28.6502 94.4172 28.5911C94.3966 28.5321 94.3902 28.4691 94.3987 28.4073C94.3987 27.8116 95.27 26.3225 96.0283 25.1524C96.0283 25.1524 96.7938 23.9398 99.1488 20.3162L96.36 20.4758C96.1449 20.8303 95.3867 21.8337 95.2335 22.0217C93.2759 24.5248 89.6633 28.9072 86.6923 28.9072C85.7809 28.9072 85.4856 28.4569 85.4856 27.8435C85.546 27.1387 85.7571 26.454 86.1054 25.8332C89.8128 25.3332 92.5432 22.9258 92.5432 21.2239C92.5432 20.3233 91.9855 19.8908 90.7825 19.8908C87.4286 19.8908 84.7493 23.1314 83.6666 25.1666C83.3151 25.0885 82.9871 24.9323 82.7082 24.7103C82.4292 24.4882 82.207 24.2063 82.0589 23.8866C83.0906 22.2025 83.6738 20.7701 83.6738 20.2595C83.6738 19.99 83.3458 19.7808 82.9119 19.7808C82.6949 19.7783 82.4807 19.8293 82.2895 19.9291C82.0982 20.0289 81.9361 20.1743 81.8183 20.3517C81.3918 20.9615 81.0892 22.1245 81.1403 23.3973C80.4695 25.2942 77.6297 28.8646 75.6028 28.8646C75.2164 28.8646 75.0706 28.6838 75.0706 28.3931C75.0706 27.7974 75.7997 26.4395 77.1084 24.3547C77.2797 24.0852 78.8546 21.5536 79.6383 20.334L76.8642 20.4829C76.2043 21.465 75.6502 22.323 74.9539 23.2803C71.9939 27.301 69.9925 28.8682 68.9353 28.8682C68.6291 28.8682 68.4724 28.7299 68.4724 28.4675C68.5288 28.0727 68.6744 27.6949 68.8989 27.3613C69.7956 25.7232 71.9574 22.6244 73.5249 20.341L70.7143 20.4758C70.3899 20.9473 69.4676 22.1989 69.1103 22.6386C65.1732 27.457 63.2776 28.8469 62.3225 28.8469C61.9798 28.8469 61.8595 28.6484 61.8595 28.3683C61.8595 27.5811 62.7381 26.1062 64.4842 23.2413L71.2538 12.4486L71.9829 13.3137L71.5054 14.0866L146 0L129.876 24.2447L130.605 24.6986L131.006 25.5424C130.308 25.9679 129.507 26.2075 128.684 26.2374H128.553L115.462 45.9189L58.2287 34.878L0 43.8448L15.3437 20.8587C13.4079 20.4758 11.7638 19.4405 11.5524 17.3131L11.5561 17.3344ZM102.065 15.9161C102.078 15.7649 102.058 15.6127 102.006 15.4697C101.953 15.3267 101.87 15.1962 101.762 15.0871C101.653 14.9779 101.522 14.8926 101.377 14.8369C101.232 14.7811 101.076 14.7562 100.92 14.7638C100.448 14.7859 100.003 14.9857 99.6789 15.3212C99.3551 15.6566 99.178 16.1014 99.1852 16.5614C99.1741 16.714 99.1976 16.867 99.254 17.0097C99.3105 17.1524 99.3986 17.2813 99.512 17.3872C99.6254 17.4931 99.7614 17.5735 99.9103 17.6226C100.059 17.6716 100.217 17.6882 100.374 17.6712C100.833 17.6476 101.265 17.4534 101.581 17.1288C101.897 16.8042 102.073 16.3739 102.072 15.9268L102.065 15.9161ZM13.397 18.0222C13.2521 17.5561 13.2179 17.0641 13.2968 16.5832C13.3757 16.1023 13.5658 15.6451 13.8527 15.246C14.7969 13.9625 16.8602 13.1896 19.7073 13.1896C19.9552 13.1896 20.1994 13.1896 20.4364 13.1896L16.481 19.1462C16.7144 19.1639 16.9586 19.171 17.2101 19.171C21.5263 19.1462 24.0052 16.9621 24.9166 15.9552L26.7393 13.4981C24.4256 12.6361 21.9698 12.1916 19.4922 12.1862C15.2598 12.1862 12.6789 13.8562 12.6752 16.2282C12.6704 16.5558 12.7323 16.8812 12.8575 17.1855C12.9826 17.4898 13.1684 17.7669 13.4043 18.001L13.397 18.0222ZM120.424 44.0717C120.32 43.9605 120.193 43.8717 120.052 43.8106C119.911 43.7496 119.758 43.7177 119.603 43.7171C119.371 43.7167 119.143 43.7834 118.95 43.9088C118.757 44.0342 118.606 44.2127 118.517 44.4216C118.428 44.6305 118.404 44.8604 118.45 45.0821C118.495 45.3039 118.608 45.5075 118.772 45.6672C118.88 45.7727 119.009 45.8564 119.15 45.9135C119.291 45.9706 119.443 46 119.596 46C119.749 46 119.901 45.9706 120.042 45.9135C120.183 45.8564 120.312 45.7727 120.42 45.6672C120.529 45.5614 120.616 45.4357 120.675 45.2973C120.734 45.1589 120.765 45.0105 120.765 44.8606C120.765 44.7107 120.734 44.5622 120.675 44.4238C120.616 44.2854 120.529 44.1597 120.42 44.0539L120.424 44.0717ZM120.27 45.536C120.183 45.6257 120.078 45.6972 119.962 45.746C119.845 45.7948 119.719 45.82 119.592 45.82C119.465 45.82 119.34 45.7948 119.223 45.746C119.107 45.6972 119.002 45.6257 118.914 45.536C118.822 45.4478 118.75 45.3422 118.702 45.2257C118.654 45.1092 118.63 44.9843 118.634 44.8588C118.631 44.7334 118.655 44.6087 118.703 44.4924C118.751 44.376 118.823 44.2703 118.914 44.1816C119.002 44.0918 119.108 44.0206 119.225 43.9724C119.342 43.9242 119.469 43.9001 119.596 43.9015C119.723 43.9002 119.848 43.9248 119.964 43.9737C120.08 44.0225 120.185 44.0946 120.27 44.1851C120.451 44.3663 120.551 44.6085 120.551 44.8606C120.551 45.1126 120.451 45.3548 120.27 45.536ZM119.935 44.9581C119.997 44.936 120.053 44.8987 120.095 44.8497C120.138 44.8007 120.168 44.7417 120.18 44.6785C120.193 44.6152 120.188 44.5499 120.167 44.489C120.146 44.428 120.108 44.3734 120.059 44.3305C119.955 44.2528 119.826 44.2138 119.694 44.2206H119.067V45.536H119.355V45.0042H119.68L119.899 45.536H120.201L119.935 44.9581ZM119.337 44.4262H119.658C119.811 44.4262 119.888 44.4865 119.888 44.6071C119.888 44.7312 119.804 44.795 119.636 44.795H119.337V44.4262Z" fill="white"/>
<path d="M99.1853 16.572C99.1781 16.1119 99.3552 15.6671 99.679 15.3317C100.003 14.9962 100.448 14.7964 100.921 14.7743C101.077 14.7657 101.234 14.7898 101.38 14.8451C101.526 14.9004 101.658 14.9855 101.767 15.0948C101.876 15.2041 101.96 15.3349 102.013 15.4784C102.065 15.6219 102.086 15.7748 102.073 15.9267C102.076 16.3744 101.902 16.8064 101.588 17.1331C101.273 17.4598 100.841 17.6563 100.381 17.6817C100.225 17.6988 100.067 17.6821 99.9177 17.6331C99.7688 17.584 99.6328 17.5036 99.5194 17.3977C99.406 17.2918 99.3179 17.1629 99.2615 17.0202C99.205 16.8775 99.1815 16.7245 99.1926 16.572H99.1853ZM111.704 25.1736C113.891 24.819 116.512 22.6243 116.512 21.0465C116.512 20.7664 116.385 20.582 116.071 20.582C114.93 20.582 113.344 22.2662 111.696 25.1736H111.704ZM86.4445 25.1736C88.6318 24.819 91.2747 22.7413 91.2747 21.0359C91.2824 20.974 91.276 20.9112 91.2557 20.852C91.2355 20.7928 91.2021 20.7387 91.1578 20.6937C91.1135 20.6486 91.0595 20.6136 90.9997 20.5912C90.9399 20.5688 90.8757 20.5596 90.8117 20.5643C89.4921 20.5643 87.7569 22.8476 86.4372 25.1736H86.4445ZM62.3372 22.1243C62.4292 21.9662 62.4793 21.7883 62.483 21.6067C62.483 21.0642 62.1185 20.7522 61.4878 20.7522C60.3942 20.7522 59.3005 21.4826 57.8132 23.3086C56.5263 24.8757 55.214 27.2087 55.214 28.2369C55.214 28.5029 55.2869 28.8007 55.8446 28.8007C56.4024 28.8007 57.3028 28.4142 58.6261 26.9853C60.0251 25.4882 61.2682 23.8599 62.3372 22.1243ZM53.0158 26.6308C51.4154 28.2972 49.5016 30.0487 47.5002 30.0487C46.3592 30.0487 45.8889 29.4247 45.8889 28.6731C45.9457 27.9925 46.1627 27.3337 46.5232 26.7478L45.8889 27.3895C44.4891 28.8078 42.7247 30.0381 41.0952 30.0381C40.0344 30.0381 39.3709 29.4885 39.3709 28.5667C39.3709 27.8327 39.8958 26.6308 41.1936 24.9041L40.3333 25.7018C36.2577 29.4744 32.0982 31.7683 27.5998 31.7683C24.3189 31.7683 23.2544 30.3501 23.2544 28.6731C23.2576 28.4185 23.2832 28.1646 23.3309 27.9143L22.7586 28.6553C21.1364 30.655 19.8422 31.7648 18.2601 31.7648C16.9405 31.7648 15.7885 31.1301 15.7885 29.992C15.7885 29.3183 16.1749 28.6057 16.7254 27.7228C17.8445 25.95 20.9177 21.4932 23.2362 18.2632C21.3848 19.3683 19.2511 19.9445 17.079 19.9261C13.2805 19.9261 11.3702 18.4369 11.3702 16.2138C11.3702 13.3419 14.4069 11.4415 19.3319 11.4415C22.0224 11.4426 24.69 11.9232 27.2024 12.8597C27.4466 12.5371 27.6471 12.2712 27.8622 12.0052L31.2051 11.8634C30.8952 12.2782 30.3411 13.0193 29.6995 13.895C30.3047 14.1716 30.9171 14.473 31.5222 14.7814C33.5819 12.2392 35.5031 11.0798 38.0038 11.0798C40.7051 11.0798 41.7186 12.5796 41.7186 14.1113C41.7186 15.4976 40.8801 17.0967 39.8958 18.054C38.5616 19.3517 36.7316 19.958 35.2479 20.2735C36.0681 20.7132 37.5664 21.3372 37.5664 23.6596C37.5664 25.6026 36.4728 27.3789 35.2078 28.7652C37.6429 27.4037 41.1936 24.1099 42.7648 22.2591C43.1293 21.8265 43.7746 20.9508 44.1063 20.4863L47.0227 20.309C47.0227 20.309 43.308 25.7763 42.506 27.1165C42.0539 27.8753 41.9336 28.2121 41.9336 28.471C41.9336 28.6447 42.043 28.8255 42.3784 28.8255C43.5048 28.8255 45.6301 26.9747 47.1393 25.0672C47.832 24.1914 50.3291 20.5076 50.3291 20.5076L53.2892 20.3267C50.8905 23.9078 50.1067 25.1097 50.1067 25.1097C49.3339 26.3223 48.685 27.4037 48.51 27.9746C48.464 28.1183 48.4383 28.2674 48.4335 28.4178C48.4221 28.4738 48.4249 28.5317 48.4416 28.5865C48.4582 28.6413 48.4882 28.6914 48.529 28.7324C48.5698 28.7735 48.6202 28.8044 48.6759 28.8225C48.7317 28.8405 48.791 28.8452 48.849 28.8361C50.5697 28.8361 53.6501 24.8864 54.6271 23.6844C56.4279 21.4755 58.6152 19.9367 60.9701 19.9367C62.0419 19.9367 62.7345 20.3374 63.0663 21.0181C64.5536 18.639 68.1407 12.8633 68.1407 12.8633L71.2576 12.4378C69.0521 15.955 64.8234 22.6916 64.4916 23.2412C62.7455 26.106 61.8669 27.581 61.8669 28.3681C61.8669 28.6482 61.9872 28.8468 62.3299 28.8468C63.2923 28.8468 65.1843 27.4605 69.1177 22.6385C69.4823 22.1988 70.3973 20.9472 70.7253 20.4756L73.5323 20.3409C71.9648 22.6243 69.803 25.7231 68.9063 27.3612C68.6787 27.6939 68.5305 28.0718 68.4725 28.4674C68.4725 28.7262 68.6292 28.8681 68.9354 28.8681C70.0035 28.8681 71.994 27.3045 74.9249 23.2802C75.6212 22.3229 76.1753 21.4649 76.8351 20.4827L79.6093 20.3374C78.8255 21.5535 77.2507 24.0851 77.083 24.3545C75.7597 26.4393 75.0415 27.7973 75.0415 28.3929C75.0415 28.6837 75.1874 28.861 75.5738 28.861C77.6006 28.861 80.4405 25.2941 81.1149 23.3972C81.0748 22.1102 81.3627 20.9614 81.7893 20.3516C81.907 20.1742 82.0691 20.0288 82.2604 19.929C82.4517 19.8291 82.6658 19.7781 82.8829 19.7807C83.3204 19.7807 83.6448 19.9864 83.6448 20.2594C83.6448 20.7699 83.0615 22.2023 82.0299 23.883C82.1778 24.2064 82.4016 24.4916 82.6833 24.7157C82.965 24.9398 83.2968 25.0966 83.6521 25.1736C84.7457 23.1384 87.4142 19.8977 90.768 19.8977C91.971 19.8977 92.5287 20.3303 92.5287 21.2309C92.5287 22.9434 89.8019 25.3508 86.0909 25.8401C85.7426 26.4609 85.5315 27.1457 85.4712 27.8505C85.4712 28.471 85.7664 28.9142 86.6778 28.9142C89.6488 28.9142 93.2615 24.5318 95.2191 22.0286C95.3722 21.8407 96.1304 20.8196 96.3455 20.4827L99.1343 20.3232C96.7793 23.9574 96.0138 25.1736 96.0138 25.1736C95.2555 26.3436 94.3843 27.8327 94.3843 28.4284C94.3758 28.4903 94.3821 28.5532 94.4028 28.6123C94.4234 28.6714 94.4579 28.725 94.5035 28.769C94.549 28.8129 94.6044 28.846 94.6653 28.8657C94.7262 28.8853 94.791 28.891 94.8545 28.8822C95.9664 28.8822 98.0042 27.1094 100.979 24.1524C102.218 22.9186 103.607 21.511 104.464 20.6068C104.756 19.4652 105.364 18.9546 106.068 18.9546C106.18 18.9427 106.294 18.9546 106.401 18.9894C106.508 19.0242 106.606 19.0811 106.688 19.1562C106.771 19.2312 106.836 19.3228 106.878 19.4244C106.921 19.5261 106.94 19.6355 106.936 19.7453C106.923 20.0199 106.809 20.2811 106.616 20.4819C106.423 20.6826 106.163 20.8099 105.882 20.8408C105.86 20.9983 105.849 21.157 105.849 21.316C105.849 22.408 105.973 23.2696 105.973 24.3935C106.028 25.4952 105.722 26.5854 105.098 27.5066C106.556 26.3791 109.44 23.7234 111.172 22.1527C112.903 20.582 114.635 19.9119 115.987 19.9119C117.11 19.9119 117.766 20.2948 117.766 21.245C117.766 23.4929 113.986 25.5778 111.339 25.8543C110.964 26.5078 110.743 27.2346 110.694 27.9817C110.694 28.5844 111.059 28.9425 111.788 28.9425C113.84 28.9425 115.94 26.8577 117.54 24.8864C120.092 21.7556 121.299 20.0821 123.223 20.0821C124.255 20.0821 124.751 20.6068 124.751 21.323C124.751 22.2343 124.291 22.993 123.402 24.585C126.399 20.855 127.842 20.0466 128.907 20.0466C129.676 20.0466 130.161 20.4012 130.168 20.9047C129.1 21.2309 128.072 22.5817 128.072 23.6596C128.072 24.1241 128.254 24.5389 128.881 24.5389C129.234 24.5329 129.58 24.4376 129.884 24.2623L130.11 24.7906C129.557 25.0677 128.942 25.2067 128.32 25.1948C126.975 25.1948 126.3 24.5673 126.3 23.5532C126.344 22.8581 126.598 22.1909 127.029 21.6351C125.254 23.1136 121.7 27.6342 120.391 29.6942L117.591 29.797C117.956 29.1801 120.347 25.7408 121.995 22.9398C122.513 22.0641 122.786 21.6138 122.786 21.2379C122.79 21.1963 122.785 21.1543 122.77 21.115C122.755 21.0757 122.731 21.0401 122.701 21.0108C122.67 20.9816 122.633 20.9594 122.592 20.9459C122.551 20.9325 122.508 20.9281 122.465 20.933C121.579 20.933 120.081 22.7555 118.142 25.1877C116.724 26.9605 114.102 30.031 110.694 30.031C108.919 30.031 108.102 29.1127 108.102 27.9037C108.156 26.8363 108.495 25.8011 109.086 24.9005C108.222 25.6522 107.431 26.3507 106.648 27.0279C105.076 28.4 103.09 30.0771 100.294 30.0771C98.8354 30.0771 97.986 29.4708 97.986 28.7794C97.9816 28.6954 97.9945 28.6113 98.024 28.5322C98.0535 28.4531 98.0989 28.3805 98.1577 28.3187C98.2165 28.2569 98.2873 28.2072 98.3661 28.1724C98.445 28.1377 98.5301 28.1186 98.6166 28.1164C99.5316 28.1164 99.2254 29.4212 100.461 29.4212C101.857 29.4212 102.995 28.1625 103.742 24.1028C103.841 23.5674 104.063 22.4825 104.212 21.8088C102.043 24.0567 100.523 25.5529 99.8597 26.1805C97.975 27.9533 95.7951 30.0097 93.7427 30.0097C92.5615 30.0097 91.92 29.4354 91.92 28.4639C91.92 27.815 92.1897 27.0102 92.9917 25.6806C91.3658 27.3647 88.7484 29.9956 85.5988 29.9956C83.7323 29.9956 82.872 29.1056 82.872 27.7583C82.8972 27.0661 83.0658 26.3859 83.3677 25.7586C82.6535 25.5756 82.0373 25.1359 81.6434 24.5283C80.7344 25.9274 79.6357 27.201 78.3771 28.3149C76.8825 29.6091 75.541 30.0062 74.4911 30.0062C73.3245 30.0062 72.6246 29.4708 72.6246 28.478C72.6246 27.7264 73.0147 27.0102 73.3829 26.3046C71.8737 28.1483 69.8942 30.0204 67.7434 30.0204C66.7992 30.0204 66.0264 29.5772 66.0264 28.5383C66.0264 27.8292 66.4274 27.0917 67.069 26.0564C65.7493 27.4746 63.5511 30.0168 61.1087 30.0168C59.9786 30.0168 59.3953 29.4495 59.3953 28.5135C59.451 27.751 59.6828 27.0105 60.0734 26.3471C59.7635 26.7017 59.4208 27.0882 59.1985 27.3293C57.4596 29.2333 55.954 30.0239 54.4594 30.0239C53.3001 30.0239 52.582 29.4034 52.582 28.3575C52.6244 27.7597 52.7788 27.1745 53.0377 26.6308H53.0158ZM24.9167 15.955L26.7394 13.4979C24.4257 12.636 21.9699 12.1915 19.4923 12.1861C15.2599 12.1861 12.679 13.856 12.6753 16.228C12.6753 18.054 14.3085 19.178 17.2139 19.1709C18.659 19.198 20.0935 18.9252 21.4218 18.3706C22.75 17.8161 23.9414 16.9926 24.9167 15.955ZM25.5656 23.2696C27.6107 20.3622 29.6376 17.2421 31.0338 15.3806C30.4505 15.0804 29.8575 14.7992 29.2548 14.5368C28.5804 15.4409 19.937 27.8008 19.3428 28.783C18.8398 29.6126 18.7267 29.9636 18.7267 30.2012C18.7266 30.2499 18.7368 30.2982 18.7567 30.3429C18.7766 30.3876 18.8058 30.4278 18.8424 30.4611C18.879 30.4944 18.9222 30.52 18.9695 30.5362C19.0167 30.5525 19.0668 30.5592 19.1168 30.5558C19.4485 30.5558 19.8094 30.343 20.3162 29.914C21.6176 28.8149 23.2763 26.5244 25.5656 23.2767V23.2696ZM29.6959 20.5253L30.3594 19.5573C32.2987 19.5573 33.8262 19.5183 34.9234 19.0184C37.3659 17.8874 38.6418 15.2459 38.6418 13.8525C38.6418 12.9058 38.2773 12.1471 37.0086 12.1471C35.1203 12.1471 33.4252 13.9199 32.3388 15.2707C33.0598 15.6922 33.7526 16.1576 34.4131 16.6641L33.9647 17.2279C33.3014 16.723 32.6022 16.2645 31.8722 15.8557C30.6874 17.3945 27.9825 21.4578 26.1197 24.1099C27.2706 23.4194 28.5952 23.0513 29.9474 23.0462V23.7837C26.3712 23.8369 24.1512 26.1805 24.1512 28.6021C24.1512 29.9069 24.8802 30.811 26.805 30.811C31.2926 30.811 34.373 26.1344 34.373 23.0675C34.373 21.6741 33.859 20.4366 31.5952 20.4366H30.5234C30.2462 20.431 29.9691 20.4512 29.6959 20.4969" fill="#DC0019"/>
</svg>
