<svg width="50" height="46" viewBox="0 0 50 46" fill="none" xmlns="http://www.w3.org/2000/svg">
<path d="M41.6588 24.2274C40.449 23.0252 38.6763 21.855 36.349 20.7266C44.1109 17.433 42.1595 12.9849 32.8571 9.53271L29.43 10.6056C25.4908 11.8392 21.2401 11.8424 17.2992 10.6145L13.9002 9.55574L3.3891 14.1619C3.3891 14.1619 10.2646 16.7322 13.1162 18.6001V31.1307C10.987 32.5244 7.08848 33.7622 3.3913 33.7627H26.8629C26.8629 33.7627 33.415 33.7214 36.349 33.0719C38.6724 32.4407 40.4407 31.653 41.6549 30.7089C42.8329 29.7919 43.4238 28.774 43.4276 27.6592C43.4276 26.5444 42.8367 25.4019 41.6588 24.2274ZM23.4062 14.1625C26.6516 14.1625 29.8977 16.0429 29.8977 17.8936C29.8977 20.3587 26.0888 21.6477 23.4062 21.6477V14.1619V14.1625ZM23.4062 32.1058V24.2881C26.7644 24.2881 31.8404 25.8876 31.7925 28.607C31.6759 31.1443 29.38 32.1063 23.4062 32.1063V32.1058Z" fill="white"/>
<path d="M26.6285 6.9134H26.6296L26.2814 5.14074H27.3019C27.867 5.1219 28.2988 4.54357 28.2928 4.07358H26.3006L26.8035 3.59522H28.4672C28.8655 3.65018 29.0515 3.92913 29.0861 4.4232L29.1054 2.44119C29.1054 2.04656 28.7654 1.49022 28.1151 1.47138C28.1118 1.47138 28.1085 1.47086 28.1052 1.47033H27.0654C27.0654 1.06943 26.7138 0.5 26.042 0.5C26.0189 0.5 25.9953 0.50157 25.9722 0.503664H19.8212C19.8201 0.895146 20.1271 1.35571 20.6536 1.45672L20.1876 6.91288C19.6187 8.47305 17.3993 8.95141 15.7862 8.34796C17.6392 9.77206 20.9942 10.2834 23.4083 9.36331C25.8225 10.2834 29.1775 9.77258 31.0305 8.34796C29.4174 8.95141 27.1979 8.47305 26.6291 6.91288L26.6285 6.9134ZM25.0071 2.73061C24.5103 2.73061 24.2501 2.3093 24.2501 2.01307H25.7592C25.7592 2.3721 25.3802 2.73061 25.0071 2.73061Z" fill="white"/>
<path d="M4.82724 41.8499C5.0011 41.8897 5.1711 41.9541 5.33781 42.043C5.50451 42.1325 5.65416 42.2451 5.7862 42.3801C5.91824 42.5156 6.02223 42.6726 6.0987 42.8511C6.17518 43.0296 6.21369 43.2279 6.21369 43.4462C6.21369 43.8298 6.13171 44.1522 5.96886 44.4129C5.80546 44.674 5.58979 44.886 5.3224 45.0477C5.05502 45.21 4.74912 45.3256 4.40471 45.3947C4.06085 45.4643 3.70764 45.4989 3.34672 45.4989H0V38.4773H3.03367C3.33242 38.4773 3.65042 38.4988 3.98768 38.5417C4.32493 38.5851 4.63578 38.6704 4.92077 38.7997C5.20577 38.9284 5.44234 39.1169 5.62995 39.3649C5.81756 39.613 5.91164 39.9386 5.91164 40.3421C5.91164 40.7189 5.81261 41.0298 5.61455 41.2742C5.41648 41.5191 5.15405 41.7007 4.82724 41.8195V41.8494V41.8499ZM2.31459 40.3128V41.1758H2.98195C3.15581 41.1758 3.29831 41.1376 3.40944 41.0617C3.52058 40.9858 3.57614 40.8686 3.57614 40.7095C3.57614 40.5776 3.51728 40.4781 3.39899 40.4117C3.2807 40.3457 3.12445 40.3128 2.92969 40.3128H2.31459ZM2.31459 42.6931V43.6451H3.05458C3.24934 43.6451 3.40724 43.6037 3.52883 43.521C3.65042 43.4383 3.71149 43.3174 3.71149 43.1589C3.71149 43.0662 3.68563 42.9903 3.63336 42.9307C3.5811 42.871 3.51673 42.8234 3.44025 42.7867C3.36378 42.7506 3.28235 42.7255 3.19542 42.7124C3.10849 42.6993 3.02707 42.6925 2.95059 42.6925H2.31459V42.6931Z" fill="white"/>
<path d="M9.38272 38.4778H12.0203L14.8977 45.4993H12.1974L11.8117 44.4678H9.4658L9.10103 45.4993H6.47394L9.38272 38.4778ZM10.6652 40.9277L10.0605 42.6632H11.2594L10.6652 40.9277Z" fill="white"/>
<path d="M14.3557 38.4778H17.16L18.3797 42.8218H18.4215L19.589 38.4778H22.3933L19.7244 45.4993H16.9718L14.3552 38.4778H14.3557Z" fill="white"/>
<path d="M24.7601 38.4778H27.3977L30.2751 45.4993H27.5748L27.1892 44.4678H24.8432L24.4784 45.4993H21.8513L24.7601 38.4778ZM26.0426 40.9277L25.4379 42.6632H26.6368L26.0426 40.9277Z" fill="white"/>
<path d="M30.9006 38.4778H34.0807C34.4421 38.4778 34.8014 38.5123 35.1595 38.5819C35.5172 38.651 35.8374 38.7735 36.1185 38.9488C36.4002 39.1241 36.6274 39.3591 36.8013 39.6528C36.9751 39.9469 37.0621 40.3159 37.0621 40.7586C37.0621 41.2014 36.9515 41.5667 36.7292 41.8944C36.5075 42.2215 36.1884 42.4748 35.773 42.6532L37.6458 45.4999H34.7953L33.3814 42.9908H33.3088V45.4999H30.9006V38.4783V38.4778ZM33.2884 41.4432H33.7748C33.8573 41.4432 33.9492 41.4369 34.0487 41.4233C34.1489 41.4102 34.2419 41.382 34.3277 41.3391C34.4141 41.2961 34.4861 41.2365 34.545 41.1606C34.6039 41.0847 34.633 40.9837 34.633 40.8581C34.633 40.7325 34.6088 40.6336 34.5604 40.5603C34.512 40.4875 34.4504 40.4331 34.3744 40.397C34.2985 40.3609 34.216 40.3373 34.1263 40.3274C34.0366 40.3174 33.9541 40.3122 33.8782 40.3122H33.2884V41.4427V41.4432Z" fill="white"/>
<path d="M38.449 38.4778H40.9512V45.4993H38.449V38.4778Z" fill="white"/>
<path d="M44.485 38.4778H47.1226L50 45.4993H47.2997L46.9141 44.4678H44.5681L44.2034 45.4993H41.5763L44.485 38.4778ZM45.7675 40.9277L45.1629 42.6632H46.3617L45.7675 40.9277Z" fill="white"/>
</svg>
