<svg id="Capa_1" data-name="Capa 1" xmlns="http://www.w3.org/2000/svg" viewBox="0 0 1576.8 892.81"><defs><style>.cls-1{fill:#d92428;}</style></defs><path class="cls-1" d="M115.42,484.09c0-20.14,7.25-32.23,19.07-32.23a16.67,16.67,0,0,1,10,3.05v15.84l-3.31-7.07c-2.6-5.55-4.39-7.34-6.45-7.34-3.4,0-4.92,8.32-4.92,27.75s1.52,27.75,4.92,27.75c2.06,0,3.85-1.79,6.45-7.34l3.31-7.07v15.85a16.67,16.67,0,0,1-10,3C122.67,516.32,115.42,504.23,115.42,484.09Z"/><path class="cls-1" d="M148.27,484.09c0-19.52,6.8-32.23,18.8-32.23s18.8,12.71,18.8,32.23-6.71,32.23-18.8,32.23S148.27,503.61,148.27,484.09Zm23.1,0c0-20.68-1.26-27.75-4.3-27.75s-4.39,7.07-4.39,27.75,1.35,27.75,4.39,27.75S171.37,504.77,171.37,484.09Z"/><path class="cls-1" d="M234.66,457.23V511l3.76,4.47H217.11l3.76-4.47V477.64L213,515.42H206.9l-7.61-37.78V511l3.76,4.47H189.63l3.76-4.47V461.8l-3.14-9h18.44l5.56,29.09,6.62-29.09h17.55Z"/><path class="cls-1" d="M241.28,515.42,245,511V457.23l-3.76-4.47h19.07c12.62,0,19,8.23,19,19.33s-6.36,19.34-19,19.34h-1.62V511l4.3,4.47Zm17.45-29.63a1,1,0,0,0,1.08,1.17c2.68,0,4.92-4.75,4.92-14.87s-2.24-14.86-5.19-14.86h-.81Z"/><path class="cls-1" d="M307.88,515.42l-8.33-29.36V511l4.39,4.47H282l3.76-4.47V457.23L282,452.76h20.14c11.91,0,17.55,5.73,17.55,15.93a15,15,0,0,1-8.6,14.06l10.83,32.67Zm-8.33-58.19v23.19a1,1,0,0,0,1.17,1.16c1.88,0,5.19-2.68,5.19-12.17,0-10.12-3.31-12.18-5.55-12.18Z"/><path class="cls-1" d="M341.81,515.42l3.67-4.65-1.88-10.21H333.48l-1.88,10.21,3.76,4.65H322.83l3.94-4.65L336.26,461l-1.53-8.23h14l11.37,58,4.12,4.65Zm-7.52-19.33h8.5l-4.21-22.74Z"/><path class="cls-1" d="M64.71,622.85l3.76-4.48V564.65l-3.76-4.47H83.78c12.62,0,19,8.23,19,19.34s-6.36,19.33-19,19.33H82.17v19.52l4.29,4.48Zm17.46-29.64c0,.81.44,1.17,1.07,1.17,2.68,0,4.92-4.75,4.92-14.86S85.92,564.65,83,564.65h-.8Z"/><path class="cls-1" d="M131.31,622.85,123,593.48v24.89l4.39,4.48H105.44l3.76-4.48V564.65l-3.76-4.47h20.14c11.91,0,17.55,5.73,17.55,15.93a15,15,0,0,1-8.6,14.06l10.84,32.68ZM123,564.65v23.19a1,1,0,0,0,1.17,1.17c1.88,0,5.19-2.69,5.19-12.18,0-10.12-3.31-12.18-5.55-12.18Z"/><path class="cls-1" d="M146.26,591.51c0-19.52,6.8-32.23,18.8-32.23s18.8,12.71,18.8,32.23-6.72,32.23-18.8,32.23S146.26,611,146.26,591.51Zm23.09,0c0-20.68-1.25-27.75-4.29-27.75s-4.39,7.07-4.39,27.75,1.34,27.76,4.39,27.76S169.35,612.19,169.35,591.51Z"/><path class="cls-1" d="M187.61,622.85l3.76-4.48V564.65l-3.76-4.47h17.64c14.86,0,22.74,11.81,22.74,31.33s-8,31.34-22.47,31.34Zm25.88-31.34c0-16.2-2.6-26.86-8-26.86h-.36V617c0,.8.36,1.34,1.07,1.34C210.71,618.37,213.49,607.81,213.49,591.51Z"/><path class="cls-1" d="M235.5,607.72V564.65l-3.76-4.47h21.31l-3.76,4.47v44.14c0,4.75,2.06,7,5.64,7,3.76,0,5.64-2.68,5.64-6.62v-44.5l-3.76-4.47h13.25l-3.58,4.47v44c0,10.57-5.91,15.13-14.32,15.13C241.15,623.74,235.5,618.73,235.5,607.72Z"/><path class="cls-1" d="M273.82,591.51c0-20.14,7.25-32.23,19.07-32.23a16.67,16.67,0,0,1,10,3.05v15.84l-3.31-7.07c-2.6-5.55-4.39-7.34-6.45-7.34-3.4,0-4.92,8.33-4.92,27.75s1.52,27.76,4.92,27.76c2.06,0,3.85-1.8,6.45-7.35l3.31-7.07V620.7a16.67,16.67,0,0,1-10,3C281.07,623.74,273.82,611.66,273.82,591.51Z"/><path class="cls-1" d="M333.17,564.65h-3.49v53.72l3.76,4.48H312.13l3.76-4.48V564.65H312.4l-6.72,7.08V560.18h34.2v11.55Z"/><path class="cls-1" d="M341.4,591.51c0-19.52,6.81-32.23,18.8-32.23S379,572,379,591.51s-6.71,32.23-18.8,32.23S341.4,611,341.4,591.51Zm23.1,0c0-20.68-1.25-27.75-4.3-27.75s-4.38,7.07-4.38,27.75,1.34,27.76,4.38,27.76S364.5,612.19,364.5,591.51Z"/><path class="cls-1" d="M383.74,620.79V603l4.75,8.69c2.68,4.83,4.83,7.61,8.32,7.61,2.87,0,4.66-2.33,4.66-5.82,0-4.93-1.88-8.78-9.58-18.45-6.54-8.14-8.86-14.68-8.86-20.86,0-9.49,7.16-14.86,15.57-14.86,4.12,0,9,1.08,11.64,3v15l-3.58-5.91c-3.22-5.37-5.64-7.61-8.41-7.61a4.38,4.38,0,0,0-4.48,4.48c0,3.4,1.43,6.53,9,15.39,8.06,9.49,10.57,14.6,10.57,23.1,0,10.21-6.72,17-16.48,17C391.8,623.74,386.43,622.58,383.74,620.79Z"/><path class="cls-1" d="M64.17,730.27l3.76-4.48V672.08l-3.76-4.48H82.52c13.07,0,19.7,5.28,19.7,14.86,0,8.33-6.72,12.36-13.79,13.79,7.07,1.25,15.58,6.18,15.58,17,0,10.47-9.31,17-21.13,17Zm17.46-36.35h.53c4,0,7.08-3.31,7.08-10.92s-3-10.92-7.08-10.92h-.53Zm8.05,18.26c0-9.31-2.86-13.61-7.16-13.61h-.89v26.24c0,.71.27,1.07,1.16,1.07C86.82,725.88,89.68,721.49,89.68,712.18Z"/><path class="cls-1" d="M111,715.14V672.08l-3.76-4.48h21.3l-3.76,4.48v44.13c0,4.75,2.06,7,5.64,7,3.76,0,5.64-2.68,5.64-6.62V672.08l-3.76-4.48h13.25L142,672.08V716c0,10.57-5.91,15.13-14.32,15.13C116.63,731.16,111,726.15,111,715.14Z"/><path class="cls-1" d="M148.4,730.27l3.76-4.48V672.08l-3.76-4.48H166c14.86,0,22.74,11.82,22.74,31.33s-8,31.34-22.47,31.34Zm25.88-31.34c0-16.2-2.6-26.85-8-26.85H166v52.37c0,.8.36,1.34,1.07,1.34C171.5,725.79,174.28,715.23,174.28,698.93Z"/><path class="cls-1" d="M232.38,667.6h12.8l-4.3,4.48L232,730.27h-8l-6.89-35.72-6.45,35.72h-8.06l-12.17-58.19-4.21-4.48H207.4l-3.4,4.48,6.17,32,4.3-23.64L212,667.6h12.9l6,36.53,4.93-32Z"/><path class="cls-1" d="M268.72,725.79l9.4-8.33v12.81H246.25l3.76-4.48V672.08l-3.49-4.48H277v11.55l-8.14-7.07h-5.1v21.21L274.45,690l-3.14,10.92-7.6-3.4v28.29Z"/><path class="cls-1" d="M281.43,730.27l3.76-4.48V672.08l-3.76-4.48h21.21l-3.76,4.48v53.71l3.76,4.48Z"/><path class="cls-1" d="M306.49,728.21V710.39l4.75,8.69c2.68,4.83,4.83,7.61,8.32,7.61,2.87,0,4.66-2.33,4.66-5.82,0-4.93-1.88-8.78-9.58-18.44-6.54-8.15-8.86-14.69-8.86-20.86,0-9.49,7.16-14.87,15.57-14.87,4.12,0,8.95,1.08,11.64,3v15l-3.58-5.91c-3.22-5.37-5.64-7.61-8.42-7.61a4.38,4.38,0,0,0-4.47,4.48c0,3.4,1.43,6.53,9,15.4,8.06,9.48,10.56,14.59,10.56,23.09,0,10.21-6.71,17-16.47,17C314.55,731.16,309.18,730,306.49,728.21Z"/><path class="cls-1" d="M361.37,725.79l9.4-8.33v12.81H338.9l3.76-4.48V672.08l-3.5-4.48H369.6v11.55l-8.14-7.07h-5.11v21.21L367.1,690,364,700.9l-7.61-3.4v28.29Z"/><path class="cls-1" d="M400,730.27l-8.33-29.37v24.89l4.39,4.48H374.08l3.76-4.48V672.08l-3.76-4.48h20.14c11.91,0,17.55,5.73,17.55,15.94a14.94,14.94,0,0,1-8.6,14.05L414,730.27Zm-8.33-58.19v23.18a1,1,0,0,0,1.17,1.17c1.88,0,5.19-2.69,5.19-12.18,0-10.11-3.31-12.17-5.55-12.17Z"/><path class="cls-1" d="M151.78,128.66c3.14,1.26,4.57,3.57,5,7,2.91,21.14,6,42.27,9,63.39l8.94,62.67c.38,2.62.91,5.24,1.07,7.87.13,2,.81,2.71,2.92,2.67,7.22-.14,14.45-.06,21.68-.06q48.57,0,97.12.05c2.12,0,3-.42,3.4-2.73q7.53-42.53,15.29-85c.12-.63.26-1.26.4-1.88.83-3.74,3.8-5.84,7.41-5.23a6.32,6.32,0,0,1,5,7.57c-1.92,10.82-3.9,21.63-5.86,32.45q-5.43,30.06-10.86,60.14c-1,5.63-2.83,7.27-8.51,7.27H178.29c.06,7.8,4.79,14.92,11.08,16.57a25.21,25.21,0,0,0,6.2.63q47,0,94,0c1,0,1.93,0,2.89.06a6.11,6.11,0,0,1,6,6,6.22,6.22,0,0,1-5.54,6.48,17.6,17.6,0,0,1-2.41.08H195c-16,0-27.23-10.18-29.33-26.06-2.6-19.72-5.54-39.4-8.35-59.1s-5.64-39.56-8.45-59.34c-1.29-9-2.62-18.1-3.82-27.17-.21-1.59-1-1.72-2.24-1.71-6.83,0-13.65.05-20.48,0a6.13,6.13,0,0,1-6.09-4.87,6.36,6.36,0,0,1,3.4-7l1.25-.66Z"/><path class="cls-1" d="M242.41,128.66c1,.28,2,.6,2.93.85a27.67,27.67,0,0,1,21.08,26.65c.07,4.32,0,8.65,0,13.3h9.28c3.21,0,6.43-.06,9.64,0,4,.12,6.36,2.5,6.6,6.49,0,.4,0,.8,0,1.2q0,33.48,0,67c0,7.38-4.08,12.84-10.73,14.36a19.92,19.92,0,0,1-4.3.34q-38.19,0-76.38,0c-9.55,0-15-5.55-15-15.15q0-33.12,0-66.24c0-5.83,2.14-8,8-8s11.52,0,17.56,0c0-4.09.11-7.92,0-11.75A27.68,27.68,0,0,1,234.57,129c.21,0,.4-.23.61-.35Zm-18.76,53.53c0,3.32,0,6.43,0,9.55,0,4.22-2.52,7-6.22,7.08s-6.35-2.86-6.38-7.18c0-3.11,0-6.21,0-9.39H198.12v2.48c0,19.5,0,39-.05,58.51,0,2.53.85,3.06,3.2,3.06,24.89-.08,49.78-.05,74.67-.05,3.31,0,3.32,0,3.32-3.3V182.11H266.44c0,3.54,0,6.74,0,9.94s-1.66,5.51-4.21,6.4a6.21,6.21,0,0,1-8.36-5.69c-.19-3.49,0-7,0-10.57Zm.31-12.95h29.67c0-4.93.26-9.67-.06-14.37A14.78,14.78,0,0,0,239.2,141.3c-7.3-.33-14.2,5-15.12,12.38C223.46,158.72,224,163.9,224,169.24Z"/><path class="cls-1" d="M202.9,327.62a23.89,23.89,0,1,1-24.1,23.72A24,24,0,0,1,202.9,327.62Zm-.14,12.61a11.28,11.28,0,1,0,11.36,11.26A11.24,11.24,0,0,0,202.76,340.23Z"/><path class="cls-1" d="M307.14,351.57a24,24,0,1,1-23.81-23.95A23.93,23.93,0,0,1,307.14,351.57Zm-12.64-.07a11.34,11.34,0,0,0-22.67.08,11.34,11.34,0,0,0,22.67-.08Z"/><path class="cls-1" d="M309.87,308.35a7.35,7.35,0,1,1,7.4,7.3A7.4,7.4,0,0,1,309.87,308.35Z"/><path class="cls-1" d="M651.79,367.25c-4.65-1.07-9.25-2.28-13.27-5-9.23-6.3-14-15-14-26.2q0-75.86,0-151.69v-54c0-5.4,2.3-7.72,7.67-7.72h171c5.42,0,7.68,2.26,7.68,7.67q0,64.62,0,129.23c0,4.7-2.25,7.46-6.08,7.55a6.19,6.19,0,0,1-6.36-5.57c-.09-.95,0-1.91,0-2.87V135.29H637.22c-.05.79-.14,1.48-.14,2.18q0,99.25,0,198.5c0,8.42,4.42,15,11.77,17.62,7.56,2.74,16,.67,20.82-5.34,4.43-5.48,5.41-11.67,2.6-18.14s-8.06-10.09-15.2-10.63c-3.83-.28-6-1.56-6.93-4.4a6.15,6.15,0,0,1,5.13-8.08,20.87,20.87,0,0,1,2.62-.1c48.81,0,97.62.12,146.43-.08a30.88,30.88,0,0,1,30.57,23.23,30.27,30.27,0,0,1-24.32,36.75,15.07,15.07,0,0,0-1.59.45Zm29-12.51H683q60.79,0,121.59,0a22,22,0,0,0,5.42-.66c8.38-2.15,14.13-10.41,13.1-18.65-1.15-9.32-8.28-15.92-17.55-15.94q-61.51-.07-123,0a14,14,0,0,0-1.62.19C688,331.33,688,342.81,680.74,354.74Z"/><path class="cls-1" d="M718,234.11h53c5.21,0,8.19,2.23,8.27,6.19s-3,6.43-8.29,6.43q-53.28,0-106.54,0a15.55,15.55,0,0,1-3.55-.34,6.18,6.18,0,0,1,.24-12,16.78,16.78,0,0,1,3.32-.26Z"/><path class="cls-1" d="M704.75,194.72c3.26,1.4,6.32,2.92,9.52,4a8.43,8.43,0,0,0,4.9,0c1.26-.39,2.89-1.66,3.08-2.77a5.49,5.49,0,0,0-1.66-4c-1.11-1.13-2.84-1.67-4.32-2.43-2.53-1.32-5.26-2.35-7.59-3.95a14.19,14.19,0,0,1,2.2-25c1.91-.87,2.7-1.79,2.46-3.85a42.56,42.56,0,0,1,0-4.95h11v6.64l10.38,4.33c-1.49,3.91-2.81,7.39-4.18,11a36,36,0,0,0-5.42-2.53,24,24,0,0,0-7-1,3.78,3.78,0,0,0-2.82,2.28c-.21.93.74,2.55,1.66,3.21a41.25,41.25,0,0,0,5.5,2.82,52.47,52.47,0,0,1,6.26,3.41,15.26,15.26,0,0,1-2.59,26.78c-1.75.78-2.41,1.64-2.24,3.5s0,3.62,0,5.57H712.78a57.32,57.32,0,0,0-.08-5.87,2.77,2.77,0,0,0-1.49-1.81c-2.94-1.36-6-2.53-8.93-3.82-1.13-.5-1.31-1.3-.83-2.52C702.67,200.66,703.74,197.51,704.75,194.72Z"/><path class="cls-1" d="M707.22,269.67q21.84,0,43.67,0c4.21,0,6.87,2.26,7.05,5.83a6.19,6.19,0,0,1-5.29,6.59,8.4,8.4,0,0,1-1.42.09q-44,0-88.06,0a8.54,8.54,0,0,1-2.79-.45,6.19,6.19,0,0,1,1.5-12,27.32,27.32,0,0,1,2.86-.08Z"/><path class="cls-1" d="M804.82,293.71a7.27,7.27,0,1,1,7.15-7.38A7.2,7.2,0,0,1,804.82,293.71Z"/><path class="cls-1" d="M571.78,490.12c0-20.15,7.25-32.23,19.06-32.23a16.68,16.68,0,0,1,10,3v15.85l-3.31-7.08c-2.6-5.55-4.39-7.34-6.45-7.34-3.4,0-4.92,8.33-4.92,27.76s1.52,27.75,4.92,27.75c2.06,0,3.85-1.79,6.45-7.34l3.31-7.07V519.3a16.68,16.68,0,0,1-10,3.05C579,522.35,571.78,510.26,571.78,490.12Z"/><path class="cls-1" d="M622,521.45l3.67-4.65-1.88-10.21H613.67l-1.88,10.21,3.76,4.65H603L607,516.8,616.45,467l-1.53-8.24h14l11.37,58,4.12,4.65Zm-7.52-19.34H623l-4.21-22.74Z"/><path class="cls-1" d="M672.4,521.45l-8.33-29.36V517l4.39,4.48H646.52l3.76-4.48V463.26l-3.76-4.48h20.15c11.9,0,17.54,5.73,17.54,15.94a14.92,14.92,0,0,1-8.59,14l10.83,32.68Zm-8.33-58.19v23.19a1,1,0,0,0,1.16,1.16c1.88,0,5.2-2.69,5.2-12.18,0-10.11-3.32-12.17-5.55-12.17Z"/><path class="cls-1" d="M687.34,490.12c0-20.15,10.48-32.23,21.4-32.23a17.46,17.46,0,0,1,11.1,3.4v14.86l-4-7.25c-2.59-4.66-4.12-6.54-6.71-6.54-4.12,0-7.34,8.33-7.34,27.76s1.61,27.75,5.64,27.75c1.88,0,3.4-1.52,3.4-4.48V494.15l-4.92-6.27h15.21v29.81c-3.13,3-9.93,4.66-14.41,4.66C695.58,522.35,687.34,510.26,687.34,490.12Z"/><path class="cls-1" d="M742,521.45l3.67-4.65-1.88-10.21H733.62l-1.88,10.21,3.76,4.65H723l3.94-4.65L736.4,467l-1.52-8.24h14l11.37,58,4.12,4.65Zm-7.52-19.34h8.5l-4.2-22.74Z"/><path class="cls-1" d="M808.19,463.26H804.7V517l3.76,4.48H787.15l3.76-4.48V463.26h-3.49l-6.71,7.07V458.78h34.2v11.55Z"/><path class="cls-1" d="M821.44,506.32V463.26l-3.76-4.48H839l-3.76,4.48V507.4c0,4.74,2,7,5.64,7,3.76,0,5.64-2.69,5.64-6.63V463.26l-3.76-4.48H856l-3.58,4.48v44c0,10.56-5.9,15.13-14.32,15.13C827.08,522.35,821.44,517.33,821.44,506.32Z"/><path class="cls-1" d="M859.84,519.39V501.58l4.75,8.68c2.68,4.83,4.83,7.61,8.32,7.61,2.87,0,4.66-2.33,4.66-5.82,0-4.92-1.88-8.77-9.58-18.44-6.54-8.15-8.87-14.68-8.87-20.86,0-9.49,7.17-14.86,15.58-14.86,4.12,0,8.95,1.07,11.64,2.95v15L882.76,470c-3.22-5.37-5.64-7.61-8.42-7.61a4.38,4.38,0,0,0-4.47,4.48c0,3.4,1.43,6.54,9,15.4,8.06,9.49,10.56,14.59,10.56,23.1,0,10.2-6.71,17-16.47,17C867.9,522.35,862.53,521.18,859.84,519.39Z"/><path class="cls-1" d="M607,570.68h-3.85v23.37l10.3-3.32-2.24,10.93-8.06-3V624.4l4.3,4.47H585.69l3.76-4.47V570.68L586,566.2h28.65v11.29Z"/><path class="cls-1" d="M628.75,628.87l3.68-4.65L630.55,614H620.43l-1.88,10.21,3.76,4.65H609.78l3.94-4.65,9.48-49.78-1.52-8.24h14l11.37,58,4.12,4.65Zm-7.51-19.34h8.5l-4.21-22.74Z"/><path class="cls-1" d="M649.7,597.54c0-20.15,7.25-32.23,19.07-32.23a16.7,16.7,0,0,1,10,3V584.2l-3.32-7.07c-2.59-5.55-4.38-7.34-6.44-7.34-3.4,0-4.92,8.32-4.92,27.75s1.52,27.75,4.92,27.75c2.06,0,3.85-1.79,6.44-7.34l3.32-7.07v15.84a16.7,16.7,0,0,1-10,3C657,629.77,649.7,617.68,649.7,597.54Z"/><path class="cls-1" d="M709.05,570.68h-3.49V624.4l3.76,4.47H688l3.77-4.47V570.68h-3.5l-6.71,7.07V566.2h34.2v11.55Z"/><path class="cls-1" d="M722.3,613.74V570.68l-3.76-4.48h21.31l-3.76,4.48v44.14c0,4.74,2.06,7,5.64,7,3.76,0,5.64-2.69,5.64-6.63V570.68l-3.76-4.48h13.25l-3.59,4.48v44c0,10.56-5.9,15.13-14.32,15.13C727.94,629.77,722.3,624.75,722.3,613.74Z"/><path class="cls-1" d="M785.59,628.87l-8.33-29.36V624.4l4.39,4.47H759.72l3.76-4.47V570.68l-3.76-4.48h20.14c11.91,0,17.55,5.73,17.55,15.94a15,15,0,0,1-8.6,14.06l10.83,32.67Zm-8.33-58.19v23.19a1,1,0,0,0,1.17,1.16c1.88,0,5.19-2.69,5.19-12.17,0-10.12-3.31-12.18-5.55-12.18Z"/><path class="cls-1" d="M819.52,628.87l3.67-4.65L821.31,614H811.19l-1.88,10.21,3.76,4.65H800.54l3.94-4.65L814,574.44l-1.53-8.24h14l11.37,58,4.12,4.65ZM812,609.53h8.5l-4.21-22.74Z"/><path class="cls-1" d="M845,626.81V609l4.74,8.68c2.69,4.84,4.84,7.61,8.33,7.61,2.86,0,4.65-2.33,4.65-5.82,0-4.92-1.88-8.77-9.58-18.44-6.53-8.15-8.86-14.68-8.86-20.86,0-9.49,7.16-14.86,15.58-14.86,4.12,0,9,1.07,11.64,3v15L868,577.39c-3.23-5.37-5.64-7.6-8.42-7.6a4.38,4.38,0,0,0-4.48,4.47c0,3.4,1.44,6.54,9,15.4,8,9.49,10.56,14.59,10.56,23.1,0,10.2-6.71,17-16.47,17C853.08,629.77,847.71,628.6,845,626.81Z"/><path class="cls-1" d="M558.84,736.29l3.76-4.47V678.1l-3.76-4.47h17.64c14.86,0,22.74,11.81,22.74,31.33s-8,31.33-22.47,31.33ZM584.71,705c0-16.2-2.59-26.86-8-26.86h-.36v52.37c0,.81.36,1.35,1.07,1.35C581.94,731.82,584.71,721.25,584.71,705Z"/><path class="cls-1" d="M625.45,731.82l9.4-8.33v12.8H603l3.76-4.47V678.1l-3.49-4.47h30.44v11.55l-8.15-7.08h-5.1v21.22L631.17,696,628,706.93l-7.61-3.4v28.29Z"/><path class="cls-1" d="M653.37,705c0-20.14,7.25-32.23,19.07-32.23a16.7,16.7,0,0,1,10,3v15.85l-3.32-7.07c-2.59-5.55-4.38-7.34-6.44-7.34-3.4,0-4.93,8.32-4.93,27.75s1.53,27.75,4.93,27.75c2.06,0,3.85-1.79,6.44-7.34l3.32-7.07v15.84a16.7,16.7,0,0,1-10,3.05C660.62,737.19,653.37,725.1,653.37,705Z"/><path class="cls-1" d="M686.22,705c0-19.52,6.81-32.23,18.8-32.23s18.8,12.71,18.8,32.23-6.71,32.23-18.8,32.23S686.22,724.48,686.22,705Zm23.1,0c0-20.68-1.25-27.75-4.3-27.75s-4.38,7.07-4.38,27.75S702,732.71,705,732.71,709.32,725.64,709.32,705Z"/><path class="cls-1" d="M772.61,678.1v53.72l3.76,4.47H755.06l3.76-4.47V698.51l-7.88,37.78h-6.08l-7.61-37.78v33.31l3.76,4.47H727.58l3.76-4.47V682.67l-3.14-9h18.45l5.55,29.09,6.62-29.09h17.55Z"/><path class="cls-1" d="M779.23,736.29l3.76-4.47V678.1l-3.76-4.47H798.3c12.62,0,19,8.23,19,19.33s-6.36,19.34-19,19.34h-1.61v19.52l4.3,4.47Zm17.46-29.63a1,1,0,0,0,1.07,1.17c2.69,0,4.93-4.75,4.93-14.87s-2.24-14.86-5.2-14.86h-.8Z"/><path class="cls-1" d="M845.83,736.29l-8.32-29.36v24.89l4.38,4.47H820l3.76-4.47V678.1L820,673.63H840.1c11.91,0,17.55,5.73,17.55,15.93a14.94,14.94,0,0,1-8.59,14.06l10.83,32.67Zm-8.32-58.19v23.19a1,1,0,0,0,1.16,1.16c1.88,0,5.19-2.68,5.19-12.17,0-10.12-3.31-12.18-5.55-12.18Z"/><path class="cls-1" d="M879.76,736.29l3.67-4.65-1.88-10.21H871.43l-1.88,10.21,3.76,4.65H860.78l3.94-4.65,9.49-49.78-1.52-8.23h14l11.37,58,4.12,4.65ZM872.24,717h8.5l-4.2-22.74Z"/><path class="cls-1" d="M1074.7,532.41l3.76-4.48V474.22l-3.76-4.48h19.07c12.62,0,19,8.24,19,19.34s-6.36,19.34-19,19.34h-1.61v19.51l4.3,4.48Zm17.46-29.63a1,1,0,0,0,1.07,1.16c2.69,0,4.93-4.74,4.93-14.86s-2.24-14.86-5.2-14.86h-.8Z"/><path class="cls-1" d="M1127.25,532.41l3.67-4.65L1129,517.55h-10.12L1117,527.76l3.76,4.65h-12.53l3.94-4.65L1121.7,478l-1.52-8.24h14l11.37,58,4.12,4.65Zm-7.52-19.34h8.5l-4.2-22.74Z"/><path class="cls-1" d="M1177.65,532.41l-8.33-29.36v24.88l4.39,4.48h-21.93l3.76-4.48V474.22l-3.76-4.48h20.14c11.91,0,17.55,5.73,17.55,15.94a14.93,14.93,0,0,1-8.6,14.05l10.83,32.68Zm-8.33-58.19v23.19a1,1,0,0,0,1.17,1.16c1.88,0,5.19-2.69,5.19-12.18,0-10.11-3.31-12.17-5.55-12.17Z"/><path class="cls-1" d="M1219.63,474.22h-3.49v53.71l3.76,4.48h-21.31l3.77-4.48V474.22h-3.5l-6.71,7.07V469.74h34.2v11.55Z"/><path class="cls-1" d="M1229.12,532.41l3.76-4.48V474.22l-3.76-4.48h21.22l-3.76,4.48v53.71l3.76,4.48Z"/><path class="cls-1" d="M1254.09,501.08c0-20.15,7.26-32.23,19.07-32.23a16.68,16.68,0,0,1,10,3v15.85l-3.31-7.07c-2.6-5.55-4.39-7.34-6.45-7.34-3.4,0-4.92,8.32-4.92,27.75s1.52,27.75,4.92,27.75c2.06,0,3.85-1.79,6.45-7.34l3.31-7.07v15.84a16.68,16.68,0,0,1-10,3C1261.35,533.31,1254.09,521.22,1254.09,501.08Z"/><path class="cls-1" d="M1286.05,532.41l3.76-4.48V474.22l-3.76-4.48h21.22l-3.76,4.48v53.71l3.76,4.48Z"/><path class="cls-1" d="M1310.13,532.41l3.76-4.48V474.22l-3.76-4.48h19.07c12.62,0,19,8.24,19,19.34s-6.36,19.34-19,19.34h-1.61v19.51l4.3,4.48Zm17.46-29.63a1,1,0,0,0,1.07,1.16c2.69,0,4.93-4.74,4.93-14.86s-2.24-14.86-5.2-14.86h-.8Z"/><path class="cls-1" d="M1362.68,532.41l3.67-4.65-1.88-10.21h-10.12l-1.88,10.21,3.76,4.65H1343.7l3.94-4.65,9.49-49.78-1.52-8.24h14l11.37,58,4.12,4.65Zm-7.52-19.34h8.5l-4.2-22.74Z"/><path class="cls-1" d="M1424,527.93l9.4-8.32v12.8h-31.87l3.76-4.48V474.22l-3.49-4.48h30.44v11.55l-8.15-7.07H1419v21.22l10.74-3.32-3.14,10.93-7.6-3.4v28.28Z"/><path class="cls-1" d="M1462.67,469.74h13.43l-3.76,4.48v58.19h-3.94l-22-44.4v39.92l3.76,4.48h-13.43l3.76-4.48V476.1l-3.14-6.36h16.12l13,26.95V474.22Z"/><path class="cls-1" d="M1091.27,635.36l9.4-8.33v12.8H1068.8l3.76-4.47V581.64l-3.5-4.48h30.44v11.55l-8.14-7.07h-5.11v21.22l10.75-3.31-3.14,10.92-7.61-3.4v28.29Z"/><path class="cls-1" d="M1126.8,635.36l8.69-10.66v15.13H1104l3.76-4.47V581.64l-3.76-4.48h21.21l-3.76,4.48v53.72Z"/><path class="cls-1" d="M1178.72,639.83l-8.32-29.36v24.89l4.38,4.47h-21.93l3.76-4.47V581.64l-3.76-4.48H1173c11.91,0,17.55,5.73,17.55,15.94a14.94,14.94,0,0,1-8.6,14.06l10.84,32.67Zm-8.32-58.19v23.19a1,1,0,0,0,1.16,1.16c1.88,0,5.19-2.68,5.19-12.17,0-10.12-3.31-12.18-5.55-12.18Z"/><path class="cls-1" d="M1212.65,639.83l3.67-4.65L1214.44,625h-10.12l-1.88,10.21,3.76,4.65h-12.53l3.94-4.65,9.49-49.78-1.52-8.24h14l11.37,58,4.12,4.65Zm-7.52-19.34h8.5l-4.2-22.73Z"/><path class="cls-1" d="M1263.14,577.16h13.43l-3.76,4.48v58.19h-3.94l-22-44.4v39.93l3.77,4.47h-13.43l3.76-4.47V583.52l-3.14-6.36h16.12l13,27V581.64Z"/><path class="cls-1" d="M1298,611.9l-1.08,2.24v21.22l3.76,4.47h-21.21l3.76-4.47V581.73l-3.76-4.57h21.21l-3.76,4.57v20.95l9.76-20.95-2.41-4.57h12.89l-4.84,4.66-6.35,13.25,14.68,44.76h-13.79Z"/><path class="cls-1" d="M1323.11,639.83l3.76-4.47V581.64l-3.76-4.48h21.22l-3.76,4.48v53.72l3.76,4.47Z"/><path class="cls-1" d="M1373.15,577.16h13.43l-3.76,4.48v58.19h-3.94l-22-44.4v39.93l3.76,4.47h-13.43l3.76-4.47V583.52l-3.13-6.36h16.11l13,27V581.64Z"/><path class="cls-1" d="M1390.34,608.5c0-20.14,10.47-32.23,21.39-32.23,4.93,0,8.42,1.34,11.1,3.4v14.86l-4-7.25c-2.6-4.65-4.12-6.53-6.72-6.53-4.12,0-7.34,8.32-7.34,27.75s1.61,27.75,5.64,27.75c1.88,0,3.4-1.52,3.4-4.47V612.53l-4.92-6.27h15.22v29.81c-3.13,3-9.94,4.66-14.42,4.66C1398.57,640.73,1390.34,628.64,1390.34,608.5Z"/><path class="cls-1" d="M1443.51,608.5c0-19.52,6.8-32.23,18.8-32.23s18.8,12.71,18.8,32.23-6.71,32.23-18.8,32.23S1443.51,628,1443.51,608.5Zm23.1,0c0-20.68-1.26-27.75-4.3-27.75s-4.39,7.07-4.39,27.75,1.35,27.75,4.39,27.75S1466.61,629.18,1466.61,608.5Z"/><path class="cls-1" d="M1045.07,747.25l-8.32-29.36v24.89l4.38,4.47H1019.2l3.76-4.47V689.06l-3.76-4.47h20.14c11.91,0,17.55,5.73,17.55,15.93a14.94,14.94,0,0,1-8.59,14.06l10.83,32.67Zm-8.32-58.19v23.19a1,1,0,0,0,1.16,1.16c1.88,0,5.19-2.68,5.19-12.17,0-10.12-3.31-12.18-5.55-12.18Z"/><path class="cls-1" d="M1083.39,742.78l9.4-8.33v12.8h-31.87l3.76-4.47V689.06l-3.49-4.47h30.43v11.55l-8.14-7.08h-5.1v21.22l10.74-3.31L1086,717.89l-7.6-3.4v28.29Z"/><path class="cls-1" d="M1096.1,747.25l3.76-4.47V689.06l-3.76-4.47h17.63c14.87,0,22.74,11.81,22.74,31.33s-8,31.33-22.47,31.33ZM1122,715.92c0-16.2-2.6-26.86-8-26.86h-.36v52.38c0,.8.36,1.34,1.08,1.34C1119.19,742.78,1122,732.21,1122,715.92Z"/><path class="cls-1" d="M1140.23,747.25l3.76-4.47V689.06l-3.76-4.47h21.22l-3.76,4.47v53.72l3.76,4.47Z"/><path class="cls-1" d="M1209.34,689.06v53.72l3.76,4.47h-21.31l3.76-4.47V709.47l-7.88,37.78h-6.08L1174,709.47v33.31l3.76,4.47h-13.43l3.76-4.47V693.63l-3.13-9h18.44l5.55,29.09,6.62-29.09h17.55Z"/><path class="cls-1" d="M1238.43,742.78l9.4-8.33v12.8H1216l3.76-4.47V689.06l-3.49-4.47h30.44v11.55l-8.15-7.08h-5.1v21.22l10.74-3.31L1241,717.89l-7.61-3.4v28.29Z"/><path class="cls-1" d="M1265.46,747.25l3.76-4.47V689.06l-3.76-4.47h19.07c12.62,0,19,8.23,19,19.33s-6.36,19.34-19,19.34h-1.61v19.52l4.3,4.47Zm17.46-29.63a1,1,0,0,0,1.07,1.17c2.69,0,4.93-4.75,4.93-14.87s-2.24-14.86-5.19-14.86h-.81Z"/><path class="cls-1" d="M1332.06,747.25l-8.32-29.36v24.89l4.38,4.47h-21.93l3.76-4.47V689.06l-3.76-4.47h20.14c11.91,0,17.55,5.73,17.55,15.93a14.94,14.94,0,0,1-8.59,14.06l10.83,32.67Zm-8.32-58.19v23.19a1,1,0,0,0,1.16,1.16c1.88,0,5.19-2.68,5.19-12.17,0-10.12-3.31-12.18-5.55-12.18Z"/><path class="cls-1" d="M1370.38,742.78l9.4-8.33v12.8h-31.87l3.76-4.47V689.06l-3.49-4.47h30.43v11.55l-8.14-7.08h-5.1v21.22l10.74-3.31L1373,717.89l-7.6-3.4v28.29Z"/><path class="cls-1" d="M1428.12,689.06v53.72l3.76,4.47h-21.31l3.76-4.47V709.47l-7.88,37.78h-6.08l-7.61-37.78v33.31l3.76,4.47h-13.43l3.76-4.47V693.63l-3.14-9h18.45l5.55,29.09,6.62-29.09h17.55Z"/><path class="cls-1" d="M1434.74,747.25l3.76-4.47V689.06l-3.76-4.47H1456l-3.76,4.47v53.72l3.76,4.47Z"/><path class="cls-1" d="M1459.71,715.92c0-19.52,6.81-32.23,18.8-32.23s18.8,12.71,18.8,32.23-6.71,32.23-18.8,32.23S1459.71,735.44,1459.71,715.92Zm23.1,0c0-20.68-1.25-27.75-4.3-27.75s-4.38,7.07-4.38,27.75,1.34,27.75,4.38,27.75S1482.81,736.6,1482.81,715.92Z"/><path class="cls-1" d="M1502.05,745.2V727.38l4.75,8.68c2.69,4.84,4.83,7.61,8.32,7.61,2.87,0,4.66-2.33,4.66-5.82,0-4.92-1.88-8.77-9.58-18.44-6.53-8.15-8.86-14.68-8.86-20.86,0-9.49,7.16-14.86,15.58-14.86,4.11,0,8.95,1.08,11.63,2.95v15.05l-3.58-5.91c-3.22-5.37-5.64-7.61-8.41-7.61a4.38,4.38,0,0,0-4.48,4.47c0,3.41,1.43,6.54,9,15.4,8.06,9.49,10.57,14.59,10.57,23.1,0,10.2-6.72,17-16.48,17C1510.11,748.15,1504.74,747,1502.05,745.2Z"/><path class="cls-1" d="M1425.89,366.38c-1.8,3.36-4.64,4.4-8.37,4.38-27.5-.09-55-.05-82.5-.05H1145.19c-6.82,0-8.64-1.85-8.64-8.75V237.37c0-6.3,2-8.29,8.23-8.29h84.07v-3.38q0-18.91,0-37.85c0-5.89,2.1-8,8-8h88.43c6.29,0,8.3,2,8.3,8.23q0,40,0,80v4.1h3.73c26.75,0,53.49,0,80.23,0,3.74,0,6.59,1,8.35,4.43Zm-184.55-8.19h79.76V192.39h-79.72v12.05h46.52a23.31,23.31,0,0,1,3.65.22,5.87,5.87,0,0,1,5,6.22c-.13,3.58-2.71,5.83-6.9,5.83q-22.45,0-44.92,0h-3.37Zm-92.29,0h79.52V241.59h-79.51v12.19h38.45c3.67,0,7.35-.08,11,.07a6,6,0,0,1,5.74,5.87,6.12,6.12,0,0,1-5.72,6.19c-.93.09-1.88.06-2.82.06h-46.68Zm184.78-61.36h18c10.27,0,20.53,0,30.79,0a6.07,6.07,0,0,1,6.35,5.88,6.23,6.23,0,0,1-5.91,6.37,23.87,23.87,0,0,1-2.54.05h-46.57v49h79.42V284.67h-79.51Z"/><path class="cls-1" d="M1425.89,390.68c-1.51,3.43-4.1,4.65-7.86,4.65q-136.85-.1-273.68-.06a19.54,19.54,0,0,1-2.54-.08,6.13,6.13,0,0,1-5.24-5.78,6,6,0,0,1,4.47-6.09A17.13,17.13,0,0,1,1145,383q136.27,0,272.55-.06c3.73,0,6.57,1,8.38,4.38Z"/><path class="cls-1" d="M1281,167.5h-44.33c-5.67,0-7.8-2.14-7.82-7.86q0-10.72,0-21.46c0-5.38,2.2-7.51,7.55-7.52,6.87,0,13.74.08,20.61-.08a6.79,6.79,0,0,0,4.12-1.68c5-4.8,9.89-9.81,14.84-14.71,3.38-3.35,6.64-3.37,10,0,5,4.89,9.8,9.9,14.84,14.7a6.7,6.7,0,0,0,4.12,1.68c7.15.17,14.31.06,21.46.09,4.77,0,7.07,2.26,7.11,7.1q.11,11.3,0,22.59c0,4.92-2.38,7.14-7.38,7.14Q1303.59,167.52,1281,167.5Zm40-12.52V142.91c-4.91,0-9.65-.38-14.29.09-6.67.68-11.8-1.26-16-6.57-2.83-3.57-6.39-6.55-9.74-9.92-4.41,4.44-8.7,8.54-12.73,12.88a10.55,10.55,0,0,1-8.75,3.57c-5.08-.2-10.17-.06-15.25,0-1,0-2,.12-2.93.19V155Z"/><path class="cls-1" d="M1278.55,278.19l-11.87,5.12v-9.05c4-2.63,7.73-5.07,11.46-7.49a3.67,3.67,0,0,1,1.7-.79c3-.08,6,0,9.26,0v34h9.42v9h-30.21v-8.91h10.24Z"/><path class="cls-1" d="M1308.81,216.7a6.08,6.08,0,1,1,6.26-5.89A6.16,6.16,0,0,1,1308.81,216.7Z"/><path class="cls-1" d="M1216.61,266a6.08,6.08,0,1,1,6.07-6.11A6,6,0,0,1,1216.61,266Z"/><path class="cls-1" d="M1407.34,303a6.08,6.08,0,1,1-12.15-.29,6.08,6.08,0,0,1,12.15.29Z"/><rect class="cls-1" x="974.58" y="98.28" width="6.8" height="694.47"/><rect class="cls-1" x="479.6" y="98.28" width="6.8" height="694.47"/></svg>