<svg id="Capa_1" data-name="Capa 1" xmlns="http://www.w3.org/2000/svg" viewBox="0 0 1576.13 456.93"><defs><style>.cls-1{fill:#d92428;}</style></defs><path class="cls-1" d="M125.22,271.88c0-11.5,4.14-18.39,10.88-18.39a9.51,9.51,0,0,1,5.72,1.73v9l-1.89-4c-1.48-3.17-2.5-4.19-3.67-4.19-1.94,0-2.81,4.75-2.81,15.84s.87,15.84,2.81,15.84c1.17,0,2.19-1,3.67-4.19l1.89-4v9a9.51,9.51,0,0,1-5.72,1.74C129.36,290.27,125.22,283.37,125.22,271.88Z"/><path class="cls-1" d="M144,271.88c0-11.14,3.88-18.39,10.73-18.39s10.72,7.25,10.72,18.39-3.83,18.39-10.72,18.39S144,283,144,271.88Zm13.18,0c0-11.8-.72-15.84-2.45-15.84s-2.51,4-2.51,15.84.77,15.84,2.51,15.84S157.15,283.68,157.15,271.88Z"/><path class="cls-1" d="M193.26,256.55V287.2l2.15,2.56H183.25l2.15-2.56v-19l-4.5,21.56h-3.47l-4.34-21.56v19l2.14,2.56h-7.66l2.14-2.56v-28L167.93,254h10.52l3.17,16.6L185.4,254h10Z"/><path class="cls-1" d="M197,289.76l2.15-2.56V256.55L197,254h10.88c7.21,0,10.83,4.7,10.83,11s-3.62,11-10.83,11H207V287.2l2.46,2.56Zm10-16.91a.58.58,0,0,0,.62.66c1.53,0,2.81-2.71,2.81-8.48s-1.28-8.48-3-8.48H207Z"/><path class="cls-1" d="M235.05,289.76,230.3,273v14.2l2.5,2.56H220.28l2.15-2.56V256.55L220.28,254h11.5c6.79,0,10,3.27,10,9.09a8.53,8.53,0,0,1-4.9,8l6.18,18.65Zm-4.75-33.21v13.23a.59.59,0,0,0,.66.67c1.07,0,3-1.54,3-6.95,0-5.77-1.89-6.95-3.16-6.95Z"/><path class="cls-1" d="M254.41,289.76l2.09-2.66-1.07-5.82h-5.77l-1.08,5.82,2.15,2.66h-7.15l2.25-2.66,5.41-28.4-.87-4.7h8l6.49,33.1,2.35,2.66Zm-4.29-11H255l-2.4-13Z"/><path class="cls-1" d="M96.28,351.06l2.15-2.56V317.85l-2.15-2.55h10.89c7.2,0,10.83,4.7,10.83,11s-3.63,11-10.83,11h-.92V348.5l2.45,2.56Zm10-16.91c0,.46.25.66.61.66,1.53,0,2.81-2.71,2.81-8.48s-1.28-8.48-3-8.48h-.46Z"/><path class="cls-1" d="M134.29,351.06l-4.75-16.76v14.2l2.5,2.56H119.53l2.14-2.56V317.85l-2.14-2.55H131c6.8,0,10,3.27,10,9.09a8.51,8.51,0,0,1-4.9,8l6.18,18.65Zm-4.75-33.21v13.23a.6.6,0,0,0,.66.67c1.08,0,3-1.54,3-6.95,0-5.77-1.89-6.95-3.17-6.95Z"/><path class="cls-1" d="M142.82,333.18c0-11.14,3.88-18.39,10.73-18.39s10.73,7.25,10.73,18.39-3.83,18.39-10.73,18.39S142.82,344.31,142.82,333.18Zm13.18,0c0-11.8-.71-15.84-2.45-15.84s-2.5,4-2.5,15.84.76,15.83,2.5,15.83S156,345,156,333.18Z"/><path class="cls-1" d="M166.42,351.06l2.15-2.56V317.85l-2.15-2.55h10.06c8.48,0,13,6.74,13,17.88s-4.55,17.88-12.82,17.88Zm14.76-17.88c0-9.25-1.48-15.33-4.54-15.33h-.21v29.89c0,.46.21.76.62.76C179.6,348.5,181.18,342.47,181.18,333.18Z"/><path class="cls-1" d="M193.75,342.42V317.85l-2.15-2.55h12.16l-2.14,2.55V343c0,2.7,1.17,4,3.21,4s3.22-1.53,3.22-3.78V317.85l-2.14-2.55h7.56l-2.05,2.55v25.08c0,6-3.37,8.64-8.17,8.64C197,351.57,193.75,348.71,193.75,342.42Z"/><path class="cls-1" d="M215.61,333.18c0-11.5,4.14-18.39,10.88-18.39a9.51,9.51,0,0,1,5.72,1.73v9l-1.89-4c-1.48-3.17-2.5-4.19-3.67-4.19-2,0-2.81,4.75-2.81,15.84S224.7,349,226.65,349c1.17,0,2.19-1,3.67-4.19l1.89-4v9a9.51,9.51,0,0,1-5.72,1.74C219.75,351.57,215.61,344.67,215.61,333.18Z"/><path class="cls-1" d="M249.48,317.85h-2V348.5l2.14,2.56H237.47l2.15-2.56V317.85h-2l-3.83,4V315.3h19.51v6.59Z"/><path class="cls-1" d="M254.18,333.18c0-11.14,3.88-18.39,10.73-18.39s10.72,7.25,10.72,18.39-3.83,18.39-10.72,18.39S254.18,344.31,254.18,333.18Zm13.18,0c0-11.8-.72-15.84-2.45-15.84s-2.51,4-2.51,15.84.77,15.83,2.51,15.83S267.36,345,267.36,333.18Z"/><path class="cls-1" d="M278.34,349.88V339.72l2.71,4.95c1.53,2.76,2.76,4.34,4.75,4.34,1.63,0,2.65-1.33,2.65-3.32,0-2.81-1.07-5-5.46-10.52-3.73-4.65-5.06-8.38-5.06-11.9,0-5.42,4.09-8.48,8.89-8.48a12.82,12.82,0,0,1,6.64,1.68v8.58l-2-3.37c-1.84-3.06-3.22-4.34-4.81-4.34a2.5,2.5,0,0,0-2.55,2.55c0,1.95.82,3.73,5.11,8.79,4.6,5.42,6,8.33,6,13.18,0,5.82-3.83,9.71-9.4,9.71C282.94,351.57,279.87,350.9,278.34,349.88Z"/><path class="cls-1" d="M96,412.36l2.14-2.56V379.15L96,376.59h10.47c7.46,0,11.24,3,11.24,8.49,0,4.75-3.83,7.05-7.87,7.86,4,.72,8.89,3.53,8.89,9.71,0,6-5.31,9.71-12.06,9.71Zm10-20.75h.31c2.3,0,4-1.89,4-6.23s-1.73-6.23-4-6.23h-.31Zm4.6,10.43c0-5.32-1.64-7.77-4.09-7.77h-.51v15c0,.41.15.61.66.61C108.9,409.85,110.54,407.35,110.54,402Z"/><path class="cls-1" d="M122.69,403.72V379.15l-2.14-2.56h12.16l-2.15,2.56v25.19c0,2.7,1.18,4,3.22,4s3.22-1.53,3.22-3.78V379.15l-2.15-2.56h7.56l-2,2.56v25.08c0,6-3.37,8.64-8.17,8.64C125.91,412.87,122.69,410,122.69,403.72Z"/><path class="cls-1" d="M144.05,412.36l2.14-2.56V379.15l-2.14-2.56h10.06c8.48,0,13,6.75,13,17.89s-4.55,17.88-12.83,17.88Zm14.76-17.88c0-9.25-1.48-15.33-4.55-15.33h-.2V409c0,.45.2.76.61.76C157.23,409.8,158.81,403.77,158.81,394.48Z"/><path class="cls-1" d="M192,376.59h7.31l-2.45,2.56-5.06,33.21h-4.55L183.28,392l-3.68,20.39H175l-6.95-33.21-2.4-2.56h12.06l-1.94,2.56,3.52,18.29L181.75,384l-1.43-7.36h7.35l3.42,20.85,2.81-18.29Z"/><path class="cls-1" d="M212.7,409.8l5.37-4.75v7.31H199.88L202,409.8V379.15l-2-2.56H217.4v6.6l-4.65-4h-2.91v12.11l6.13-1.89-1.79,6.23-4.34-1.94V409.8Z"/><path class="cls-1" d="M220,412.36l2.15-2.56V379.15L220,376.59h12.11l-2.14,2.56V409.8l2.14,2.56Z"/><path class="cls-1" d="M234.26,411.18V401l2.7,5c1.54,2.76,2.76,4.34,4.75,4.34,1.64,0,2.66-1.33,2.66-3.32,0-2.81-1.07-5-5.47-10.52-3.72-4.65-5.05-8.38-5.05-11.91,0-5.41,4.08-8.48,8.89-8.48a12.85,12.85,0,0,1,6.64,1.69v8.58l-2-3.37c-1.84-3.06-3.21-4.34-4.8-4.34a2.49,2.49,0,0,0-2.55,2.55c0,1.94.82,3.73,5.11,8.79,4.59,5.41,6,8.33,6,13.18,0,5.82-3.83,9.71-9.4,9.71C238.85,412.87,235.79,412.2,234.26,411.18Z"/><path class="cls-1" d="M265.57,409.8l5.36-4.75v7.31H252.75l2.14-2.56V379.15l-2-2.56h17.37v6.6l-4.65-4h-2.91v12.11l6.13-1.89-1.79,6.23-4.34-1.94V409.8Z"/><path class="cls-1" d="M287.59,412.36l-4.75-16.76v14.2l2.5,2.56H272.82L275,409.8V379.15l-2.15-2.56h11.5c6.79,0,10,3.27,10,9.1a8.53,8.53,0,0,1-4.91,8l6.19,18.65Zm-4.75-33.21v13.23a.59.59,0,0,0,.66.67c1.07,0,3-1.54,3-6.95,0-5.78-1.89-7-3.17-7Z"/><path class="cls-1" d="M146,69.05a4.48,4.48,0,0,1,2.87,4c1.66,12.07,3.41,24.12,5.13,36.18l5.1,35.76c.21,1.49.52,3,.61,4.49.07,1.16.46,1.54,1.66,1.52,4.13-.08,8.25,0,12.38,0q27.71,0,55.42,0c1.21,0,1.7-.23,1.94-1.55,2.86-16.18,5.8-32.35,8.72-48.52.07-.36.15-.72.23-1.07a3.6,3.6,0,1,1,7.08,1.34c-1.09,6.17-2.23,12.34-3.34,18.51q-3.11,17.16-6.2,34.32c-.57,3.21-1.62,4.15-4.86,4.15H161.1c0,4.45,2.73,8.51,6.32,9.45A14,14,0,0,0,171,168q26.82,0,53.63,0c.55,0,1.1,0,1.65,0a3.49,3.49,0,0,1,3.41,3.44,3.56,3.56,0,0,1-3.16,3.7,10.55,10.55,0,0,1-1.38,0H170.66c-9.14,0-15.54-5.81-16.74-14.87-1.48-11.25-3.16-22.48-4.76-33.72l-4.83-33.86c-.73-5.17-1.49-10.33-2.18-15.51-.12-.9-.55-1-1.27-1-3.9,0-7.8,0-11.69,0a3.52,3.52,0,0,1-3.48-2.78,3.64,3.64,0,0,1,1.94-4l.72-.38Z"/><path class="cls-1" d="M197.69,69.05c.55.17,1.11.35,1.67.49a15.79,15.79,0,0,1,12,15.21c0,2.46,0,4.93,0,7.59h5.29c1.83,0,3.67,0,5.5,0a3.59,3.59,0,0,1,3.77,3.7c0,.22,0,.45,0,.68q0,19.11,0,38.22c0,4.21-2.32,7.32-6.12,8.19a11.11,11.11,0,0,1-2.45.2q-21.79,0-43.59,0c-5.45,0-8.58-3.17-8.58-8.64V96.91c0-3.33,1.23-4.56,4.55-4.57s6.58,0,10,0c0-2.34.06-4.52,0-6.71a15.8,15.8,0,0,1,13.43-16.38c.13,0,.24-.13.35-.2ZM187,99.6c0,1.9,0,3.67,0,5.45,0,2.41-1.44,4-3.55,4s-3.62-1.63-3.63-4.1c0-1.77,0-3.54,0-5.35h-7.37v1.41c0,11.13,0,22.26,0,33.39,0,1.44.48,1.75,1.82,1.74,14.21,0,28.41,0,42.61,0,1.89,0,1.9,0,1.9-1.89V99.56H211.4c0,2,0,3.84,0,5.67a3.7,3.7,0,0,1-2.4,3.65,3.54,3.54,0,0,1-4.77-3.24c-.11-2,0-4,0-6Zm.17-7.39h16.93c0-2.81.15-5.52,0-8.2a8.43,8.43,0,0,0-8.2-7.74,8.3,8.3,0,0,0-8.63,7.06A72.82,72.82,0,0,0,187.16,92.21Z"/><path class="cls-1" d="M175.14,182.59a13.64,13.64,0,1,1-13.75,13.54A13.69,13.69,0,0,1,175.14,182.59Zm-.08,7.19a6.44,6.44,0,1,0,6.49,6.43A6.43,6.43,0,0,0,175.06,189.78Z"/><path class="cls-1" d="M234.63,196.26A13.67,13.67,0,1,1,221,182.59,13.67,13.67,0,0,1,234.63,196.26Zm-7.22,0a6.47,6.47,0,0,0-12.93,0,6.47,6.47,0,0,0,12.93,0Z"/><path class="cls-1" d="M236.18,171.59a4.2,4.2,0,1,1,4.23,4.17A4.23,4.23,0,0,1,236.18,171.59Z"/><path class="cls-1" d="M709.11,201.77a21.5,21.5,0,0,1-7.57-2.87,17.14,17.14,0,0,1-8-15V66.58c0-3.08,1.31-4.4,4.38-4.4h97.6c3.09,0,4.38,1.28,4.38,4.37V140.3c0,2.68-1.28,4.25-3.47,4.3a3.52,3.52,0,0,1-3.63-3.18,14.78,14.78,0,0,1,0-1.63V69.4h-92c0,.45-.09.85-.09,1.24V183.92c0,4.8,2.53,8.53,6.72,10.05a10.57,10.57,0,0,0,11.88-3.05,9.5,9.5,0,0,0,1.48-10.35,9.65,9.65,0,0,0-8.67-6.06c-2.18-.17-3.41-.9-4-2.51a3.52,3.52,0,0,1,2.93-4.62,12.3,12.3,0,0,1,1.49,0c27.86,0,55.71.06,83.56-.05a17.64,17.64,0,0,1,17.45,13.26,17.29,17.29,0,0,1-13.89,21,7.62,7.62,0,0,0-.9.26Zm16.52-7.14h1.28q34.7,0,69.38,0a12.47,12.47,0,0,0,3.1-.38,10,10,0,0,0-2.54-19.73q-35.1,0-70.2,0a7,7,0,0,0-.93.11C729.8,181.27,729.78,187.82,725.63,194.63Z"/><path class="cls-1" d="M746.87,125.79h30.26c3,0,4.68,1.27,4.73,3.53s-1.72,3.67-4.74,3.67H716.33a8.63,8.63,0,0,1-2-.2,3.52,3.52,0,0,1,.14-6.84,9.26,9.26,0,0,1,1.9-.15Z"/><path class="cls-1" d="M739.33,103.31c1.86.8,3.61,1.67,5.43,2.28a4.77,4.77,0,0,0,2.8,0,2.73,2.73,0,0,0,1.76-1.59,3.11,3.11,0,0,0-1-2.29,9.08,9.08,0,0,0-2.46-1.39,38.74,38.74,0,0,1-4.34-2.26,8.1,8.1,0,0,1,1.26-14.26c1.09-.49,1.54-1,1.4-2.19a26.26,26.26,0,0,1,0-2.82h6.25v3.78l5.92,2.48L754,91.35a20.38,20.38,0,0,0-3.09-1.44,13.45,13.45,0,0,0-4-.59,2.15,2.15,0,0,0-1.61,1.3,2.31,2.31,0,0,0,.94,1.83,22.63,22.63,0,0,0,3.14,1.61A30,30,0,0,1,753,96a8.71,8.71,0,0,1-1.47,15.28c-1,.45-1.38.94-1.28,2s0,2.06,0,3.18h-6.33c0-1.13.07-2.25,0-3.35a1.64,1.64,0,0,0-.85-1c-1.68-.77-3.4-1.44-5.1-2.18-.65-.28-.75-.74-.47-1.43C738.14,106.7,738.75,104.91,739.33,103.31Z"/><path class="cls-1" d="M740.74,146.08q12.46,0,24.92,0c2.4,0,3.92,1.29,4,3.32a3.53,3.53,0,0,1-3,3.77,5.63,5.63,0,0,1-.82,0H715.61A5.06,5.06,0,0,1,714,153a3.53,3.53,0,0,1,.86-6.83,14.79,14.79,0,0,1,1.63,0Z"/><path class="cls-1" d="M796.43,159.8a4.15,4.15,0,1,1,4.08-4.21A4.1,4.1,0,0,1,796.43,159.8Z"/><path class="cls-1" d="M663.45,271.88c0-11.5,4.14-18.39,10.88-18.39a9.51,9.51,0,0,1,5.72,1.73v9l-1.89-4c-1.48-3.17-2.5-4.19-3.67-4.19-2,0-2.81,4.75-2.81,15.84s.86,15.84,2.81,15.84c1.17,0,2.19-1,3.67-4.19l1.89-4v9a9.51,9.51,0,0,1-5.72,1.74C667.59,290.27,663.45,283.37,663.45,271.88Z"/><path class="cls-1" d="M692.11,289.76l2.09-2.66-1.07-5.82h-5.77l-1.08,5.82,2.15,2.66h-7.15l2.25-2.66,5.41-28.4-.87-4.7h8l6.49,33.1,2.35,2.66Zm-4.29-11h4.85l-2.4-13Z"/><path class="cls-1" d="M720.87,289.76,716.12,273v14.2l2.5,2.56H706.1l2.15-2.56V256.55L706.1,254h11.5c6.79,0,10,3.27,10,9.09a8.53,8.53,0,0,1-4.9,8l6.18,18.65Zm-4.75-33.21v13.23a.59.59,0,0,0,.66.67c1.07,0,3-1.54,3-6.95,0-5.77-1.89-6.95-3.16-6.95Z"/><path class="cls-1" d="M729.4,271.88c0-11.5,6-18.39,12.21-18.39a9.91,9.91,0,0,1,6.33,1.94v8.48l-2.3-4.14c-1.48-2.66-2.35-3.73-3.83-3.73-2.35,0-4.19,4.75-4.19,15.84s.92,15.84,3.22,15.84c1.07,0,1.94-.87,1.94-2.56v-11L740,270.6h8.69v17c-1.79,1.74-5.67,2.66-8.23,2.66C734.1,290.27,729.4,283.37,729.4,271.88Z"/><path class="cls-1" d="M760.56,289.76l2.09-2.66-1.07-5.82h-5.77l-1.08,5.82,2.15,2.66h-7.15L752,287.1l5.41-28.4-.87-4.7h8L771,287.1l2.35,2.66Zm-4.29-11h4.85l-2.4-13Z"/><path class="cls-1" d="M798.36,256.55h-2V287.2l2.14,2.56H786.35l2.15-2.56V256.55h-2l-3.83,4V254h19.51v6.59Z"/><path class="cls-1" d="M805.92,281.12V256.55L803.77,254h12.16l-2.14,2.55v25.19c0,2.71,1.17,4,3.21,4s3.22-1.53,3.22-3.78V256.55L818.08,254h7.56l-2,2.55v25.09c0,6-3.37,8.63-8.17,8.63C809.14,290.27,805.92,287.41,805.92,281.12Z"/><path class="cls-1" d="M827.83,288.58V278.42l2.71,4.95c1.53,2.76,2.76,4.35,4.75,4.35,1.63,0,2.66-1.33,2.66-3.33,0-2.81-1.08-5-5.47-10.52-3.73-4.65-5.06-8.38-5.06-11.9,0-5.42,4.09-8.48,8.89-8.48a12.82,12.82,0,0,1,6.64,1.68v8.59l-2-3.38c-1.84-3.06-3.22-4.34-4.8-4.34a2.5,2.5,0,0,0-2.56,2.55c0,2,.82,3.73,5.11,8.79,4.6,5.42,6,8.33,6,13.18,0,5.83-3.83,9.71-9.4,9.71C832.43,290.27,829.36,289.6,827.83,288.58Z"/><path class="cls-1" d="M683.55,317.85h-2.19v13.33l5.87-1.89L686,335.53l-4.59-1.74V348.5l2.45,2.56H671.39l2.15-2.56V317.85l-2-2.55h16.34v6.43Z"/><path class="cls-1" d="M696,351.06l2.09-2.66L697,342.58h-5.78l-1.07,5.82,2.15,2.66h-7.16l2.25-2.66L692.8,320l-.87-4.7h8l6.49,33.1,2.35,2.66Zm-4.3-11h4.86l-2.4-13Z"/><path class="cls-1" d="M707.92,333.18c0-11.5,4.14-18.39,10.88-18.39a9.53,9.53,0,0,1,5.72,1.73v9l-1.89-4c-1.48-3.17-2.5-4.19-3.68-4.19-1.94,0-2.81,4.75-2.81,15.84S717,349,719,349c1.18,0,2.2-1,3.68-4.19l1.89-4v9a9.53,9.53,0,0,1-5.72,1.74C712.06,351.57,707.92,344.67,707.92,333.18Z"/><path class="cls-1" d="M741.79,317.85h-2V348.5l2.15,2.56H729.78l2.15-2.56V317.85h-2l-3.83,4V315.3h19.52v6.59Z"/><path class="cls-1" d="M749.34,342.42V317.85l-2.14-2.55h12.16l-2.15,2.55V343c0,2.7,1.18,4,3.22,4s3.22-1.53,3.22-3.78V317.85l-2.15-2.55h7.56l-2,2.55v25.08c0,6-3.37,8.64-8.17,8.64C752.56,351.57,749.34,348.71,749.34,342.42Z"/><path class="cls-1" d="M785.46,351.06l-4.75-16.76v14.2l2.5,2.56H770.7l2.14-2.56V317.85l-2.14-2.55h11.49c6.8,0,10,3.27,10,9.09a8.51,8.51,0,0,1-4.9,8l6.18,18.65Zm-4.75-33.21v13.23a.6.6,0,0,0,.66.67c1.08,0,3-1.54,3-6.95,0-5.77-1.89-6.95-3.17-6.95Z"/><path class="cls-1" d="M804.82,351.06l2.1-2.66-1.08-5.82h-5.77L799,348.4l2.14,2.66H794l2.25-2.66,5.41-28.4-.87-4.7h8l6.49,33.1,2.35,2.66Zm-4.29-11h4.85l-2.4-13Z"/><path class="cls-1" d="M819.38,349.88V339.72l2.71,4.95c1.53,2.76,2.75,4.34,4.75,4.34,1.63,0,2.65-1.33,2.65-3.32,0-2.81-1.07-5-5.46-10.52-3.73-4.65-5.06-8.38-5.06-11.9,0-5.42,4.09-8.48,8.89-8.48a12.82,12.82,0,0,1,6.64,1.68v8.58l-2-3.37c-1.84-3.06-3.22-4.34-4.81-4.34a2.5,2.5,0,0,0-2.55,2.55c0,1.95.82,3.73,5.11,8.79,4.6,5.42,6,8.33,6,13.18,0,5.82-3.83,9.71-9.4,9.71C824,351.57,820.91,350.9,819.38,349.88Z"/><path class="cls-1" d="M656.07,412.36l2.15-2.56V379.15l-2.15-2.56h10.06c8.48,0,13,6.75,13,17.89s-4.55,17.88-12.82,17.88Zm14.76-17.88c0-9.25-1.48-15.33-4.54-15.33h-.21V409c0,.45.21.76.62.76C669.25,409.8,670.83,403.77,670.83,394.48Z"/><path class="cls-1" d="M694.08,409.8l5.36-4.75v7.31H681.25l2.15-2.56V379.15l-2-2.56h17.37v6.6l-4.65-4h-2.91v12.11l6.13-1.89-1.79,6.23-4.34-1.94V409.8Z"/><path class="cls-1" d="M710,394.48c0-11.5,4.14-18.4,10.88-18.4a9.51,9.51,0,0,1,5.72,1.74v9l-1.89-4c-1.48-3.17-2.5-4.19-3.67-4.19-1.95,0-2.81,4.75-2.81,15.84s.86,15.83,2.81,15.83c1.17,0,2.19-1,3.67-4.19l1.89-4v9a9.51,9.51,0,0,1-5.72,1.74C714.15,412.87,710,406,710,394.48Z"/><path class="cls-1" d="M728.76,394.48c0-11.14,3.88-18.4,10.73-18.4s10.73,7.26,10.73,18.4-3.84,18.39-10.73,18.39S728.76,405.61,728.76,394.48Zm13.18,0c0-11.81-.72-15.84-2.45-15.84s-2.51,4-2.51,15.84.77,15.83,2.51,15.83S741.94,406.28,741.94,394.48Z"/><path class="cls-1" d="M778.05,379.15V409.8l2.15,2.56H768l2.15-2.56v-19l-4.5,21.56h-3.47l-4.34-21.56v19l2.14,2.56h-7.66l2.14-2.56v-28l-1.78-5.17h10.52l3.17,16.61,3.78-16.61h10Z"/><path class="cls-1" d="M781.83,412.36,784,409.8V379.15l-2.15-2.56h10.88c7.21,0,10.83,4.71,10.83,11s-3.62,11-10.83,11h-.92V409.8l2.46,2.56Zm10-16.91a.58.58,0,0,0,.62.66c1.53,0,2.81-2.71,2.81-8.48s-1.28-8.48-3-8.48h-.46Z"/><path class="cls-1" d="M819.84,412.36l-4.75-16.76v14.2l2.5,2.56H805.07l2.15-2.56V379.15l-2.15-2.56h11.5c6.79,0,10,3.27,10,9.1a8.54,8.54,0,0,1-4.9,8l6.18,18.65Zm-4.75-33.21v13.23a.59.59,0,0,0,.66.67c1.07,0,3-1.54,3-6.95,0-5.78-1.89-7-3.16-7Z"/><path class="cls-1" d="M839.2,412.36l2.09-2.66-1.07-5.82h-5.77l-1.08,5.82,2.15,2.66h-7.15l2.25-2.66L836,381.3l-.87-4.71h8l6.49,33.11,2.35,2.66Zm-4.29-11h4.85l-2.4-13Z"/><path class="cls-1" d="M1240.36,289.76l2.15-2.56V256.55l-2.15-2.55h10.88c7.21,0,10.83,4.7,10.83,11s-3.62,11-10.83,11h-.92V287.2l2.46,2.56Zm10-16.91a.58.58,0,0,0,.62.66c1.53,0,2.81-2.71,2.81-8.48s-1.28-8.48-3-8.48h-.46Z"/><path class="cls-1" d="M1270.35,289.76l2.09-2.66-1.07-5.82h-5.77l-1.07,5.82,2.14,2.66h-7.15l2.25-2.66,5.41-28.4-.87-4.7h8l6.49,33.1,2.35,2.66Zm-4.29-11h4.85l-2.4-13Z"/><path class="cls-1" d="M1299.11,289.76,1294.36,273v14.2l2.5,2.56h-12.52l2.15-2.56V256.55l-2.15-2.55h11.5c6.79,0,10,3.27,10,9.09a8.53,8.53,0,0,1-4.9,8l6.18,18.65Zm-4.75-33.21v13.23a.59.59,0,0,0,.66.67c1.07,0,3-1.54,3-6.95,0-5.77-1.9-6.95-3.17-6.95Z"/><path class="cls-1" d="M1323.07,256.55h-2V287.2l2.15,2.56h-12.16l2.15-2.56V256.55h-2l-3.83,4V254h19.52v6.59Z"/><path class="cls-1" d="M1328.48,289.76l2.15-2.56V256.55l-2.15-2.55h12.11l-2.15,2.55V287.2l2.15,2.56Z"/><path class="cls-1" d="M1342.73,271.88c0-11.5,4.14-18.39,10.88-18.39a9.51,9.51,0,0,1,5.72,1.73v9l-1.89-4c-1.48-3.17-2.5-4.19-3.67-4.19-2,0-2.81,4.75-2.81,15.84s.86,15.84,2.81,15.84c1.17,0,2.19-1,3.67-4.19l1.89-4v9a9.51,9.51,0,0,1-5.72,1.74C1346.87,290.27,1342.73,283.37,1342.73,271.88Z"/><path class="cls-1" d="M1361,289.76l2.14-2.56V256.55L1361,254h12.1l-2.14,2.55V287.2l2.14,2.56Z"/><path class="cls-1" d="M1374.71,289.76l2.14-2.56V256.55l-2.14-2.55h10.88c7.2,0,10.83,4.7,10.83,11s-3.63,11-10.83,11h-.92V287.2l2.45,2.56Zm10-16.91a.58.58,0,0,0,.61.66c1.54,0,2.81-2.71,2.81-8.48s-1.27-8.48-3-8.48h-.46Z"/><path class="cls-1" d="M1404.69,289.76l2.1-2.66-1.07-5.82h-5.78l-1.07,5.82,2.15,2.66h-7.16l2.25-2.66,5.42-28.4-.87-4.7h8l6.49,33.1,2.35,2.66Zm-4.29-11h4.86l-2.4-13Z"/><path class="cls-1" d="M1439.69,287.2l5.36-4.75v7.31h-18.19l2.15-2.56V256.55l-2-2.55h17.37v6.59l-4.65-4h-2.92v12.11l6.13-1.89-1.78,6.23-4.35-1.94V287.2Z"/><path class="cls-1" d="M1461.75,254h7.67l-2.15,2.55v33.21H1465l-12.57-25.34V287.2l2.15,2.56h-7.66l2.14-2.56V257.62l-1.79-3.62h9.2l7.41,15.37V256.55Z"/><path class="cls-1" d="M1249.82,348.5l5.36-4.75v7.31H1237l2.15-2.56V317.85l-2-2.55h17.37v6.59l-4.65-4H1247V330l6.14-1.89-1.79,6.23-4.35-1.94V348.5Z"/><path class="cls-1" d="M1270.09,348.5l5-6.08v8.64h-18l2.14-2.56V317.85l-2.14-2.55h12.11l-2.15,2.55V348.5Z"/><path class="cls-1" d="M1299.72,351.06,1295,334.3v14.2l2.5,2.56H1285l2.14-2.56V317.85L1285,315.3h11.49c6.8,0,10,3.27,10,9.09a8.51,8.51,0,0,1-4.9,8l6.18,18.65ZM1295,317.85v13.23a.6.6,0,0,0,.66.67c1.08,0,3-1.54,3-6.95,0-5.77-1.89-6.95-3.17-6.95Z"/><path class="cls-1" d="M1319.08,351.06l2.1-2.66-1.08-5.82h-5.77l-1.07,5.82,2.14,2.66h-7.15l2.25-2.66,5.41-28.4-.86-4.7h8l6.48,33.1,2.35,2.66Zm-4.29-11h4.85l-2.4-13Z"/><path class="cls-1" d="M1347.89,315.3h7.67l-2.15,2.55v33.21h-2.25l-12.57-25.34V348.5l2.15,2.56h-7.66l2.14-2.56V318.92l-1.78-3.62h9.19l7.41,15.37V317.85Z"/><path class="cls-1" d="M1367.76,335.12l-.61,1.27V348.5l2.14,2.56h-12.1l2.14-2.56V317.9l-2.14-2.6h12.1l-2.14,2.6v12l5.57-12-1.38-2.6h7.36l-2.76,2.65-3.63,7.56,8.38,25.55h-7.87Z"/><path class="cls-1" d="M1382.11,351.06l2.15-2.56V317.85l-2.15-2.55h12.11l-2.14,2.55V348.5l2.14,2.56Z"/><path class="cls-1" d="M1410.67,315.3h7.66l-2.14,2.55v33.21h-2.25l-12.57-25.34V348.5l2.15,2.56h-7.66l2.14-2.56V318.92l-1.79-3.62h9.2l7.41,15.37V317.85Z"/><path class="cls-1" d="M1420.48,333.18c0-11.5,6-18.39,12.21-18.39a9.91,9.91,0,0,1,6.33,1.94v8.48l-2.3-4.14c-1.48-2.66-2.35-3.73-3.83-3.73-2.35,0-4.19,4.75-4.19,15.84s.92,15.83,3.22,15.83c1.07,0,1.94-.87,1.94-2.55v-11l-2.81-3.58h8.69v17c-1.79,1.74-5.67,2.66-8.23,2.66C1425.18,351.57,1420.48,344.67,1420.48,333.18Z"/><path class="cls-1" d="M1450.82,333.18c0-11.14,3.88-18.39,10.73-18.39s10.73,7.25,10.73,18.39-3.84,18.39-10.73,18.39S1450.82,344.31,1450.82,333.18Zm13.18,0c0-11.8-.72-15.84-2.45-15.84s-2.51,4-2.51,15.84.77,15.83,2.51,15.83S1464,345,1464,333.18Z"/><path class="cls-1" d="M1223.46,412.36l-4.75-16.76v14.2l2.5,2.56h-12.52l2.15-2.56V379.15l-2.15-2.56h11.5c6.79,0,10,3.27,10,9.1a8.54,8.54,0,0,1-4.9,8l6.18,18.65Zm-4.75-33.21v13.23a.59.59,0,0,0,.66.67c1.07,0,3-1.54,3-6.95,0-5.78-1.89-7-3.16-7Z"/><path class="cls-1" d="M1245.32,409.8l5.36-4.75v7.31H1232.5l2.14-2.56V379.15l-2-2.56H1250v6.6l-4.65-4h-2.91v12.11l6.13-1.89-1.79,6.23-4.34-1.94V409.8Z"/><path class="cls-1" d="M1252.57,412.36l2.15-2.56V379.15l-2.15-2.56h10.07c8.48,0,13,6.75,13,17.89s-4.54,17.88-12.82,17.88Zm14.77-17.88c0-9.25-1.49-15.33-4.55-15.33h-.21V409c0,.45.21.76.62.76C1265.75,409.8,1267.34,403.77,1267.34,394.48Z"/><path class="cls-1" d="M1277.76,412.36l2.14-2.56V379.15l-2.14-2.56h12.1l-2.14,2.56V409.8l2.14,2.56Z"/><path class="cls-1" d="M1317.19,379.15V409.8l2.15,2.56h-12.16l2.15-2.56v-19l-4.5,21.56h-3.47L1297,390.8v19l2.15,2.56h-7.66l2.14-2.56v-28l-1.79-5.17h10.53l3.17,16.61,3.78-16.61h10Z"/><path class="cls-1" d="M1333.79,409.8l5.37-4.75v7.31H1321l2.15-2.56V379.15l-2-2.56h17.37v6.6l-4.65-4h-2.91v12.11l6.13-1.89-1.78,6.23-4.35-1.94V409.8Z"/><path class="cls-1" d="M1349.22,412.36l2.14-2.56V379.15l-2.14-2.56h10.88c7.2,0,10.83,4.71,10.83,11s-3.63,11-10.83,11h-.92V409.8l2.45,2.56Zm10-16.91a.58.58,0,0,0,.61.66c1.54,0,2.81-2.71,2.81-8.48s-1.27-8.48-3-8.48h-.46Z"/><path class="cls-1" d="M1387.22,412.36l-4.75-16.76v14.2l2.51,2.56h-12.52l2.15-2.56V379.15l-2.15-2.56H1384c6.8,0,10,3.27,10,9.1a8.53,8.53,0,0,1-4.91,8l6.18,18.65Zm-4.75-33.21v13.23a.6.6,0,0,0,.67.67c1.07,0,3-1.54,3-6.95,0-5.78-1.89-7-3.17-7Z"/><path class="cls-1" d="M1409.09,409.8l5.36-4.75v7.31h-18.18l2.14-2.56V379.15l-2-2.56h17.37v6.6l-4.65-4h-2.91v12.11l6.13-1.89-1.79,6.23-4.34-1.94V409.8Z"/><path class="cls-1" d="M1442,379.15V409.8l2.14,2.56H1432l2.15-2.56v-19l-4.5,21.56h-3.47l-4.34-21.56v19l2.14,2.56h-7.66l2.15-2.56v-28l-1.79-5.17h10.52l3.17,16.61,3.78-16.61h10Z"/><path class="cls-1" d="M1445.81,412.36l2.15-2.56V379.15l-2.15-2.56h12.11l-2.14,2.56V409.8l2.14,2.56Z"/><path class="cls-1" d="M1460.07,394.48c0-11.14,3.88-18.4,10.72-18.4s10.73,7.26,10.73,18.4-3.83,18.39-10.73,18.39S1460.07,405.61,1460.07,394.48Zm13.18,0c0-11.81-.72-15.84-2.46-15.84s-2.5,4-2.5,15.84.77,15.83,2.5,15.83S1473.25,406.28,1473.25,394.48Z"/><path class="cls-1" d="M1484.23,411.18V401l2.7,5c1.54,2.76,2.76,4.34,4.76,4.34,1.63,0,2.65-1.33,2.65-3.32,0-2.81-1.07-5-5.46-10.52-3.73-4.65-5.06-8.38-5.06-11.91,0-5.41,4.08-8.48,8.89-8.48a12.82,12.82,0,0,1,6.64,1.69v8.58l-2-3.37c-1.84-3.06-3.22-4.34-4.81-4.34a2.49,2.49,0,0,0-2.55,2.55c0,1.94.82,3.73,5.11,8.79,4.59,5.41,6,8.33,6,13.18,0,5.82-3.84,9.71-9.4,9.71C1488.82,412.87,1485.76,412.2,1484.23,411.18Z"/><path class="cls-1" d="M1440.77,195c-1,1.92-2.65,2.51-4.78,2.51-15.7-.06-31.39,0-47.08,0H1280.59c-3.9,0-4.94-1.06-4.94-5V121.4c0-3.6,1.14-4.74,4.7-4.74h48v-1.93q0-10.8,0-21.6c0-3.36,1.2-4.55,4.56-4.55h50.46c3.59,0,4.74,1.14,4.74,4.7v48h2.13c15.26,0,30.52,0,45.78,0,2.14,0,3.76.58,4.77,2.53Zm-105.32-4.67H1381V95.73h-45.49v6.87H1362a13.25,13.25,0,0,1,2.09.12,3.35,3.35,0,0,1,2.84,3.55c-.08,2-1.55,3.32-3.94,3.33h-27.56Zm-52.66,0h45.38V123.8h-45.38v7h22c2.09,0,4.19,0,6.28,0a3.43,3.43,0,0,1,3.28,3.35,3.49,3.49,0,0,1-3.26,3.53c-.54,0-1.08,0-1.61,0h-26.64Zm105.44-35h10.26c5.85,0,11.71,0,17.57,0a3.47,3.47,0,0,1,3.62,3.36,3.55,3.55,0,0,1-3.37,3.63,14,14,0,0,1-1.45,0h-26.57v28h45.31v-42h-45.37Z"/><path class="cls-1" d="M1440.77,208.88c-.87,2-2.35,2.65-4.49,2.65q-78.09-.06-156.17,0a10,10,0,0,1-1.45-.05,3.49,3.49,0,0,1-3-3.29,3.4,3.4,0,0,1,2.55-3.48,9.83,9.83,0,0,1,2.24-.2q77.76,0,155.52,0c2.13,0,3.75.58,4.79,2.5Z"/><path class="cls-1" d="M1358.09,81.53h-25.3c-3.23,0-4.45-1.21-4.46-4.48,0-4.08,0-8.16,0-12.24,0-3.07,1.25-4.29,4.31-4.3,3.92,0,7.84,0,11.76,0a3.78,3.78,0,0,0,2.35-1c2.88-2.74,5.65-5.6,8.47-8.39,1.93-1.92,3.79-1.93,5.74,0,2.83,2.79,5.59,5.66,8.47,8.4a3.82,3.82,0,0,0,2.35,1c4.08.1,8.16,0,12.24,0,2.72,0,4,1.29,4.06,4.06q.06,6.43,0,12.88c0,2.81-1.36,4.08-4.21,4.08Zm22.85-7.15V67.49c-2.8,0-5.5-.21-8.15.05a9.49,9.49,0,0,1-9.15-3.75,72,72,0,0,0-5.56-5.65c-2.51,2.53-5,4.87-7.26,7.34a6,6,0,0,1-5,2c-2.9-.11-5.8,0-8.7,0-.57,0-1.13.07-1.68.11v6.77Z"/><path class="cls-1" d="M1356.68,144.69l-6.76,2.92v-5.16c2.29-1.5,4.4-2.9,6.53-4.27a2.11,2.11,0,0,1,1-.46c1.7-.05,3.41,0,5.29,0v19.43h5.37v5.14h-17.23v-5.08h5.83Z"/><path class="cls-1" d="M1374,109.6a3.47,3.47,0,1,1,3.58-3.36A3.52,3.52,0,0,1,1374,109.6Z"/><path class="cls-1" d="M1321.34,137.71a3.47,3.47,0,1,1,3.46-3.49A3.41,3.41,0,0,1,1321.34,137.71Z"/><path class="cls-1" d="M1430.18,158.87a3.47,3.47,0,1,1-6.94-.16,3.47,3.47,0,0,1,6.94.16Z"/><rect class="cls-1" x="464.81" y="49.67" width="4" height="363.2"/><rect class="cls-1" x="1055.11" y="49.67" width="4" height="363.2"/></svg>