<svg id="Capa_1" data-name="Capa 1" xmlns="http://www.w3.org/2000/svg" viewBox="0 0 500 500"><defs><style>.cls-1{fill:#d92428;}</style></defs><path class="cls-1" d="M107.75,322.65l2.67-3.17V281.41l-2.67-3.18h13.52c9,0,13.45,5.84,13.45,13.71s-4.5,13.7-13.45,13.7h-1.14v13.84l3,3.17Zm12.38-21a.71.71,0,0,0,.76.82c1.9,0,3.49-3.36,3.49-10.53s-1.59-10.53-3.68-10.53h-.57Z"/><path class="cls-1" d="M145,322.65l2.6-3.3-1.33-7.23H139.1l-1.34,7.23,2.67,3.3h-8.88l2.79-3.3,6.72-35.28L140,278.23h9.9l8.06,41.12,2.92,3.3Zm-5.33-13.71h6l-3-16.11Z"/><path class="cls-1" d="M180.72,322.65l-5.9-20.81v17.64l3.11,3.17H162.38l2.67-3.17V281.41l-2.67-3.18h14.28c8.44,0,12.43,4.06,12.43,11.3a10.57,10.57,0,0,1-6.09,10l7.68,23.16Zm-5.9-41.24v16.43a.73.73,0,0,0,.82.82c1.33,0,3.68-1.9,3.68-8.63,0-7.17-2.35-8.62-3.93-8.62Z"/><path class="cls-1" d="M210.48,281.41H208v38.07l2.67,3.17H195.56l2.67-3.17V281.41h-2.48l-4.75,5v-8.19h24.23v8.19Z"/><path class="cls-1" d="M217.2,322.65l2.66-3.17V281.41l-2.66-3.18h15l-2.67,3.18v38.07l2.67,3.17Z"/><path class="cls-1" d="M234.9,300.44c0-14.28,5.14-22.84,13.51-22.84a11.76,11.76,0,0,1,7.11,2.16V291l-2.35-5c-1.84-3.93-3.11-5.2-4.56-5.2-2.42,0-3.49,5.9-3.49,19.67s1.07,19.67,3.49,19.67c1.45,0,2.72-1.27,4.56-5.2l2.35-5v11.24a11.83,11.83,0,0,1-7.11,2.15C240,323.28,234.9,314.72,234.9,300.44Z"/><path class="cls-1" d="M257.55,322.65l2.66-3.17V281.41l-2.66-3.18h15l-2.67,3.18v38.07l2.67,3.17Z"/><path class="cls-1" d="M274.62,322.65l2.66-3.17V281.41l-2.66-3.18h13.51c8.95,0,13.45,5.84,13.45,13.71s-4.5,13.7-13.45,13.7H287v13.84l3.05,3.17Zm12.37-21a.72.72,0,0,0,.76.82c1.9,0,3.49-3.36,3.49-10.53s-1.59-10.53-3.68-10.53H287Z"/><path class="cls-1" d="M311.86,322.65l2.6-3.3-1.33-7.23H306l-1.33,7.23,2.66,3.3h-8.88l2.79-3.3,6.73-35.28-1.08-5.84h9.9l8.05,41.12,2.92,3.3Zm-5.33-13.71h6l-3-16.11Z"/><path class="cls-1" d="M355.32,319.48l6.66-5.91v9.08H339.39l2.67-3.17V281.41l-2.48-3.18h21.58v8.19l-5.78-5h-3.61v15l7.61-2.35-2.22,7.75-5.39-2.41v20.05Z"/><path class="cls-1" d="M382.73,278.23h9.52l-2.67,3.18v41.24h-2.79l-15.61-31.47v28.3l2.67,3.17h-9.52l2.66-3.17V282.74l-2.22-4.51h11.42l9.2,19.1V281.41Z"/><path class="cls-1" d="M119.49,395.61l6.67-5.9v9.07H103.57l2.66-3.17V357.54l-2.47-3.17h21.57v8.18l-5.77-5h-3.62v15l7.62-2.35L121.33,378l-5.39-2.41v20.05Z"/><path class="cls-1" d="M144.68,395.61l6.16-7.55v10.72H128.5l2.67-3.17V357.54l-2.67-3.17h15l-2.66,3.17v38.07Z"/><path class="cls-1" d="M181.48,398.78,175.58,378v17.64l3.11,3.17H163.14l2.67-3.17V357.54l-2.67-3.17h14.28c8.44,0,12.43,4.06,12.43,11.29a10.57,10.57,0,0,1-6.09,10l7.68,23.16Zm-5.9-41.24V374a.74.74,0,0,0,.82.83c1.34,0,3.68-1.9,3.68-8.63,0-7.17-2.34-8.63-3.93-8.63Z"/><path class="cls-1" d="M205.53,398.78l2.6-3.29-1.34-7.24h-7.17l-1.33,7.24,2.67,3.29h-8.89l2.8-3.29,6.72-35.28-1.08-5.84h9.9l8.06,41.12,2.92,3.29Zm-5.33-13.7h6l-3-16.12Z"/><path class="cls-1" d="M241.31,354.37h9.52l-2.67,3.17v41.24h-2.79l-15.61-31.47v28.3l2.67,3.17h-9.52l2.66-3.17V358.87l-2.22-4.5h11.42l9.2,19.1V357.54Z"/><path class="cls-1" d="M266,379l-.76,1.58v15l2.66,3.17h-15l2.67-3.17v-38l-2.67-3.23h15l-2.66,3.23v14.85l6.91-14.85-1.71-3.23h9.14l-3.43,3.3-4.5,9.39L282,398.78h-9.77Z"/><path class="cls-1" d="M283.82,398.78l2.66-3.17V357.54l-2.66-3.17h15l-2.66,3.17v38.07l2.66,3.17Z"/><path class="cls-1" d="M319.28,354.37h9.52l-2.66,3.17v41.24h-2.8l-15.6-31.47v28.3l2.66,3.17h-9.52l2.67-3.17V358.87l-2.22-4.5h11.42l9.2,19.1V357.54Z"/><path class="cls-1" d="M331.46,376.58c0-14.28,7.43-22.85,15.17-22.85a12.45,12.45,0,0,1,7.87,2.41v10.54l-2.86-5.14c-1.84-3.3-2.92-4.63-4.76-4.63-2.92,0-5.2,5.9-5.2,19.67s1.14,19.67,4,19.67c1.33,0,2.41-1.08,2.41-3.18V379.43L344.6,375h10.78v21.13c-2.22,2.16-7,3.3-10.21,3.3C337.3,399.42,331.46,390.85,331.46,376.58Z"/><path class="cls-1" d="M369.15,376.58c0-13.84,4.82-22.85,13.32-22.85s13.33,9,13.33,22.85-4.76,22.84-13.33,22.84S369.15,390.41,369.15,376.58Zm16.37,0c0-14.66-.89-19.67-3-19.67s-3.11,5-3.11,19.67,1,19.67,3.11,19.67S385.52,391.23,385.52,376.58Z"/><path class="cls-1" d="M86.76,474.92l-5.91-20.81v17.64L84,474.92H68.42l2.66-3.17V433.68l-2.66-3.18H82.69c8.44,0,12.44,4.06,12.44,11.3a10.59,10.59,0,0,1-6.09,10l7.68,23.16Zm-5.91-41.24v16.43a.74.74,0,0,0,.83.83c1.33,0,3.68-1.91,3.68-8.63,0-7.17-2.35-8.63-3.93-8.63Z"/><path class="cls-1" d="M113.91,471.75l6.66-5.9v9.07H98l2.67-3.17V433.68l-2.47-3.18h21.57v8.19l-5.78-5h-3.61v15l7.61-2.34-2.22,7.74-5.39-2.41v20.05Z"/><path class="cls-1" d="M122.92,474.92l2.66-3.17V433.68l-2.66-3.18h12.5c10.53,0,16.11,8.38,16.11,22.21s-5.64,22.21-15.92,22.21Zm18.34-22.21c0-11.48-1.85-19-5.65-19h-.26V470.8c0,.57.26.95.77.95C139.29,471.75,141.26,464.26,141.26,452.71Z"/><path class="cls-1" d="M154.2,474.92l2.66-3.17V433.68l-2.66-3.18h15l-2.66,3.18v38.07l2.66,3.17Z"/><path class="cls-1" d="M203.18,433.68v38.07l2.66,3.17h-15.1l2.67-3.17V448.14l-5.59,26.78h-4.31l-5.39-26.78v23.61l2.66,3.17h-9.52l2.67-3.17V436.91l-2.22-6.41h13.07l3.93,20.63,4.7-20.63h12.43Z"/><path class="cls-1" d="M223.8,471.75l6.66-5.9v9.07H207.87l2.67-3.17V433.68l-2.48-3.18h21.58v8.19l-5.78-5h-3.61v15l7.61-2.34-2.22,7.74-5.39-2.41v20.05Z"/><path class="cls-1" d="M243,474.92l2.66-3.17V433.68L243,430.5h13.51c8.95,0,13.45,5.84,13.45,13.71s-4.5,13.7-13.45,13.7h-1.14v13.84l3,3.17Zm12.37-21a.72.72,0,0,0,.76.82c1.9,0,3.49-3.36,3.49-10.53s-1.59-10.53-3.68-10.53h-.57Z"/><path class="cls-1" d="M290.16,474.92l-5.9-20.81v17.64l3.11,3.17H271.82l2.67-3.17V433.68l-2.67-3.18H286.1c8.44,0,12.44,4.06,12.44,11.3a10.59,10.59,0,0,1-6.09,10l7.67,23.16Zm-5.9-41.24v16.43a.74.74,0,0,0,.83.83c1.33,0,3.68-1.91,3.68-8.63,0-7.17-2.35-8.63-3.94-8.63Z"/><path class="cls-1" d="M317.32,471.75l6.66-5.9v9.07H301.39l2.67-3.17V433.68l-2.48-3.18h21.57v8.19l-5.77-5h-3.62v15l7.62-2.34-2.22,7.74-5.4-2.41v20.05Z"/><path class="cls-1" d="M358.24,433.68v38.07l2.67,3.17H345.8l2.67-3.17V448.14l-5.59,26.78h-4.31l-5.39-26.78v23.61l2.66,3.17h-9.52l2.67-3.17V436.91l-2.22-6.41h13.07l3.93,20.63,4.7-20.63h12.44Z"/><path class="cls-1" d="M362.93,474.92l2.67-3.17V433.68l-2.67-3.18h15l-2.66,3.18v38.07l2.66,3.17Z"/><path class="cls-1" d="M380.63,452.71c0-13.83,4.83-22.84,13.33-22.84s13.32,9,13.32,22.84-4.76,22.84-13.32,22.84S380.63,466.54,380.63,452.71Zm16.37,0c0-14.66-.88-19.67-3-19.67s-3.11,5-3.11,19.67.95,19.67,3.11,19.67S397,467.37,397,452.71Z"/><path class="cls-1" d="M410.64,473.46V460.83L414,467c1.9,3.43,3.42,5.39,5.9,5.39,2,0,3.3-1.65,3.3-4.12,0-3.49-1.34-6.22-6.79-13.07-4.64-5.78-6.29-10.41-6.29-14.79,0-6.72,5.08-10.53,11.05-10.53,2.91,0,6.34.76,8.24,2.09v10.66l-2.53-4.19c-2.29-3.8-4-5.39-6-5.39a3.1,3.1,0,0,0-3.17,3.17c0,2.42,1,4.64,6.34,10.92,5.71,6.72,7.49,10.34,7.49,16.37,0,7.23-4.76,12.05-11.67,12.05C416.35,475.55,412.55,474.73,410.64,473.46Z"/><path class="cls-1" d="M356.66,205c-1.27,2.39-3.29,3.12-5.94,3.11-19.48-.07-39,0-58.46,0H224.59q-33.43,0-66.88,0c-4.83,0-6.12-1.31-6.12-6.2v-88.3c0-4.47,1.4-5.88,5.83-5.88H217v-2.4q0-13.41,0-26.83c0-4.17,1.5-5.65,5.67-5.65h62.67c4.46,0,5.89,1.41,5.89,5.84v59.56h2.64c19,0,37.91,0,56.87,0,2.64,0,4.67.72,5.91,3.14Zm-130.8-5.8h56.53V81.65h-56.5v8.54h33a15,15,0,0,1,2.59.16,4.16,4.16,0,0,1,3.53,4.4c-.09,2.54-1.93,4.13-4.89,4.14H225.86Zm-65.41,0h56.36V116.52H160.45v8.65h2.23q12.52,0,25,0c2.6,0,5.21-.06,7.81,0a4.26,4.26,0,0,1,4.07,4.15,4.35,4.35,0,0,1-4.05,4.4c-.67.06-1.34,0-2,0H160.45Zm131-43.49h12.74c7.28,0,14.55,0,21.82,0a4.3,4.3,0,0,1,4.5,4.17,4.41,4.41,0,0,1-4.18,4.51c-.6.06-1.2,0-1.8,0h-33v34.75h56.28V147.06H291.41Z"/><path class="cls-1" d="M356.66,222.2c-1.07,2.43-2.91,3.29-5.57,3.29q-97-.08-194,0a13.48,13.48,0,0,1-1.8-.06,4.34,4.34,0,0,1-3.72-4.09,4.24,4.24,0,0,1,3.17-4.32,12.3,12.3,0,0,1,2.78-.25q96.58,0,193.17,0c2.64,0,4.66.73,5.94,3.1Z"/><path class="cls-1" d="M254,64H222.56c-4,0-5.53-1.51-5.55-5.56,0-5.07,0-10.14,0-15.21,0-3.82,1.55-5.33,5.35-5.34,4.87,0,9.74.06,14.6-.06a4.72,4.72,0,0,0,2.92-1.18c3.58-3.4,7-6.95,10.52-10.43,2.39-2.37,4.7-2.39,7.13,0,3.51,3.47,6.94,7,10.51,10.42A4.72,4.72,0,0,0,271,37.84c5.07.12,10.14,0,15.21.06,3.38,0,5,1.61,5,5q.07,8,0,16c0,3.49-1.69,5.06-5.23,5.06Zm28.39-8.87V46.59c-3.48,0-6.83-.27-10.13.06-4.73.48-8.36-.89-11.36-4.66a91.06,91.06,0,0,0-6.9-7c-3.13,3.14-6.17,6-9,9.12a7.47,7.47,0,0,1-6.21,2.53c-3.59-.14-7.2,0-10.8,0-.7,0-1.4.09-2.08.14v8.41Z"/><path class="cls-1" d="M252.23,142.47l-8.41,3.62v-6.41c2.85-1.86,5.48-3.59,8.12-5.3a2.7,2.7,0,0,1,1.2-.57c2.12-.06,4.24,0,6.57,0v24.13h6.68v6.39H245V158h7.25Z"/><path class="cls-1" d="M273.68,98.88a4.31,4.31,0,1,1,4.44-4.17A4.36,4.36,0,0,1,273.68,98.88Z"/><path class="cls-1" d="M208.33,133.79a4.31,4.31,0,1,1,4.3-4.33A4.23,4.23,0,0,1,208.33,133.79Z"/><path class="cls-1" d="M343.51,160.08a4.31,4.31,0,1,1-8.61-.2,4.31,4.31,0,0,1,8.61.2Z"/></svg>