<?xml version="1.0" encoding="utf-8"?>
<!-- Generator: Adobe Illustrator 25.4.1, SVG Export Plug-In . SVG Version: 6.00 Build 0)  -->
<svg version="1.1" id="Capa_1" xmlns="http://www.w3.org/2000/svg" xmlns:xlink="http://www.w3.org/1999/xlink" x="0px" y="0px"
	 viewBox="0 0 500 500" style="enable-background:new 0 0 500 500;" xml:space="preserve">
<style type="text/css">
	.st0{fill:#D92428;}
	.st1{font-family:'BudweiserSerif-Regular';}
	.st2{font-size:62.422px;}
</style>
<path class="st0" d="M356.7,205c-1.3,2.4-3.3,3.1-5.9,3.1c-19.5-0.1-39,0-58.5,0h-67.7c-22.3,0-44.6,0-66.9,0
	c-4.8,0-6.1-1.3-6.1-6.2v-88.3c0-4.5,1.4-5.9,5.8-5.9H217v-2.4c0-8.9,0-17.9,0-26.8c0-4.2,1.5-5.7,5.7-5.7h62.7
	c4.5,0,5.9,1.4,5.9,5.8v59.6h2.6c19,0,37.9,0,56.9,0c2.6,0,4.7,0.7,5.9,3.1L356.7,205z M225.9,199.2h56.5V81.7h-56.5v8.5h33
	c0.9,0,1.7,0,2.6,0.2c2.1,0.3,3.7,2.2,3.5,4.4c-0.1,2.5-1.9,4.1-4.9,4.1h-34.3V199.2z M160.4,199.2h56.4v-82.7h-56.4v8.7h2.2
	c8.3,0,16.7,0,25,0c2.6,0,5.2-0.1,7.8,0c2.2,0.1,4,1.9,4.1,4.1c0,2.3-1.7,4.2-4.1,4.4c-0.7,0.1-1.3,0-2,0h-33.1V199.2z M291.5,155.7
	h12.7c7.3,0,14.5,0,21.8,0c2.4-0.1,4.4,1.7,4.5,4.1c0,0,0,0.1,0,0.1c0.1,2.4-1.8,4.4-4.2,4.5c-0.6,0.1-1.2,0-1.8,0h-33v34.8h56.3
	v-52.1h-56.4L291.5,155.7z"/>
<path class="st0" d="M356.7,222.2c-1.1,2.4-2.9,3.3-5.6,3.3c-64.7-0.1-129.3-0.1-194,0c-0.6,0-1.2,0-1.8-0.1c-2.1-0.3-3.6-2-3.7-4.1
	c-0.1-2,1.2-3.8,3.2-4.3c0.9-0.2,1.8-0.3,2.8-0.2c64.4,0,128.8,0,193.2,0c2.6,0,4.7,0.7,5.9,3.1L356.7,222.2z"/>
<path class="st0" d="M254,64h-31.4c-4,0-5.5-1.5-5.6-5.6c0-5.1,0-10.1,0-15.2c0-3.8,1.6-5.3,5.4-5.3c4.9,0,9.7,0.1,14.6-0.1
	c1.1,0,2.1-0.5,2.9-1.2c3.6-3.4,7-7,10.5-10.4c2.4-2.4,4.7-2.4,7.1,0c3.5,3.5,6.9,7,10.5,10.4c0.8,0.7,1.9,1.2,3,1.2
	c5.1,0.1,10.1,0,15.2,0.1c3.4,0,5,1.6,5,5c0,5.3,0,10.7,0,16c0,3.5-1.7,5.1-5.2,5.1L254,64z M282.4,55.1v-8.5
	c-3.5,0-6.8-0.3-10.1,0.1c-4.7,0.5-8.4-0.9-11.4-4.7c-2.2-2.5-4.5-4.8-6.9-7c-3.1,3.1-6.2,6-9,9.1c-1.6,1.8-3.9,2.7-6.2,2.5
	c-3.6-0.1-7.2,0-10.8,0c-0.7,0-1.4,0.1-2.1,0.1v8.4L282.4,55.1z"/>
<path class="st0" d="M252.2,142.5l-8.4,3.6v-6.4c2.9-1.9,5.5-3.6,8.1-5.3c0.3-0.3,0.8-0.5,1.2-0.6c2.1-0.1,4.2,0,6.6,0v24.1h6.7v6.4
	H245V158h7.2L252.2,142.5z"/>
<path class="st0" d="M273.7,98.9c-2.4-0.1-4.2-2.1-4.2-4.4c0.1-2.4,2.1-4.2,4.4-4.2c2.4,0.1,4.2,2.1,4.2,4.4c0,0,0,0,0,0
	C278,97.1,276,98.9,273.7,98.9z"/>
<path class="st0" d="M208.3,133.8c-2.4,0-4.3-1.9-4.3-4.3c0-2.4,1.9-4.3,4.3-4.3c2.4,0,4.3,1.9,4.3,4.3c0.1,2.3-1.8,4.3-4.1,4.3
	C208.4,133.8,208.4,133.8,208.3,133.8z"/>
<path class="st0" d="M343.5,160.1c0,2.4-1.8,4.3-4.2,4.4c-2.4,0-4.3-1.8-4.4-4.2c0-0.1,0-0.2,0-0.4c0.2-2.4,2.2-4.2,4.6-4
	C341.7,156,343.5,157.8,343.5,160.1z"/>
<text transform="matrix(1 0 0 1 123.3801 322.9531)"><tspan x="0" y="0" class="st0 st1 st2">PARTICIPA EN</tspan><tspan x="0.6" y="74.9" class="st0 st1 st2">EL RANKING O</tspan><tspan x="-23.6" y="149.8" class="st0 st1 st2">REDIME PREMIOS</tspan></text>
</svg>
