<?xml version="1.0" encoding="utf-8"?>
<!-- Generator: Adobe Illustrator 25.4.1, SVG Export Plug-In . SVG Version: 6.00 Build 0)  -->
<svg version="1.1" id="Capa_1" xmlns="http://www.w3.org/2000/svg" xmlns:xlink="http://www.w3.org/1999/xlink" x="0px" y="0px"
	 viewBox="0 0 500 500" style="enable-background:new 0 0 500 500;" xml:space="preserve">
<style type="text/css">
	.st0{fill:#D92428;}
	.st1{enable-background:new    ;}
</style>
<g>
	<path class="st0" d="M352.5,205c-1.3,2.4-3.3,3.1-5.9,3.1c-19.5-0.1-39,0-58.5,0h-67.7c-22.3,0-44.6,0-66.9,0
		c-4.8,0-6.1-1.3-6.1-6.2v-88.3c0-4.5,1.4-5.9,5.8-5.9h59.6v-2.4c0-8.9,0-17.9,0-26.8c0-4.2,1.5-5.7,5.7-5.7h62.7
		c4.5,0,5.9,1.4,5.9,5.8v59.6h2.6c19,0,37.9,0,56.9,0c2.6,0,4.7,0.7,5.9,3.1V205z M221.7,199.2h56.5V81.7h-56.5v8.5h33
		c0.9,0,1.7,0,2.6,0.2c2.1,0.3,3.7,2.2,3.5,4.4c-0.1,2.5-1.9,4.1-4.9,4.1h-34.3L221.7,199.2L221.7,199.2z M156.2,199.2h56.4v-82.7
		h-56.4v8.7h2.2c8.3,0,16.7,0,25,0c2.6,0,5.2-0.1,7.8,0c2.2,0.1,4,1.9,4.1,4.1c0,2.3-1.7,4.2-4.1,4.4c-0.7,0.1-1.3,0-2,0h-33.1v65.5
		H156.2z M287.3,155.7H300c7.3,0,14.5,0,21.8,0c2.4-0.1,4.4,1.7,4.5,4.1v0.1c0.1,2.4-1.8,4.4-4.2,4.5c-0.6,0.1-1.2,0-1.8,0h-33v34.8
		h56.3v-52.1h-56.4L287.3,155.7z"/>
	<path class="st0" d="M352.6,222.2c-1.1,2.4-2.9,3.3-5.6,3.3c-64.7-0.1-129.3-0.1-194,0c-0.6,0-1.2,0-1.8-0.1
		c-2.1-0.3-3.6-2-3.7-4.1c-0.1-2,1.2-3.8,3.2-4.3c0.9-0.2,1.8-0.3,2.8-0.2c64.4,0,128.8,0,193.2,0c2.6,0,4.7,0.7,5.9,3.1
		L352.6,222.2z"/>
	<path class="st0" d="M249.9,64h-31.4c-4,0-5.5-1.5-5.6-5.6c0-5.1,0-10.1,0-15.2c0-3.8,1.6-5.3,5.4-5.3c4.9,0,9.7,0.1,14.6-0.1
		c1.1,0,2.1-0.5,2.9-1.2c3.6-3.4,7-7,10.5-10.4c2.4-2.4,4.7-2.4,7.1,0c3.5,3.5,6.9,7,10.5,10.4c0.8,0.7,1.9,1.2,3,1.2
		c5.1,0.1,10.1,0,15.2,0.1c3.4,0,5,1.6,5,5c0,5.3,0,10.7,0,16c0,3.5-1.7,5.1-5.2,5.1H249.9z M278.3,55.1v-8.5
		c-3.5,0-6.8-0.3-10.1,0.1c-4.7,0.5-8.4-0.9-11.4-4.7c-2.2-2.5-4.5-4.8-6.9-7c-3.1,3.1-6.2,6-9,9.1c-1.6,1.8-3.9,2.7-6.2,2.5
		c-3.6-0.1-7.2,0-10.8,0c-0.7,0-1.4,0.1-2.1,0.1v8.4H278.3z"/>
	<path class="st0" d="M247.1,142.5l-8.4,3.6v-6.4c2.9-1.9,5.5-3.6,8.1-5.3c0.3-0.3,0.8-0.5,1.2-0.6c2.1-0.1,4.2,0,6.6,0v24.1h6.7
		v6.4h-21.4V158h7.2V142.5z"/>
	<path class="st0" d="M249.9,98.9c-2.4-0.1-4.2-2.1-4.2-4.4c0.1-2.4,2.1-4.2,4.4-4.2c2.4,0.1,4.2,2.1,4.2,4.4l0,0
		C254.2,97.1,252.2,98.9,249.9,98.9z"/>
	<path class="st0" d="M250,133.8c-2.4,0-4.3-1.9-4.3-4.3c0-2.4,1.9-4.3,4.3-4.3c2.4,0,4.3,1.9,4.3,4.3c0.1,2.3-1.8,4.3-4.1,4.3
		C250.1,133.8,250.1,133.8,250,133.8z"/>
	<path class="st0" d="M254.3,160.1c0,2.4-1.8,4.3-4.2,4.4c-2.4,0-4.3-1.8-4.4-4.2c0-0.1,0-0.2,0-0.4c0.2-2.4,2.2-4.2,4.6-4
		C252.5,156,254.3,157.8,254.3,160.1z"/>
	<g class="st1">
		<path class="st0" d="M125.5,323l2.3-2.9v-38l-2.3-2.9h8.2c6.1,0,11.6,4.1,11.6,12.2c0,8.1-5.6,12.2-11.6,12.2h-1.9v16.5l2.3,2.9
			H125.5z M131.8,301.9h1.6c4.9,0,7.8-3.5,7.8-10.4c0-6.9-2.9-10.4-7.8-10.4h-1.6V301.9z"/>
		<path class="st0" d="M159.3,323l2.6-2.9l-2.1-8.9h-10.9l-2.1,8.9l2.4,2.9H142l2.9-2.9l8.5-36l-1.2-4.9h4.4l9.7,40.8l2.9,2.9H159.3
			z M149.3,309.4h10.1l-5.1-21.6L149.3,309.4z"/>
		<path class="st0" d="M177.8,302.1v18l2.3,2.9h-8.6l2.3-2.9v-38l-2.3-2.9h8.2c5.8,0,11.1,3.8,11.1,11.4c0,5.6-2.8,9.1-6.6,10.6
			l7.6,21.7h-4.3l-7.2-20.8h-0.6H177.8z M177.8,281v18.3c0,0.7,0.4,1.1,1.1,1.1h0.6c4.6,0,7.3-3.2,7.3-9.7s-2.7-9.7-7.3-9.7H177.8z"
			/>
		<path class="st0" d="M200.3,323l2.3-2.9V281h-5.3l-4,5.2v-6.9h22.5v6.9l-4-5.2h-5.2v39.1l2.2,2.9H200.3z"/>
		<path class="st0" d="M218.8,323l2.3-2.9v-38l-2.3-2.9h8.6l-2.2,2.9v38l2.2,2.9H218.8z"/>
		<path class="st0" d="M235,301.1c0,14,2.7,20.7,6.9,20.7c1.8,0,3.1-1.6,4.2-4.4l1.8-4.4v8.1c-1.3,1.4-3.3,2.6-6.1,2.6
			c-6,0-11.4-7.5-11.4-22.5c0-15,5.4-22.5,11.4-22.5c2.7,0,4.7,1.2,6.1,2.6v8.1l-1.8-4.4c-1.2-2.9-2.4-4.4-4.2-4.4
			C237.7,280.4,235,287.2,235,301.1z"/>
		<path class="st0" d="M251,323l2.3-2.9v-38l-2.3-2.9h8.6l-2.2,2.9v38l2.2,2.9H251z"/>
		<path class="st0" d="M263.3,323l2.3-2.9v-38l-2.3-2.9h8.2c6.1,0,11.6,4.1,11.6,12.2c0,8.1-5.6,12.2-11.6,12.2h-1.9v16.5l2.3,2.9
			H263.3z M269.6,301.9h1.6c4.9,0,7.8-3.5,7.8-10.4c0-6.9-2.9-10.4-7.8-10.4h-1.6V301.9z"/>
		<path class="st0" d="M297.1,323l2.6-2.9l-2.1-8.9h-10.9l-2.1,8.9l2.4,2.9h-7.3l2.9-2.9l8.5-36l-1.2-4.9h4.4l9.7,40.8l2.9,2.9
			H297.1z M287.1,309.4h10.1l-5.1-21.6L287.1,309.4z"/>
		<path class="st0" d="M333.2,321.2l4-5v6.7h-17.7l2.3-2.9v-38l-2.3-2.9h17.4v6.7l-4-5h-7.1v16.4l8.2-1.6l-1.2,4.5l-7-1.6v22.4
			H333.2z"/>
		<path class="st0" d="M358.1,279.3h5.9l-2,2.9V323h-1.9l-15.8-35v32l2,2.9h-5.9l2.1-2.9v-36.2l-2.1-4.6h4.9l14.8,33.3v-30.5
			L358.1,279.3z"/>
	</g>
	<g class="st1">
		<path class="st0" d="M139.8,396.1l4-5v6.7h-17.7l2.3-2.9v-38l-2.3-2.9h17.4v6.7l-4-5h-7.1v16.4l8.2-1.6l-1.2,4.5l-7-1.6v22.4
			H139.8z"/>
		<path class="st0" d="M162.3,396.1l4.2-5.4v7.1H147l2.3-2.9v-38l-2.3-2.9h8.6l-2.3,2.9v39.1H162.3z"/>
		<path class="st0" d="M186.5,377v18l2.3,2.9h-8.6l2.3-2.9v-38l-2.3-2.9h8.2c5.8,0,11.1,3.8,11.1,11.4c0,5.6-2.8,9.1-6.6,10.6
			l7.6,21.7h-4.3L189,377h-0.6H186.5z M186.5,355.9v18.3c0,0.7,0.4,1.1,1.1,1.1h0.6c4.6,0,7.3-3.2,7.3-9.7s-2.7-9.7-7.3-9.7H186.5z"
			/>
		<path class="st0" d="M219.3,397.9l2.6-2.9l-2.1-8.9h-10.9l-2.1,8.9l2.4,2.9h-7.3l2.9-2.9l8.5-36l-1.2-4.9h4.4l9.7,40.8l2.9,2.9
			H219.3z M209.3,384.3h10.1l-5.1-21.6L209.3,384.3z"/>
		<path class="st0" d="M249.1,354.2h5.9l-2,2.9v40.8h-1.9l-15.8-35v32l2,2.9h-5.9l2.1-2.9v-36.2l-2.1-4.6h4.9l14.8,33.3V357
			L249.1,354.2z"/>
		<path class="st0" d="M266.8,374.1l-1.7,3.1V395l2.2,2.9h-8.6l2.3-2.9v-38l-2.3-2.9h8.6l-2.2,2.9v16.7l9.4-16.7l-1.6-2.9h6.6
			l-2.9,3.1l-7.1,12.5l10.5,28.2h-4.6L266.8,374.1z"/>
		<path class="st0" d="M282.3,397.9l2.3-2.9v-38l-2.3-2.9h8.6l-2.2,2.9v38l2.2,2.9H282.3z"/>
		<path class="st0" d="M312.2,354.2h5.9l-2,2.9v40.8h-1.9l-15.8-35v32l2,2.9h-5.9l2.1-2.9v-36.2l-2.1-4.6h4.9l14.8,33.3V357
			L312.2,354.2z"/>
		<path class="st0" d="M325.9,376c0,13.9,2.5,20.7,6.7,20.7c2.5,0,4.1-1.3,4.1-3.8v-15.8l-6.4,2.5l0.6-4.1h9.1v19.4
			c-1.5,2-4.4,3.6-7.4,3.6c-6.5,0-11.2-7.5-11.2-22.5c0-15,5.4-22.5,11.4-22.5c3.4,0,5.5,1.3,7.2,2.5v7.9l-1.8-3.9
			c-1.4-3.1-3.3-4.8-5.4-4.8C328.6,355.3,325.9,362.1,325.9,376z"/>
		<path class="st0" d="M353.3,376c0-15,5.4-22.5,10.9-22.5c5.6,0,10.9,7.5,10.9,22.5c0,15-5.4,22.5-10.9,22.5
			C358.6,398.5,353.3,391,353.3,376z M370.6,376c0-14-2.2-20.7-6.4-20.7c-4.2,0-6.4,6.8-6.4,20.7c0,13.9,2.2,20.7,6.4,20.7
			C368.4,396.7,370.6,389.9,370.6,376z"/>
	</g>
	<g class="st1">
		<path class="st0" d="M108.2,451.9v18l2.3,2.9h-8.6l2.3-2.9v-38l-2.3-2.9h8.2c5.8,0,11.1,3.8,11.1,11.4c0,5.6-2.8,9.1-6.6,10.6
			l7.6,21.7h-4.3l-7.2-20.8h-0.6H108.2z M108.2,430.8v18.3c0,0.7,0.4,1.1,1.1,1.1h0.6c4.6,0,7.3-3.2,7.3-9.7s-2.7-9.7-7.3-9.7H108.2
			z"/>
		<path class="st0" d="M138.8,471l4-5v6.7h-17.7l2.3-2.9v-38l-2.3-2.9h17.4v6.7l-4-5h-7.1v16.4l8.2-1.6l-1.2,4.5l-7-1.6V471H138.8z"
			/>
		<path class="st0" d="M146,472.8l2.3-2.9v-38l-2.3-2.9h7.7c7.6,0,14.2,7.3,14.2,21.8c0,14.5-6.6,21.8-14.2,21.8H146z M163.4,450.9
			c0-13.5-3.9-20.1-9.7-20.1h-1.4v38.8c0,0.9,0.5,1.4,1.4,1.4C159.5,471,163.4,464.4,163.4,450.9z"/>
		<path class="st0" d="M171.1,472.8l2.3-2.9v-38l-2.3-2.9h8.6l-2.2,2.9v38l2.2,2.9H171.1z"/>
		<path class="st0" d="M209,431.9v38l2.3,2.9h-8.6l2.3-2.9v-33.1l-8.7,36h-1.5l-7.4-36v33.1l2,2.9h-5.9l2.1-2.9v-37.9l-2.1-2.9h6.5
			l6.7,34.8l8.4-34.8h6.3L209,431.9z"/>
		<path class="st0" d="M228.7,471l4-5v6.7H215l2.3-2.9v-38l-2.3-2.9h17.4v6.7l-4-5h-7.1v16.4l8.2-1.6l-1.2,4.5l-7-1.6V471H228.7z"/>
		<path class="st0" d="M246.2,472.8l2.3-2.9v-38l-2.3-2.9h8.2c6.1,0,11.6,4.1,11.6,12.2c0,8.1-5.6,12.2-11.6,12.2h-1.9v16.5l2.3,2.9
			H246.2z M252.5,451.7h1.6c4.9,0,7.8-3.5,7.8-10.4c0-6.9-2.9-10.4-7.8-10.4h-1.6V451.7z"/>
		<path class="st0" d="M275.1,451.9v18l2.3,2.9h-8.6l2.3-2.9v-38l-2.3-2.9h8.2c5.8,0,11.1,3.8,11.1,11.4c0,5.6-2.8,9.1-6.6,10.6
			l7.6,21.7h-4.3l-7.2-20.8h-0.6H275.1z M275.1,430.8v18.3c0,0.7,0.4,1.1,1.1,1.1h0.6c4.6,0,7.3-3.2,7.3-9.7s-2.7-9.7-7.3-9.7H275.1
			z"/>
		<path class="st0" d="M305.6,471l4-5v6.7H292l2.3-2.9v-38l-2.3-2.9h17.4v6.7l-4-5h-7.1v16.4l8.2-1.6l-1.2,4.5l-7-1.6V471H305.6z"/>
		<path class="st0" d="M338.4,431.9v38l2.3,2.9h-8.6l2.3-2.9v-33.1l-8.7,36h-1.5l-7.4-36v33.1l2,2.9h-5.9l2.1-2.9v-37.9l-2.1-2.9
			h6.5l6.7,34.8l8.4-34.8h6.3L338.4,431.9z"/>
		<path class="st0" d="M344.5,472.8l2.3-2.9v-38l-2.3-2.9h8.6l-2.2,2.9v38l2.2,2.9H344.5z"/>
		<path class="st0" d="M356.1,450.9c0-15,5.4-22.5,10.9-22.5s10.9,7.5,10.9,22.5c0,15-5.4,22.5-10.9,22.5S356.1,465.9,356.1,450.9z
			 M373.5,450.9c0-14-2.2-20.7-6.4-20.7s-6.4,6.8-6.4,20.7c0,13.9,2.2,20.7,6.4,20.7S373.5,464.8,373.5,450.9z"/>
		<path class="st0" d="M381.1,471.3v-7l2.1,3.1c1.9,2.8,3.4,4.2,6.1,4.2c3.4,0,5.4-2.9,5.4-6.7c0-4-1.5-7-7-13.5
			c-4.9-5.7-6.6-9.6-6.6-14c0-5.5,3.5-9,8.2-9c2.9,0,5,0.7,7.2,2.1v7.4l-1.9-3.2c-1.9-3.2-3.4-4.5-5.6-4.5c-2.9,0-4.8,2.4-4.8,5.4
			c0,3.5,1.4,6.3,5.8,11.4c6.4,7.4,7.9,11,7.9,15.7c0,6.5-4.1,10.7-9,10.7C385.7,473.4,383.4,472.6,381.1,471.3z"/>
	</g>
</g>
</svg>
