<?xml version="1.0" encoding="utf-8"?>
<!-- Generator: Adobe Illustrator 25.4.1, SVG Export Plug-In . SVG Version: 6.00 Build 0)  -->
<svg version="1.1" id="Capa_1" xmlns="http://www.w3.org/2000/svg" xmlns:xlink="http://www.w3.org/1999/xlink" x="0px" y="0px"
	 viewBox="0 0 1576.8 892.8" style="enable-background:new 0 0 1576.8 892.8;" xml:space="preserve">
<style type="text/css">
	.st0{fill:#D92428;}
</style>
<path class="st0" d="M151.8,128.7c3.1,1.3,4.6,3.6,5,7c2.9,21.1,6,42.3,9,63.4l8.9,62.7c0.4,2.6,0.9,5.2,1.1,7.9
	c0.1,2,0.8,2.7,2.9,2.7c7.2-0.1,14.4-0.1,21.7-0.1c32.4,0,64.8,0,97.1,0c2.1,0,3-0.4,3.4-2.7c5-28.4,10.1-56.7,15.3-85
	c0.1-0.6,0.3-1.3,0.4-1.9c0.8-3.7,3.8-5.8,7.4-5.2c3.4,0.6,5.7,4,5,7.4c0,0.1,0,0.1,0,0.2c-1.9,10.8-3.9,21.6-5.9,32.4
	c-3.6,20-7.2,40.1-10.9,60.1c-1,5.6-2.8,7.3-8.5,7.3H178.3c0.1,7.8,4.8,14.9,11.1,16.6c2,0.5,4.1,0.7,6.2,0.6c31.3,0,62.7,0,94,0
	c1,0,1.9,0,2.9,0.1c3.3,0.1,5.9,2.7,6,6c0.2,3.3-2.3,6.1-5.5,6.5c-0.8,0.1-1.6,0.1-2.4,0.1H195c-16,0-27.2-10.2-29.3-26.1
	c-2.6-19.7-5.5-39.4-8.4-59.1s-5.6-39.6-8.4-59.3c-1.3-9-2.6-18.1-3.8-27.2c-0.2-1.6-1-1.7-2.2-1.7c-6.8,0-13.6,0.1-20.5,0
	c-2.9,0-5.5-2-6.1-4.9c-0.6-2.8,0.8-5.7,3.4-7l1.2-0.7L151.8,128.7z"/>
<path class="st0" d="M242.4,128.7c1,0.3,2,0.6,2.9,0.9c12.3,3,21,14,21.1,26.6c0.1,4.3,0,8.6,0,13.3h9.3c3.2,0,6.4-0.1,9.6,0
	c4,0.1,6.4,2.5,6.6,6.5c0,0.4,0,0.8,0,1.2c0,22.3,0,44.7,0,67c0,7.4-4.1,12.8-10.7,14.4c-1.4,0.3-2.9,0.4-4.3,0.3
	c-25.5,0-50.9,0-76.4,0c-9.6,0-15-5.6-15-15.1c0-22.1,0-44.2,0-66.2c0-5.8,2.1-8,8-8s11.5,0,17.6,0c0-4.1,0.1-7.9,0-11.8
	c-0.7-14.2,9.5-26.6,23.5-28.7c0.2,0,0.4-0.2,0.6-0.4L242.4,128.7z M223.7,182.2c0,3.3,0,6.4,0,9.6c0,4.2-2.5,7-6.2,7.1
	s-6.4-2.9-6.4-7.2c0-3.1,0-6.2,0-9.4h-12.9v2.5c0,19.5,0,39-0.1,58.5c0,2.5,0.9,3.1,3.2,3.1c24.9-0.1,49.8-0.1,74.7-0.1
	c3.3,0,3.3,0,3.3-3.3v-60.8h-12.8c0,3.5,0,6.7,0,9.9s-1.7,5.5-4.2,6.4c-3.2,1.2-6.8-0.5-8-3.7c-0.2-0.6-0.4-1.3-0.4-2
	c-0.2-3.5,0-7,0-10.6H223.7z M224,169.2h29.7c0-4.9,0.3-9.7-0.1-14.4c-0.6-7.5-6.8-13.4-14.4-13.6c-7.3-0.3-14.2,5-15.1,12.4
	C223.5,158.7,224,163.9,224,169.2L224,169.2z"/>
<path class="st0" d="M202.9,327.6c13.2,0.1,23.8,10.9,23.7,24.1s-10.9,23.8-24.1,23.7c-13.2-0.1-23.8-10.9-23.7-24.1
	C179,338.2,189.7,327.6,202.9,327.6z M202.8,340.2c-6.2,0-11.2,5.1-11.2,11.4c0,6.2,5.1,11.2,11.4,11.2c6.2,0,11.2-5.1,11.2-11.3
	c0-6.2-5-11.2-11.2-11.3C202.9,340.2,202.8,340.2,202.8,340.2L202.8,340.2z"/>
<path class="st0" d="M307.1,351.6c0,13.3-10.7,24-24,24c-13.3,0-24-10.7-24-24c0-13.3,10.7-24,24-24c0.1,0,0.2,0,0.2,0
	C296.5,327.7,307.2,338.4,307.1,351.6z M294.5,351.5c-0.2-6.3-5.4-11.2-11.7-11c-6,0.2-10.8,5-11,11c0.2,6.3,5.4,11.2,11.7,11
	C289.5,362.3,294.3,357.5,294.5,351.5z"/>
<path class="st0" d="M309.9,308.4c0-4.1,3.2-7.4,7.3-7.4s7.4,3.2,7.4,7.3c0,4.1-3.2,7.4-7.3,7.4
	C313.2,315.7,309.9,312.4,309.9,308.4z"/>
<path class="st0" d="M651.8,367.2c-4.7-1.1-9.2-2.3-13.3-5c-9.2-6.3-14-15-14-26.2c0-50.6,0-101.1,0-151.7v-54
	c0-5.4,2.3-7.7,7.7-7.7h171c5.4,0,7.7,2.3,7.7,7.7c0,43.1,0,86.2,0,129.2c0,4.7-2.2,7.5-6.1,7.5c-3.3,0.1-6-2.3-6.4-5.6
	c-0.1-1,0-1.9,0-2.9V135.3H637.2c0,0.8-0.1,1.5-0.1,2.2c0,66.2,0,132.3,0,198.5c0,8.4,4.4,15,11.8,17.6c7.6,2.7,16,0.7,20.8-5.3
	c4.4-5.5,5.4-11.7,2.6-18.1s-8.1-10.1-15.2-10.6c-3.8-0.3-6-1.6-6.9-4.4c-1.1-3.2,0.6-6.7,3.9-7.8c0.4-0.1,0.8-0.2,1.3-0.3
	c0.9-0.1,1.7-0.1,2.6-0.1c48.8,0,97.6,0.1,146.4-0.1c14.4-0.3,27,9.3,30.6,23.2c3.8,16.3-6.3,32.6-22.5,36.4
	c-0.6,0.1-1.2,0.3-1.8,0.4c-0.5,0.1-1.1,0.3-1.6,0.5L651.8,367.2z M680.8,354.7h2.2c40.5,0,81.1,0,121.6,0c1.8,0,3.6-0.2,5.4-0.7
	c8.4-2.1,14.1-10.4,13.1-18.6c-1.2-9.3-8.3-15.9-17.5-15.9c-41,0-82,0-123,0c-0.5,0-1.1,0.1-1.6,0.2
	C688,331.3,688,342.8,680.8,354.7L680.8,354.7z"/>
<path class="st0" d="M718,234.1h53c5.2,0,8.2,2.2,8.3,6.2s-3,6.4-8.3,6.4c-35.5,0-71,0-106.5,0c-1.2,0-2.4-0.1-3.5-0.3
	c-3.3-0.9-5.3-4.3-4.4-7.6c0.6-2.2,2.4-3.9,4.6-4.4c1.1-0.2,2.2-0.3,3.3-0.3L718,234.1z"/>
<path class="st0" d="M704.8,194.7c3.3,1.4,6.3,2.9,9.5,4c1.6,0.5,3.3,0.5,4.9,0c1.3-0.4,2.9-1.7,3.1-2.8c0-1.5-0.6-3-1.7-4
	c-1.1-1.1-2.8-1.7-4.3-2.4c-2.5-1.3-5.3-2.4-7.6-3.9c-6.6-4.3-8.5-13-4.2-19.6c1.5-2.4,3.8-4.3,6.4-5.4c1.9-0.9,2.7-1.8,2.5-3.9
	c-0.1-1.6-0.1-3.3,0-4.9h11v6.6l10.4,4.3c-1.5,3.9-2.8,7.4-4.2,11c-1.7-1-3.5-1.8-5.4-2.5c-2.3-0.7-4.6-1-7-1
	c-1.3,0.2-2.3,1.1-2.8,2.3c-0.2,0.9,0.7,2.6,1.7,3.2c1.8,1.1,3.6,2,5.5,2.8c2.2,1,4.3,2.1,6.3,3.4c7,4.7,8.9,14.2,4.2,21.2
	c-1.7,2.5-4,4.5-6.8,5.6c-1.8,0.8-2.4,1.6-2.2,3.5s0,3.6,0,5.6h-11.1c0.1-2,0-3.9-0.1-5.9c-0.2-0.8-0.7-1.5-1.5-1.8
	c-2.9-1.4-6-2.5-8.9-3.8c-1.1-0.5-1.3-1.3-0.8-2.5C702.7,200.7,703.7,197.5,704.8,194.7z"/>
<path class="st0" d="M707.2,269.7c14.6,0,29.1,0,43.7,0c4.2,0,6.9,2.3,7,5.8c0.2,3.2-2.1,6.1-5.3,6.6c-0.5,0.1-0.9,0.1-1.4,0.1
	c-29.3,0-58.7,0-88.1,0c-0.9,0-1.9-0.1-2.8-0.5c-3.2-1.1-4.9-4.7-3.8-7.9c0.8-2.3,2.9-3.9,5.3-4.1c1-0.1,1.9-0.1,2.9-0.1
	L707.2,269.7z"/>
<path class="st0" d="M804.8,293.7c-4,0.1-7.3-3.1-7.4-7.1c-0.1-4,3.1-7.3,7.1-7.4c4-0.1,7.3,3.1,7.4,7.1c0,0,0,0,0,0
	c0.1,4-3,7.3-7,7.4C804.9,293.7,804.9,293.7,804.8,293.7z"/>
<path class="st0" d="M1425.9,366.4c-1.8,3.4-4.6,4.4-8.4,4.4c-27.5-0.1-55,0-82.5,0h-189.8c-6.8,0-8.6-1.9-8.6-8.8V237.4
	c0-6.3,2-8.3,8.2-8.3h84.1v-3.4c0-12.6,0-25.2,0-37.8c0-5.9,2.1-8,8-8h88.4c6.3,0,8.3,2,8.3,8.2c0,26.7,0,53.3,0,80v4.1h3.7
	c26.8,0,53.5,0,80.2,0c3.7,0,6.6,1,8.3,4.4L1425.9,366.4z M1241.3,358.2h79.8V192.4h-79.7v12.1h46.5c1.2,0,2.4,0.1,3.7,0.2
	c3,0.4,5.2,3.2,5,6.2c-0.1,3.6-2.7,5.8-6.9,5.8c-15,0-29.9,0-44.9,0h-3.4L1241.3,358.2z M1149,358.2h79.5V241.6h-79.5v12.2h38.4
	c3.7,0,7.3-0.1,11,0.1c3.2,0.1,5.7,2.7,5.7,5.9c0,3.3-2.5,6-5.7,6.2c-0.9,0.1-1.9,0.1-2.8,0.1H1149L1149,358.2z M1333.8,296.8h18
	c10.3,0,20.5,0,30.8,0c3.3-0.2,6.2,2.4,6.3,5.8c0,0,0,0.1,0,0.1c0.1,3.4-2.5,6.2-5.9,6.4c-0.8,0.1-1.7,0.1-2.5,0h-46.6v49h79.4
	v-73.5h-79.5L1333.8,296.8z"/>
<path class="st0" d="M1425.9,390.7c-1.5,3.4-4.1,4.6-7.9,4.6c-91.2-0.1-182.5-0.1-273.7-0.1c-0.8,0-1.7,0-2.5-0.1
	c-2.9-0.4-5.1-2.8-5.2-5.8c-0.1-2.8,1.7-5.4,4.5-6.1c1.3-0.3,2.6-0.4,4-0.3c90.8,0,181.7,0,272.6-0.1c3.7,0,6.6,1,8.4,4.4
	L1425.9,390.7z"/>
<path class="st0" d="M1281,167.5h-44.3c-5.7,0-7.8-2.1-7.8-7.9c0-7.1,0-14.3,0-21.5c0-5.4,2.2-7.5,7.6-7.5c6.9,0,13.7,0.1,20.6-0.1
	c1.5-0.1,3-0.7,4.1-1.7c5-4.8,9.9-9.8,14.8-14.7c3.4-3.3,6.6-3.4,10,0c5,4.9,9.8,9.9,14.8,14.7c1.1,1,2.6,1.6,4.1,1.7
	c7.2,0.2,14.3,0.1,21.5,0.1c4.8,0,7.1,2.3,7.1,7.1c0.1,7.5,0.1,15.1,0,22.6c0,4.9-2.4,7.1-7.4,7.1
	C1311.1,167.5,1296.1,167.5,1281,167.5z M1321,155v-12.1c-4.9,0-9.7-0.4-14.3,0.1c-6.7,0.7-11.8-1.3-16-6.6
	c-2.8-3.6-6.4-6.6-9.7-9.9c-4.4,4.4-8.7,8.5-12.7,12.9c-2.2,2.5-5.4,3.8-8.8,3.6c-5.1-0.2-10.2-0.1-15.2,0c-1,0-2,0.1-2.9,0.2V155
	L1321,155z"/>
<path class="st0" d="M1278.6,278.2l-11.9,5.1v-9c4-2.6,7.7-5.1,11.5-7.5c0.5-0.4,1.1-0.7,1.7-0.8c3-0.1,6,0,9.3,0v34h9.4v9h-30.2
	v-8.9h10.2V278.2z"/>
<path class="st0" d="M1308.8,216.7c-3.4-0.1-6-2.9-5.9-6.3c0.1-3.4,2.9-6,6.3-5.9c3.4,0.1,6,2.9,5.9,6.3c0,0,0,0,0,0
	C1314.9,214.1,1312.1,216.8,1308.8,216.7z"/>
<path class="st0" d="M1216.6,266c-3.4,0-6.1-2.7-6.1-6.1s2.7-6.1,6.1-6.1c3.4,0,6.1,2.7,6.1,6.1c0.1,3.3-2.6,6-5.9,6.1
	C1216.7,266,1216.7,266,1216.6,266z"/>
<path class="st0" d="M1407.3,303c0,3.4-2.7,6.1-6,6.1c-3.4,0-6.1-2.7-6.1-6c0-0.1,0-0.3,0-0.4c0.2-3.4,3.1-5.9,6.4-5.7
	C1404.8,297.2,1407.3,299.8,1407.3,303z"/>
<rect x="974.6" y="98.3" class="st0" width="6.8" height="694.5"/>
<rect x="479.6" y="98.3" class="st0" width="6.8" height="694.5"/>
<g>
	<path class="st0" d="M136.5,482.5c0,20.3,3.9,30.1,10.2,30.1c2.7,0,4.5-2.3,6.2-6.4l2.7-6.4v11.7c-1.9,2-4.9,3.7-8.9,3.7
		c-8.8,0-16.8-10.9-16.8-32.7s8-32.7,16.8-32.7c4,0,7,1.7,8.9,3.7v11.7l-2.7-6.4c-1.7-4.2-3.6-6.4-6.2-6.4
		C140.4,452.4,136.5,462.3,136.5,482.5z"/>
	<path class="st0" d="M159,482.5c0-21.8,7.9-32.7,16.1-32.7c8.2,0,16.1,10.9,16.1,32.7s-7.9,32.7-16.1,32.7
		C166.9,515.2,159,504.3,159,482.5z M184.6,482.5c0-20.3-3.2-30.1-9.5-30.1s-9.5,9.9-9.5,30.1s3.2,30.1,9.5,30.1
		S184.6,502.7,184.6,482.5z"/>
	<path class="st0" d="M233.5,454.9v55.2l3.4,4.2h-12.7l3.4-4.2v-48.2l-12.8,52.4h-2.2l-10.9-52.4V510l2.9,4.3h-8.7l3-4.3v-55.1
		l-3-4.2h9.5l9.8,50.6l12.3-50.6h9.3L233.5,454.9z"/>
	<path class="st0" d="M242.4,514.3l3.4-4.2v-55.2l-3.4-4.2h12c8.9,0,17.1,5.9,17.1,17.7c0,11.8-8.2,17.7-17.1,17.7h-2.8v24l3.4,4.2
		H242.4z M251.6,483.6h2.4c7.2,0,11.5-5.1,11.5-15.2s-4.2-15.2-11.5-15.2h-2.4V483.6z"/>
	<path class="st0" d="M284.8,483.9v26.1l3.4,4.2h-12.7l3.4-4.2v-55.2l-3.4-4.2h12c8.5,0,16.3,5.5,16.3,16.6c0,8.1-4.1,13.3-9.7,15.4
		l11.2,31.5H299l-10.6-30.3h-0.9H284.8z M284.8,453.3v26.6c0,1,0.6,1.5,1.6,1.5h0.8c6.8,0,10.7-4.7,10.7-14.1
		c0-9.3-3.9-14.1-10.7-14.1H284.8z"/>
	<path class="st0" d="M332.9,514.3l3.9-4.2l-3.1-13h-16.1l-3,13l3.6,4.2h-10.7l4.3-4.2l12.5-52.3l-1.7-7.1h6.4l14.3,59.4l4.2,4.2
		H332.9z M318.2,494.6H333l-7.5-31.4L318.2,494.6z"/>
	<path class="st0" d="M85.7,623.2l3.4-4.2v-55.2l-3.4-4.2h12c8.9,0,17.1,5.9,17.1,17.7c0,11.8-8.2,17.7-17.1,17.7H95v24l3.4,4.2
		H85.7z M95,592.5h2.4c7.2,0,11.5-5.1,11.5-15.2c0-10.1-4.2-15.2-11.5-15.2H95V592.5z"/>
	<path class="st0" d="M128.1,592.9V619l3.4,4.2h-12.7l3.4-4.2v-55.2l-3.4-4.2h12c8.5,0,16.3,5.5,16.3,16.6c0,8.1-4.1,13.3-9.7,15.4
		l11.2,31.5h-6.3l-10.6-30.3h-0.9H128.1z M128.1,562.2v26.6c0,1,0.6,1.5,1.6,1.5h0.8c6.8,0,10.7-4.7,10.7-14.1
		c0-9.3-3.9-14.1-10.7-14.1H128.1z"/>
	<path class="st0" d="M152.1,591.4c0-21.8,7.9-32.7,16.1-32.7c8.2,0,16.1,10.9,16.1,32.7s-7.9,32.7-16.1,32.7
		C160,624.1,152.1,613.2,152.1,591.4z M177.6,591.4c0-20.3-3.2-30.1-9.5-30.1s-9.5,9.9-9.5,30.1s3.2,30.1,9.5,30.1
		S177.6,611.7,177.6,591.4z"/>
	<path class="st0" d="M189,623.2l3.4-4.2v-55.2l-3.4-4.2h11.3c11.2,0,20.8,10.6,20.8,31.8c0,21.1-9.6,31.8-20.8,31.8H189z
		 M214.5,591.4c0-19.7-5.8-29.2-14.2-29.2h-2v56.4c0,1.4,0.7,2.1,2,2.1C208.7,620.6,214.5,611,214.5,591.4z"/>
	<path class="st0" d="M229.1,608.1v-44.3l-3.4-4.2h12.6l-3.3,4.2v45.9c0,6.9,3.6,10.6,10.2,10.6c5.9,0,9.6-4.4,9.6-11.6v-44.9
		l-3-4.2h8.7l-2.9,4.2v44.6c0,10.3-5.4,15.7-13.6,15.7C235.1,624.1,229.1,619,229.1,608.1z"/>
	<path class="st0" d="M271.6,591.4c0,20.3,3.9,30.1,10.2,30.1c2.7,0,4.5-2.3,6.2-6.4l2.7-6.4v11.7c-1.9,2-4.9,3.7-8.9,3.7
		c-8.8,0-16.8-10.9-16.8-32.7s8-32.7,16.8-32.7c4,0,7,1.7,8.9,3.7v11.7l-2.7-6.4c-1.7-4.2-3.6-6.4-6.2-6.4
		C275.6,561.3,271.6,571.2,271.6,591.4z"/>
	<path class="st0" d="M304.2,623.2l3.4-4.2v-56.8h-7.8l-5.9,7.5v-10.1h33.1v10.1l-5.9-7.5h-7.7V619l3.3,4.2H304.2z"/>
	<path class="st0" d="M328.6,591.4c0-21.8,7.9-32.7,16.1-32.7c8.2,0,16.1,10.9,16.1,32.7s-7.9,32.7-16.1,32.7
		C336.5,624.1,328.6,613.2,328.6,591.4z M354.1,591.4c0-20.3-3.2-30.1-9.5-30.1s-9.5,9.9-9.5,30.1s3.2,30.1,9.5,30.1
		S354.1,611.7,354.1,591.4z"/>
	<path class="st0" d="M365.3,621.1v-10.2l3,4.4c2.8,4.1,5,6.2,9,6.2c5,0,8-4.3,8-9.8c0-5.8-2.2-10.2-10.3-19.6
		c-7.2-8.3-9.6-14-9.6-20.3c0-8,5.1-13.1,12.1-13.1c4.3,0,7.3,1,10.6,3v10.7l-2.8-4.6c-2.8-4.6-5-6.5-8.2-6.5
		c-4.2,0-7.1,3.4-7.1,7.8c0,5.1,2,9.2,8.5,16.6c9.5,10.8,11.6,16.1,11.6,22.8c0,9.4-6.1,15.6-13.2,15.6
		C372.1,624.1,368.6,622.9,365.3,621.1z"/>
	<path class="st0" d="M89.2,732.1l3.4-4.2v-55.6l-3.4-3.7h12.5c9.2,0,15.9,4.7,15.9,14.1c0,7.9-5.8,11.8-10.5,13.1
		c5.9,1.5,12.3,5.9,12.3,17.7c0,12.7-8.4,18.7-17.3,18.7H89.2z M98.4,694.4h3.6c5.1,0,9.7-3.5,9.7-11.6s-4.6-11.7-9.7-11.7h-3.6
		V694.4z M98.4,727.3c0,1.5,0.8,2.3,2.3,2.3h1.7c5,0,11-5.2,11-16.3s-6.1-16.2-11-16.2h-4V727.3z"/>
	<path class="st0" d="M126.2,717v-44.3l-3.4-4.2h12.6l-3.3,4.2v45.9c0,6.9,3.6,10.6,10.2,10.6c5.9,0,9.6-4.4,9.6-11.6v-44.9l-3-4.2
		h8.7l-2.9,4.2v44.6c0,10.3-5.4,15.7-13.6,15.7C132.2,733,126.2,727.9,126.2,717z"/>
	<path class="st0" d="M163,732.1l3.4-4.2v-55.2l-3.4-4.2h11.3c11.2,0,20.8,10.6,20.8,31.8c0,21.1-9.6,31.8-20.8,31.8H163z
		 M188.5,700.3c0-19.7-5.8-29.2-14.2-29.2h-2v56.4c0,1.4,0.7,2.1,2,2.1C182.8,729.6,188.5,719.9,188.5,700.3z"/>
	<path class="st0" d="M237.3,668.6h9.2l-3.9,4.2l-8.9,60.1h-1.3l-10.8-48.4l-10.6,48.4h-1.3l-11.2-60.1l-3.6-4.2H208l-3,4.2
		l7.1,41.9l10.5-46.1h1.2l10.2,44.6l5.9-40.4L237.3,668.6z"/>
	<path class="st0" d="M270.1,729.6l5.9-7.3v9.8h-26l3.4-4.2v-55.2l-3.4-4.2h25.6v9.8l-5.9-7.3h-10.5V695l12.1-2.3l-1.8,6.5
		l-10.3-2.3v32.6H270.1z"/>
	<path class="st0" d="M280.8,732.1l3.4-4.2v-55.2l-3.4-4.2h12.6l-3.3,4.2v55.2l3.3,4.2H280.8z"/>
	<path class="st0" d="M298.3,730v-10.2l3,4.4c2.8,4.1,5,6.2,9,6.2c5,0,8-4.3,8-9.8c0-5.8-2.2-10.2-10.3-19.6
		c-7.2-8.3-9.6-14-9.6-20.3c0-8,5.1-13.1,12.1-13.1c4.3,0,7.3,1,10.6,3v10.7l-2.8-4.6c-2.8-4.6-5-6.5-8.2-6.5
		c-4.2,0-7.1,3.4-7.1,7.8c0,5.1,2,9.2,8.5,16.6c9.5,10.8,11.6,16.1,11.6,22.8c0,9.4-6.1,15.6-13.2,15.6
		C305.1,733,301.6,731.8,298.3,730z"/>
	<path class="st0" d="M347.6,729.6l5.9-7.3v9.8h-26l3.4-4.2v-55.2l-3.4-4.2h25.6v9.8l-5.9-7.3h-10.5V695l12.1-2.3l-1.8,6.5
		l-10.3-2.3v32.6H347.6z"/>
	<path class="st0" d="M367.5,701.8v26.1l3.4,4.2h-12.7l3.4-4.2v-55.2l-3.4-4.2h12c8.5,0,16.3,5.5,16.3,16.6c0,8.1-4.1,13.3-9.7,15.4
		l11.2,31.5h-6.3l-10.6-30.3h-0.9H367.5z M367.5,671.1v26.6c0,1,0.6,1.5,1.6,1.5h0.8c6.8,0,10.7-4.7,10.7-14.1
		c0-9.3-3.9-14.1-10.7-14.1H367.5z"/>
</g>
<g>
	<path class="st0" d="M581.5,490.8c0,20.4,3.9,30.3,10.1,30.3c2.6,0,4.5-2.3,6.2-6.5l2.6-6.5v11.8c-1.9,2-4.8,3.7-8.8,3.7
		c-8.8,0-16.7-10.9-16.7-32.8c0-21.9,7.9-32.8,16.7-32.8c4,0,6.9,1.7,8.8,3.7v11.8l-2.6-6.5c-1.7-4.2-3.6-6.5-6.2-6.5
		C585.4,460.5,581.5,470.4,581.5,490.8z"/>
	<path class="st0" d="M628,522.7l3.8-4.2l-3.1-13h-16l-3,13l3.6,4.2h-10.7l4.3-4.2l12.4-52.5l-1.7-7.1h6.4l14.2,59.6l4.2,4.2H628z
		 M613.3,502.9h14.8l-7.5-31.6L613.3,502.9z"/>
	<path class="st0" d="M654.9,492.2v26.3l3.4,4.2h-12.6l3.4-4.2V463l-3.4-4.2h11.9c8.5,0,16.2,5.6,16.2,16.7c0,8.1-4.1,13.3-9.7,15.5
		l11.1,31.6H669l-10.5-30.5h-0.9H654.9z M654.9,461.4v26.7c0,1,0.5,1.6,1.6,1.6h0.8c6.7,0,10.7-4.7,10.7-14.1s-3.9-14.1-10.7-14.1
		H654.9z"/>
	<path class="st0" d="M685.3,490.8c0,20.3,3.6,30.3,9.8,30.3c3.6,0,6-1.9,6-5.6v-23.1l-9.4,3.6l0.9-6h13.2v28.4
		c-2.2,2.9-6.4,5.2-10.9,5.2c-9.5,0-16.3-10.9-16.3-32.8c0-21.9,7.9-32.8,16.7-32.8c4.9,0,8,1.9,10.5,3.6v11.6l-2.6-5.7
		c-2.1-4.6-4.8-7-7.8-7C689.2,460.5,685.3,470.4,685.3,490.8z"/>
	<path class="st0" d="M734.3,522.7l3.8-4.2l-3.1-13h-16l-3,13l3.6,4.2h-10.7l4.3-4.2l12.4-52.5l-1.7-7.1h6.4l14.2,59.6l4.2,4.2
		H734.3z M719.6,502.9h14.8l-7.5-31.6L719.6,502.9z"/>
	<path class="st0" d="M776,522.7l3.4-4.2v-57.1h-7.8l-5.8,7.6v-10.1h32.9V469l-5.8-7.6h-7.7v57.1l3.3,4.2H776z"/>
	<path class="st0" d="M806.4,507.6V463l-3.4-4.2h12.5l-3.3,4.2v46.1c0,6.9,3.6,10.7,10.1,10.7c5.8,0,9.6-4.5,9.6-11.7V463l-3-4.2
		h8.7l-2.9,4.2v44.8c0,10.4-5.4,15.8-13.5,15.8C812.4,523.6,806.4,518.5,806.4,507.6z"/>
	<path class="st0" d="M842.3,520.6v-10.2l3,4.5c2.7,4.1,4.9,6.2,8.9,6.2c5,0,7.9-4.3,7.9-9.8c0-5.8-2.2-10.2-10.2-19.7
		c-7.1-8.4-9.6-14-9.6-20.4c0-8,5.1-13.1,12-13.1c4.3,0,7.3,1,10.6,3v10.8l-2.7-4.7c-2.7-4.7-4.9-6.6-8.1-6.6c-4.2,0-7,3.5-7,7.8
		c0,5.1,2,9.2,8.5,16.7c9.4,10.9,11.5,16.1,11.5,22.9c0,9.5-6,15.7-13.1,15.7C849.1,523.6,845.6,522.4,842.3,520.6z"/>
	<path class="st0" d="M599,570.8v25.8l13-2.3l-1.8,6.3l-11.1-2.3v29.5l3.4,4.2h-12.6l3.4-4.2v-55.5l-3.4-4.2H616v9.8l-5.8-7.3H599z"
		/>
	<path class="st0" d="M634.6,632.1l3.8-4.2l-3.1-13h-16l-3,13l3.6,4.2h-10.7l4.3-4.2l12.4-52.5l-1.7-7.1h6.4l14.2,59.6l4.2,4.2
		H634.6z M619.9,612.3h14.8l-7.5-31.6L619.9,612.3z"/>
	<path class="st0" d="M654.7,600.2c0,20.4,3.9,30.3,10.1,30.3c2.6,0,4.5-2.3,6.2-6.5l2.6-6.5v11.8c-1.9,2-4.8,3.7-8.8,3.7
		c-8.8,0-16.7-10.9-16.7-32.8c0-21.9,7.9-32.8,16.7-32.8c4,0,6.9,1.7,8.8,3.7v11.8l-2.6-6.5c-1.7-4.2-3.6-6.5-6.2-6.5
		C658.6,569.9,654.7,579.9,654.7,600.2z"/>
	<path class="st0" d="M687.1,632.1l3.4-4.2v-57.1h-7.8l-5.8,7.6v-10.1h32.9v10.1l-5.8-7.6h-7.7v57.1l3.3,4.2H687.1z"/>
	<path class="st0" d="M717.5,617v-44.5l-3.4-4.2h12.5l-3.3,4.2v46.1c0,6.9,3.6,10.7,10.1,10.7c5.8,0,9.6-4.5,9.6-11.7v-45.1l-3-4.2
		h8.7l-2.9,4.2v44.8c0,10.4-5.4,15.8-13.5,15.8C723.5,633,717.5,627.9,717.5,617z"/>
	<path class="st0" d="M763.3,601.7v26.3l3.4,4.2h-12.6l3.4-4.2v-55.5l-3.4-4.2h11.9c8.5,0,16.2,5.6,16.2,16.7
		c0,8.1-4.1,13.3-9.7,15.5l11.1,31.6h-6.3L767,601.7h-0.9H763.3z M763.3,570.8v26.7c0,1,0.5,1.6,1.6,1.6h0.8
		c6.7,0,10.7-4.7,10.7-14.1s-3.9-14.1-10.7-14.1H763.3z"/>
	<path class="st0" d="M811.2,632.1l3.8-4.2l-3.1-13h-16l-3,13l3.6,4.2h-10.7l4.3-4.2l12.4-52.5l-1.7-7.1h6.4l14.2,59.6l4.2,4.2
		H811.2z M796.5,612.3h14.8l-7.5-31.6L796.5,612.3z"/>
	<path class="st0" d="M828.4,630v-10.2l3,4.5c2.7,4.1,4.9,6.2,8.9,6.2c5,0,7.9-4.3,7.9-9.8c0-5.8-2.2-10.2-10.2-19.7
		c-7.1-8.4-9.6-14-9.6-20.4c0-8,5.1-13.1,12-13.1c4.3,0,7.3,1,10.6,3v10.8l-2.7-4.7c-2.7-4.7-4.9-6.6-8.1-6.6c-4.2,0-7,3.5-7,7.8
		c0,5.1,2,9.2,8.5,16.7c9.4,10.9,11.5,16.1,11.5,22.9c0,9.5-6,15.7-13.1,15.7C835.1,633,831.7,631.9,828.4,630z"/>
	<path class="st0" d="M573.8,741.6l3.4-4.2v-55.5l-3.4-4.2H585c11.1,0,20.7,10.7,20.7,31.9s-9.6,31.9-20.7,31.9H573.8z M599.1,709.7
		c0-19.8-5.7-29.4-14.1-29.4h-2v56.6c0,1.4,0.7,2.1,2,2.1C593.4,739,599.1,729.4,599.1,709.7z"/>
	<path class="st0" d="M630.4,739l5.8-7.3v9.8h-25.8l3.4-4.2v-55.5l-3.4-4.2h25.4v9.8l-5.8-7.3h-10.4v24l12-2.3l-1.8,6.6l-10.2-2.3
		V739H630.4z"/>
	<path class="st0" d="M661.7,709.7c0,20.4,3.9,30.3,10.1,30.3c2.6,0,4.5-2.3,6.2-6.5l2.6-6.5v11.8c-1.9,2-4.8,3.7-8.8,3.7
		c-8.8,0-16.7-10.9-16.7-32.8c0-21.9,7.9-32.8,16.7-32.8c4,0,6.9,1.7,8.8,3.7v11.8l-2.6-6.5c-1.7-4.2-3.6-6.5-6.2-6.5
		C665.6,679.4,661.7,689.3,661.7,709.7z"/>
	<path class="st0" d="M684.1,709.7c0-21.9,7.8-32.8,16-32.8c8.1,0,16,10.9,16,32.8c0,21.9-7.8,32.8-16,32.8
		C692,742.5,684.1,731.6,684.1,709.7z M709.5,709.7c0-20.4-3.2-30.3-9.4-30.3s-9.4,9.9-9.4,30.3s3.2,30.3,9.4,30.3
		S709.5,730,709.5,709.7z"/>
	<path class="st0" d="M758.1,681.9v55.5l3.4,4.2h-12.6l3.4-4.2V689l-12.7,52.6h-2.2L726.5,689v48.3l2.9,4.3h-8.7l3-4.3v-55.4l-3-4.2
		h9.5l9.8,50.9l12.2-50.9h9.2L758.1,681.9z"/>
	<path class="st0" d="M766.9,741.6l3.4-4.2v-55.5l-3.4-4.2h11.9c8.8,0,17,5.9,17,17.8s-8.1,17.8-17,17.8h-2.7v24.1l3.4,4.2H766.9z
		 M776.2,710.8h2.4c7.2,0,11.4-5.1,11.4-15.2c0-10.1-4.2-15.2-11.4-15.2h-2.4V710.8z"/>
	<path class="st0" d="M809.1,711.1v26.3l3.4,4.2h-12.6l3.4-4.2v-55.5l-3.4-4.2h11.9c8.5,0,16.2,5.6,16.2,16.7
		c0,8.1-4.1,13.3-9.7,15.5l11.1,31.6h-6.3l-10.5-30.5h-0.9H809.1z M809.1,680.3V707c0,1,0.5,1.6,1.6,1.6h0.8
		c6.7,0,10.7-4.7,10.7-14.1s-3.9-14.1-10.7-14.1H809.1z"/>
	<path class="st0" d="M857,741.6l3.8-4.2l-3.1-13h-16l-3,13l3.6,4.2h-10.7l4.3-4.2l12.4-52.5l-1.7-7.1h6.4l14.2,59.6l4.2,4.2H857z
		 M842.3,721.8h14.8l-7.5-31.6L842.3,721.8z"/>
</g>
<g>
	<path class="st0" d="M1118.1,539.3l3.3-4.1v-54.8l-3.3-4.1h11.8c8.7,0,16.8,5.9,16.8,17.6c0,11.7-8,17.6-16.8,17.6h-2.7v23.8
		l3.3,4.1H1118.1z M1127.2,508.8h2.3c7.1,0,11.3-5,11.3-15.1c0-10-4.1-15.1-11.3-15.1h-2.3V508.8z"/>
	<path class="st0" d="M1167,539.3l3.8-4.1l-3.1-12.9h-15.8l-3,12.9l3.5,4.1h-10.6l4.2-4.1l12.3-51.9l-1.7-7h6.3l14.1,59l4.1,4.1
		H1167z M1152.5,519.8h14.6l-7.4-31.2L1152.5,519.8z"/>
	<path class="st0" d="M1193.6,509.2v26l3.3,4.1h-12.4l3.3-4.1v-54.8l-3.3-4.1h11.8c8.4,0,16.1,5.5,16.1,16.5c0,8-4.1,13.2-9.6,15.3
		l11,31.3h-6.2l-10.4-30.1h-0.9H1193.6z M1193.6,478.7v26.4c0,1,0.5,1.5,1.5,1.5h0.8c6.7,0,10.6-4.7,10.6-14c0-9.3-3.9-14-10.6-14
		H1193.6z"/>
	<path class="st0" d="M1226.2,539.3l3.3-4.1v-56.5h-7.7l-5.8,7.5v-10h32.6v10l-5.8-7.5h-7.6v56.5l3.2,4.1H1226.2z"/>
	<path class="st0" d="M1252.9,539.3l3.3-4.1v-54.8l-3.3-4.1h12.4l-3.2,4.1v54.8l3.2,4.1H1252.9z"/>
	<path class="st0" d="M1276.3,507.8c0,20.2,3.9,29.9,10,29.9c2.6,0,4.4-2.3,6.1-6.4l2.6-6.4v11.6c-1.9,2-4.8,3.7-8.7,3.7
		c-8.7,0-16.5-10.8-16.5-32.5c0-21.6,7.8-32.5,16.5-32.5c4,0,6.9,1.7,8.7,3.7v11.6l-2.6-6.4c-1.7-4.1-3.5-6.4-6.1-6.4
		C1280.2,477.8,1276.3,487.6,1276.3,507.8z"/>
	<path class="st0" d="M1299.4,539.3l3.3-4.1v-54.8l-3.3-4.1h12.4l-3.2,4.1v54.8l3.2,4.1H1299.4z"/>
	<path class="st0" d="M1317.1,539.3l3.3-4.1v-54.8l-3.3-4.1h11.8c8.7,0,16.8,5.9,16.8,17.6c0,11.7-8,17.6-16.8,17.6h-2.7v23.8
		l3.3,4.1H1317.1z M1326.2,508.8h2.3c7.1,0,11.3-5,11.3-15.1c0-10-4.1-15.1-11.3-15.1h-2.3V508.8z"/>
	<path class="st0" d="M1366,539.3l3.8-4.1l-3.1-12.9H1351l-3,12.9l3.5,4.1h-10.6l4.2-4.1l12.3-51.9l-1.7-7h6.3l14.1,59l4.1,4.1H1366
		z M1351.5,519.8h14.6l-7.4-31.2L1351.5,519.8z"/>
	<path class="st0" d="M1418.1,536.8l5.8-7.2v9.7h-25.5l3.3-4.1v-54.8l-3.3-4.1h25.2v9.7l-5.8-7.2h-10.3v23.7l11.9-2.3l-1.8,6.5
		l-10.1-2.3v32.4H1418.1z"/>
	<path class="st0" d="M1454.1,476.2h8.6l-2.9,4.1v59h-2.7l-22.8-50.5v46.3l2.9,4.2h-8.6l3-4.2v-52.3l-3-6.6h7.1l21.4,48.2v-44
		L1454.1,476.2z"/>
	<path class="st0" d="M1130.7,645l5.8-7.2v9.7H1111l3.3-4.1v-54.8l-3.3-4.1h25.2v9.7l-5.8-7.2h-10.3v23.7l11.9-2.3l-1.8,6.5
		l-10.1-2.3V645H1130.7z"/>
	<path class="st0" d="M1163.3,645l6.1-7.8v10.3h-28.2l3.3-4.1v-54.8l-3.3-4.1h12.4l-3.3,4.1V645H1163.3z"/>
	<path class="st0" d="M1198.3,617.4v26l3.3,4.1h-12.4l3.3-4.1v-54.8l-3.3-4.1h11.8c8.4,0,16.1,5.5,16.1,16.5c0,8-4.1,13.2-9.6,15.3
		l11,31.3h-6.2l-10.4-30.1h-0.9H1198.3z M1198.3,586.9v26.4c0,1,0.5,1.5,1.5,1.5h0.8c6.7,0,10.6-4.7,10.6-14c0-9.3-3.9-14-10.6-14
		H1198.3z"/>
	<path class="st0" d="M1245.6,647.5l3.8-4.1l-3.1-12.9h-15.8l-3,12.9l3.5,4.1h-10.6l4.2-4.1l12.3-51.9l-1.7-7h6.3l14.1,59l4.1,4.1
		H1245.6z M1231.1,628h14.6l-7.4-31.2L1231.1,628z"/>
	<path class="st0" d="M1288.6,584.4h8.6l-2.9,4.1v59h-2.7l-22.8-50.5v46.3l2.9,4.2h-8.6l3-4.2V591l-3-6.6h7.1l21.4,48.2v-44
		L1288.6,584.4z"/>
	<path class="st0" d="M1314.2,613.3l-2.5,4.4v25.7l3.2,4.1h-12.4l3.3-4.1v-54.8l-3.3-4.1h12.4l-3.2,4.1v24.2l13.5-24.2l-2.3-4.1h9.5
		l-4.2,4.4l-10.3,18l15.2,40.7h-6.6L1314.2,613.3z"/>
	<path class="st0" d="M1336.6,647.5l3.3-4.1v-54.8l-3.3-4.1h12.4l-3.2,4.1v54.8l3.2,4.1H1336.6z"/>
	<path class="st0" d="M1379.9,584.4h8.6l-2.9,4.1v59h-2.7l-22.8-50.5v46.3l2.9,4.2h-8.6l3-4.2V591l-3-6.6h7.1l21.4,48.2v-44
		L1379.9,584.4z"/>
	<path class="st0" d="M1399.7,616c0,20.1,3.6,29.9,9.7,29.9c3.6,0,6-1.9,6-5.5v-22.8l-9.3,3.6l0.9-6h13.1v28
		c-2.2,2.9-6.3,5.1-10.7,5.1c-9.4,0-16.1-10.8-16.1-32.5c0-21.6,7.8-32.5,16.5-32.5c4.9,0,7.9,1.9,10.4,3.6v11.5l-2.6-5.6
		c-2.1-4.5-4.8-6.9-7.8-6.9C1403.5,586,1399.7,595.9,1399.7,616z"/>
	<path class="st0" d="M1439.2,616c0-21.6,7.8-32.5,15.8-32.5s15.8,10.8,15.8,32.5c0,21.6-7.8,32.5-15.8,32.5
		S1439.2,637.6,1439.2,616z M1464.2,616c0-20.2-3.2-29.9-9.3-29.9s-9.3,9.8-9.3,29.9c0,20.1,3.2,29.9,9.3,29.9
		S1464.2,636.1,1464.2,616z"/>
	<path class="st0" d="M1085.5,725.6v26l3.3,4.1h-12.4l3.3-4.1v-54.8l-3.3-4.1h11.8c8.4,0,16.1,5.5,16.1,16.5c0,8-4.1,13.2-9.6,15.3
		l11,31.3h-6.2l-10.4-30.1h-0.9H1085.5z M1085.5,695.2v26.4c0,1,0.5,1.5,1.5,1.5h0.8c6.7,0,10.6-4.7,10.6-14c0-9.3-3.9-14-10.6-14
		H1085.5z"/>
	<path class="st0" d="M1129.7,753.2l5.8-7.2v9.7H1110l3.3-4.1v-54.8l-3.3-4.1h25.2v9.7l-5.8-7.2h-10.3v23.7l11.9-2.3l-1.8,6.5
		l-10.1-2.3v32.4H1129.7z"/>
	<path class="st0" d="M1140.2,755.8l3.3-4.1v-54.8l-3.3-4.1h11.1c11,0,20.5,10.6,20.5,31.6s-9.5,31.6-20.5,31.6H1140.2z
		 M1165.3,724.2c0-19.6-5.7-29-14-29h-2v56c0,1.4,0.7,2.1,2,2.1C1159.6,753.2,1165.3,743.7,1165.3,724.2z"/>
	<path class="st0" d="M1176.4,755.8l3.3-4.1v-54.8l-3.3-4.1h12.4l-3.2,4.1v54.8l3.2,4.1H1176.4z"/>
	<path class="st0" d="M1231.1,696.8v54.8l3.3,4.1H1222l3.3-4.1v-47.9l-12.5,52h-2.2l-10.7-52v47.8l2.9,4.2h-8.6l3-4.2v-54.7l-3-4.1
		h9.4l9.6,50.3l12.1-50.3h9.1L1231.1,696.8z"/>
	<path class="st0" d="M1259.6,753.2l5.8-7.2v9.7h-25.5l3.3-4.1v-54.8l-3.3-4.1h25.2v9.7l-5.8-7.2H1249v23.7l11.9-2.3l-1.8,6.5
		l-10.1-2.3v32.4H1259.6z"/>
	<path class="st0" d="M1284.9,755.8l3.3-4.1v-54.8l-3.3-4.1h11.8c8.7,0,16.8,5.9,16.8,17.6c0,11.7-8,17.6-16.8,17.6h-2.7v23.8
		l3.3,4.1H1284.9z M1294,725.3h2.3c7.1,0,11.3-5,11.3-15.1c0-10-4.1-15.1-11.3-15.1h-2.3V725.3z"/>
	<path class="st0" d="M1326.6,725.6v26l3.3,4.1h-12.4l3.3-4.1v-54.8l-3.3-4.1h11.8c8.4,0,16.1,5.5,16.1,16.5c0,8-4.1,13.2-9.6,15.3
		l11,31.3h-6.2l-10.4-30.1h-0.9H1326.6z M1326.6,695.2v26.4c0,1,0.5,1.5,1.5,1.5h0.8c6.7,0,10.6-4.7,10.6-14c0-9.3-3.9-14-10.6-14
		H1326.6z"/>
	<path class="st0" d="M1370.8,753.2l5.8-7.2v9.7H1351l3.3-4.1v-54.8l-3.3-4.1h25.2v9.7l-5.8-7.2h-10.3v23.7l11.9-2.3l-1.8,6.5
		l-10.1-2.3v32.4H1370.8z"/>
	<path class="st0" d="M1418.1,696.8v54.8l3.3,4.1H1409l3.3-4.1v-47.9l-12.5,52h-2.2l-10.7-52v47.8l2.9,4.2h-8.6l3-4.2v-54.7l-3-4.1
		h9.4l9.6,50.3l12.1-50.3h9.1L1418.1,696.8z"/>
	<path class="st0" d="M1426.9,755.8l3.3-4.1v-54.8l-3.3-4.1h12.4l-3.2,4.1v54.8l3.2,4.1H1426.9z"/>
	<path class="st0" d="M1443.8,724.2c0-21.6,7.8-32.5,15.8-32.5s15.8,10.8,15.8,32.5c0,21.6-7.8,32.5-15.8,32.5
		S1443.8,745.8,1443.8,724.2z M1468.8,724.2c0-20.2-3.2-29.9-9.3-29.9s-9.3,9.8-9.3,29.9c0,20.1,3.2,29.9,9.3,29.9
		S1468.8,744.3,1468.8,724.2z"/>
	<path class="st0" d="M1479.8,753.7v-10.1l3,4.4c2.7,4.1,4.9,6.1,8.8,6.1c5,0,7.8-4.2,7.8-9.7c0-5.8-2.2-10.1-10.1-19.5
		c-7-8.3-9.5-13.9-9.5-20.2c0-7.9,5-13,11.9-13c4.2,0,7.2,1,10.5,3v10.6l-2.7-4.6c-2.7-4.6-4.9-6.5-8-6.5c-4.1,0-6.9,3.4-6.9,7.8
		c0,5,2,9.1,8.4,16.5c9.3,10.7,11.4,16,11.4,22.6c0,9.4-6,15.5-13,15.5C1486.5,756.7,1483.1,755.5,1479.8,753.7z"/>
</g>
</svg>
