<svg id="Capa_1" data-name="Capa 1" xmlns="http://www.w3.org/2000/svg" viewBox="0 0 500 500"><defs><style>.cls-1{fill:#d92428;}</style></defs><path class="cls-1" d="M194.22,205.59c-3.3-.76-6.56-1.61-9.41-3.56a21.29,21.29,0,0,1-9.89-18.57V37.69c0-3.84,1.63-5.47,5.43-5.47H301.58c3.84,0,5.44,1.59,5.44,5.43v91.59c0,3.33-1.59,5.29-4.31,5.35a4.38,4.38,0,0,1-4.51-4c-.06-.67,0-1.35,0-2V41.19H183.89c0,.56-.1,1.05-.1,1.54q0,70.35,0,140.69c0,6,3.14,10.6,8.35,12.49a13.15,13.15,0,0,0,14.75-3.78,11.82,11.82,0,0,0,1.84-12.86A12,12,0,0,0,198,171.73c-2.71-.2-4.23-1.11-4.91-3.11a4.38,4.38,0,0,1,3.64-5.74,16.43,16.43,0,0,1,1.86-.07c34.59,0,69.19.09,103.78-.05A21.91,21.91,0,0,1,324,179.23a21.46,21.46,0,0,1-17.25,26,11,11,0,0,0-1.12.32Zm20.52-8.87h1.59q43.08,0,86.17,0a16,16,0,0,0,3.85-.46A12.45,12.45,0,0,0,315.63,183c-.82-6.6-5.87-11.28-12.44-11.29q-43.59,0-87.19,0a9.39,9.39,0,0,0-1.15.14C219.91,180.13,219.89,188.27,214.74,196.72Z"/><path class="cls-1" d="M241.12,111.23h37.59c3.7,0,5.81,1.58,5.86,4.38s-2.13,4.56-5.87,4.56H203.18a11.07,11.07,0,0,1-2.51-.24,4.37,4.37,0,0,1,.17-8.5,12.39,12.39,0,0,1,2.36-.19Q222.16,111.22,241.12,111.23Z"/><path class="cls-1" d="M231.76,83.31c2.31,1,4.47,2.07,6.74,2.83a6.06,6.06,0,0,0,3.48,0,3.42,3.42,0,0,0,2.18-2A3.87,3.87,0,0,0,243,81.34a11.75,11.75,0,0,0-3.07-1.73,48.91,48.91,0,0,1-5.38-2.8A10.06,10.06,0,0,1,236.1,59.1c1.35-.61,1.92-1.26,1.74-2.72a31.36,31.36,0,0,1,0-3.51h7.76v4.7l7.35,3.07c-1.05,2.77-2,5.24-3,7.81a25.35,25.35,0,0,0-3.84-1.79,17,17,0,0,0-4.94-.73,2.68,2.68,0,0,0-2,1.61,2.89,2.89,0,0,0,1.18,2.28,28.5,28.5,0,0,0,3.89,2,35.88,35.88,0,0,1,4.44,2.42,10.81,10.81,0,0,1-1.83,19,2.15,2.15,0,0,0-1.59,2.49c.12,1.27,0,2.56,0,3.94h-7.87a38.25,38.25,0,0,0-.05-4.15,2,2,0,0,0-1.06-1.29c-2.08-1-4.22-1.79-6.32-2.71-.81-.35-.94-.92-.6-1.78C230.28,87.52,231,85.29,231.76,83.31Z"/><path class="cls-1" d="M233.51,136.43q15.47,0,30.95,0c3,0,4.86,1.6,5,4.13a4.39,4.39,0,0,1-3.74,4.68,5.71,5.71,0,0,1-1,.06q-31.22,0-62.41,0a6,6,0,0,1-2-.32,4.39,4.39,0,0,1,1.06-8.49c.67-.06,1.35,0,2,0Z"/><path class="cls-1" d="M302.68,153.47a5.15,5.15,0,1,1,5.07-5.23A5.12,5.12,0,0,1,302.68,153.47Z"/><path class="cls-1" d="M137.51,292.67c0-14.27,5.14-22.84,13.51-22.84a11.76,11.76,0,0,1,7.11,2.16v11.23l-2.35-5c-1.84-3.93-3.1-5.2-4.56-5.2-2.42,0-3.49,5.9-3.49,19.67s1.07,19.67,3.49,19.67c1.46,0,2.72-1.27,4.56-5.2l2.35-5v11.23a11.83,11.83,0,0,1-7.11,2.15C142.65,315.51,137.51,307,137.51,292.67Z"/><path class="cls-1" d="M173.1,314.88l2.6-3.3-1.33-7.23H167.2l-1.33,7.23,2.66,3.3h-8.88l2.79-3.3,6.73-35.28-1.08-5.84H178l8.06,41.12,2.92,3.3Zm-5.33-13.71h6l-3-16.11Z"/><path class="cls-1" d="M208.82,314.88l-5.9-20.81v17.64l3.11,3.17H190.49l2.66-3.17V273.64l-2.66-3.18h14.27c8.44,0,12.44,4.06,12.44,11.3a10.59,10.59,0,0,1-6.09,10l7.68,23.16Zm-5.9-41.24v16.43a.74.74,0,0,0,.83.83c1.33,0,3.68-1.91,3.68-8.63,0-7.17-2.35-8.63-3.94-8.63Z"/><path class="cls-1" d="M219.42,292.67c0-14.27,7.42-22.84,15.16-22.84a12.37,12.37,0,0,1,7.87,2.41v10.53l-2.85-5.14c-1.84-3.3-2.92-4.63-4.76-4.63-2.92,0-5.21,5.9-5.21,19.67s1.15,19.67,4,19.67c1.33,0,2.41-1.08,2.41-3.17V295.53l-3.49-4.44h10.79v21.13c-2.22,2.15-7,3.29-10.22,3.29C225.26,315.51,219.42,307,219.42,292.67Z"/><path class="cls-1" d="M258.12,314.88l2.6-3.3-1.33-7.23h-7.17l-1.33,7.23,2.66,3.3h-8.88l2.79-3.3,6.73-35.28-1.08-5.84H263l8.06,41.12,2.91,3.3Zm-5.33-13.71h6l-3-16.11Z"/><path class="cls-1" d="M305.07,273.64H302.6v38.07l2.66,3.17h-15.1l2.67-3.17V273.64h-2.48l-4.76,5v-8.19h24.24v8.19Z"/><path class="cls-1" d="M314.46,304.16V273.64l-2.67-3.18H326.9l-2.67,3.18v31.28c0,3.36,1.46,4.95,4,4.95s4-1.91,4-4.7V273.64l-2.67-3.18H339l-2.54,3.18v31.15c0,7.49-4.18,10.72-10.15,10.72C318.46,315.51,314.46,312,314.46,304.16Z"/><path class="cls-1" d="M341.68,313.42V300.79L345,307c1.9,3.43,3.43,5.39,5.9,5.39,2,0,3.3-1.65,3.3-4.12,0-3.49-1.33-6.22-6.79-13.07-4.63-5.78-6.28-10.41-6.28-14.79,0-6.72,5.08-10.53,11-10.53,2.92,0,6.35.76,8.25,2.09v10.66l-2.54-4.18c-2.28-3.81-4-5.4-6-5.4a3.1,3.1,0,0,0-3.18,3.17c0,2.42,1,4.64,6.35,10.92,5.71,6.72,7.49,10.34,7.49,16.37,0,7.23-4.76,12.05-11.68,12.05C347.39,315.51,343.58,314.69,341.68,313.42Z"/><path class="cls-1" d="M162.48,349.77h-2.73v16.56L167,364l-1.58,7.74-5.71-2.16v18.27l3,3.18H147.37l2.67-3.18V349.77l-2.48-3.17h20.31v8Z"/><path class="cls-1" d="M177.89,391l2.61-3.3-1.34-7.24H172l-1.33,7.24,2.67,3.3h-8.89l2.79-3.3L174,352.44l-1.08-5.84h9.9l8.06,41.12,2.92,3.3Zm-5.33-13.71h6l-3-16.12Z"/><path class="cls-1" d="M192.74,368.81c0-14.28,5.14-22.84,13.52-22.84a11.82,11.82,0,0,1,7.1,2.15v11.23l-2.35-5c-1.84-3.93-3.1-5.2-4.56-5.2-2.42,0-3.49,5.9-3.49,19.67s1.07,19.67,3.49,19.67c1.46,0,2.72-1.27,4.56-5.21l2.35-5v11.23a11.75,11.75,0,0,1-7.1,2.16C197.88,391.65,192.74,383.08,192.74,368.81Z"/><path class="cls-1" d="M234.81,349.77h-2.48v38.07L235,391H219.89l2.67-3.18V349.77h-2.48l-4.75,5V346.6h24.23v8.19Z"/><path class="cls-1" d="M244.19,380.29V349.77l-2.66-3.17h15.1L254,349.77v31.28c0,3.37,1.45,4.95,4,4.95s4-1.9,4-4.69V349.77l-2.66-3.17h9.39l-2.54,3.17v31.16c0,7.48-4.19,10.72-10.15,10.72C248.19,391.65,244.19,388.1,244.19,380.29Z"/><path class="cls-1" d="M289.05,391l-5.9-20.82v17.64l3.11,3.18H270.71l2.67-3.18V349.77l-2.67-3.17H285c8.44,0,12.44,4.06,12.44,11.29a10.59,10.59,0,0,1-6.1,10L299,391Zm-5.9-41.25v16.44a.73.73,0,0,0,.82.82c1.34,0,3.68-1.9,3.68-8.63,0-7.17-2.34-8.63-3.93-8.63Z"/><path class="cls-1" d="M313.1,391l2.6-3.3-1.33-7.24H307.2l-1.34,7.24,2.67,3.3h-8.88l2.79-3.3,6.72-35.28-1.08-5.84H318L326,387.72,329,391Zm-5.33-13.71h6l-3-16.12Z"/><path class="cls-1" d="M331.18,389.56V376.93l3.36,6.15c1.9,3.43,3.43,5.4,5.9,5.4,2,0,3.3-1.65,3.3-4.13,0-3.49-1.33-6.21-6.79-13.07-4.63-5.77-6.28-10.4-6.28-14.78,0-6.73,5.08-10.53,11-10.53,2.92,0,6.35.76,8.25,2.09v10.66l-2.54-4.19c-2.28-3.81-4-5.39-6-5.39a3.1,3.1,0,0,0-3.18,3.17c0,2.41,1,4.63,6.35,10.91,5.71,6.73,7.49,10.35,7.49,16.37,0,7.24-4.76,12.06-11.68,12.06C336.89,391.65,333.08,390.83,331.18,389.56Z"/><path class="cls-1" d="M128.34,467.15,131,464V425.91l-2.67-3.17h12.5c10.54,0,16.12,8.37,16.12,22.2s-5.65,22.21-15.93,22.21Zm18.34-22.21c0-11.48-1.84-19-5.65-19h-.25V463c0,.57.25,1,.76,1C144.71,464,146.68,456.49,146.68,444.94Z"/><path class="cls-1" d="M175.55,464l6.66-5.9v9.07H159.62l2.67-3.17V425.91l-2.48-3.17h21.58v8.18l-5.78-5H172v15l7.62-2.35-2.22,7.74-5.4-2.41V464Z"/><path class="cls-1" d="M195.34,444.94c0-14.27,5.14-22.84,13.51-22.84a11.83,11.83,0,0,1,7.11,2.16v11.23l-2.35-5c-1.84-3.94-3.1-5.21-4.56-5.21-2.42,0-3.49,5.9-3.49,19.67s1.07,19.67,3.49,19.67c1.46,0,2.72-1.27,4.56-5.2l2.35-5v11.23a11.83,11.83,0,0,1-7.11,2.16C200.48,467.79,195.34,459.22,195.34,444.94Z"/><path class="cls-1" d="M218.62,444.94c0-13.83,4.83-22.84,13.33-22.84s13.32,9,13.32,22.84-4.75,22.85-13.32,22.85S218.62,458.78,218.62,444.94Zm16.37,0c0-14.65-.88-19.67-3-19.67s-3.11,5-3.11,19.67.95,19.67,3.11,19.67S235,459.6,235,444.94Z"/><path class="cls-1" d="M279.85,425.91V464l2.67,3.17h-15.1l2.66-3.17V440.37l-5.58,26.78h-4.32l-5.39-26.78V464l2.66,3.17h-9.51L250.6,464V429.14l-2.22-6.4h13.07l3.93,20.62,4.7-20.62h12.44Z"/><path class="cls-1" d="M284.54,467.15l2.67-3.17V425.91l-2.67-3.17h13.52c8.95,0,13.45,5.83,13.45,13.7s-4.5,13.71-13.45,13.71h-1.14V464l3,3.17Zm12.38-21a.71.71,0,0,0,.76.82c1.9,0,3.49-3.36,3.49-10.53s-1.59-10.53-3.68-10.53h-.57Z"/><path class="cls-1" d="M331.75,467.15l-5.9-20.81V464l3.11,3.17H313.41l2.67-3.17V425.91l-2.67-3.17h14.28c8.44,0,12.43,4.06,12.43,11.29A10.57,10.57,0,0,1,334,444l7.68,23.16Zm-5.9-41.24v16.43a.74.74,0,0,0,.82.83c1.34,0,3.68-1.91,3.68-8.63,0-7.17-2.34-8.63-3.93-8.63Z"/><path class="cls-1" d="M355.79,467.15l2.61-3.3-1.34-7.23h-7.17l-1.33,7.23,2.67,3.3h-8.89l2.79-3.3,6.73-35.28-1.08-5.83h9.9l8.06,41.11,2.92,3.3Zm-5.33-13.7h6l-3-16.12Z"/></svg>