<?xml version="1.0" encoding="utf-8"?>
<!-- Generator: Adobe Illustrator 25.4.1, SVG Export Plug-In . SVG Version: 6.00 Build 0)  -->
<svg version="1.1" id="Capa_1" xmlns="http://www.w3.org/2000/svg" xmlns:xlink="http://www.w3.org/1999/xlink" x="0px" y="0px"
	 viewBox="0 0 500 500" style="enable-background:new 0 0 500 500;" xml:space="preserve">
<style type="text/css">
	.st0{fill:#D92428;}
	.st1{enable-background:new    ;}
</style>
<g>
	<path class="st0" d="M193.4,36.5c2.1,0.8,3.5,2.7,3.6,4.9c2.1,15,4.2,30,6.4,44.9c2.1,14.8,4.2,29.6,6.3,44.4
		c0.3,1.9,0.6,3.7,0.8,5.6c0.1,1.4,0.6,1.9,2.1,1.9c5.1-0.1,10.2,0,15.4,0c22.9,0,45.9,0,68.8,0c1.5,0,2.1-0.3,2.4-1.9
		c3.5-20.1,7.2-40.2,10.8-60.3c0.1-0.4,0.2-0.9,0.3-1.3c0.4-2.4,2.7-4.1,5.1-3.7s4.1,2.7,3.7,5.1c0,0.1,0,0.2,0,0.2
		c-1.4,7.7-2.8,15.3-4.1,23c-2.6,14.2-5.1,28.4-7.7,42.6c-0.7,4-2,5.1-6,5.1h-89c0.1,5.5,3.4,10.6,7.9,11.8c1.4,0.3,2.9,0.5,4.4,0.4
		c22.2,0,44.4,0,66.6,0c0.7,0,1.4,0,2,0c2.3,0.1,4.2,1.9,4.2,4.3c0.1,2.3-1.6,4.3-3.9,4.6c-0.6,0.1-1.1,0.1-1.7,0.1h-67.6
		c-11.4,0-19.3-7.2-20.8-18.5c-1.9-14-3.9-27.9-5.9-41.9l-6-42c-0.9-6.4-1.9-12.8-2.7-19.3c-0.1-1.1-0.7-1.2-1.6-1.2
		c-4.8,0-9.7,0-14.5,0c-2.1,0-3.9-1.5-4.3-3.5c-0.4-2,0.6-4.1,2.4-5l0.9-0.5L193.4,36.5z"/>
	<path class="st0" d="M257.7,36.5c0.7,0.2,1.4,0.4,2.1,0.6c8.7,2.1,14.9,9.9,14.9,18.9c0,3.1,0,6.1,0,9.4h6.6c2.3,0,4.5,0,6.8,0
		c2.5-0.1,4.5,1.8,4.6,4.3c0,0.1,0,0.2,0,0.3c0,0.3,0,0.6,0,0.9c0,15.8,0,31.6,0,47.5c0,5.2-2.9,9.1-7.6,10.2c-1,0.2-2,0.3-3,0.2
		c-18.1,0-36.1,0-54.1,0c-6.8,0-10.7-3.9-10.7-10.7v-47c0-4.1,1.5-5.7,5.6-5.7h12.4c0-2.9,0.1-5.6,0-8.3C234.8,47,242,38.3,252,36.7
		c0.1,0,0.3-0.2,0.4-0.2L257.7,36.5z M244.4,74.4c0,2.3,0,4.6,0,6.8c0,3-1.8,5-4.4,5s-4.5-2-4.5-5.1c0-2.2,0-4.4,0-6.7h-9.2v1.8
		c0,13.8,0,27.7,0,41.5c0,1.8,0.6,2.2,2.3,2.2c17.6,0,35.3,0,52.9,0c2.4,0,2.4,0,2.4-2.3c0-13.7,0-27.4,0-41.1v-2h-9.1
		c0,2.5,0,4.8,0,7c0.1,2-1.1,3.8-3,4.5c-2.3,0.8-4.8-0.3-5.7-2.6c-0.2-0.5-0.3-0.9-0.3-1.4c-0.1-2.5,0-5,0-7.5L244.4,74.4z
		 M244.6,65.2h21c0-3.5,0.2-6.9,0-10.2c-0.4-5.3-4.8-9.5-10.2-9.6c-5.3-0.3-9.9,3.5-10.7,8.8C244.2,57.8,244.6,61.5,244.6,65.2z"/>
	<path class="st0" d="M229.7,177.5c9.4,0.1,16.9,7.7,16.8,17.1c-0.1,9.4-7.7,16.9-17.1,16.8c-9.4-0.1-16.9-7.7-16.8-17.1
		C212.7,185,220.3,177.5,229.7,177.5z M229.6,186.4c-4.4,0-8,3.6-8,8s3.6,8,8,8s8-3.6,8-8S234,186.4,229.6,186.4L229.6,186.4
		L229.6,186.4z"/>
	<path class="st0" d="M303.5,194.5c0,9.4-7.6,17-17,17s-17-7.6-17-17s7.6-17,17-17h0.1C296,177.5,303.5,185.1,303.5,194.5z
		 M294.5,194.5c0-4.4-3.6-8-8-8s-8,3.6-8,8s3.6,8,8,8S294.5,198.9,294.5,194.5z"/>
	<path class="st0" d="M305.5,163.8c0-2.9,2.3-5.2,5.2-5.2s5.2,2.3,5.2,5.2s-2.3,5.2-5.2,5.2S305.5,166.7,305.5,163.8z"/>
</g>
<g class="st1">
	<path class="st0" d="M174.9,288c0,13.9,2.7,20.6,7,20.6c1.8,0,3.1-1.6,4.3-4.4l1.8-4.4v8c-1.3,1.4-3.3,2.5-6.1,2.5
		c-6,0-11.5-7.5-11.5-22.4c0-14.9,5.5-22.4,11.5-22.4c2.8,0,4.8,1.2,6.1,2.5v8l-1.8-4.4c-1.2-2.9-2.4-4.4-4.3-4.4
		C177.6,267.4,174.9,274.2,174.9,288z"/>
	<path class="st0" d="M190.3,288c0-14.9,5.4-22.4,11-22.4s11,7.5,11,22.4c0,14.9-5.4,22.4-11,22.4S190.3,302.9,190.3,288z
		 M207.8,288c0-13.9-2.2-20.6-6.5-20.6c-4.3,0-6.5,6.8-6.5,20.6c0,13.9,2.2,20.6,6.5,20.6C205.6,308.6,207.8,301.9,207.8,288z"/>
	<path class="st0" d="M241.3,269.1v37.8l2.3,2.9h-8.7l2.3-2.9v-33l-8.7,35.8H227l-7.5-35.8v32.9l2,2.9h-6l2.1-2.9v-37.7l-2.1-2.9
		h6.5l6.7,34.7l8.4-34.7h6.3L241.3,269.1z"/>
	<path class="st0" d="M247.4,309.7l2.3-2.9v-37.8l-2.3-2.9h8.2c6.1,0,11.7,4,11.7,12.1c0,8.1-5.6,12.1-11.7,12.1h-1.9v16.4l2.3,2.9
		H247.4z M253.7,288.7h1.6c5,0,7.8-3.5,7.8-10.4c0-6.9-2.9-10.4-7.8-10.4h-1.6V288.7z"/>
	<path class="st0" d="M276.4,289v17.9l2.3,2.9H270l2.3-2.9v-37.8l-2.3-2.9h8.2c5.8,0,11.2,3.8,11.2,11.4c0,5.5-2.8,9.1-6.7,10.6
		l7.7,21.6h-4.3l-7.2-20.7h-0.6H276.4z M276.4,268v18.2c0,0.7,0.4,1.1,1.1,1.1h0.6c4.6,0,7.3-3.2,7.3-9.6s-2.7-9.6-7.3-9.6H276.4z"
		/>
	<path class="st0" d="M309.3,309.7l2.6-2.9l-2.1-8.9h-11l-2.1,8.9l2.4,2.9h-7.3l3-2.9l8.5-35.8l-1.2-4.8h4.4l9.8,40.6l2.9,2.9H309.3
		z M299.2,296.3h10.2l-5.1-21.5L299.2,296.3z"/>
</g>
<g class="st1">
	<path class="st0" d="M139.6,384.2l2.3-2.9v-37.8l-2.3-2.9h8.2c6.1,0,11.7,4,11.7,12.1c0,8.1-5.6,12.1-11.7,12.1h-1.9v16.4l2.3,2.9
		H139.6z M145.9,363.2h1.6c5,0,7.9-3.5,7.9-10.4c0-6.9-2.9-10.4-7.9-10.4h-1.6V363.2z"/>
	<path class="st0" d="M168.6,363.5v17.9l2.3,2.9h-8.7l2.3-2.9v-37.8l-2.3-2.9h8.2c5.8,0,11.2,3.8,11.2,11.4c0,5.5-2.8,9.1-6.7,10.6
		l7.7,21.6h-4.3l-7.2-20.7h-0.6H168.6z M168.6,342.5v18.2c0,0.7,0.4,1.1,1.1,1.1h0.6c4.6,0,7.3-3.2,7.3-9.6s-2.7-9.6-7.3-9.6H168.6z
		"/>
	<path class="st0" d="M185,362.5c0-14.9,5.4-22.4,11-22.4c5.6,0,11,7.5,11,22.4c0,14.9-5.4,22.4-11,22.4
		C190.4,384.9,185,377.4,185,362.5z M202.4,362.5c0-13.9-2.2-20.6-6.5-20.6c-4.3,0-6.5,6.8-6.5,20.6c0,13.9,2.2,20.6,6.5,20.6
		C200.2,383.1,202.4,376.4,202.4,362.5z"/>
	<path class="st0" d="M210.2,384.2l2.3-2.9v-37.8l-2.3-2.9h7.7c7.7,0,14.3,7.3,14.3,21.7c0,14.5-6.6,21.7-14.3,21.7H210.2z
		 M227.7,362.5c0-13.5-4-20-9.7-20h-1.4v38.6c0,0.9,0.5,1.4,1.4,1.4C223.7,382.5,227.7,375.9,227.7,362.5z"/>
	<path class="st0" d="M237.7,373.9v-30.3l-2.3-2.9h8.6l-2.3,2.9v31.4c0,4.7,2.4,7.3,7,7.3c4,0,6.6-3,6.6-8v-30.7l-2.1-2.9h6l-2,2.9
		v30.5c0,7.1-3.7,10.7-9.3,10.7C241.8,384.9,237.7,381.4,237.7,373.9z"/>
	<path class="st0" d="M266.8,362.5c0,13.9,2.7,20.6,7,20.6c1.8,0,3.1-1.6,4.3-4.4l1.8-4.4v8c-1.3,1.4-3.3,2.5-6.1,2.5
		c-6,0-11.5-7.5-11.5-22.4c0-14.9,5.5-22.4,11.5-22.4c2.8,0,4.8,1.2,6.1,2.5v8l-1.8-4.4c-1.2-2.9-2.4-4.4-4.3-4.4
		C269.5,341.9,266.8,348.7,266.8,362.5z"/>
	<path class="st0" d="M289.1,384.2l2.3-2.9v-38.9h-5.3l-4,5.2v-6.9h22.7v6.9l-4-5.2h-5.3v38.9l2.3,2.9H289.1z"/>
	<path class="st0" d="M305.8,362.5c0-14.9,5.4-22.4,11-22.4c5.6,0,11,7.5,11,22.4c0,14.9-5.4,22.4-11,22.4
		C311.2,384.9,305.8,377.4,305.8,362.5z M323.2,362.5c0-13.9-2.2-20.6-6.5-20.6c-4.3,0-6.5,6.8-6.5,20.6c0,13.9,2.2,20.6,6.5,20.6
		C321,383.1,323.2,376.4,323.2,362.5z"/>
	<path class="st0" d="M330.9,382.8v-7l2.1,3c1.9,2.8,3.4,4.2,6.2,4.2c3.5,0,5.5-2.9,5.5-6.7c0-4-1.5-7-7-13.4
		c-4.9-5.7-6.6-9.6-6.6-13.9c0-5.5,3.5-8.9,8.3-8.9c3,0,5,0.7,7.3,2v7.3l-1.9-3.2c-1.9-3.2-3.4-4.5-5.6-4.5c-2.9,0-4.8,2.4-4.8,5.3
		c0,3.5,1.4,6.3,5.8,11.4c6.5,7.4,7.9,11,7.9,15.6c0,6.5-4.1,10.7-9,10.7C335.6,384.9,333.2,384.1,330.9,382.8z"/>
</g>
<g class="st1">
	<path class="st0" d="M140.9,458.8l2.3-2.9v-38.1l-2.3-2.5h8.5c6.3,0,10.9,3.2,10.9,9.6c0,5.4-4,8.1-7.2,8.9c4,1,8.4,4,8.4,12.1
		c0,8.7-5.8,12.8-11.9,12.8H140.9z M147.2,433.1h2.4c3.5,0,6.7-2.4,6.7-8c0-5.5-3.1-8-6.7-8h-2.4V433.1z M147.2,455.6
		c0,1,0.6,1.6,1.6,1.6h1.2c3.4,0,7.5-3.5,7.5-11.2s-4.1-11.1-7.5-11.1h-2.8V455.6z"/>
	<path class="st0" d="M166.2,448.5v-30.3l-2.3-2.9h8.6l-2.3,2.9v31.4c0,4.7,2.4,7.3,7,7.3c4,0,6.6-3,6.6-8v-30.7l-2.1-2.9h6l-2,2.9
		v30.5c0,7.1-3.7,10.7-9.3,10.7C170.3,459.5,166.2,456,166.2,448.5z"/>
	<path class="st0" d="M191.4,458.8l2.3-2.9v-37.8l-2.3-2.9h7.7c7.7,0,14.3,7.3,14.3,21.7s-6.6,21.7-14.3,21.7H191.4z M208.9,437.1
		c0-13.5-4-20-9.7-20h-1.4v38.6c0,0.9,0.5,1.4,1.4,1.4C204.9,457.1,208.9,450.5,208.9,437.1z"/>
	<path class="st0" d="M242.2,415.4h6.3l-2.7,2.9l-6.1,41.1h-0.9l-7.4-33.1l-7.2,33.1h-0.9l-7.7-41.1l-2.4-2.9h9l-2.1,2.9l4.8,28.7
		l7.2-31.6h0.8l7,30.5l4-27.6L242.2,415.4z"/>
	<path class="st0" d="M264.7,457.1l4-5v6.7H251l2.3-2.9v-37.8l-2.3-2.9h17.5v6.7l-4-5h-7.2v16.3l8.3-1.6l-1.3,4.5l-7-1.6v22.3H264.7
		z"/>
	<path class="st0" d="M272,458.8l2.3-2.9v-37.8l-2.3-2.9h8.6l-2.3,2.9V456l2.3,2.9H272z"/>
	<path class="st0" d="M284,457.4v-7l2.1,3c1.9,2.8,3.4,4.2,6.2,4.2c3.5,0,5.5-2.9,5.5-6.7c0-4-1.5-7-7-13.4
		c-4.9-5.7-6.6-9.6-6.6-13.9c0-5.5,3.5-8.9,8.3-8.9c3,0,5,0.7,7.3,2v7.3l-1.9-3.2c-1.9-3.2-3.4-4.5-5.6-4.5c-2.9,0-4.8,2.4-4.8,5.3
		c0,3.5,1.4,6.3,5.8,11.4c6.5,7.4,7.9,11,7.9,15.6c0,6.5-4.1,10.7-9,10.7C288.6,459.5,286.3,458.7,284,457.4z"/>
	<path class="st0" d="M317.7,457.1l4-5v6.7H304l2.3-2.9v-37.8l-2.3-2.9h17.5v6.7l-4-5h-7.2v16.3l8.3-1.6l-1.3,4.5l-7-1.6v22.3H317.7
		z"/>
	<path class="st0" d="M331.3,438.1V456l2.3,2.9H325l2.3-2.9v-37.8l-2.3-2.9h8.2c5.8,0,11.2,3.8,11.2,11.4c0,5.5-2.8,9.1-6.7,10.6
		l7.7,21.6h-4.3l-7.2-20.7h-0.6H331.3z M331.3,417.1v18.2c0,0.7,0.4,1.1,1.1,1.1h0.6c4.6,0,7.3-3.2,7.3-9.6s-2.7-9.6-7.3-9.6H331.3z
		"/>
</g>
</svg>
