<svg id="Capa_1" data-name="Capa 1" xmlns="http://www.w3.org/2000/svg" viewBox="0 0 500 500"><defs><style>.cls-1{fill:#d92428;}</style></defs><path class="cls-1" d="M162.35,288.4c0-14.28,5.14-22.84,13.51-22.84a11.76,11.76,0,0,1,7.11,2.16V279l-2.35-5c-1.84-3.93-3.11-5.2-4.57-5.2-2.41,0-3.49,5.9-3.49,19.67s1.08,19.67,3.49,19.67c1.46,0,2.73-1.27,4.57-5.2l2.35-5v11.23a11.83,11.83,0,0,1-7.11,2.15C167.49,311.24,162.35,302.68,162.35,288.4Z"/><path class="cls-1" d="M185.63,288.4c0-13.83,4.83-22.84,13.33-22.84s13.32,9,13.32,22.84-4.76,22.84-13.32,22.84S185.63,302.23,185.63,288.4Zm16.37,0c0-14.66-.88-19.67-3-19.67s-3.11,5-3.11,19.67,1,19.67,3.11,19.67S202,303.06,202,288.4Z"/><path class="cls-1" d="M246.86,269.37v38.07l2.67,3.17H234.42l2.67-3.17V283.83l-5.58,26.78h-4.32l-5.39-26.78v23.61l2.66,3.17h-9.52l2.67-3.17V272.6l-2.22-6.41h13.07l3.93,20.63,4.7-20.63h12.44Z"/><path class="cls-1" d="M251.55,310.61l2.67-3.17V269.37l-2.67-3.18h13.52c8.94,0,13.45,5.84,13.45,13.71s-4.51,13.7-13.45,13.7h-1.14v13.84l3,3.17Zm12.38-21a.71.71,0,0,0,.76.82c1.9,0,3.49-3.36,3.49-10.53s-1.59-10.53-3.68-10.53h-.57Z"/><path class="cls-1" d="M298.76,310.61l-5.9-20.81v17.64l3.11,3.17H280.42l2.66-3.17V269.37l-2.66-3.18H294.7c8.44,0,12.43,4.06,12.43,11.3a10.57,10.57,0,0,1-6.09,10l7.68,23.16Zm-5.9-41.24V285.8a.73.73,0,0,0,.82.82c1.33,0,3.68-1.9,3.68-8.63,0-7.16-2.35-8.62-3.93-8.62Z"/><path class="cls-1" d="M322.8,310.61l2.6-3.3-1.33-7.23H316.9l-1.33,7.23,2.66,3.3h-8.88l2.79-3.3L318.87,272l-1.08-5.84h9.9l8.06,41.12,2.92,3.3Zm-5.33-13.71h6l-3-16.11Z"/><path class="cls-1" d="M126.41,386.74l2.66-3.17V345.5l-2.66-3.17h13.51c9,0,13.45,5.84,13.45,13.7s-4.5,13.71-13.45,13.71h-1.14v13.83l3.05,3.17Zm12.37-21a.73.73,0,0,0,.76.83c1.91,0,3.49-3.37,3.49-10.54s-1.58-10.53-3.68-10.53h-.57Z"/><path class="cls-1" d="M173.61,386.74l-5.9-20.81v17.64l3.11,3.17H155.27l2.67-3.17V345.5l-2.67-3.17h14.28c8.44,0,12.44,4.06,12.44,11.29a10.6,10.6,0,0,1-6.09,10l7.67,23.15Zm-5.9-41.24v16.44a.74.74,0,0,0,.83.82c1.33,0,3.68-1.9,3.68-8.63,0-7.17-2.35-8.63-3.94-8.63Z"/><path class="cls-1" d="M184.21,364.54c0-13.84,4.82-22.85,13.32-22.85s13.33,9,13.33,22.85-4.76,22.84-13.33,22.84S184.21,378.37,184.21,364.54Zm16.37,0c0-14.66-.89-19.67-3.05-19.67s-3.11,5-3.11,19.67,1,19.67,3.11,19.67S200.58,379.19,200.58,364.54Z"/><path class="cls-1" d="M213.52,386.74l2.66-3.17V345.5l-2.66-3.17H226c10.53,0,16.11,8.37,16.11,22.21s-5.64,22.2-15.92,22.2Zm18.34-22.2c0-11.49-1.84-19-5.65-19H226v37.12c0,.57.26.95.77.95C229.89,383.57,231.86,376.09,231.86,364.54Z"/><path class="cls-1" d="M247.46,376V345.5l-2.66-3.17h15.1l-2.67,3.17v31.28c0,3.37,1.46,5,4,5s4-1.9,4-4.69V345.5l-2.67-3.17H272l-2.53,3.17v31.16c0,7.48-4.19,10.72-10.16,10.72C251.46,387.38,247.46,383.83,247.46,376Z"/><path class="cls-1" d="M274.62,364.54c0-14.28,5.14-22.85,13.51-22.85a11.87,11.87,0,0,1,7.11,2.16v11.23l-2.35-5c-1.84-3.93-3.11-5.2-4.57-5.2-2.41,0-3.49,5.9-3.49,19.67s1.08,19.67,3.49,19.67c1.46,0,2.73-1.27,4.57-5.21l2.35-5v11.23a11.87,11.87,0,0,1-7.11,2.16C279.76,387.38,274.62,378.81,274.62,364.54Z"/><path class="cls-1" d="M316.68,345.5h-2.47v38.07l2.66,3.17h-15.1l2.67-3.17V345.5H302l-4.76,5v-8.18h24.24v8.18Z"/><path class="cls-1" d="M322.52,364.54c0-13.84,4.82-22.85,13.32-22.85s13.33,9,13.33,22.85-4.76,22.84-13.33,22.84S322.52,378.37,322.52,364.54Zm16.37,0c0-14.66-.89-19.67-3.05-19.67s-3.11,5-3.11,19.67.95,19.67,3.11,19.67S338.89,379.19,338.89,364.54Z"/><path class="cls-1" d="M352.53,385.29V372.66l3.36,6.15c1.9,3.43,3.43,5.4,5.9,5.4,2,0,3.3-1.65,3.3-4.13,0-3.49-1.33-6.22-6.79-13.07-4.63-5.77-6.28-10.4-6.28-14.78,0-6.73,5.08-10.54,11-10.54,2.92,0,6.34.77,8.25,2.1v10.66l-2.54-4.19c-2.28-3.81-4-5.39-6-5.39a3.1,3.1,0,0,0-3.18,3.17c0,2.41,1,4.63,6.35,10.91,5.71,6.73,7.49,10.35,7.49,16.37,0,7.24-4.76,12.06-11.68,12.06C358.24,387.38,354.43,386.55,352.53,385.29Z"/><path class="cls-1" d="M126,462.88l2.66-3.17V421.64L126,418.46h13c9.27,0,14,3.75,14,10.54,0,5.9-4.76,8.75-9.77,9.77,5,.89,11,4.38,11,12.06,0,7.42-6.6,12.05-15,12.05Zm12.37-25.76h.38c2.86,0,5-2.35,5-7.74s-2.15-7.74-5-7.74h-.38Zm5.71,12.94c0-6.6-2-9.64-5.08-9.64h-.63V459c0,.51.19.76.82.76C142.08,459.77,144.11,456.66,144.11,450.06Z"/><path class="cls-1" d="M159.21,452.16V421.64l-2.67-3.18h15.1L169,421.64v31.28c0,3.36,1.46,4.95,4,4.95s4-1.91,4-4.7V421.64l-2.66-3.18h9.39l-2.54,3.18v31.15c0,7.49-4.19,10.72-10.15,10.72C163.21,463.51,159.21,460,159.21,452.16Z"/><path class="cls-1" d="M185.73,462.88l2.66-3.17V421.64l-2.66-3.18h12.5c10.53,0,16.11,8.38,16.11,22.21s-5.64,22.21-15.92,22.21Zm18.34-22.21c0-11.48-1.84-19-5.65-19h-.26v37.12c0,.57.26.95.77.95C202.1,459.71,204.07,452.22,204.07,440.67Z"/><path class="cls-1" d="M245.24,418.46h9.08l-3,3.18L245,462.88h-5.65l-4.88-25.32-4.57,25.32h-5.71l-8.63-41.24-3-3.18h15l-2.41,3.18,4.38,22.71,3-16.75-1.77-9.14h9.13l4.26,25.89,3.48-22.71Z"/><path class="cls-1" d="M271,459.71l6.66-5.9v9.07H255.08l2.66-3.17V421.64l-2.47-3.18h21.57v8.19l-5.78-5h-3.61v15l7.61-2.35-2.22,7.74-5.39-2.41v20Z"/><path class="cls-1" d="M280,462.88l2.66-3.17V421.64L280,418.46h15l-2.67,3.18v38.07l2.67,3.17Z"/><path class="cls-1" d="M297.77,461.42V448.79l3.37,6.16c1.9,3.43,3.42,5.39,5.9,5.39,2,0,3.3-1.65,3.3-4.12,0-3.49-1.34-6.22-6.79-13.07-4.63-5.78-6.28-10.41-6.28-14.79,0-6.72,5.07-10.53,11-10.53,2.92,0,6.34.76,8.25,2.09v10.66L314,426.4c-2.29-3.81-4-5.4-6-5.4a3.1,3.1,0,0,0-3.17,3.17c0,2.42,1,4.64,6.35,10.92,5.71,6.72,7.48,10.34,7.48,16.37,0,7.23-4.76,12.05-11.67,12.05C303.48,463.51,299.68,462.69,297.77,461.42Z"/><path class="cls-1" d="M336.67,459.71l6.66-5.9v9.07H320.74l2.67-3.17V421.64l-2.48-3.18H342.5v8.19l-5.77-5h-3.62v15l7.62-2.35-2.22,7.74-5.4-2.41v20Z"/><path class="cls-1" d="M364,462.88l-5.9-20.81v17.64l3.11,3.17H345.67l2.67-3.17V421.64l-2.67-3.18H360c8.44,0,12.44,4.07,12.44,11.3a10.59,10.59,0,0,1-6.09,10L374,462.88Zm-5.9-41.24v16.43a.74.74,0,0,0,.83.83c1.33,0,3.68-1.91,3.68-8.63,0-7.17-2.35-8.63-3.94-8.63Z"/><path class="cls-1" d="M188.12,36.49a5.56,5.56,0,0,1,3.57,4.92c2.06,15,4.23,30,6.36,44.93q3.16,22.22,6.34,44.42c.26,1.86.64,3.71.76,5.58.09,1.44.57,1.91,2.06,1.89,5.12-.1,10.25,0,15.37,0q34.42,0,68.83,0c1.51,0,2.13-.29,2.42-1.93q5.32-30.15,10.84-60.26c.08-.45.17-.89.27-1.34a4.48,4.48,0,1,1,8.8,1.67c-1.36,7.67-2.77,15.33-4.15,23q-3.85,21.32-7.7,42.63c-.71,4-2,5.15-6,5.15h-89c.05,5.53,3.4,10.58,7.85,11.75a18,18,0,0,0,4.4.44q33.3,0,66.61,0c.68,0,1.37,0,2.05,0a4.33,4.33,0,0,1,4.23,4.27,4.42,4.42,0,0,1-3.93,4.6,12,12,0,0,1-1.7.05H218.78c-11.35,0-19.3-7.22-20.78-18.47-1.85-14-3.93-27.93-5.92-41.89l-6-42c-.91-6.42-1.85-12.83-2.7-19.26-.15-1.12-.69-1.22-1.59-1.21-4.84,0-9.68,0-14.51,0A4.37,4.37,0,0,1,163,41.94a4.51,4.51,0,0,1,2.41-5l.89-.46Z"/><path class="cls-1" d="M252.35,36.49c.7.2,1.38.42,2.08.6A19.63,19.63,0,0,1,269.38,56c0,3.06,0,6.13,0,9.43H276c2.27,0,4.55,0,6.83,0A4.46,4.46,0,0,1,287.47,70c0,.29,0,.57,0,.86q0,23.73,0,47.46c0,5.23-2.88,9.1-7.6,10.18a14.12,14.12,0,0,1-3.05.24q-27.08,0-54.13,0c-6.77,0-10.66-3.94-10.66-10.74V71.08c0-4.13,1.52-5.66,5.65-5.67h12.45c0-2.91.07-5.62,0-8.33A19.64,19.64,0,0,1,246.8,36.73c.15,0,.29-.16.43-.24ZM239.06,74.43c0,2.35,0,4.56,0,6.76,0,3-1.79,5-4.41,5s-4.5-2-4.52-5.09c0-2.2,0-4.4,0-6.65H221v1.75c0,13.83,0,27.65,0,41.48,0,1.79.6,2.17,2.27,2.16,17.64,0,35.28,0,52.92,0,2.35,0,2.35,0,2.35-2.34q0-20.56,0-41.14v-2h-9.1c0,2.51,0,4.78,0,7a4.6,4.6,0,0,1-3,4.53,4.4,4.4,0,0,1-5.93-4c-.13-2.47,0-5,0-7.49Zm.22-9.18h21c0-3.5.18-6.86-.05-10.18a10.47,10.47,0,0,0-10.18-9.62,10.32,10.32,0,0,0-10.72,8.77C238.92,57.79,239.28,61.46,239.28,65.25Z"/><path class="cls-1" d="M224.35,177.5a16.94,16.94,0,1,1-17.08,16.81A17,17,0,0,1,224.35,177.5Zm-.09,8.94a8,8,0,1,0,8,8A8,8,0,0,0,224.26,186.44Z"/><path class="cls-1" d="M298.24,194.48a17,17,0,1,1-16.88-17A17,17,0,0,1,298.24,194.48Zm-9,0a8,8,0,0,0-16.06,0,8,8,0,0,0,16.06,0Z"/><path class="cls-1" d="M300.17,163.84a5.21,5.21,0,1,1,5.24,5.18A5.24,5.24,0,0,1,300.17,163.84Z"/></svg>