<?xml version="1.0" encoding="utf-8"?>
<!-- Generator: Adobe Illustrator 25.4.1, SVG Export Plug-In . SVG Version: 6.00 Build 0)  -->
<svg version="1.1" id="Capa_1" xmlns="http://www.w3.org/2000/svg" xmlns:xlink="http://www.w3.org/1999/xlink" x="0px" y="0px"
	 viewBox="0 0 500 500" style="enable-background:new 0 0 500 500;" xml:space="preserve">
<style type="text/css">
	.st0{fill:#D92428;}
</style>
<path class="st0" d="M194.2,205.6c-3.3-0.8-6.6-1.6-9.4-3.6c-6.3-4-10.1-11.1-9.9-18.6V37.7c0-3.8,1.6-5.5,5.4-5.5h121.2
	c3.8,0,5.4,1.6,5.4,5.4v91.6c0,3.3-1.6,5.3-4.3,5.4c-2.3,0.1-4.3-1.7-4.5-4c-0.1-0.7,0-1.4,0-2V41.2H183.9c0,0.6-0.1,1-0.1,1.5
	c0,46.9,0,93.8,0,140.7c0,6,3.1,10.6,8.4,12.5c5.2,2,11.1,0.5,14.8-3.8c3.1-3.5,3.8-8.6,1.8-12.9c-1.8-4.4-6-7.4-10.7-7.5
	c-2.7-0.2-4.2-1.1-4.9-3.1c-0.8-2.3,0.5-4.8,2.8-5.5c0.3-0.1,0.6-0.2,0.9-0.2c0.6-0.1,1.2-0.1,1.9-0.1c34.6,0,69.2,0.1,103.8-0.1
	c10.2-0.2,19.1,6.6,21.6,16.5c2.7,11.5-4.5,23.1-16.1,25.8c-0.4,0.1-0.8,0.2-1.2,0.2c-0.4,0.1-0.8,0.2-1.1,0.3L194.2,205.6z
	 M214.7,196.7h1.6c28.7,0,57.4,0,86.2,0c1.3,0,2.6-0.2,3.9-0.5c5.9-1.5,9.9-7.2,9.3-13.3c-0.8-6.6-5.9-11.3-12.4-11.3
	c-29.1,0-58.1,0-87.2,0c-0.4,0-0.8,0.1-1.1,0.1C219.9,180.1,219.9,188.3,214.7,196.7z"/>
<path class="st0" d="M241.1,111.2h37.6c3.7,0,5.8,1.6,5.9,4.4s-2.1,4.6-5.9,4.6h-75.5c-0.8,0-1.7-0.1-2.5-0.2
	c-2.3-0.6-3.7-3-3.1-5.3c0.4-1.6,1.7-2.8,3.3-3.2c0.8-0.1,1.6-0.2,2.4-0.2C215.8,111.2,228.5,111.2,241.1,111.2z"/>
<path class="st0" d="M231.8,83.3c2.3,1,4.5,2.1,6.7,2.8c1.1,0.3,2.3,0.3,3.5,0c1-0.3,1.8-1,2.2-2c0-1.1-0.4-2.1-1.2-2.8
	c-0.9-0.7-2-1.3-3.1-1.7c-1.8-0.8-3.6-1.8-5.4-2.8c-4.7-3-6-9.2-3-13.9c1.1-1.7,2.7-3,4.5-3.8c1.4-0.6,1.9-1.3,1.7-2.7
	c-0.1-1.2-0.1-2.3,0-3.5h7.8v4.7l7.4,3.1c-1.1,2.8-2,5.2-3,7.8c-1.2-0.7-2.5-1.3-3.8-1.8c-1.6-0.5-3.3-0.7-4.9-0.7
	c-0.9,0.2-1.7,0.8-2,1.6c0,0.9,0.5,1.7,1.2,2.3c1.2,0.8,2.5,1.4,3.9,2c1.5,0.7,3,1.5,4.4,2.4c5,3.3,6.3,10,3,15
	c-1.2,1.8-2.9,3.2-4.9,4c-1.1,0.3-1.8,1.4-1.6,2.5c0.1,1.3,0,2.6,0,3.9h-7.9c0.1-1.4,0-2.8-0.1-4.2c-0.1-0.6-0.5-1-1.1-1.3
	c-2.1-1-4.2-1.8-6.3-2.7c-0.8-0.3-0.9-0.9-0.6-1.8C230.3,87.5,231,85.3,231.8,83.3z"/>
<path class="st0" d="M233.5,136.4c10.3,0,20.6,0,30.9,0c3,0,4.9,1.6,5,4.1c0.2,2.3-1.5,4.3-3.7,4.7c-0.3,0-0.7,0.1-1,0.1
	c-20.8,0-41.6,0-62.4,0c-0.7,0-1.4-0.1-2-0.3c-2.3-0.8-3.4-3.4-2.6-5.6c0.6-1.6,2-2.7,3.7-2.9c0.7-0.1,1.4,0,2,0L233.5,136.4z"/>
<path class="st0" d="M302.7,153.5c-2.8,0-5.2-2.2-5.2-5.1c0-2.8,2.2-5.2,5.1-5.2c2.8,0,5.2,2.2,5.2,5.1
	C307.8,151.1,305.6,153.4,302.7,153.5C302.7,153.5,302.7,153.5,302.7,153.5z"/>
<g>
	<path class="st0" d="M147.3,294.1c0,14,2.7,20.7,6.9,20.7c1.8,0,3.1-1.6,4.2-4.4l1.8-4.4v8.1c-1.3,1.4-3.3,2.6-6.1,2.6
		c-6,0-11.4-7.5-11.4-22.5c0-15,5.4-22.5,11.4-22.5c2.7,0,4.7,1.2,6.1,2.6v8.1l-1.8-4.4c-1.2-2.9-2.4-4.4-4.2-4.4
		C150,273.4,147.3,280.2,147.3,294.1z"/>
	<path class="st0" d="M179.1,316l2.6-2.9l-2.1-8.9h-10.9l-2.1,8.9l2.4,2.9h-7.3l2.9-2.9l8.5-36l-1.2-4.9h4.4l9.7,40.8l2.9,2.9H179.1
		z M169.1,302.4h10.1l-5.1-21.6L169.1,302.4z"/>
	<path class="st0" d="M197.6,295.1v18l2.3,2.9h-8.6l2.3-2.9v-38l-2.3-2.9h8.2c5.8,0,11.1,3.8,11.1,11.4c0,5.6-2.8,9.1-6.6,10.6
		l7.6,21.7h-4.3l-7.2-20.8h-0.6H197.6z M197.6,274v18.3c0,0.7,0.4,1.1,1.1,1.1h0.6c4.6,0,7.3-3.2,7.3-9.7s-2.7-9.7-7.3-9.7H197.6z"
		/>
	<path class="st0" d="M218.3,294.1c0,13.9,2.5,20.7,6.7,20.7c2.5,0,4.1-1.3,4.1-3.8v-15.8l-6.4,2.5l0.6-4.1h9.1V313
		c-1.5,2-4.4,3.6-7.4,3.6c-6.5,0-11.2-7.5-11.2-22.5c0-15,5.4-22.5,11.4-22.5c3.4,0,5.5,1.3,7.2,2.5v7.9l-1.8-3.9
		c-1.4-3.1-3.3-4.8-5.4-4.8C221,273.4,218.3,280.2,218.3,294.1z"/>
	<path class="st0" d="M251.9,316l2.6-2.9l-2.1-8.9h-10.9l-2.1,8.9l2.4,2.9h-7.3l2.9-2.9l8.5-36l-1.2-4.9h4.4l9.7,40.8l2.9,2.9H251.9
		z M241.8,302.4h10.1l-5.1-21.6L241.8,302.4z"/>
	<path class="st0" d="M280.5,316l2.3-2.9V274h-5.3l-4,5.2v-6.9H296v6.9l-4-5.2h-5.2v39.1l2.2,2.9H280.5z"/>
	<path class="st0" d="M301.2,305.6v-30.5l-2.3-2.9h8.6l-2.2,2.9v31.6c0,4.7,2.4,7.3,6.9,7.3c4,0,6.6-3.1,6.6-8v-30.9l-2.1-2.9h5.9
		l-2,2.9v30.7c0,7.1-3.7,10.8-9.2,10.8C305.4,316.6,301.2,313.1,301.2,305.6z"/>
	<path class="st0" d="M325.8,314.5v-7l2.1,3.1c1.9,2.8,3.4,4.2,6.1,4.2c3.4,0,5.4-2.9,5.4-6.7c0-4-1.5-7-7-13.5
		c-4.9-5.7-6.6-9.6-6.6-14c0-5.5,3.5-9,8.2-9c2.9,0,5,0.7,7.2,2.1v7.4l-1.9-3.2c-1.9-3.2-3.4-4.5-5.6-4.5c-2.9,0-4.8,2.4-4.8,5.4
		c0,3.5,1.4,6.3,5.8,11.4c6.4,7.4,7.9,11,7.9,15.7c0,6.5-4.1,10.7-9,10.7C330.5,316.6,328.1,315.8,325.8,314.5z"/>
	<path class="st0" d="M159.3,348.9v17.7l8.9-1.6l-1.2,4.3l-7.6-1.6V388l2.3,2.9H153l2.3-2.9v-38l-2.3-2.9h17.9v6.7l-4-5H159.3z"/>
	<path class="st0" d="M183.6,390.9l2.6-2.9l-2.1-8.9h-10.9l-2.1,8.9l2.4,2.9h-7.3l2.9-2.9l8.5-36l-1.2-4.9h4.4l9.7,40.8l2.9,2.9
		H183.6z M173.6,377.3h10.1l-5.1-21.6L173.6,377.3z"/>
	<path class="st0" d="M197.4,369c0,14,2.7,20.7,6.9,20.7c1.8,0,3.1-1.6,4.2-4.4l1.8-4.4v8.1c-1.3,1.4-3.3,2.6-6.1,2.6
		c-6,0-11.4-7.5-11.4-22.5c0-15,5.4-22.5,11.4-22.5c2.7,0,4.7,1.2,6.1,2.6v8.1l-1.8-4.4c-1.2-2.9-2.4-4.4-4.2-4.4
		C200.1,348.3,197.4,355.1,197.4,369z"/>
	<path class="st0" d="M219.6,390.9l2.3-2.9v-39.1h-5.3l-4,5.2v-6.9h22.5v6.9l-4-5.2h-5.2V388l2.2,2.9H219.6z"/>
	<path class="st0" d="M240.4,380.5V350l-2.3-2.9h8.6l-2.2,2.9v31.6c0,4.7,2.4,7.3,6.9,7.3c4,0,6.6-3.1,6.6-8V350l-2.1-2.9h5.9
		l-2,2.9v30.7c0,7.1-3.7,10.8-9.2,10.8C244.5,391.5,240.4,388,240.4,380.5z"/>
	<path class="st0" d="M271.8,370v18l2.3,2.9h-8.6l2.3-2.9v-38l-2.3-2.9h8.2c5.8,0,11.1,3.8,11.1,11.4c0,5.6-2.8,9.1-6.6,10.6
		l7.6,21.7h-4.3l-7.2-20.8h-0.6H271.8z M271.8,348.9v18.3c0,0.7,0.4,1.1,1.1,1.1h0.6c4.6,0,7.3-3.2,7.3-9.7s-2.7-9.7-7.3-9.7H271.8z
		"/>
	<path class="st0" d="M304.5,390.9l2.6-2.9l-2.1-8.9h-10.9l-2.1,8.9l2.4,2.9h-7.3l2.9-2.9l8.5-36l-1.2-4.9h4.4l9.7,40.8l2.9,2.9
		H304.5z M294.5,377.3h10.1l-5.1-21.6L294.5,377.3z"/>
	<path class="st0" d="M316.3,389.4v-7l2.1,3.1c1.9,2.8,3.4,4.2,6.1,4.2c3.4,0,5.4-2.9,5.4-6.7c0-4-1.5-7-7-13.5
		c-4.9-5.7-6.6-9.6-6.6-14c0-5.5,3.5-9,8.2-9c2.9,0,5,0.7,7.2,2.1v7.4l-1.9-3.2c-1.9-3.2-3.4-4.5-5.6-4.5c-2.9,0-4.8,2.4-4.8,5.4
		c0,3.5,1.4,6.3,5.8,11.4c6.4,7.4,7.9,11,7.9,15.7c0,6.5-4.1,10.7-9,10.7C320.9,391.5,318.5,390.7,316.3,389.4z"/>
	<path class="st0" d="M142,465.8l2.3-2.9v-38l-2.3-2.9h7.7c7.6,0,14.2,7.3,14.2,21.8c0,14.5-6.6,21.8-14.2,21.8H142z M159.4,443.9
		c0-13.5-3.9-20.1-9.7-20.1h-1.4v38.8c0,0.9,0.5,1.4,1.4,1.4C155.5,464,159.4,457.4,159.4,443.9z"/>
	<path class="st0" d="M180.8,464l4-5v6.7h-17.7l2.3-2.9v-38l-2.3-2.9h17.4v6.7l-4-5h-7.1v16.4l8.2-1.6l-1.2,4.5l-7-1.6V464H180.8z"
		/>
	<path class="st0" d="M202.2,443.9c0,14,2.7,20.7,6.9,20.7c1.8,0,3.1-1.6,4.2-4.4l1.8-4.4v8.1c-1.3,1.4-3.3,2.6-6.1,2.6
		c-6,0-11.4-7.5-11.4-22.5c0-15,5.4-22.5,11.4-22.5c2.7,0,4.7,1.2,6.1,2.6v8.1l-1.8-4.4c-1.2-2.9-2.4-4.4-4.2-4.4
		C204.9,423.2,202.2,430,202.2,443.9z"/>
	<path class="st0" d="M217.6,443.9c0-15,5.4-22.5,10.9-22.5c5.6,0,10.9,7.5,10.9,22.5c0,15-5.4,22.5-10.9,22.5
		C222.9,466.4,217.6,458.9,217.6,443.9z M234.9,443.9c0-14-2.2-20.7-6.4-20.7c-4.2,0-6.4,6.8-6.4,20.7c0,13.9,2.2,20.7,6.4,20.7
		C232.7,464.6,234.9,457.8,234.9,443.9z"/>
	<path class="st0" d="M268.2,424.9v38l2.3,2.9h-8.6l2.3-2.9v-33.1l-8.7,36H254l-7.4-36v33.1l2,2.9h-5.9l2.1-2.9v-37.9l-2.1-2.9h6.5
		l6.7,34.8l8.4-34.8h6.3L268.2,424.9z"/>
	<path class="st0" d="M274.2,465.8l2.3-2.9v-38l-2.3-2.9h8.2c6.1,0,11.6,4.1,11.6,12.2c0,8.1-5.6,12.2-11.6,12.2h-1.9v16.5l2.3,2.9
		H274.2z M280.5,444.7h1.6c4.9,0,7.8-3.5,7.8-10.4c0-6.9-2.9-10.4-7.8-10.4h-1.6V444.7z"/>
	<path class="st0" d="M303.1,444.9v18l2.3,2.9h-8.6l2.3-2.9v-38l-2.3-2.9h8.2c5.8,0,11.1,3.8,11.1,11.4c0,5.6-2.8,9.1-6.6,10.6
		l7.6,21.7h-4.3l-7.2-20.8H305H303.1z M303.1,423.8v18.3c0,0.7,0.4,1.1,1.1,1.1h0.6c4.6,0,7.3-3.2,7.3-9.7s-2.7-9.7-7.3-9.7H303.1z"
		/>
	<path class="st0" d="M335.9,465.8l2.6-2.9l-2.1-8.9h-10.9l-2.1,8.9l2.4,2.9h-7.3l2.9-2.9l8.5-36l-1.2-4.9h4.4l9.7,40.8l2.9,2.9
		H335.9z M325.8,452.2h10.1l-5.1-21.6L325.8,452.2z"/>
</g>
</svg>
