<svg xmlns="http://www.w3.org/2000/svg" xmlns:xlink="http://www.w3.org/1999/xlink" version="1.1" width="1000" height="1000" viewBox="0 0 1000 1000" xml:space="preserve">
<desc>Created with Fabric.js 3.5.0</desc>
<defs>
</defs>
<rect x="0" y="0" width="100%" height="100%" fill="rgba(255,255,255,0)"/>
<g transform="matrix(16.2338 0 0 16.2338 500.0009 331.7251)" id="888909">
<g style="" vector-effect="non-scaling-stroke">
		<g transform="matrix(1 0 0 1 -0.0001 -4.3737)">
<path style="stroke: none; stroke-width: 1; stroke-dasharray: none; stroke-linecap: butt; stroke-dashoffset: 0; stroke-linejoin: miter; stroke-miterlimit: 4; is-custom-font: none; font-file-url: none; fill: rgb(10,5,65); fill-rule: nonzero; opacity: 1;" transform=" translate(-27.9999, -23.6263)" d="M 27.9998 16.3334 L 27.2927 15.6263 L 27.9998 14.9192 L 28.7069 15.6263 L 27.9998 16.3334 Z M 28.9998 31.3334 C 28.9998 31.8857 28.5521 32.3334 27.9998 32.3334 C 27.4476 32.3334 26.9998 31.8857 26.9998 31.3334 L 28.9998 31.3334 Z M 18.9594 23.9596 L 27.2927 15.6263 L 28.7069 17.0405 L 20.3736 25.3738 L 18.9594 23.9596 Z M 28.7069 15.6263 L 37.0403 23.9596 L 35.6261 25.3738 L 27.2927 17.0405 L 28.7069 15.6263 Z M 28.9998 16.3334 L 28.9998 31.3334 L 26.9998 31.3334 L 26.9998 16.3334 L 28.9998 16.3334 Z" stroke-linecap="round"/>
</g>
		<g transform="matrix(1 0 0 1 0.0002 9.1666)">
<path style="stroke: rgb(10,5,65); stroke-width: 2; stroke-dasharray: none; stroke-linecap: butt; stroke-dashoffset: 0; stroke-linejoin: miter; stroke-miterlimit: 4; is-custom-font: none; font-file-url: none; fill: none; fill-rule: nonzero; opacity: 1;" transform=" translate(-28.0002, -37.1666)" d="M 16.3335 34.6666 L 16.3335 36.3333 C 16.3335 38.1742 17.8259 39.6666 19.6668 39.6666 L 36.3335 39.6666 C 38.1744 39.6666 39.6668 38.1742 39.6668 36.3333 V 34.6666" stroke-linecap="round"/>
</g>
</g>
</g>
<g transform="matrix(1 0 0 1 500 763.4956)" style="" id="124794">
		
<path xml:space="preserve" font-family="Libre Franklin" font-size="144" font-style="normal" font-weight="bold" style="stroke: none; stroke-width: 1; stroke-dasharray: none; stroke-linecap: butt; stroke-dashoffset: 0; stroke-linejoin: miter; stroke-miterlimit: 4; is-custom-font: none; font-file-url: none; fill: rgb(10,5,65); fill-rule: nonzero; opacity: 1; white-space: pre;" d="M-382.00-36.41L-382.00-36.41Q-385.17-39.87-389.85-42.60Q-394.53-45.34-403.17-45.34L-403.17-45.34Q-412.24-45.34-416.71-42.10Q-421.17-38.86-421.17-33.82L-421.17-33.82Q-421.17-32.09-420.31-30.08Q-419.44-28.06-416.85-26.19Q-414.26-24.32-409.51-22.88L-409.51-22.88L-386.76-16.40Q-373.51-12.80-367.46-4.80Q-361.41 3.19-361.41 13.70L-361.41 13.70Q-361.41 23.78-366.60 31.20Q-371.78 38.61-381.43 42.64Q-391.08 46.68-404.32 46.68L-404.32 46.68Q-414.12 46.68-422.68 44.44Q-431.25 42.21-437.80 37.96Q-444.36 33.72-448.10 28.10L-448.10 28.10Q-448.82 26.66-448.68 25.72Q-448.53 24.79-447.24 23.78L-447.24 23.78L-436.15 16.15Q-434.42 15.14-433.34 15.28Q-432.26 15.43-431.40 16.44L-431.40 16.44Q-427.94 20.76-424.56 23.64Q-421.17 26.52-416.71 27.81Q-412.24 29.11-406.05 29.11L-406.05 29.11Q-396.69 29.11-391.08 26.16Q-385.46 23.20-385.46 17.01L-385.46 17.01Q-385.46 14.56-386.61 12.48Q-387.76 10.39-390.28 8.73Q-392.80 7.08-397.41 5.64L-397.41 5.64L-419.16-0.56Q-427.65-3.00-433.41-7.47Q-439.17-11.93-442.12-17.98Q-445.08-24.03-445.08-30.65L-445.08-30.65Q-445.08-39.87-439.96-47.21Q-434.85-54.56-425.56-58.80Q-416.28-63.05-403.89-63.05L-403.89-63.05Q-395.68-63.05-388.56-61.18Q-381.43-59.31-375.67-56.00Q-369.91-52.68-366.31-47.93L-366.31-47.93Q-365.73-47.21-365.44-46.28Q-365.16-45.34-366.31-44.33L-366.31-44.33L-378.40-35.40Q-379.27-34.83-379.99-35.04Q-380.71-35.26-382.00-36.41L-382.00-36.41ZM-316.48 30.69L-316.48 30.69Q-312.02 30.69-308.06 28.32Q-304.10 25.94-300.79 22.20L-300.79 22.20L-300.79-27.77Q-300.79-31.08-297.04-31.08L-297.04-31.08L-281.49-31.08Q-278.47-31.08-278.47-28.06L-278.47-28.06L-278.76 42.64Q-278.76 45.24-281.06 45.24L-281.06 45.24L-298.20 45.24Q-300.36 45.24-300.36 42.79L-300.36 42.79L-300.36 35.73Q-300.36 34.87-300.79 34.65Q-301.22 34.44-301.94 35.16L-301.94 35.16Q-307.99 41.35-313.96 44.01Q-319.94 46.68-326.71 46.68L-326.71 46.68Q-333.04 46.68-338.01 43.94Q-342.98 41.20-345.86 35.95Q-348.74 30.69-348.74 23.49L-348.74 23.49L-348.74-27.63Q-348.74-31.08-345.28-31.08L-345.28-31.08L-329.30-31.08Q-326.56-31.08-326.56-28.06L-326.56-28.06L-326.56 20.32Q-326.56 25.08-323.90 27.88Q-321.24 30.69-316.48 30.69L-316.48 30.69ZM-250.10 45.24L-259.46 45.24Q-261.33 45.24-262.05 44.52Q-262.77 43.80-262.77 42.07L-262.77 42.07L-262.77-58.88Q-262.77-61.61-260.47-61.61L-260.47-61.61L-242.76-61.61Q-240.60-61.61-240.60-59.02L-240.60-59.02L-240.60-25.47Q-240.60-23.74-239.80-23.67Q-239.01-23.60-238.00-24.46L-238.00-24.46Q-235.70-26.62-232.75-28.42Q-229.80-30.22-226.05-31.37Q-222.31-32.52-217.84-32.52L-217.84-32.52Q-208.05-32.52-201.36-27.63Q-194.66-22.73-191.20-13.95Q-187.75-5.16-187.75 6.64L-187.75 6.64Q-187.75 24.93-196.24 35.80Q-204.74 46.68-220.58 46.68L-220.58 46.68Q-225.76 46.68-230.16 45.02Q-234.55 43.36-237.79 40.63Q-241.03 37.89-243.33 35.01L-243.33 35.01Q-243.91 34.29-244.41 34.36Q-244.92 34.44-245.06 35.44L-245.06 35.44L-246.79 42.36Q-247.51 45.24-250.10 45.24L-250.10 45.24ZM-240.60-10.78L-240.60 18.88Q-240.60 23.20-238.58 26.37Q-236.56 29.54-233.32 31.34Q-230.08 33.14-226.20 33.14L-226.20 33.14Q-221.44 33.14-217.84 30.55Q-214.24 27.96-212.30 22.12Q-210.36 16.29-210.36 6.93L-210.36 6.93Q-210.36-6.32-214.24-12.36Q-218.13-18.41-225.62-18.41L-225.62-18.41Q-230.23-18.41-233.97-16.32Q-237.72-14.24-240.60-10.78L-240.60-10.78ZM-152.90-28.64L-152.90 41.78Q-152.90 43.65-153.76 44.44Q-154.63 45.24-156.79 45.24L-156.79 45.24L-171.91 45.24Q-173.78 45.24-174.43 44.52Q-175.08 43.80-175.08 42.21L-175.08 42.21L-175.08-28.35Q-175.08-31.08-172.77-31.08L-172.77-31.08L-155.06-31.08Q-152.90-31.08-152.90-28.64L-152.90-28.64ZM-152.61-58.88L-152.61-43.90Q-152.61-40.30-156.50-40.30L-156.50-40.30L-172.05-40.30Q-173.92-40.30-174.57-41.16Q-175.22-42.03-175.22-43.61L-175.22-43.61L-175.22-58.73Q-175.22-61.61-172.77-61.61L-172.77-61.61L-154.92-61.61Q-152.61-61.61-152.61-58.88L-152.61-58.88ZM-133.89 45.24L-133.89 45.24Q-135.48 45.24-136.20 44.52Q-136.92 43.80-136.92 42.36L-136.92 42.36L-136.92-28.35Q-136.92-31.08-134.61-31.08L-134.61-31.08L-117.76-31.08Q-115.46-31.08-115.46-28.64L-115.46-28.64L-115.46-20.14Q-115.46-19.28-114.81-19.06Q-114.16-18.84-113.44-19.71L-113.44-19.71Q-110.56-23.60-106.89-26.48Q-103.22-29.36-99.33-30.94Q-95.44-32.52-91.99-32.52L-91.99-32.52Q-86.80-32.52-86.80-30.08L-86.80-30.08L-86.80-13.37Q-86.80-11.07-88.96-11.50L-88.96-11.50Q-91.56-12.22-94.29-12.44Q-97.03-12.65-99.04-12.65L-99.04-12.65Q-101.64-12.65-104.44-11.64Q-107.25-10.64-109.56-8.76Q-111.86-6.89-113.30-4.73Q-114.74-2.57-114.74-0.12L-114.74-0.12L-114.74 41.92Q-114.74 45.24-118.48 45.24L-118.48 45.24L-133.89 45.24ZM-4.87 37.89L-4.87 37.89Q-9.33 41.92-14.88 44.30Q-20.42 46.68-27.62 46.68L-27.62 46.68Q-38.56 46.68-44.83 40.77Q-51.09 34.87-51.09 25.65L-51.09 25.65Q-51.09 17.59-46.05 11.54Q-41.01 5.49-31.65 2.11Q-22.29-1.28-9.33-1.56L-9.33-1.56L-4.29-2.00Q-3.43-2.00-2.71-2.43Q-1.99-2.86-1.99-4.01L-1.99-4.01L-1.99-7.04Q-1.99-12.51-5.16-15.60Q-8.32-18.70-14.23-18.70L-14.23-18.70Q-18.55-18.70-22.51-16.76Q-26.47-14.81-29.20-10.06L-29.20-10.06Q-29.64-9.05-30.21-8.76Q-30.79-8.48-32.37-8.76L-32.37-8.76L-46.77-12.08Q-47.64-12.36-48.00-13.01Q-48.36-13.66-47.49-15.82L-47.49-15.82Q-43.89-24.32-35.04-28.42Q-26.18-32.52-13.22-32.52L-13.22-32.52Q-1.27-32.52 5.79-29.50Q12.84-26.48 16.01-21.08Q19.18-15.68 19.18-8.48L19.18-8.48L19.18 42.07Q19.18 43.80 18.60 44.52Q18.03 45.24 16.44 45.24L16.44 45.24L1.61 45.24Q0.03 45.24-0.62 44.08Q-1.27 42.93-1.41 41.20L-1.41 41.20L-1.70 38.04Q-1.99 35.44-4.87 37.89L-4.87 37.89ZM-1.99 11.25L-1.99 11.25Q-1.99 8.80-4.15 8.80L-4.15 8.80L-8.18 9.09Q-11.92 9.24-15.67 10.17Q-19.41 11.11-22.44 12.76Q-25.46 14.42-27.40 16.94Q-29.35 19.46-29.35 22.77L-29.35 22.77Q-29.35 27.09-26.32 29.61Q-23.30 32.13-17.97 32.13L-17.97 32.13Q-14.37 32.13-11.56 30.98Q-8.76 29.83-6.74 28.24L-6.74 28.24Q-4.58 26.37-3.28 24.50Q-1.99 22.63-1.99 20.61L-1.99 20.61L-1.99 11.25ZM38.19 45.24L38.19 45.24Q36.60 45.24 35.88 44.52Q35.16 43.80 35.16 42.36L35.16 42.36L35.16-28.35Q35.16-31.08 37.47-31.08L37.47-31.08L54.32-31.08Q56.62-31.08 56.62-28.64L56.62-28.64L56.62-20.14Q56.62-19.28 57.27-19.06Q57.92-18.84 58.64-19.71L58.64-19.71Q61.52-23.60 65.19-26.48Q68.86-29.36 72.75-30.94Q76.64-32.52 80.09-32.52L80.09-32.52Q85.28-32.52 85.28-30.08L85.28-30.08L85.28-13.37Q85.28-11.07 83.12-11.50L83.12-11.50Q80.52-12.22 77.79-12.44Q75.05-12.65 73.04-12.65L73.04-12.65Q70.44-12.65 67.64-11.64Q64.83-10.64 62.52-8.76Q60.22-6.89 58.78-4.73Q57.34-2.57 57.34-0.12L57.34-0.12L57.34 41.92Q57.34 45.24 53.60 45.24L53.60 45.24L38.19 45.24ZM128.91-32.52L128.91-32.52Q138.27-32.52 144.82-29.28Q151.37-26.04 155.55-21.00Q159.72-15.96 161.45-10.64L161.45-10.64Q162.46-7.76 159.72-7.61L159.72-7.61L144.60-6.17Q143.02-6.03 142.44-7.76L142.44-7.76Q141.15-10.49 139.56-12.80Q137.98-15.10 135.68-16.54Q133.37-17.98 129.63-17.98L129.63-17.98Q124.73-17.98 120.99-15.24Q117.24-12.51 115.16-6.96Q113.07-1.42 113.07 7.08L113.07 7.08Q113.07 15.72 115.23 21.33Q117.39 26.95 121.35 29.68Q125.31 32.42 130.78 32.42L130.78 32.42Q137.12 32.42 140.79 29.11Q144.46 25.80 147.77 20.18L147.77 20.18Q148.20 19.46 148.64 19.32Q149.07 19.17 150.22 19.46L150.22 19.46L160.88 21.91Q162.46 22.34 161.88 24.64L161.88 24.64Q160.73 27.81 158.28 31.70Q155.84 35.59 151.88 38.90Q147.92 42.21 142.23 44.44Q136.54 46.68 128.91 46.68L128.91 46.68Q117.82 46.68 109.18 41.71Q100.54 36.74 95.57 27.88Q90.60 19.03 90.60 7.36L90.60 7.36Q90.60-4.44 95.64-13.44Q100.68-22.44 109.32-27.48Q117.96-32.52 128.91-32.52L128.91-32.52ZM176.57 45.24L176.57 45.24Q173.55 45.24 173.55 42.36L173.55 42.36L173.55-58.88Q173.55-61.61 175.85-61.61L175.85-61.61L193.13-61.61Q195.29-61.61 195.29-59.16L195.29-59.16L195.29-22.30Q195.29-21.44 195.72-21.22Q196.16-21.00 197.02-21.72L197.02-21.72Q201.48-25.76 205.44-28.06Q209.40-30.36 213.36-31.44Q217.32-32.52 221.36-32.52L221.36-32.52Q232.30-32.52 238.20-26.48Q244.11-20.43 244.11-9.48L244.11-9.48L244.11 41.78Q244.11 45.24 240.65 45.24L240.65 45.24L224.67 45.24Q223.23 45.24 222.58 44.59Q221.93 43.94 221.93 42.36L221.93 42.36L221.93-6.32Q221.93-11.21 219.34-13.88Q216.75-16.54 211.56-16.54L211.56-16.54Q208.54-16.54 205.95-15.53Q203.36-14.52 200.91-12.58Q198.46-10.64 195.72-7.61L195.72-7.61L195.72 41.92Q195.72 45.24 191.98 45.24L191.98 45.24L176.57 45.24ZM281.55-28.64L281.55 41.78Q281.55 43.65 280.68 44.44Q279.82 45.24 277.66 45.24L277.66 45.24L262.54 45.24Q260.67 45.24 260.02 44.52Q259.37 43.80 259.37 42.21L259.37 42.21L259.37-28.35Q259.37-31.08 261.68-31.08L261.68-31.08L279.39-31.08Q281.55-31.08 281.55-28.64L281.55-28.64ZM281.84-58.88L281.84-43.90Q281.84-40.30 277.95-40.30L277.95-40.30L262.40-40.30Q260.52-40.30 259.88-41.16Q259.23-42.03 259.23-43.61L259.23-43.61L259.23-58.73Q259.23-61.61 261.68-61.61L261.68-61.61L279.53-61.61Q281.84-61.61 281.84-58.88L281.84-58.88ZM367.08-31.08L367.08-31.08Q368.52-31.08 369.03-30.08Q369.53-29.07 369.10-27.77L369.10-27.77L340.59 42.21Q339.29 45.24 335.98 45.24L335.98 45.24L325.76 45.24Q322.30 45.24 321.15 42.21L321.15 42.21L292.78-27.63Q292.20-29.07 292.85-30.08Q293.50-31.08 294.94-31.08L294.94-31.08L313.23-31.08Q314.38-31.08 315.24-30.44Q316.11-29.79 316.40-28.64L316.40-28.64L332.96 13.84Q333.96 16.58 335.26 13.70L335.26 13.70L351.53-28.78Q351.96-29.79 352.76-30.44Q353.55-31.08 354.70-31.08L354.70-31.08L367.08-31.08ZM410.28 46.68L410.28 46.68Q398.91 46.68 390.20 41.64Q381.48 36.60 376.59 27.74Q371.69 18.88 371.69 7.51L371.69 7.51Q371.69-4.44 376.73-13.44Q381.77-22.44 390.56-27.48Q399.34-32.52 410.43-32.52L410.43-32.52Q422.09-32.52 430.73-27.41Q439.37-22.30 444.20-13.30Q449.02-4.30 449.02 7.36L449.02 7.36Q449.02 18.88 444.12 27.74Q439.23 36.60 430.52 41.64Q421.80 46.68 410.28 46.68L410.28 46.68ZM410.43 31.99L410.43 31.99Q415.76 31.99 419.36 29.18Q422.96 26.37 424.76 20.76Q426.56 15.14 426.56 7.08L426.56 7.08Q426.56-1.42 424.76-6.96Q422.96-12.51 419.36-15.39Q415.76-18.27 410.43-18.27L410.43-18.27Q405.24-18.27 401.57-15.39Q397.90-12.51 396.03-6.96Q394.16-1.42 394.16 7.08L394.16 7.08Q394.16 15.28 396.03 20.83Q397.90 26.37 401.57 29.18Q405.24 31.99 410.43 31.99L410.43 31.99Z"/></g>
</svg>