<svg width="57" height="56" viewBox="0 0 57 56" fill="none" xmlns="http://www.w3.org/2000/svg">
<path d="M28.5 16.3334L27.7929 15.6263L28.5 14.9192L29.2071 15.6263L28.5 16.3334ZM29.5 31.3334C29.5 31.8857 29.0523 32.3334 28.5 32.3334C27.9477 32.3334 27.5 31.8857 27.5 31.3334L29.5 31.3334ZM19.4596 23.9596L27.7929 15.6263L29.2071 17.0405L20.8738 25.3738L19.4596 23.9596ZM29.2071 15.6263L37.5405 23.9596L36.1262 25.3738L27.7929 17.0405L29.2071 15.6263ZM29.5 16.3334L29.5 31.3334L27.5 31.3334L27.5 16.3334L29.5 16.3334Z" fill="#0A0541"/>
<path d="M16.8333 34.6666L16.8333 36.3333C16.8333 38.1742 18.3257 39.6666 20.1666 39.6666L36.8333 39.6666C38.6743 39.6666 40.1666 38.1742 40.1666 36.3333V34.6666" stroke="#0A0541" stroke-width="2"/>
</svg>
