<svg width="71" height="31" viewBox="0 0 71 31" fill="none" xmlns="http://www.w3.org/2000/svg">
<path d="M21.5586 5.25V5.2761L21.5948 5.25H21.5586Z" fill="white"/>
<path d="M6.31927 1.91529C6.4773 2.23232 6.60096 2.55501 6.73151 2.87203C6.88267 3.18906 6.96514 3.52873 7.09569 3.85142C7.25372 4.16844 7.4323 4.49113 7.55598 4.80816C7.68653 5.08555 7.68653 5.37994 7.81708 5.65733C7.92014 5.93473 8.12628 6.18948 8.25682 6.46688L8.72408 7.54817C8.88211 7.91048 8.95771 8.28978 9.08825 8.6521C9.23941 9.01441 9.4249 9.37673 9.57606 9.73338C9.70661 10.0731 9.83026 10.4127 9.98829 10.7524C10.1188 11.0921 10.2494 11.4317 10.4005 11.7714C10.5311 12.1111 10.6822 12.4507 10.8403 12.7904C10.9708 13.1301 11.1769 13.4471 11.3281 13.7868C11.4586 14.1491 11.5343 14.5114 11.6648 14.8511C11.8435 15.2757 12.077 15.6153 12.2282 15.955C12.4343 16.4249 12.8466 16.6344 13.4444 16.6344C13.4718 16.6344 13.4718 16.657 13.4718 16.657H14.6055C14.8391 16.657 14.8392 16.6344 15.0934 16.6344C15.3476 16.6344 15.3476 16.6796 15.6087 16.6796C15.9935 16.6796 16.3851 16.657 16.7698 16.657H16.7973C17.5188 16.657 17.9585 16.3796 18.1646 15.8078C18.3227 15.4059 18.5769 15.0436 18.7349 14.6416C18.8105 14.4718 18.8379 14.2567 18.8929 14.0868C19.1265 13.5547 19.0991 13.5547 19.3052 13.0225C19.5388 12.4904 19.5869 12.513 19.8205 11.9809C20.0267 11.4487 19.9785 11.4487 20.2053 10.9166C20.4114 10.3844 20.4663 10.4071 20.6931 9.87491C20.8992 9.34276 20.9267 9.34276 21.1603 8.83325C21.3665 8.3011 21.2634 8.27846 21.497 7.75197C21.7031 7.21982 21.7787 7.24246 21.9848 6.71031C22.1909 6.17816 22.2391 6.20081 22.4727 5.66866C22.6788 5.1365 22.6238 5.11386 22.8574 4.60435C22.988 4.30431 23.091 4.00993 23.2147 3.70989C23.3178 3.40985 23.4208 3.11546 23.5514 2.81542C23.6819 2.51538 23.8331 2.24364 23.9636 1.9436C24.0392 1.75112 24.0667 1.51901 24.1216 1.30389C24.1972 0.941572 24.0461 0.686819 23.6063 0.601901L23.3453 0.539628C22.8781 0.516983 22.4177 0.539628 21.923 0.539628C21.4558 0.539628 20.9955 0.579256 20.5076 0.624546C20.4595 0.624546 20.432 0.562273 20.377 0.584918C20.3496 0.584918 20.3496 0.64719 20.329 0.64719C19.9648 0.69248 19.6831 0.817026 19.5319 1.11707C19.4289 1.2869 19.2984 1.43409 19.2228 1.60393C19.1197 1.88133 19.0441 2.17571 18.9411 2.45311C18.8105 2.75315 18.7074 3.02489 18.5769 3.30228C18.5494 3.34191 18.5013 3.32493 18.4738 3.3872C18.3226 3.74952 18.1921 4.11183 18.0341 4.46849C17.9035 4.8308 17.8005 5.2101 17.6493 5.57242C17.4913 5.93473 17.3676 6.29705 17.2096 6.6537L16.7423 7.73499C16.5843 8.0973 16.4607 8.45962 16.3027 8.81627C16.1721 9.17859 15.9385 9.51826 15.7874 9.88057C15.7118 10.0731 15.6843 10.3052 15.5263 10.4976C15.4232 10.6278 15.2445 10.6675 15.1139 10.6675C15.0109 10.6675 14.8803 10.6052 14.7773 10.4524C14.6261 10.2372 14.5437 10.0051 14.4681 9.77301C14.262 9.30313 14.1864 9.32578 14.0009 8.86156C13.8497 8.49925 13.7398 8.13693 13.5886 7.78028C13.4375 7.41796 13.3069 7.05564 13.1764 6.69899C13.0252 6.33668 12.8947 5.97436 12.7366 5.6177C12.6061 5.25539 12.3518 4.91572 12.1938 4.5534C12.0633 4.21373 11.9878 3.82877 11.8297 3.47212C11.6511 3.04753 11.4174 2.62294 11.2388 2.19835C11.1082 1.88133 11.0052 1.55864 10.854 1.21897C10.7029 0.856654 10.3387 0.686819 9.87146 0.624546C9.84398 0.624546 9.84399 0.562273 9.79589 0.539628C9.66534 0.539628 9.53484 0.516983 9.41117 0.516983C9.05388 0.516983 8.71721 0.562273 8.38053 0.562273C8.04386 0.562273 7.68658 0.5 7.3499 0.5C7.1163 0.5 6.88265 0.562273 6.62843 0.624546C6.29176 0.686819 6.16124 0.856654 6.14062 1.1567C6.14062 1.41145 6.24364 1.64356 6.3467 1.88133C6.3467 1.89265 6.31927 1.89265 6.31927 1.91529ZM18.4669 8.94648C18.5425 8.92383 18.5975 8.86156 18.6456 8.83891C18.7761 8.79363 18.9273 8.86156 19.0304 8.8842C18.8517 8.8842 18.6456 8.90685 18.4669 8.94648ZM18.4944 6.84618L18.5219 6.82354C18.5219 6.82354 18.5494 6.82354 18.5494 6.80089V6.82354C18.5219 6.82354 18.4944 6.84618 18.4944 6.84618ZM18.57 6.78391C18.6181 6.76126 18.6456 6.73862 18.7006 6.76126C18.7281 6.76126 18.728 6.80089 18.728 6.78391C18.728 6.80655 18.7281 6.78391 18.7006 6.78391C18.6731 6.78391 18.6456 6.80655 18.6249 6.80655C18.5975 6.80089 18.5975 6.80089 18.57 6.78391ZM19.5526 7.86519C19.2434 7.8199 18.9617 7.718 18.6731 7.67271H18.7006C18.7006 7.65007 18.6731 7.62742 18.6731 7.62742C18.7487 7.58213 18.8517 7.54251 18.9548 7.54251C19.0579 7.54251 19.2365 7.5878 19.3395 7.49722L19.367 7.45193C19.3945 7.47457 19.3946 7.5142 19.3946 7.5142C19.422 7.53684 19.3946 7.57647 19.3946 7.59912C19.4495 7.66139 19.5525 7.70668 19.6006 7.76895C19.6281 7.80292 19.5801 7.86519 19.5526 7.86519ZM20.9199 5.82717C20.8649 5.88944 20.7893 5.95171 20.7137 5.97436V5.84415C20.7137 5.82151 20.7412 5.79886 20.7412 5.78188C20.7137 5.71961 20.6862 5.71961 20.7137 5.71961C20.7412 5.69696 20.7619 5.71961 20.7619 5.71961C20.8168 5.71961 20.8649 5.69696 20.9199 5.74225C20.9474 5.74225 20.9954 5.7649 20.9954 5.78754C20.9954 5.80452 20.9405 5.80452 20.9199 5.82717ZM20.4252 4.78551C20.3496 4.76287 20.2671 4.78551 20.219 4.72324C20.2671 4.61568 20.4252 4.5534 20.5832 4.5534C20.6107 4.5534 20.6381 4.53076 20.6381 4.53076C20.6862 4.59303 20.6863 4.66097 20.7412 4.72324C20.7412 4.74588 20.7137 4.76853 20.7137 4.76853C20.7137 4.76853 20.7412 4.79117 20.7412 4.81382C20.6382 4.81382 20.6381 4.76853 20.5351 4.76853V4.74588C20.4801 4.74022 20.4802 4.78551 20.4252 4.78551ZM21.5588 5.29502V5.27237H21.5314C21.5314 5.24973 21.5313 5.24973 21.5588 5.24973C21.5313 5.24973 21.5589 5.22708 21.5314 5.20444C21.5589 5.20444 21.5588 5.22708 21.5588 5.22708C21.5588 5.24973 21.5864 5.24973 21.6138 5.24973L21.5588 5.29502ZM21.3802 4.44584C21.4283 4.40055 21.4833 4.33828 21.5108 4.3213H21.5863C21.6138 4.3213 21.6619 4.3213 21.6894 4.34394C21.5863 4.36092 21.4832 4.4232 21.3802 4.44584ZM21.7719 3.95332C21.7444 3.95332 21.7238 3.93067 21.6963 3.93067C21.6413 3.93067 21.6207 3.90803 21.5657 3.90803C21.5176 3.88538 21.4352 3.90803 21.4146 3.88538C21.4626 3.86274 21.5657 3.84009 21.6481 3.86274C21.7031 3.86274 21.7031 3.92501 21.7512 3.92501C21.7512 3.92501 21.8062 3.87972 21.8062 3.90237C21.7924 3.91369 21.7719 3.93634 21.7719 3.95332ZM22.2321 3.51175L22.2872 3.44947L22.2597 3.4891C22.2597 3.53439 22.1841 3.53439 22.1566 3.55138C22.081 3.57402 22.026 3.57402 21.9779 3.50609C22.0535 3.50609 22.1291 3.44381 22.1841 3.44381C22.2047 3.44381 22.2047 3.51175 22.2321 3.51175ZM21.229 1.59827C21.2565 1.59827 21.2291 1.536 21.2565 1.536C21.284 1.51335 21.284 1.51335 21.3115 1.51335C21.3871 1.46806 21.4901 1.45108 21.5932 1.45108C21.5932 1.42843 21.6413 1.42843 21.6413 1.42843C21.6413 1.45108 21.5932 1.49071 21.5932 1.51335C21.5932 1.51335 21.6687 1.55864 21.6413 1.55864C21.6413 1.58128 21.5932 1.55864 21.5932 1.58128C21.5382 1.6662 21.5382 1.72848 21.5657 1.77377C21.5932 1.81339 21.6413 1.90397 21.7443 1.92096C21.8199 1.9436 21.9024 1.92096 21.9505 1.9436C22.0261 1.9436 22.1085 1.9436 22.1841 1.96625L22.2116 2.05116C22.2116 2.07381 22.239 2.13608 22.1566 2.19835L22.1085 2.17571C22.0329 2.09079 21.9299 2.00587 21.7719 1.98323C21.6963 1.96058 21.6688 1.98323 21.6207 1.96058C21.4902 1.89831 21.3596 1.83038 21.2565 1.7681C21.181 1.72281 21.181 1.68319 21.181 1.64356C21.1741 1.61525 21.126 1.61525 21.229 1.59827ZM21.0985 2.72484C21.0985 2.7022 21.0985 2.7022 21.1259 2.7022C21.1534 2.59464 21.2566 2.53236 21.3596 2.47009C21.4146 2.44745 21.4902 2.47009 21.5383 2.44745C21.6688 2.38517 21.7444 2.30025 21.7719 2.23798V2.19269C21.8268 2.23798 21.923 2.27761 21.9779 2.30025C21.923 2.34554 21.7719 2.36253 21.6963 2.38517C21.6207 2.40782 21.5932 2.49273 21.5176 2.51538C21.4901 2.53802 21.387 2.56067 21.387 2.62294C21.4145 2.77013 21.5657 2.79278 21.6207 2.77013L21.6481 2.72484V2.77013C21.5726 2.80976 21.4145 2.80976 21.3115 2.85505C21.284 2.85505 21.284 2.87769 21.2565 2.90034C21.1535 2.93997 21.126 2.96261 21.1054 2.93997C21.0436 2.89468 21.0436 2.80976 21.0985 2.72484ZM20.8168 2.25497C20.8168 2.31724 20.8649 2.38517 20.8443 2.40216C20.8168 2.44745 20.6656 2.44745 20.5626 2.46443H20.5351C20.6862 2.38517 20.6588 2.33988 20.8168 2.25497ZM19.8617 2.50972C19.9923 2.53236 20.1229 2.46443 20.2465 2.48707C20.2946 2.48707 20.2946 2.53236 20.3495 2.54935C20.2946 2.57199 20.274 2.63426 20.219 2.61162C20.0404 2.61162 19.8823 2.58897 19.7518 2.5267L19.8617 2.50972ZM19.6556 2.93431C19.9648 2.87203 20.2259 2.93431 20.4526 3.0815C20.4801 3.10414 20.5282 3.10414 20.5282 3.10414L20.4526 3.14943C20.377 3.12679 20.3495 3.06451 20.274 3.04187C20.1434 2.9796 19.9922 3.00224 19.8342 3.00224C19.7586 3.00224 19.7037 2.95695 19.6281 2.9796V2.95695H19.58C19.6006 2.93431 19.6556 2.93431 19.6556 2.93431ZM19.7037 4.48547C19.7037 4.46282 19.6281 4.48547 19.6281 4.44018C19.6281 4.41754 19.7037 4.44018 19.7037 4.39489C19.6556 4.33262 19.6762 4.28733 19.6762 4.28733C19.7243 4.22505 19.8549 4.22506 19.9099 4.15712C19.9855 4.04956 20.0404 3.87972 20.1641 3.81745C20.1916 3.79481 20.2397 3.86274 20.2397 3.81745C20.2671 3.77216 20.2396 3.79481 20.2122 3.75518C20.1366 3.64762 20.0335 3.5627 19.9579 3.52307C19.9304 3.52307 19.8823 3.58534 19.8549 3.56836C19.8274 3.56836 19.7999 3.52307 19.7793 3.52307C19.7793 3.50042 19.7793 3.4608 19.8068 3.43815C19.8343 3.43815 19.8824 3.47778 19.9099 3.47778C19.9099 3.47778 19.8824 3.43815 19.9099 3.43815C20.5283 3.41551 21.0435 3.37588 21.4832 3.22303C21.5313 3.20038 21.6619 3.16075 21.7375 3.20038C21.7649 3.24567 21.71 3.30794 21.6894 3.37022C21.4833 3.43249 21.2771 3.51741 21.0435 3.51741C20.9679 3.54005 20.913 3.47212 20.8374 3.47212C20.6794 3.49476 20.6038 3.57968 20.5763 3.68724C20.5488 3.79481 20.6519 3.85708 20.7343 3.87972C20.8099 3.92501 20.8649 3.942 20.8649 4.02691L20.8924 4.24204C20.8924 4.26468 20.8168 4.28733 20.8168 4.32696C20.8168 4.3496 20.8649 4.41187 20.8649 4.43452C20.8374 4.43452 20.7618 4.38923 20.7137 4.38923C20.7137 4.3496 20.7618 4.30431 20.7412 4.26468C20.7412 4.20241 20.6382 4.17977 20.5832 4.13448C20.5351 4.11183 20.4801 4.11183 20.4046 4.13448C20.1709 4.17977 19.8892 4.21939 19.7862 4.43452C19.7106 4.58171 19.6556 4.68927 19.477 4.73456C19.5251 4.63266 19.58 4.57039 19.7037 4.48547ZM18.4944 5.52713C18.467 5.57242 18.4669 5.5894 18.4669 5.63469C18.4394 5.57242 18.4395 5.57242 18.4944 5.52713ZM18.3639 6.16684C18.4189 6.14419 18.4394 6.1442 18.4669 6.12155C18.5425 6.03663 18.5426 5.95171 18.5219 5.88944C18.625 5.8668 18.7762 5.88944 18.8586 5.82717C18.9617 5.71961 19.0098 5.59506 19.1197 5.4875C19.2228 5.42522 19.3533 5.36295 19.4289 5.29502C19.6075 5.12518 19.8412 5.01762 20.0748 4.89307C20.1023 4.87043 20.1228 4.89307 20.1778 4.87043C20.2808 4.89307 20.2809 4.87043 20.3839 4.89307C20.4114 4.89307 20.3839 4.87043 20.4114 4.87043C20.4389 4.89307 20.3633 4.9327 20.3839 4.95535C20.4389 4.97799 20.4595 4.97799 20.5144 4.97799V4.89307C20.59 4.89307 20.5901 4.91572 20.6657 4.95535C20.6931 4.97799 20.6931 4.97799 20.6931 5.01762C20.6656 5.06291 20.645 5.04026 20.6175 5.04026C20.4663 5.06291 20.4664 5.14783 20.3359 5.12518C20.2809 5.12518 20.3083 5.00064 20.2808 5.01762C20.2053 5.01762 20.2327 5.06291 20.1778 5.10254L20.2053 5.14783C20.1778 5.14783 20.1572 5.10254 20.1572 5.10254C20.0816 5.16481 20.0267 5.18746 20.0541 5.24973C20.0816 5.33465 20.1572 5.20444 20.2328 5.22708C20.2603 5.24973 20.2602 5.33465 20.2602 5.35729C20.2327 5.33465 20.1572 5.312 20.1297 5.29502C20.0816 5.29502 20.0541 5.31766 20.0266 5.34031C19.9991 5.36295 19.9511 5.31766 19.9511 5.36295C19.9511 5.3856 19.9991 5.36295 20.0266 5.3856C20.0541 5.44787 20.0266 5.55543 20.1022 5.57808V5.49316L20.1572 5.55543C20.1572 5.55543 20.1297 5.57808 20.1022 5.57808C20.0747 5.57808 20.0541 5.57808 20.0266 5.60072C19.951 5.73093 19.9236 5.85547 19.9786 5.94039C20.0267 6.02531 20.1846 6.11023 20.3633 6.13287C20.4114 6.15552 20.4664 6.15552 20.5419 6.15552C20.5694 6.28572 20.5145 6.38763 20.3839 6.45556C20.3358 6.43292 20.487 6.30837 20.4389 6.28572C20.2808 6.26308 20.3358 6.39329 20.2328 6.49519C20.1778 6.54048 20.2053 6.58011 20.1572 6.62539C20.0816 6.62539 20.0266 6.54048 19.9991 6.49519C19.951 6.41027 19.8686 6.41027 19.793 6.38763C19.7656 6.38763 19.7655 6.36498 19.7655 6.36498C19.6899 6.36498 19.6075 6.38762 19.5044 6.47254C19.4769 6.49519 19.4563 6.55746 19.4289 6.58011C19.0441 6.26308 19.1197 6.19515 18.68 5.92341C18.5013 5.81585 18.8311 6.05362 18.886 6.21779C18.7555 6.1725 18.625 6.15552 18.4464 6.21779C18.4189 6.21779 18.3983 6.28006 18.3433 6.28006C18.3639 6.2744 18.3639 6.18382 18.3639 6.16684ZM17.9516 8.11995C17.9791 8.11995 17.9791 8.0973 18.0066 8.0973C18.1097 8.05201 18.1578 8.07466 18.1853 8.13693C18.2609 8.1992 18.3158 8.26714 18.3433 8.32941C18.3708 8.35205 18.2952 8.3747 18.2952 8.39168L18.2402 8.45396C18.1646 8.40867 18.1096 8.34639 18.0341 8.30676C18.0341 8.24449 18.1372 8.28412 18.1646 8.24449C18.1921 8.20486 18.089 8.22185 18.0616 8.20486V8.18222L18.1165 8.15957C18.089 8.11995 18.0616 8.11995 18.0135 8.0973C17.986 8.11995 18.0135 8.15957 17.986 8.15957C17.9585 8.18222 17.9585 8.15957 17.9585 8.18222C17.931 8.20486 17.931 8.22751 17.9104 8.24449L17.8829 8.15957C17.876 8.14259 17.9241 8.14259 17.9516 8.11995ZM17.67 8.82193L17.7455 8.7823C17.7455 8.7823 17.7455 8.75966 17.773 8.7823L17.8005 8.80495C17.8005 8.82759 17.7455 8.86722 17.7455 8.88987C17.773 8.97478 17.8486 8.97478 17.9242 8.99743C17.9723 9.02007 17.9998 9.0597 18.1028 9.04272C18.1509 9.02007 18.2333 9.02007 18.3089 9.02007C18.2058 9.04272 18.1028 9.08235 17.9998 9.15028C17.9242 9.17292 17.8692 9.21255 17.8211 9.25784C17.7936 9.2352 17.7661 9.25784 17.7455 9.2352C17.718 9.10499 17.6699 9.02007 17.6149 8.91817C17.6149 8.88421 17.67 8.82193 17.67 8.82193ZM17.1271 13.4754C17.1271 13.4981 17.0997 13.5377 17.0722 13.5207C17.0447 13.5207 17.024 13.4981 16.9965 13.4754H17.1271ZM15.0384 15.0266C15.0659 15.0266 15.0934 15.0889 15.0934 15.1115C15.0934 15.1511 15.0659 15.1341 15.0659 15.1511H15.0384C15.0109 15.0889 15.0384 15.0266 15.0384 15.0266ZM14.0833 13.6453C14.1383 13.6 14.2414 13.6453 14.317 13.6453C14.3651 13.6453 14.4475 13.6 14.5231 13.6453C14.6261 13.6849 14.7017 13.8377 14.7017 13.9623C14.7292 14.0472 14.6742 14.1548 14.6468 14.2397L14.7017 14.285C14.6467 14.3246 14.5987 14.3076 14.5712 14.285C14.5712 14.1151 14.4956 13.8377 14.0559 13.7755C14.0559 13.7755 14.0077 13.7981 14.0077 13.7755C14.0077 13.7302 14.0283 13.6679 14.0833 13.6453ZM13.9253 14.5794C13.9528 14.4718 13.9734 14.4322 14.0284 14.4322H14.1314C14.1314 14.4548 14.1039 14.4944 14.1039 14.4944H14.1314L14.1589 14.4322C14.2345 14.4548 14.2895 14.4548 14.3925 14.4095L14.4406 14.4548C14.4406 14.4548 14.4407 14.4774 14.4132 14.4774C14.5437 14.4322 14.5437 14.4152 14.6674 14.3472C14.6674 14.4774 14.7224 14.5624 14.743 14.7096L14.6948 14.7322C14.5643 14.7945 14.4887 14.8794 14.4612 15.0096V14.987C14.4338 14.9417 14.3582 14.9247 14.3582 14.8567C14.3582 14.8341 14.4132 14.8341 14.4132 14.8341C14.4132 14.7492 14.3856 14.6643 14.3375 14.619C14.2826 14.5963 14.2345 14.5567 14.1589 14.5567C14.1314 14.5567 14.1108 14.5963 14.0833 14.5963C14.0558 14.5963 14.0559 14.6416 14.0352 14.6416C13.9803 14.6416 13.9597 14.5963 13.9322 14.5963V14.6586C13.9047 14.6586 13.8772 14.619 13.8772 14.619C13.8772 14.619 13.9253 14.602 13.9253 14.5794ZM11.8915 6.61407C11.8915 6.63672 11.9396 6.59143 11.9671 6.59143L11.9396 6.63672H11.9122C11.8847 6.63672 11.8847 6.65936 11.8847 6.65936C11.8847 6.63672 11.8572 6.61407 11.8572 6.59709L11.8915 6.61407ZM11.864 8.58982C11.9396 8.56718 12.0427 8.61247 12.1251 8.61247C12.2282 8.61247 12.3312 8.61247 12.4618 8.67474C12.3312 8.7823 12.1526 8.7823 11.8915 8.71437C11.8915 8.71437 11.816 8.71437 11.816 8.67474C11.8366 8.6521 11.864 8.58982 11.864 8.58982ZM11.5549 9.12197C11.6098 9.14462 11.6304 9.18425 11.6854 9.20689C11.6579 9.22954 11.6304 9.22954 11.6304 9.22954C11.5823 9.20689 11.4999 9.16726 11.4999 9.14462L11.5549 9.12197ZM10.2425 8.50491V8.52755C10.2425 8.52755 10.215 8.52755 10.215 8.50491H10.1876C10.2151 8.50491 10.215 8.48226 10.2425 8.48226C10.2425 8.50491 10.215 8.50491 10.2425 8.50491ZM10.6273 5.18746V5.23274C10.5724 5.2101 10.5998 5.2101 10.5723 5.17047C10.5998 5.16481 10.5998 5.16481 10.6273 5.18746ZM10.5517 4.84778V4.87043H10.5242C10.5242 4.87043 10.5517 4.87043 10.5517 4.84778ZM10.4967 4.88741V4.91006C10.4692 4.88741 10.4487 4.86477 10.4487 4.86477L10.4967 4.88741ZM10.6754 5.84415C10.6754 5.84415 10.6479 5.88944 10.6479 5.90642L10.6754 5.9687C10.5448 5.99134 10.4143 5.9687 10.3387 5.9687H10.2838C10.2563 5.94605 10.2838 5.90643 10.2838 5.88378H10.2563C10.4212 5.80452 10.5517 5.75923 10.6754 5.84415ZM10.057 2.95695L10.0845 2.91732V2.9796C10.1395 2.9796 10.2425 3.00224 10.2425 3.06451C10.2425 3.14943 10.1395 3.14943 10.112 3.14943C10.0639 3.14943 10.0638 3.12679 10.0364 3.06451C10.0364 3.01922 10.0364 2.9796 10.057 2.95695ZM9.98142 3.63629C10.0364 3.61365 10.057 3.63629 10.057 3.63629L10.0845 3.61365C10.0845 3.63629 10.112 3.67592 10.0845 3.67592C10.057 3.71555 10.0089 3.67592 9.98142 3.69857L10.0364 3.74385C10.0089 3.74385 9.9814 3.72121 9.96078 3.72121C9.96078 3.7665 9.93336 3.7665 9.93336 3.80613C9.93336 3.84576 9.9814 3.89105 9.96078 3.93634C9.96078 3.99861 9.98829 4.0439 9.98829 4.08353C10.0158 4.12882 9.96078 4.12881 9.96078 4.1458C9.90582 4.1458 9.72721 4.12315 9.65163 4.03824C9.62415 4.01559 9.57606 3.99861 9.57606 3.97596C9.64477 3.8684 9.80277 3.72121 9.98142 3.63629ZM9.12944 4.48547H9.18437L9.15695 4.53076H9.20501C9.20501 4.5534 9.15692 4.53076 9.12944 4.53076V4.48547Z" fill="white"/>
<path d="M27.2812 13.7188C27.2892 13.7252 27.2892 13.7252 27.2892 13.7316C27.2892 13.7316 27.2892 13.7252 27.2812 13.7188Z" fill="white"/>
<path d="M28.8875 2.9337C28.9394 2.95608 28.9394 2.91132 28.969 2.89453C28.9097 2.89453 28.8579 2.91132 28.8875 2.9337Z" fill="white"/>
<path d="M25.7141 4.9087C25.7141 5.27101 25.769 5.65031 25.769 6.01263C25.769 6.39759 25.7141 6.75424 25.7141 7.11656C25.7141 7.50152 25.769 7.85817 25.769 8.24313C25.769 8.60544 25.7416 8.98474 25.7416 9.34706C25.7416 9.73202 25.7141 10.0887 25.7141 10.4736C25.7141 10.8133 25.7896 11.153 25.7896 11.4926C25.7896 11.8323 25.7621 12.172 25.7621 12.5117V13.5307C25.7621 13.9779 25.7347 13.9779 25.7347 14.4025C25.7347 14.8497 25.8103 14.8497 25.8103 15.2743C25.8103 15.5064 25.7622 15.7612 25.8103 16.0159C25.8859 16.4009 26.147 16.6103 26.6073 16.6726C26.7379 16.6953 26.8889 16.7179 27.047 16.7179C27.4317 16.7179 27.8441 16.7406 28.2357 16.7406C28.4693 16.7406 28.7235 16.7179 28.9846 16.7179C29.1151 16.7179 29.2388 16.6726 29.3488 16.6726C29.9397 16.6103 30.2763 16.3726 30.3519 15.9084C30.3794 15.7612 30.2969 15.5913 30.2969 15.4385C30.2969 15.3989 30.2694 15.3989 30.2694 15.3536C30.2694 14.9913 30.2419 14.6289 30.2419 14.2723C30.2419 13.91 30.2694 13.5477 30.2694 13.191C30.2694 12.8513 30.3244 12.489 30.3244 12.1267V11.0454V9.96979L30.2694 8.67338C30.2694 8.62809 30.2969 8.62809 30.2969 8.58846C30.2969 8.16387 30.3519 8.16387 30.3519 7.73928C30.3519 7.26941 30.2488 7.26941 30.2488 6.80519C30.2488 6.33531 30.3519 6.33531 30.3519 5.8711C30.3519 5.40122 30.2488 5.40122 30.2488 4.937C30.2488 4.57469 30.3519 4.23502 30.3519 3.8727C30.3519 3.53303 30.2969 3.19336 30.2969 2.83105C30.2969 2.49138 30.3725 2.12906 30.3725 1.78939C30.3725 1.55728 30.2969 1.31951 30.1939 1.0874C30.0633 0.810006 29.8572 0.702444 29.4999 0.662816C28.9571 0.577898 28.3937 0.515625 27.8234 0.515625C27.4111 0.53827 27.0264 0.600543 26.6623 0.623187C26.1195 0.68546 25.8652 0.838312 25.7621 1.30253C25.7347 1.49501 25.7072 1.68749 25.7072 1.85732C25.7072 2.15737 25.7828 2.47439 25.7828 2.83671C25.7828 3.13675 25.6797 3.45377 25.6797 3.79345C25.6866 4.16708 25.7141 4.5294 25.7141 4.9087ZM29.8434 3.04051C29.8434 3.04051 29.8435 3.01786 29.871 3.01786V3.08014C29.871 3.10278 29.8159 3.10278 29.8159 3.10278C29.7885 3.08014 29.8641 3.06315 29.8434 3.04051ZM27.0264 14.4931C26.9715 14.4704 27.0264 14.4704 27.0264 14.4478C27.0539 14.4251 27.0264 14.4025 27.102 14.3855C27.1089 14.4534 27.0814 14.4534 27.0264 14.4931ZM27.4662 7.90912C27.4181 7.95441 27.363 8.01668 27.2325 8.01668C27.205 8.01668 27.205 7.99404 27.1776 7.99404C27.1295 7.97139 27.1019 7.93176 27.047 7.90912L27.0195 7.88648C27.1844 7.84119 27.315 7.88648 27.4662 7.90912ZM27.0539 6.37494C27.0813 6.3523 27.0814 6.37494 27.102 6.37494C27.0814 6.39759 27.0539 6.37494 27.0539 6.37494ZM27.2325 7.16185H27.1776V7.1392V7.11656C27.1776 7.09391 27.2325 7.09391 27.2325 7.07693V7.05428C27.26 7.07693 27.1776 7.1392 27.1776 7.1392L27.2325 7.16185ZM27.5692 14.5553C27.5966 14.6403 27.4936 14.6403 27.3905 14.7252C27.363 14.7478 27.3906 14.7648 27.3631 14.7874C27.3631 14.7874 27.3356 14.8101 27.3149 14.8101C27.3149 14.7874 27.3424 14.7025 27.3149 14.6799C27.3149 14.6572 27.26 14.6572 27.2394 14.6403C27.2119 14.578 27.2119 14.5327 27.1638 14.5101C27.1913 14.3855 27.1913 14.4025 27.2944 14.2949C27.2944 14.2949 27.3219 14.3176 27.3493 14.3176C27.3219 14.2949 27.3493 14.3176 27.3493 14.2949C27.3768 14.2723 27.2944 14.2723 27.2944 14.2723C27.37 14.1647 27.4523 14.1251 27.473 14.0175C27.5485 13.9949 27.5486 13.9722 27.6036 14.0175L27.5554 14.0628C27.5211 14.2157 27.5211 14.3855 27.5692 14.5553ZM27.2875 13.7288C27.2875 13.7288 27.26 13.7288 27.26 13.7062V13.6609C27.1569 13.5986 27.0814 13.5986 27.1089 13.576C27.1089 13.576 27.2119 13.5986 27.26 13.5986C27.315 13.5986 27.3905 13.5363 27.418 13.5363C27.5486 13.6439 27.5967 13.7684 27.5967 13.8986C27.3631 13.9213 27.4455 13.8137 27.2875 13.7288ZM27.954 14.9629C27.9815 14.9629 27.9815 14.9856 27.9815 14.9856L27.954 14.9629ZM28.6822 4.22936C28.6822 4.252 28.6273 4.252 28.6067 4.26898C28.5792 4.31427 28.5792 4.3539 28.5792 4.37655C28.5518 4.37655 28.5517 4.3539 28.5242 4.33126L28.3181 4.22369C28.3937 4.20105 28.4693 4.13878 28.5517 4.09349V4.13312C28.6823 4.02555 28.6273 3.98593 28.7853 3.90101C28.7303 4.01989 28.7028 4.12179 28.6822 4.22936ZM29.2182 4.6313C29.1701 4.6313 29.1701 4.54638 29.1426 4.52374C29.1151 4.50109 29.0121 4.50109 29.0121 4.47845C29.0121 4.47845 29.0877 4.4558 29.0877 4.43316C29.1358 4.47845 29.1907 4.51808 29.2663 4.54072C29.2938 4.56337 29.2388 4.54072 29.2388 4.54072C29.2457 4.56903 29.2731 4.6313 29.2182 4.6313ZM28.112 1.91394V1.85166C28.2425 1.91394 28.3456 1.99885 28.4762 1.99885C28.5517 1.99885 28.6273 1.97621 28.6822 1.97621C28.6548 1.99885 28.6548 2.06113 28.6273 2.08377C28.4968 2.12906 28.3936 2.12906 28.2425 2.12906V2.08377C28.215 2.08377 28.1395 2.14604 28.112 2.12906C28.0639 2.10642 28.112 1.99885 28.112 1.91394ZM27.954 2.74047C28.0295 2.70084 28.112 2.65555 28.1876 2.65555C28.1601 2.67819 28.1876 2.74047 28.1876 2.78576H28.2357C28.2357 2.8084 28.2082 2.78576 28.2082 2.8084C28.1807 2.8084 28.2357 2.83105 28.2082 2.83105C28.1326 2.85369 28.0502 2.85369 27.9746 2.87634C27.9265 2.89898 27.8715 2.93861 27.844 3.00654C27.844 3.02919 27.8165 3.09146 27.844 3.13109C27.8715 3.19336 28.0226 3.21601 28.0776 3.21601C28.1051 3.21601 28.1532 3.17072 28.2082 3.17072C28.1326 3.27828 28.0295 3.30092 27.844 3.25563C27.741 3.25563 27.6654 3.25563 27.5349 3.27828C27.5623 3.10844 27.5623 3.0858 27.6654 2.93861C27.7478 2.87067 27.9059 2.84803 27.954 2.74047ZM27.4936 3.06315C27.5486 3.04051 27.5486 3.00088 27.5692 2.97824C27.5417 3.12543 27.5692 3.14807 27.418 3.23299C27.3905 3.16506 27.4455 3.10278 27.4936 3.06315ZM27.3631 3.65758C27.3906 3.63493 27.3631 3.70287 27.418 3.71985C27.5692 3.82741 27.5211 3.9746 27.6998 3.9746C27.8509 3.9746 27.6997 3.8444 27.6447 3.71985C27.6447 3.74249 27.6722 3.74249 27.6722 3.74249C27.8303 3.71985 27.954 3.68022 28.112 3.65758V3.61229C28.215 3.58964 28.3456 3.61229 28.4762 3.58964C28.5517 3.567 28.5792 3.45944 28.6067 3.41981C28.6341 3.35754 28.6342 3.2896 28.5792 3.20468C28.5518 3.14241 28.5036 3.05749 28.428 3.0122C28.4761 2.94993 28.5792 3.0122 28.5792 2.92729C28.5518 2.86501 28.5243 2.94993 28.4762 2.94993C28.4281 2.94993 28.4761 2.92729 28.5036 2.90464C28.5036 2.90464 28.5311 2.90464 28.5311 2.882V2.85935C28.5311 2.81406 28.5586 2.79708 28.5311 2.77443C28.5311 2.75179 28.5036 2.79708 28.483 2.79708C28.4349 2.79708 28.4074 2.84237 28.38 2.81972H28.4075C28.38 2.79708 28.3799 2.79708 28.3524 2.79708V2.77443C28.3044 2.72914 28.325 2.64423 28.2769 2.62724H28.3524C28.6342 2.66687 28.6892 2.64989 28.9228 2.58195C28.9228 2.68952 28.9227 2.77443 28.9777 2.85935V2.882H29.0258C29.0807 2.94427 29.1014 3.0122 29.1289 3.07448C29.1563 3.09712 29.1289 3.13675 29.1289 3.18204C29.1838 3.22167 29.3075 3.22167 29.3624 3.2896C29.3899 3.33489 29.335 3.41981 29.3899 3.45944L29.4381 3.50473C29.177 3.55001 28.9708 3.567 28.8678 3.69721C28.7372 3.75948 28.7647 3.80477 28.6342 3.8444C28.5861 3.80477 28.5311 3.71419 28.4555 3.73683C28.325 3.73683 28.2219 3.79911 28.0433 3.8444C27.9883 3.8444 27.9883 3.90667 27.9677 3.95196C27.9402 3.99725 27.8647 4.03688 27.8922 4.0765C27.9196 4.11613 28.0227 4.16142 28.1257 4.16142L28.1533 4.18407C28.1258 4.18407 28.0777 4.24634 28.0502 4.24634C27.8166 4.22369 27.5829 4.03121 27.4318 3.88402C27.3631 3.82741 27.3425 3.7425 27.3631 3.65758ZM27.4936 4.76151C27.4661 4.84642 27.4661 4.9087 27.418 4.97663L27.3905 4.82944L27.4662 4.78981C27.4937 4.73886 27.4661 4.73886 27.4936 4.76151ZM27.5211 5.6956C27.4661 5.75787 27.3906 5.82581 27.3425 5.86544C27.3906 5.80316 27.4661 5.74089 27.5211 5.6956ZM27.0814 2.0215C27.1088 1.95922 27.1844 1.95922 27.26 1.93658C27.26 1.99885 27.2119 2.0215 27.1844 2.04414C27.1363 2.08377 27.1088 2.1517 27.0814 2.1517C27.0814 2.12906 27.0539 2.08377 27.0814 2.0215ZM26.9027 2.55365C26.9577 2.531 27.0058 2.61592 27.0607 2.61592C27.0882 2.61592 27.1913 2.55365 27.2119 2.59328C27.2119 2.59328 27.1363 2.59328 27.1638 2.61592C27.1363 2.61592 27.1363 2.66121 27.1363 2.66121C27.0813 2.63857 26.9783 2.61592 26.9302 2.63857C26.9027 2.59328 26.8752 2.55365 26.9027 2.55365Z" fill="white"/>
<path d="M27.2617 13.707C27.2698 13.707 27.2779 13.7136 27.2779 13.7136C27.2698 13.7136 27.2617 13.707 27.2617 13.707Z" fill="white"/>
<path d="M47.3516 5.25V5.2761L47.3878 5.25H47.3516Z" fill="white"/>
<path d="M32.1102 1.91529C32.2682 2.23232 32.392 2.55501 32.5225 2.87203C32.6737 3.18906 32.7561 3.52873 32.8866 3.85142C33.0447 4.16844 33.2233 4.49113 33.3539 4.80816C33.4844 5.08555 33.4844 5.37994 33.615 5.65733C33.718 5.93473 33.9242 6.18948 34.0547 6.46688L34.5219 7.54817C34.6799 7.91048 34.7555 8.28978 34.8861 8.6521C35.0372 9.01441 35.2227 9.37673 35.3739 9.73338C35.5044 10.0731 35.6282 10.4127 35.7862 10.7524C35.9168 11.0921 36.0473 11.4317 36.1984 11.7714C36.329 12.1111 36.4802 12.4507 36.6382 12.7904C36.7687 13.1301 36.9748 13.4471 37.126 13.7868C37.2565 14.1491 37.3321 14.5114 37.4627 14.8511C37.6413 15.2757 37.8749 15.6153 38.0329 15.955C38.239 16.4249 38.6513 16.6344 39.2422 16.6344C39.2697 16.6344 39.2697 16.657 39.2697 16.657H40.4034C40.637 16.657 40.637 16.6344 40.8912 16.6344C41.1455 16.6344 41.1455 16.6796 41.4066 16.6796C41.7913 16.6796 42.183 16.657 42.5678 16.657H42.5952C43.3167 16.657 43.7564 16.3796 43.9625 15.8078C44.1205 15.4059 44.3748 15.0436 44.5329 14.6416C44.6084 14.4718 44.6359 14.2567 44.6909 14.0868C44.9245 13.5547 44.897 13.5547 45.1031 13.0225C45.3367 12.4904 45.3848 12.513 45.6184 11.9809C45.8245 11.4487 45.7765 11.4487 46.0032 10.9166C46.2094 10.3844 46.2643 10.4071 46.491 9.87491C46.6972 9.34276 46.7247 9.34276 46.9583 8.83325C47.1644 8.3011 47.0614 8.27846 47.295 7.75197C47.5011 7.21982 47.5766 7.24246 47.7828 6.71031C47.9889 6.17816 48.037 6.20081 48.2706 5.66866C48.4767 5.1365 48.4218 5.11386 48.6554 4.60435C48.7859 4.30431 48.889 4.00993 49.0196 3.70989C49.1226 3.40985 49.2257 3.11546 49.3562 2.81542C49.4868 2.51538 49.6379 2.24364 49.7685 1.9436C49.8441 1.75112 49.8715 1.51901 49.9265 1.30389C50.0021 0.941572 49.8509 0.686819 49.4112 0.601901L49.1501 0.539628C48.6829 0.516983 48.2225 0.539628 47.7278 0.539628C47.2606 0.539628 46.8002 0.579256 46.3124 0.624546C46.2643 0.624546 46.2369 0.562273 46.1819 0.584918C46.1544 0.584918 46.1544 0.64719 46.1337 0.64719C45.7696 0.69248 45.4879 0.817026 45.3367 1.11707C45.2336 1.2869 45.1031 1.43409 45.0275 1.60393C44.9245 1.88133 44.8489 2.17571 44.7458 2.45311C44.6153 2.75315 44.5123 3.02489 44.3817 3.30228C44.3542 3.34191 44.3061 3.32493 44.2786 3.3872C44.1275 3.74952 43.9969 4.11183 43.8389 4.46849C43.7083 4.8308 43.6052 5.2101 43.4541 5.57242C43.296 5.93473 43.1724 6.29705 43.0143 6.6537L42.5471 7.73499C42.3891 8.0973 42.2654 8.45962 42.1074 8.81627C41.9769 9.17859 41.7432 9.51826 41.5921 9.88057C41.5165 10.0731 41.489 10.3052 41.331 10.4976C41.2279 10.6278 41.0493 10.6675 40.9187 10.6675C40.8157 10.6675 40.6851 10.6052 40.5821 10.4524C40.4309 10.2372 40.3484 10.0051 40.2728 9.77301C40.0667 9.30313 39.9912 9.32578 39.8057 8.86156C39.6545 8.49925 39.5446 8.13693 39.3934 7.78028C39.2423 7.41796 39.1117 7.05564 38.9811 6.69899C38.8299 6.33668 38.6995 5.97436 38.5414 5.6177C38.4109 5.25539 38.1566 4.91572 37.9986 4.5534C37.8681 4.21373 37.7925 3.82877 37.6344 3.47212C37.4558 3.04753 37.2222 2.62294 37.0436 2.19835C36.913 1.88133 36.8099 1.55864 36.6587 1.21897C36.5076 0.856654 36.1435 0.686819 35.6762 0.624546C35.6488 0.624546 35.6488 0.562273 35.6007 0.539628C35.4701 0.539628 35.3395 0.516983 35.2159 0.516983C34.8586 0.516983 34.5219 0.562273 34.1852 0.562273C33.8486 0.562273 33.4913 0.5 33.1546 0.5C32.921 0.5 32.6874 0.562273 32.4332 0.624546C32.0965 0.686819 31.9659 0.856654 31.9453 1.1567C31.9453 1.41145 32.0484 1.64356 32.1515 1.88133C32.1377 1.89265 32.1102 1.89265 32.1102 1.91529ZM44.258 8.94648C44.3336 8.92383 44.3886 8.86156 44.4366 8.83891C44.5672 8.79363 44.7183 8.86156 44.8214 8.8842C44.6427 8.8842 44.4366 8.90685 44.258 8.94648ZM44.2855 6.84618L44.3129 6.82354C44.3129 6.82354 44.3404 6.82354 44.3404 6.80089V6.82354C44.3061 6.82354 44.2855 6.84618 44.2855 6.84618ZM44.3611 6.78391C44.4092 6.76126 44.4366 6.73862 44.4916 6.76126C44.5191 6.76126 44.5191 6.80089 44.5191 6.78391C44.5191 6.80655 44.5191 6.78391 44.4916 6.78391C44.4641 6.78391 44.4366 6.80655 44.416 6.80655C44.3885 6.80089 44.3886 6.80089 44.3611 6.78391ZM45.3367 7.86519C45.0275 7.8199 44.7459 7.718 44.4573 7.67271H44.4847C44.4847 7.65007 44.4573 7.62742 44.4573 7.62742C44.5329 7.58213 44.6359 7.54251 44.7389 7.54251C44.842 7.54251 45.0207 7.5878 45.1237 7.49722L45.1512 7.45193C45.1787 7.47457 45.1787 7.5142 45.1787 7.5142C45.2062 7.53684 45.1787 7.57647 45.1787 7.59912C45.2336 7.66139 45.3367 7.70668 45.3848 7.76895C45.4192 7.80292 45.3642 7.86519 45.3367 7.86519ZM46.7041 5.82717C46.6491 5.88944 46.5735 5.95171 46.4979 5.97436V5.84415C46.4979 5.82151 46.5254 5.79886 46.5254 5.78188C46.4979 5.71961 46.4704 5.71961 46.4979 5.71961C46.5254 5.69696 46.546 5.71961 46.546 5.71961C46.6009 5.71961 46.6491 5.69696 46.7041 5.74225C46.7316 5.74225 46.7796 5.7649 46.7796 5.78754C46.7865 5.80452 46.7316 5.80452 46.7041 5.82717ZM46.2162 4.78551C46.1406 4.76287 46.0582 4.78551 46.0101 4.72324C46.0582 4.61568 46.2162 4.5534 46.3742 4.5534C46.4017 4.5534 46.4292 4.53076 46.4292 4.53076C46.4773 4.59303 46.4773 4.66097 46.5323 4.72324C46.5323 4.74588 46.5048 4.76853 46.5048 4.76853C46.5048 4.76853 46.5323 4.79117 46.5323 4.81382C46.4292 4.81382 46.4292 4.76853 46.3261 4.76853V4.74588C46.2712 4.74022 46.2712 4.78551 46.2162 4.78551ZM47.3499 5.29502V5.27237H47.3224C47.3224 5.24973 47.3224 5.24973 47.3499 5.24973C47.3224 5.24973 47.3499 5.22708 47.3224 5.20444C47.3499 5.20444 47.3499 5.22708 47.3499 5.22708C47.3499 5.24973 47.3774 5.24973 47.4048 5.24973L47.3499 5.29502ZM47.1713 4.44584C47.2193 4.40055 47.2744 4.33828 47.3018 4.3213H47.3774C47.4049 4.3213 47.4529 4.3213 47.4804 4.34394C47.3773 4.36092 47.2743 4.4232 47.1713 4.44584ZM47.5561 3.95332C47.5286 3.95332 47.5079 3.93067 47.4804 3.93067C47.4254 3.93067 47.4049 3.90803 47.3499 3.90803C47.3018 3.88538 47.2194 3.90803 47.1988 3.88538C47.2469 3.86274 47.3499 3.84009 47.4324 3.86274C47.4873 3.86274 47.4873 3.92501 47.5354 3.92501C47.5354 3.92501 47.5904 3.87972 47.5904 3.90237C47.5835 3.91369 47.5561 3.93634 47.5561 3.95332ZM48.0232 3.51175L48.0783 3.44947L48.0507 3.4891C48.0507 3.53439 47.9752 3.53439 47.9477 3.55138C47.8721 3.57402 47.8171 3.57402 47.769 3.50609C47.8446 3.50609 47.9202 3.44381 47.9752 3.44381C47.9958 3.44381 47.9958 3.51175 48.0232 3.51175ZM47.0201 1.59827C47.0476 1.59827 47.0201 1.536 47.0476 1.536C47.0751 1.51335 47.0751 1.51335 47.1026 1.51335C47.1781 1.46806 47.2812 1.45108 47.3843 1.45108C47.3843 1.42843 47.4324 1.42843 47.4324 1.42843C47.4324 1.45108 47.3843 1.49071 47.3843 1.51335C47.3843 1.51335 47.4598 1.55864 47.4324 1.55864C47.4324 1.58128 47.3843 1.55864 47.3843 1.58128C47.3293 1.6662 47.3293 1.72848 47.3568 1.77377C47.3843 1.81339 47.4324 1.90397 47.5354 1.92096C47.611 1.9436 47.6934 1.92096 47.7415 1.9436C47.8171 1.9436 47.8996 1.9436 47.9752 1.96625L48.0026 2.05116C48.0026 2.07381 48.0301 2.13608 47.9477 2.19835L47.8996 2.17571C47.824 2.09079 47.721 2.00587 47.5629 1.98323C47.4874 1.96058 47.4598 1.98323 47.4117 1.96058C47.2812 1.89831 47.1507 1.83038 47.0476 1.7681C46.972 1.72281 46.972 1.68319 46.972 1.64356C46.9651 1.61525 46.9102 1.61525 47.0201 1.59827ZM46.8895 2.72484C46.8895 2.7022 46.8895 2.7022 46.917 2.7022C46.9445 2.59464 47.0476 2.53236 47.1506 2.47009C47.2056 2.44745 47.2812 2.47009 47.3293 2.44745C47.4598 2.38517 47.5355 2.30025 47.5629 2.23798V2.19269C47.611 2.23798 47.7141 2.27761 47.769 2.30025C47.7141 2.34554 47.5629 2.36253 47.4873 2.38517C47.4117 2.40782 47.3842 2.49273 47.3086 2.51538C47.2812 2.53802 47.1781 2.56067 47.1781 2.62294C47.2056 2.77013 47.3568 2.79278 47.4117 2.77013L47.4392 2.72484V2.77013C47.3636 2.80976 47.2056 2.80976 47.1026 2.85505C47.0751 2.85505 47.0751 2.87769 47.0476 2.90034C46.9446 2.93997 46.917 2.96261 46.8964 2.93997C46.8346 2.89468 46.8346 2.80976 46.8895 2.72484ZM46.601 2.25497C46.601 2.31724 46.649 2.38517 46.6284 2.40216C46.6009 2.44745 46.4498 2.44745 46.3468 2.46443H46.3193C46.4773 2.38517 46.4498 2.33988 46.601 2.25497ZM45.6528 2.50972C45.7834 2.53236 45.9139 2.46443 46.0375 2.48707C46.0856 2.48707 46.0857 2.53236 46.1406 2.54935C46.0857 2.57199 46.0651 2.63426 46.0101 2.61162C45.8315 2.61162 45.6734 2.58897 45.5429 2.5267L45.6528 2.50972ZM45.4466 2.93431C45.7558 2.87203 46.017 2.93431 46.2437 3.0815C46.2712 3.10414 46.3193 3.10414 46.3193 3.10414L46.2437 3.14943C46.1681 3.12679 46.1406 3.06451 46.065 3.04187C45.9345 2.9796 45.7833 3.00224 45.6253 3.00224C45.5497 3.00224 45.4947 2.95695 45.4191 2.9796V2.95695H45.3711C45.3917 2.93431 45.4466 2.93431 45.4466 2.93431ZM45.4948 4.48547C45.4948 4.46282 45.4191 4.48547 45.4191 4.44018C45.4191 4.41754 45.4948 4.44018 45.4948 4.39489C45.4467 4.33262 45.4673 4.28733 45.4673 4.28733C45.5154 4.22505 45.6459 4.22506 45.7009 4.15712C45.7764 4.04956 45.8314 3.87972 45.962 3.81745C45.9895 3.79481 46.0375 3.86274 46.0375 3.81745C46.065 3.77216 46.0376 3.79481 46.0101 3.75518C45.9345 3.64762 45.8315 3.5627 45.7559 3.52307C45.7284 3.52307 45.6803 3.58534 45.6528 3.56836C45.6253 3.56836 45.5979 3.52307 45.5772 3.52307C45.5772 3.50042 45.5772 3.4608 45.6047 3.43815C45.6322 3.43815 45.6803 3.47778 45.7077 3.47778C45.7077 3.47778 45.6803 3.43815 45.7077 3.43815C46.3261 3.41551 46.8415 3.37588 47.2812 3.22303C47.3293 3.20038 47.4599 3.16075 47.5354 3.20038C47.5629 3.24567 47.5079 3.30794 47.4873 3.37022C47.2812 3.43249 47.0751 3.51741 46.8415 3.51741C46.7659 3.54005 46.7109 3.47212 46.6353 3.47212C46.4773 3.49476 46.4017 3.57968 46.3742 3.68724C46.3467 3.79481 46.4499 3.85708 46.5323 3.87972C46.6079 3.92501 46.6628 3.942 46.6628 4.02691L46.6903 4.24204C46.6903 4.26468 46.6148 4.28733 46.6148 4.32696C46.6148 4.3496 46.6628 4.41187 46.6628 4.43452C46.6353 4.43452 46.5598 4.38923 46.5117 4.38923C46.5117 4.3496 46.5597 4.30431 46.5391 4.26468C46.5391 4.20241 46.436 4.17977 46.3811 4.13448C46.333 4.11183 46.278 4.11183 46.2024 4.13448C45.9688 4.17977 45.6872 4.21939 45.5841 4.43452C45.5085 4.58171 45.4535 4.68927 45.2749 4.73456C45.3161 4.63266 45.3642 4.57039 45.4948 4.48547ZM44.2855 5.52713C44.258 5.57242 44.258 5.5894 44.258 5.63469C44.2305 5.57242 44.2305 5.57242 44.2855 5.52713ZM44.1549 6.16684C44.2099 6.14419 44.2305 6.1442 44.258 6.12155C44.3336 6.03663 44.3335 5.95171 44.3061 5.88944C44.4091 5.8668 44.5672 5.88944 44.6428 5.82717C44.7459 5.71961 44.7939 5.59506 44.9038 5.4875C45.0069 5.42522 45.1375 5.36295 45.2131 5.29502C45.3917 5.12518 45.6253 5.01762 45.8589 4.89307C45.8864 4.87043 45.907 4.89307 45.962 4.87043C46.065 4.89307 46.0651 4.87043 46.1681 4.89307C46.1956 4.89307 46.1681 4.87043 46.1956 4.87043C46.223 4.89307 46.1475 4.9327 46.1681 4.95535C46.2231 4.97799 46.2437 4.97799 46.2986 4.97799V4.89307C46.3742 4.89307 46.3742 4.91572 46.4498 4.95535C46.4773 4.97799 46.4773 4.97799 46.4773 5.01762C46.4498 5.06291 46.4292 5.04026 46.4017 5.04026C46.2506 5.06291 46.2505 5.14783 46.12 5.12518C46.065 5.12518 46.0925 5.00064 46.065 5.01762C45.9895 5.01762 46.0169 5.06291 45.962 5.10254L45.9895 5.14783C45.962 5.14783 45.9413 5.10254 45.9413 5.10254C45.8658 5.16481 45.8109 5.18746 45.8383 5.24973C45.8658 5.33465 45.9414 5.20444 46.017 5.22708C46.0445 5.24973 46.0444 5.33465 46.0444 5.35729C46.0169 5.33465 45.9414 5.312 45.9139 5.29502C45.8658 5.29502 45.8383 5.31766 45.8108 5.34031C45.7833 5.36295 45.7353 5.31766 45.7353 5.36295C45.7353 5.3856 45.7833 5.36295 45.8108 5.3856C45.8383 5.44787 45.8108 5.55543 45.8864 5.57808V5.49316L45.9413 5.55543C45.9413 5.55543 45.9139 5.57808 45.8864 5.57808C45.8589 5.57808 45.8383 5.57808 45.8108 5.60072C45.7352 5.73093 45.7077 5.85547 45.7627 5.94039C45.8108 6.02531 45.9689 6.11023 46.1475 6.13287C46.1956 6.15552 46.2506 6.15552 46.3261 6.15552C46.3536 6.28572 46.2987 6.38763 46.1681 6.45556C46.12 6.43292 46.2712 6.30837 46.2231 6.28572C46.065 6.26308 46.1201 6.39329 46.017 6.49519C45.9689 6.54048 45.9894 6.58011 45.9413 6.62539C45.8658 6.62539 45.8108 6.54048 45.7833 6.49519C45.7352 6.41027 45.6528 6.41027 45.5772 6.38763C45.5498 6.38763 45.5497 6.36498 45.5497 6.36498C45.4741 6.36498 45.3917 6.38762 45.2886 6.47254C45.2611 6.49519 45.2405 6.55746 45.2131 6.58011C44.8283 6.26308 44.9039 6.19515 44.4642 5.92341C44.2855 5.81585 44.6153 6.05362 44.6702 6.21779C44.5397 6.1725 44.4091 6.15552 44.2305 6.21779C44.203 6.21779 44.1825 6.28006 44.1275 6.28006C44.155 6.2744 44.1549 6.18382 44.1549 6.16684ZM43.7427 8.11995C43.7702 8.11995 43.7701 8.0973 43.7976 8.0973C43.9007 8.05201 43.9488 8.07466 43.9763 8.13693C44.0518 8.1992 44.1069 8.26714 44.1275 8.32941C44.155 8.35205 44.0793 8.3747 44.0793 8.39168L44.0244 8.45396C43.9488 8.40867 43.8938 8.34639 43.8182 8.30676C43.8182 8.24449 43.9214 8.28412 43.9488 8.24449C43.9763 8.20486 43.8732 8.22185 43.8458 8.20486V8.18222L43.9007 8.15957C43.8732 8.11995 43.8457 8.11995 43.7976 8.0973C43.7701 8.11995 43.7977 8.15957 43.7702 8.15957C43.7427 8.18222 43.7427 8.15957 43.7427 8.18222C43.7152 8.20486 43.7152 8.22751 43.6946 8.24449L43.6671 8.15957C43.6602 8.14259 43.7152 8.14259 43.7427 8.11995ZM43.4541 8.82193L43.5296 8.7823C43.5296 8.7823 43.5297 8.75966 43.5572 8.7823L43.5847 8.80495C43.5847 8.82759 43.5296 8.86722 43.5296 8.88987C43.5571 8.97478 43.6327 8.97478 43.7083 8.99743C43.7564 9.02007 43.7839 9.0597 43.8869 9.04272C43.935 9.02007 44.0175 9.02007 44.0931 9.02007C43.99 9.04272 43.887 9.08235 43.7839 9.15028C43.7084 9.17292 43.6534 9.21255 43.6053 9.25784C43.5778 9.2352 43.5503 9.25784 43.5296 9.2352C43.5022 9.10499 43.4541 9.02007 43.3991 8.91817C43.406 8.88421 43.4541 8.82193 43.4541 8.82193ZM42.9182 13.4754C42.9182 13.4981 42.8907 13.5377 42.8632 13.5207C42.8357 13.5207 42.8151 13.4981 42.7876 13.4754H42.9182ZM40.8294 15.0266C40.8569 15.0266 40.8844 15.0889 40.8844 15.1115C40.8844 15.1511 40.8569 15.1341 40.8569 15.1511H40.8294C40.8019 15.0889 40.8294 15.0266 40.8294 15.0266ZM39.8744 13.6453C39.9293 13.6 40.0324 13.6453 40.1079 13.6453C40.156 13.6453 40.2385 13.6 40.3141 13.6453C40.4172 13.6849 40.4928 13.8377 40.4928 13.9623C40.5202 14.0472 40.4652 14.1548 40.4377 14.2397L40.4928 14.285C40.4378 14.3246 40.3896 14.3076 40.3622 14.285C40.3622 14.1151 40.2866 13.8377 39.8468 13.7755C39.8468 13.7755 39.7988 13.7981 39.7988 13.7755C39.7919 13.7302 39.8194 13.6679 39.8744 13.6453ZM39.7163 14.5794C39.7438 14.4718 39.7645 14.4322 39.8194 14.4322H39.9224C39.9224 14.4548 39.895 14.4944 39.895 14.4944H39.9224L39.9499 14.4322C40.0255 14.4548 40.0805 14.4548 40.1835 14.4095L40.2317 14.4548C40.2317 14.4548 40.2316 14.4774 40.2041 14.4774C40.3347 14.4322 40.3347 14.4152 40.4584 14.3472C40.4584 14.4774 40.5133 14.5624 40.5339 14.7096L40.4859 14.7322C40.3553 14.7945 40.2798 14.8794 40.2523 15.0096V14.987C40.2248 14.9417 40.1492 14.9247 40.1492 14.8567C40.1492 14.8341 40.2041 14.8341 40.2041 14.8341C40.2041 14.7492 40.1767 14.6643 40.1286 14.619C40.0736 14.5963 40.0255 14.5567 39.9499 14.5567C39.9224 14.5567 39.9018 14.5963 39.8744 14.5963C39.8469 14.5963 39.8469 14.6416 39.8263 14.6416C39.7713 14.6416 39.7507 14.5963 39.7232 14.5963V14.6586C39.6957 14.6586 39.6682 14.619 39.6682 14.619C39.6682 14.619 39.7163 14.602 39.7163 14.5794ZM37.6826 6.61407C37.6826 6.63672 37.7307 6.59143 37.7582 6.59143L37.7306 6.63672H37.7031C37.6756 6.63672 37.6757 6.65936 37.6757 6.65936C37.6757 6.63672 37.6482 6.61407 37.6482 6.59709L37.6826 6.61407ZM37.6551 8.58982C37.7307 8.56718 37.8337 8.61247 37.9162 8.61247C38.0192 8.61247 38.1223 8.61247 38.2528 8.67474C38.1223 8.7823 37.9437 8.7823 37.6826 8.71437C37.6826 8.71437 37.6069 8.71437 37.6069 8.67474C37.6275 8.6521 37.6551 8.58982 37.6551 8.58982ZM37.3458 9.12197C37.4008 9.14462 37.4215 9.18425 37.4764 9.20689C37.4489 9.22954 37.4215 9.22954 37.4215 9.22954C37.3734 9.20689 37.2909 9.16726 37.2909 9.14462L37.3458 9.12197ZM36.0267 8.50491V8.52755C36.0267 8.52755 35.9992 8.52755 35.9992 8.50491H35.9717C35.9991 8.50491 35.9992 8.48226 36.0267 8.48226C36.0267 8.50491 36.0061 8.50491 36.0267 8.50491ZM36.4183 5.18746V5.23274C36.3633 5.2101 36.3908 5.2101 36.3633 5.17047C36.3908 5.16481 36.3908 5.16481 36.4183 5.18746ZM36.3358 4.84778V4.87043H36.3084C36.3153 4.87043 36.3358 4.87043 36.3358 4.84778ZM36.2878 4.88741V4.91006C36.2603 4.88741 36.2396 4.86477 36.2396 4.86477L36.2878 4.88741ZM36.4664 5.84415C36.4664 5.84415 36.4389 5.88944 36.4389 5.90642L36.4664 5.9687C36.3359 5.99134 36.2053 5.9687 36.1298 5.9687H36.0747C36.0472 5.94605 36.0747 5.90643 36.0747 5.88378H36.0473C36.2122 5.80452 36.3359 5.75923 36.4664 5.84415ZM35.848 2.95695L35.8755 2.91732V2.9796C35.9305 2.9796 36.0335 3.00224 36.0335 3.06451C36.0335 3.14943 35.9304 3.14943 35.903 3.14943C35.8549 3.14943 35.8549 3.12679 35.8274 3.06451C35.8205 3.01922 35.8205 2.9796 35.848 2.95695ZM35.7725 3.63629C35.8274 3.61365 35.848 3.63629 35.848 3.63629L35.8755 3.61365C35.8755 3.63629 35.903 3.67592 35.8755 3.67592C35.848 3.71555 35.7999 3.67592 35.7725 3.69857L35.8274 3.74385C35.7999 3.74385 35.7724 3.72121 35.7518 3.72121C35.7518 3.7665 35.7243 3.7665 35.7243 3.80613C35.7243 3.84576 35.7724 3.89105 35.7518 3.93634C35.7518 3.99861 35.7793 4.0439 35.7793 4.08353C35.8068 4.12882 35.7518 4.12881 35.7518 4.1458C35.6969 4.1458 35.5182 4.12315 35.4427 4.03824C35.4152 4.01559 35.3671 3.99861 35.3671 3.97596C35.4358 3.8684 35.5938 3.72121 35.7725 3.63629ZM34.9205 4.48547H34.9754L34.9479 4.53076H34.996C34.996 4.5534 34.9479 4.53076 34.9205 4.53076V4.48547Z" fill="white"/>
<path d="M51.0432 5.48636C51.0432 6.05814 51.0707 6.05814 51.0707 6.61293C51.0707 7.18471 50.9952 7.18471 50.9952 7.73951V8.86608C50.9952 9.43786 51.0226 9.43786 51.0226 9.99265C51.0226 10.3776 50.9952 10.7343 50.9952 11.0966C50.9952 11.4815 51.0432 11.8382 51.0432 12.2005V13.3271C51.0432 13.6894 51.0157 14.0517 51.0157 14.431C51.0157 14.7933 51.0707 15.1556 51.0707 15.5349C51.0707 15.5349 51.0157 15.5349 51.0157 15.5576C51.0157 15.6821 50.9882 15.8123 51.0157 15.9425C51.1188 16.4521 51.428 16.6672 52.0463 16.7068C52.383 16.7294 52.7403 16.7068 53.0014 16.7068C53.2831 16.7068 53.5718 16.7691 53.826 16.7691C54.2657 16.7691 54.678 16.7294 55.1177 16.7294H56.4095H57.6737C58.1134 16.7294 58.5532 16.6842 58.9654 16.6842C59.2196 16.6842 59.4807 16.7464 59.7418 16.7464H60.7999C61.1641 16.7464 61.4939 16.7011 61.858 16.7011C62.3459 16.6785 62.6551 16.6162 62.8406 16.4464C63.0468 16.2992 63.1017 16.0444 63.1223 15.6368V14.3404C63.1223 14.148 63.1704 14.148 63.1704 13.9555C63.1704 13.8479 63.1223 13.7403 63.0948 13.6384C62.9918 13.2139 62.7857 13.044 62.2429 12.9818C62.0367 12.9591 61.8581 12.9591 61.652 12.9591H61.5763C61.0885 12.9591 60.5732 12.9818 60.0785 12.9818C59.5632 12.9818 59.0754 12.8968 58.5601 12.8968C58.0722 12.8968 57.5775 12.9591 57.0622 12.9591C56.753 12.9591 56.5193 12.8742 56.2857 12.8119C55.9216 12.727 55.6399 12.5968 55.5918 12.3024C55.5162 11.8552 55.5643 11.3683 55.6467 10.8362C55.6948 10.5814 55.8529 10.3493 56.1895 10.2644C56.4231 10.2191 56.6774 10.2644 56.8835 10.2644C57.2683 10.2644 57.66 10.2417 58.0447 10.2417C58.5326 10.2417 59.0478 10.2191 59.5425 10.2191C59.7487 10.2191 60.0098 10.2814 60.2159 10.2417C60.7862 10.1795 61.0953 9.90208 61.1434 9.4322C61.1709 9.34728 61.1985 9.26236 61.1985 9.17745C61.1985 9.06988 61.1434 9.06988 61.1434 8.96232C61.1434 8.49244 61.0954 8.00558 61.0954 7.54137C61.0954 7.41116 61.1435 7.26397 61.1229 7.11678C60.9923 6.71484 60.6831 6.52236 60.1678 6.47707C60.0167 6.47707 59.8586 6.52236 59.7281 6.52236C59.6731 6.52236 59.6731 6.49971 59.625 6.49971C59.2127 6.49971 58.8005 6.43744 58.3883 6.43744H57.1515C56.8423 6.43744 56.5606 6.48273 56.272 6.41479C55.9078 6.32988 55.7567 6.11475 55.6811 5.79773C55.6261 5.52033 55.6055 5.24293 55.6811 4.98818C55.7292 4.64851 55.9354 4.45603 56.327 4.39375C56.6362 4.33148 56.8697 4.30884 57.124 4.30884H58.4913C58.9585 4.30884 59.3914 4.28619 59.8586 4.28619H61.2259H61.4321C61.7138 4.28619 61.9748 4.30884 62.2565 4.30884C62.6963 4.28619 62.9505 4.05408 63.0811 3.69177C63.1086 3.56156 63.1842 3.43702 63.1842 3.28983V1.69904C63.1842 1.55185 63.1841 1.39899 63.1567 1.29709C63.0811 0.827217 62.7925 0.640398 62.2016 0.617753H61.7618C61.3771 0.617753 60.9648 0.640398 60.5732 0.640398C60.1609 0.640398 59.7762 0.663043 59.3639 0.663043H58.1546C57.7424 0.663043 57.7424 0.640398 57.3026 0.640398C56.7117 0.640398 56.7117 0.578125 56.114 0.578125H54.9047H53.6679C53.2831 0.578125 52.8709 0.623414 52.4587 0.623414C52.2525 0.623414 52.0739 0.623414 51.9158 0.646059C51.5311 0.668704 51.27 0.838539 51.1669 1.15556C51.1188 1.28577 51.0913 1.43296 51.0913 1.62544C51.0913 1.77263 51.0157 1.94247 51.0157 2.1123C51.0157 2.68408 50.9883 2.68408 50.9883 3.23888C50.9883 3.81065 51.0913 3.81065 51.0913 4.36545C51.0707 4.93157 51.0432 4.93157 51.0432 5.48636ZM61.1298 14.4084C61.2054 14.3461 61.2328 14.2159 61.3358 14.131C61.3358 14.131 61.3359 14.1932 61.3634 14.1932C61.3634 14.2159 61.4664 14.1932 61.4664 14.2159C61.4939 14.3008 61.4664 14.4084 61.542 14.4706C61.542 14.4933 61.6176 14.5103 61.6176 14.5103C61.5901 14.5329 61.542 14.5329 61.487 14.5556C61.3839 14.5952 61.384 14.6631 61.384 14.7027C61.3565 14.7424 61.384 14.7877 61.4321 14.8499C61.5076 14.9349 61.487 15.0198 61.3565 15.1273C61.2809 15.1896 61.1229 15.1896 61.0198 15.1896C61.0748 15.0198 61.0954 14.8726 60.9923 14.6801C60.9511 14.6008 61.0267 14.4933 61.1298 14.4084ZM60.7174 15.1953C60.7174 15.1953 60.7656 15.1953 60.7931 15.2179C60.8206 15.2179 60.793 15.2802 60.8205 15.2802L60.7931 15.3255C60.7656 15.3255 60.7174 15.3028 60.7174 15.2632V15.1953ZM58.986 13.9442V13.9215C59.0135 13.9215 59.0135 13.9442 59.041 13.9668H59.0135C59.0135 13.9894 59.041 13.9894 59.041 13.9894V14.0121C59.0135 14.0347 58.986 13.9894 58.9654 13.9894C58.9929 13.9668 58.9929 13.9894 59.0135 13.9668C58.986 13.9611 59.0135 13.9442 58.986 13.9442ZM58.4982 14.0687C58.5531 14.0687 58.5738 14.114 58.5532 14.131L58.4982 14.1536C58.4982 14.131 58.4982 14.131 58.4707 14.131C58.4707 14.114 58.4982 14.0687 58.4982 14.0687ZM58.5737 7.6093C58.6218 7.6093 58.6768 7.6093 58.6768 7.63195C58.7043 7.63195 58.7043 7.67723 58.7043 7.69422C58.7043 7.71686 58.6562 7.69422 58.6562 7.69422C58.6012 7.67157 58.5532 7.67157 58.5532 7.63195L58.5737 7.6093ZM58.031 8.14145C58.031 8.11881 57.9829 8.07918 58.1065 7.99426C58.1065 7.99426 58.1065 7.94897 58.134 7.94897C58.1615 7.94897 58.189 7.97162 58.2096 7.97162V7.99426V8.03389C58.2646 8.15843 58.2096 8.266 58.3126 8.28864C58.3882 8.32827 58.4707 8.24335 58.5944 8.20372C58.7524 8.15843 58.8555 8.11881 58.9792 8.11881C58.7456 8.22637 58.5668 8.41885 58.3057 8.52075C58.2577 8.56604 58.2302 8.56604 58.1752 8.52075C58.1478 8.3962 58.0172 8.31129 57.9691 8.20372C57.9828 8.18108 58.0585 8.1641 58.031 8.14145ZM56.2033 8.6736L56.2582 8.61133V8.6736V8.69625V8.71889C56.2582 8.71889 56.2308 8.69625 56.2033 8.69625C56.2308 8.6736 56.2582 8.69625 56.2582 8.6736C56.2307 8.65096 56.2308 8.69058 56.2033 8.6736ZM53.5236 8.14145C53.5236 8.11881 53.5718 8.11881 53.5718 8.11881V8.09616C53.5718 8.11881 53.5992 8.14145 53.5992 8.15843C53.5992 8.1641 53.5236 8.11881 53.5236 8.14145ZM54.0389 15.2179C54.0389 15.2406 54.0389 15.2406 54.0114 15.2406C54.0389 15.2179 54.0389 15.1953 54.0389 15.1783L54.1145 15.2009C54.1145 15.1953 54.0595 15.2179 54.0389 15.2179ZM53.5236 6.09777C53.5236 6.07512 53.4962 6.0355 53.4687 6.0355C53.4687 6.0355 53.4686 6.05814 53.4412 6.05814V6.01285C53.6954 5.86566 54.0115 5.78074 54.2382 5.7581C54.039 5.91095 53.8053 6.05814 53.5236 6.09777ZM54.2932 4.824C54.2382 4.84665 54.2382 4.88628 54.2176 4.90892L54.1145 4.99384C54.0595 5.03913 54.039 5.07876 54.0871 5.18632C54.1146 5.24859 54.1626 5.33351 54.1626 5.3788C54.1352 5.3788 54.087 5.42409 54.0596 5.42409C53.9084 5.48636 53.6954 5.46372 53.4893 5.53165C53.4618 5.50901 53.4412 5.48636 53.4412 5.46938C53.6748 5.21462 53.9565 4.9995 54.2382 4.81268C54.2657 4.81268 54.2932 4.76739 54.3138 4.79004C54.3207 4.78438 54.2932 4.80136 54.2932 4.824ZM53.6473 4.61454L53.7023 4.63719C53.6748 4.7221 53.6267 4.78438 53.5718 4.85231C53.5443 4.87495 53.5236 4.87495 53.5236 4.87495C53.4686 4.71644 53.4687 4.69946 53.6473 4.61454ZM54.0596 4.05975V4.0371C54.0596 4.0371 54.0596 4.05975 54.0871 4.05975H54.0596ZM54.1626 4.02012V3.99747C54.1626 3.99747 54.2176 3.99747 54.2176 4.02012C54.2176 4.02012 54.1901 4.06541 54.1901 4.08239L54.1351 4.05975H54.1626C54.1901 4.05975 54.1626 4.0371 54.1626 4.02012ZM55.0902 13.8139C55.0902 13.8592 55.0421 13.9442 55.0421 13.9611C54.994 13.9611 54.9116 13.9838 54.836 13.9838C54.7329 13.8989 54.6573 13.8762 54.5267 13.8762C54.5267 13.8762 54.5268 13.8139 54.4993 13.8139C54.4443 13.8139 54.3688 13.8366 54.3413 13.8366C54.3413 13.8139 54.3687 13.8139 54.3687 13.797C54.3687 13.7743 54.3413 13.7743 54.3413 13.7517C54.3688 13.729 54.4718 13.729 54.4993 13.729C54.6505 13.7517 54.781 13.7064 54.884 13.4969C54.9596 13.3271 54.9116 13.2195 54.678 13.1346C54.6505 13.112 54.6504 13.112 54.6229 13.112H54.5749C54.4443 13.0893 54.4993 13.0497 54.4993 12.9818C54.4993 12.9818 54.4237 12.9591 54.4443 12.9365C54.4993 12.9138 54.5749 12.9818 54.678 12.9987C54.9116 13.061 55.0902 13.1289 55.0902 13.3384C55.0902 13.378 55.0146 13.378 55.0146 13.4007C54.994 13.5365 55.0696 13.6668 55.0902 13.8139ZM54.9391 7.26963C54.836 7.35455 54.6298 7.31492 54.4512 7.24699H54.4787C54.5543 7.22434 54.6298 7.2017 54.7123 7.2017C54.7672 7.17905 54.7673 7.17905 54.8153 7.17905H54.8703H54.9184C54.9459 7.17905 54.8909 7.24132 54.8909 7.21868C54.8909 7.24699 54.9391 7.26963 54.9391 7.26963ZM55.4544 14.3857C55.4269 14.4084 55.4544 14.448 55.4269 14.448C55.4269 14.448 55.3788 14.4706 55.3513 14.4706C55.3513 14.4706 55.2963 14.4254 55.2757 14.4254L55.3238 14.3631C55.3513 14.3404 55.3994 14.2782 55.4269 14.2782C55.4818 14.2838 55.4544 14.3857 55.4544 14.3857ZM57.1308 3.35776C57.0553 3.35776 56.9728 3.35776 56.8973 3.33512L56.9248 3.31247C56.9523 3.31247 56.9522 3.28983 56.9728 3.28983H57.1308C57.1308 3.28983 57.1584 3.31247 57.179 3.31247C57.1859 3.31813 57.1308 3.38041 57.1308 3.35776ZM58.4226 3.38041C58.3951 3.38041 58.3745 3.42569 58.347 3.42569C58.244 3.40305 58.1134 3.34078 58.0103 3.34078C57.8317 3.31813 57.7492 3.31813 57.7492 3.21057C57.7218 3.08036 57.5706 3.06338 57.495 3.01809C57.4401 2.99545 57.44 2.93317 57.3919 2.88788C57.4194 2.84259 57.4194 2.86524 57.4675 2.86524H57.6187C57.6942 2.86524 57.7493 2.84259 57.7768 2.75768C57.8523 2.61049 58.0104 2.48028 58.189 2.39536L58.2371 2.44065C58.189 2.67276 58.189 2.6954 58.4157 2.78032C58.4432 2.80297 58.3676 2.82561 58.3401 2.84259C58.2646 2.84259 58.2096 2.88788 58.1615 2.9728C58.1065 3.08036 58.0859 3.20491 58.2646 3.28983C58.3127 3.31247 58.4432 3.26718 58.4982 3.28983C58.4982 3.33512 58.4226 3.35776 58.4226 3.38041ZM59.4807 3.31813C59.2196 3.46532 59.0204 3.44268 58.7868 3.42569C58.8898 3.38041 58.9379 3.3804 59.041 3.34078C59.0891 3.29549 59.1715 3.21057 59.1441 3.12565C59.1166 3.04074 59.1166 3.00111 59.1441 2.97846C59.1441 2.95582 59.2746 2.95582 59.3501 2.95582C59.3501 3.04073 59.4257 3.08036 59.5082 3.12565C59.5356 3.1483 59.6113 3.21057 59.6388 3.21057C59.6113 3.23321 59.5082 3.23321 59.4807 3.25586C59.4532 3.2502 59.5013 3.31813 59.4807 3.31813ZM61.1572 3.2502C61.1091 3.2502 61.0542 3.27284 61.0061 3.27284H60.9236H60.848L60.7999 3.18793C60.903 3.16528 61.0336 3.23321 61.1367 3.2502L61.1641 3.22755V3.2502H61.1572ZM61.7962 2.61615C61.7687 2.63879 61.7962 2.61615 61.7687 2.61615C61.7412 2.63879 61.7688 2.5935 61.7138 2.61615C61.6657 2.63879 61.6863 2.67842 61.6382 2.72371C61.5901 2.72371 61.5077 2.68408 61.4596 2.68408C61.3015 2.70673 61.1778 2.74635 61.0198 2.80863C60.7106 2.93883 60.4014 2.85392 60.0647 2.80863C60.051 2.80863 60.051 2.81429 60.0441 2.81995C60.051 2.80297 60.0648 2.79164 60.0854 2.79164C60.1884 2.74635 60.319 2.70673 60.4976 2.70673L60.6007 2.68408C60.7312 2.70673 60.8549 2.70673 60.9854 2.68408C61.0335 2.68408 61.0129 2.66144 61.061 2.66144C61.1091 2.63879 61.1641 2.70673 61.2122 2.68408C61.2397 2.68408 61.2122 2.62181 61.2672 2.59916C61.4733 2.53689 61.6794 2.55387 61.8856 2.57652L61.7962 2.61615ZM60.6625 1.40466C60.635 1.44428 60.6145 1.53486 60.6145 1.57449C60.5595 1.61978 60.5388 1.61978 60.4839 1.61978C60.4358 1.59714 60.3808 1.59714 60.3808 1.55751C60.4564 1.51222 60.5594 1.4273 60.6625 1.40466ZM60.0716 1.65941C60.0991 1.63676 60.1472 1.68205 60.2021 1.68205C60.2021 1.68205 60.2022 1.64243 60.2296 1.65941C60.3327 1.68205 60.3327 1.68205 60.4358 1.72168C60.4839 1.74433 60.5388 1.74433 60.5869 1.74433H60.69C60.7175 1.78962 60.7175 1.85189 60.69 1.89152C60.6625 1.91416 60.5595 1.86887 60.532 1.86887C60.3808 1.84623 60.2228 1.86887 60.0647 1.82358C59.9892 1.80094 60.0372 1.76131 60.0372 1.73866C60.0441 1.72168 59.9686 1.68205 60.0716 1.65941ZM59.8174 2.084C59.8655 2.06135 59.9479 2.03871 60.0235 2.06135C60.051 2.06135 60.0716 2.12362 60.0716 2.12362C60.2778 2.16891 60.5113 2.1859 60.7174 2.25383C61.0541 2.33875 61.2877 2.27648 61.4939 2.02172C61.5214 1.99908 61.542 2.04437 61.542 2.02172C61.6176 2.06701 61.6931 2.06701 61.7756 2.084C61.6451 2.16891 61.5145 2.23119 61.3909 2.29912C61.2878 2.34441 61.2328 2.42933 61.1847 2.4916H61.1091C61.0061 2.46896 60.9305 2.46896 60.848 2.44631C60.5869 2.33875 60.3808 2.29912 60.1541 2.29912C60.0785 2.29912 60.0235 2.32177 59.9479 2.32177C59.6868 2.34441 59.3776 2.23685 59.0959 2.19156L59.0204 2.2142C59.0204 2.16891 59.096 2.19156 59.1509 2.16891C59.199 2.14627 59.254 2.084 59.3296 2.084C59.4808 2.084 59.6319 2.14627 59.8174 2.084ZM58.134 1.93681C58.2096 1.93681 58.3401 1.91416 58.4157 1.93681C58.5188 1.9821 58.5944 1.9821 58.6768 1.95945C58.7249 1.93681 58.7249 1.91416 58.7524 1.87453C58.7524 1.82924 58.8279 1.78962 58.8279 1.72734C58.8279 1.58015 58.7799 1.51788 58.8005 1.51788C58.8005 1.51788 58.8554 1.58015 59.0066 1.6028C59.1097 1.62544 59.1646 1.6028 59.1852 1.6028C59.1578 1.6028 59.1096 1.64243 59.0822 1.71036C59.0341 1.79528 59.0547 1.88019 59.0341 1.96511C59.0066 1.98776 58.9585 1.96511 58.931 1.98776C58.9035 1.98776 58.8761 1.98776 58.8761 2.03305C58.8486 2.07834 58.931 2.05569 58.9517 2.09532L58.8967 2.14061C58.9517 2.1859 58.9517 2.1859 58.9723 2.24817C58.8967 2.22553 58.8966 2.20288 58.8211 2.20288L58.7181 2.22553C58.5875 2.20288 58.4364 2.11796 58.2783 2.18024C58.0997 2.20288 58.0997 2.24251 57.9141 2.20288C58.0309 2.14627 58.1134 2.06135 58.134 1.93681ZM56.8973 2.03871C57.1034 1.8066 57.5157 1.65375 57.7768 1.72168C57.8042 1.72168 57.8248 1.74433 57.8523 1.76697C57.5706 1.78962 57.282 1.85189 57.0553 2.04437C57.0278 2.04437 57.0072 2.08966 56.9522 2.08966L56.9041 2.06701V2.03871H56.8973ZM55.0421 2.33875C55.0695 2.3161 55.0696 2.33875 55.0902 2.3161C55.1452 2.29346 55.1658 2.23119 55.1933 2.16891C55.2208 2.12362 55.1932 2.084 55.2207 2.03871C55.2207 1.97643 55.2207 1.93115 55.2482 1.91416C55.3238 1.86887 55.4543 1.89152 55.5574 1.91416C55.5849 1.91416 55.5849 1.91416 55.6055 1.93681C55.9422 1.99908 56.1964 2.02172 56.4575 1.89152C56.327 2.06135 56.4094 2.084 56.5606 2.29346C56.5881 2.3161 56.485 2.35573 56.5124 2.37838C56.5399 2.40102 56.6156 2.4633 56.6637 2.48594C56.485 2.54821 56.4575 2.4633 56.2789 2.50858C56.2514 2.50858 56.2513 2.54821 56.2513 2.54821C56.2239 2.54821 56.1758 2.50858 56.1484 2.52557C56.1209 2.52557 56.1208 2.54821 56.1208 2.5652C56.0934 2.58784 56.0934 2.54255 56.0659 2.54255C55.8873 2.5652 55.8598 2.5652 55.7086 2.5652H55.6605C55.6605 2.54255 55.7086 2.5652 55.7086 2.5652C55.7636 2.52557 55.7086 2.50292 55.7635 2.48028L55.7911 2.43499C55.7911 2.43499 55.791 2.49726 55.8185 2.49726C55.846 2.49726 55.8735 2.47462 55.8941 2.45197C55.9697 2.42933 55.9696 2.45197 55.9971 2.3897C55.9971 2.32743 55.846 2.36706 55.8666 2.32743C56.0178 2.13495 56.4094 2.24251 56.3338 2.02738C56.2788 1.83491 56.0521 2.08966 55.846 2.17458C55.846 2.15193 55.846 2.17458 55.8185 2.17458C55.7429 2.1123 55.6399 2.08966 55.6124 2.08966C55.3307 2.17458 55.2276 2.28214 55.2482 2.47462C55.2207 2.53689 55.2207 2.49726 55.1727 2.51991H55.0971C54.994 2.51991 54.9665 2.51991 54.9665 2.45763C54.939 2.42367 54.939 2.40102 55.0421 2.33875ZM55.2757 2.50858V2.57086H55.2482C55.2482 2.55387 55.2482 2.53123 55.2757 2.50858ZM56.1002 2.76334V2.74069L56.1552 2.70106C56.2308 2.70106 56.2857 2.80863 56.3613 2.76334C56.3888 2.76334 56.3613 2.70106 56.3338 2.65577C56.3613 2.65577 56.3613 2.67842 56.3819 2.67842C56.54 2.5935 56.5125 2.57086 56.6911 2.48594C56.6155 2.54821 56.4369 2.61615 56.54 2.65577C56.6705 2.70106 56.6705 2.57086 56.7942 2.52557H56.8973C56.9247 2.50292 56.9728 2.48028 57.0278 2.41801C57.2339 2.31044 57.2339 2.33309 57.4675 2.27082C57.5225 2.24817 57.5706 2.24817 57.5981 2.29346C57.5431 2.37838 57.4675 2.42367 57.3644 2.4633C57.337 2.48594 57.2339 2.54821 57.2133 2.61049C57.2133 2.65577 57.2408 2.6954 57.2408 2.71805L57.2683 2.74069C57.2683 2.76334 57.2958 2.76334 57.2683 2.76334C57.2408 2.74069 57.2683 2.74069 57.2408 2.71805C57.1927 2.74069 57.2133 2.78032 57.1927 2.82561C57.0415 2.93317 56.911 2.99545 56.753 2.9728C56.5744 2.95016 56.4437 2.9728 56.3407 3.10301C56.2376 3.21057 56.1071 3.23321 55.9284 3.18793C55.7773 3.16528 55.4612 3.05772 55.2345 3.29549C55.2345 3.31813 55.207 3.34078 55.1864 3.34078C55.1589 3.34078 55.1314 3.36342 55.1108 3.36342C55.0353 3.38607 54.9596 3.34078 54.8772 3.30115L54.6985 3.23888C54.5405 3.21623 54.5406 3.30115 54.5199 3.36342C54.465 3.42569 54.4168 3.42569 54.3618 3.42569C54.3344 3.42569 54.3619 3.48797 54.3344 3.48797C54.2863 3.48797 54.2313 3.44268 54.2038 3.42569C54.2038 3.42569 54.1489 3.38041 54.1283 3.38041C54.1283 3.38041 54.1558 3.35776 54.1558 3.33512C54.1558 3.31247 54.1833 3.28983 54.1558 3.28983C54.1833 3.26718 54.2314 3.26718 54.2588 3.28983C54.2314 3.26718 54.2313 3.18226 54.1558 3.18226C54.1077 3.20491 54.0802 3.22755 54.0527 3.24454C54.0527 3.22189 54.0801 3.19925 54.1076 3.18226C54.3412 3.11999 54.5955 3.0747 54.8566 2.95016C55.2483 3.01809 55.7154 3.04073 56.1002 2.76334ZM54.6573 1.38201C54.6573 1.38201 54.6298 1.40466 54.6298 1.4273C54.6298 1.44995 54.6024 1.46693 54.5818 1.46693C54.5749 1.40466 54.6298 1.38201 54.6573 1.38201ZM53.4687 2.27648C53.6748 2.36139 53.8534 2.38404 53.984 2.3161C54.1145 2.25383 54.1626 2.10098 54.1901 1.93114C54.1901 1.86887 54.1626 1.88586 54.2176 1.88586H54.4512C54.6092 1.93114 54.6573 1.94813 54.6573 1.97077C54.6573 1.99342 54.6298 2.03305 54.5543 2.10098C54.5062 2.16325 54.4787 2.24817 54.4237 2.3161C54.3963 2.37838 54.3756 2.4633 54.3207 2.50858C54.2932 2.54821 54.2932 2.54821 54.2451 2.57086H54.1969C54.1695 2.57086 54.1695 2.57086 54.1214 2.5935C54.0458 2.61615 53.9153 2.53123 53.9153 2.5935C53.9153 2.67842 54.0458 2.61615 54.1214 2.65577C54.1214 2.67842 54.0664 2.65578 54.0664 2.67842C53.9153 2.71805 53.9359 2.82561 53.7847 2.84825C53.7572 2.8709 53.8122 2.74069 53.7572 2.74069C53.6816 2.76334 53.7298 2.84826 53.6267 2.88788C53.6267 2.88788 53.5992 2.82561 53.5718 2.82561C53.5443 2.82561 53.5236 2.84825 53.4687 2.84825C53.4412 2.84825 53.3931 2.8709 53.3656 2.91053C53.3656 2.95582 53.3175 3.01809 53.3381 3.03507C53.3656 3.05772 53.4137 3.05772 53.4687 3.05772C53.4687 3.05772 53.4961 3.08036 53.5236 3.08036C53.5511 3.05772 53.5236 3.03507 53.5236 3.03507L53.5718 3.05772C53.5718 3.05772 53.5442 3.08036 53.5236 3.08036H53.3931L53.3656 3.10301C53.3931 3.08036 53.3931 3.10301 53.3931 3.10301C53.3656 3.10301 53.3931 3.12565 53.3656 3.12565C53.29 3.12565 53.3175 3.04073 53.3175 3.01809V2.95582C53.2901 2.89354 53.187 2.80863 53.2145 2.76334C53.345 2.50858 53.2626 2.36139 53.1389 2.20854C53.3175 2.14627 53.29 2.23119 53.4687 2.27648ZM53.3931 6.79975C53.3656 6.79975 53.3175 6.79975 53.3175 6.77711C53.2901 6.77711 53.2625 6.75446 53.29 6.75446C53.3175 6.76012 53.3656 6.78277 53.3931 6.79975ZM53.9565 6.79975L53.984 6.77711C53.984 6.79975 54.0114 6.81674 54.0321 6.83938V6.88467V6.92996C54.0046 6.9526 53.9015 6.9526 53.9015 6.96959C53.826 7.07715 53.7984 7.22434 53.6954 7.28661L53.6198 7.22434L53.6954 7.30926C53.6679 7.30926 53.6198 7.26397 53.6198 7.28661C53.5923 7.28661 53.6473 7.30926 53.6473 7.30926C53.5443 7.37153 53.4412 7.39418 53.3862 7.37153C53.2832 7.32624 53.2076 7.26397 53.1045 7.22434C53.5236 7.26963 53.7504 7.03752 53.9565 6.79975ZM53.132 15.3651C53.1595 15.3425 53.1319 15.3425 53.1594 15.3255C53.1594 15.3255 53.1869 15.2802 53.1869 15.3028C53.3175 15.3028 53.345 15.3481 53.345 15.3651C53.345 15.3651 53.3175 15.4104 53.2419 15.4104C53.2144 15.433 53.1389 15.4104 53.1114 15.4104L53.0839 15.3878C53.0839 15.3878 53.1595 15.3651 53.132 15.3651ZM52.5685 12.6025C52.5411 12.5798 52.5136 12.6025 52.493 12.5798L52.548 12.5572C52.548 12.5572 52.5754 12.5798 52.5961 12.6025H52.5685ZM52.2594 7.97162C52.2869 7.92633 52.3075 7.90934 52.4105 7.8867C52.438 7.8867 52.438 7.8867 52.438 7.86405H52.5685C52.596 7.86405 52.6441 7.86405 52.6716 7.8867C52.6716 7.8867 52.6441 7.93199 52.6441 7.94897C52.5891 7.99426 52.4861 7.97162 52.4105 7.99426C52.3624 8.03389 52.28 8.05653 52.2594 8.03389C52.2319 8.01124 52.2594 7.97162 52.2594 7.97162Z" fill="white"/>
<path d="M54.2461 3.44479C54.3041 3.42201 54.2461 3.38215 54.2461 3.35938C54.2171 3.38215 54.1953 3.40493 54.1953 3.42201C54.2171 3.42201 54.2461 3.46757 54.2461 3.44479Z" fill="white"/>
<path d="M54.1622 3.31921V3.29663C54.1622 3.29663 54.1622 3.31921 54.1328 3.3418H54.1622V3.31921Z" fill="white"/>
<path d="M54.1896 3.33594H54.1602V3.3811L54.1896 3.33594Z" fill="white"/>
<path d="M54.2468 3.35841H54.3256C54.3543 3.33603 54.3256 3.33603 54.2969 3.31925C54.2969 3.2745 54.2683 3.31925 54.2396 3.29688L54.2109 3.34162C54.2181 3.35841 54.2468 3.35841 54.2468 3.35841Z" fill="white"/>
<path d="M5.65352 8.98774L3.77091 10.5389C3.53732 10.7314 3.16632 10.7314 2.93273 10.5389L1.0502 8.98774C0.8166 8.79526 0.8166 8.48956 1.0502 8.29708L2.93273 6.74592C3.16632 6.55344 3.53732 6.55344 3.77091 6.74592L5.65352 8.29708C5.88025 8.48956 5.88025 8.79526 5.65352 8.98774Z" fill="white"/>
<path d="M70.2496 9.00796L68.422 10.5138C68.1747 10.7176 67.7761 10.7176 67.5288 10.5138L65.7011 9.00796C65.4538 8.80415 65.4538 8.47581 65.7011 8.272L67.5288 6.76613C67.7761 6.56233 68.1747 6.56233 68.422 6.76613L70.2496 8.272C70.4969 8.47581 70.4969 8.80415 70.2496 9.00796Z" fill="white"/>
<path d="M35.2169 25.9136C35.21 25.9929 35.2031 26.0721 35.2031 26.1514C35.2031 27.4704 35.2031 28.7895 35.2031 30.1085C35.2031 30.3859 35.1551 30.4312 34.8184 30.4312C34.5711 30.4312 34.3169 30.4312 34.0696 30.4312C33.6711 30.4312 33.6367 30.4029 33.6367 30.0802C33.6367 28.2347 33.6367 26.3948 33.6367 24.5493C33.6367 23.5586 33.6367 22.5622 33.6367 21.5715C33.6367 21.2714 33.6642 21.2431 34.0352 21.2431C34.2757 21.2431 34.523 21.2545 34.7635 21.2375C35.0315 21.2148 35.1413 21.3167 35.21 21.5205C35.5123 22.3924 35.8284 23.2642 36.1376 24.1303C36.3094 24.6115 36.4811 25.0927 36.6529 25.5796C36.6735 25.6419 36.7079 25.7041 36.7353 25.7664C36.7628 25.7664 36.7834 25.7608 36.8109 25.7608C36.8247 25.6758 36.8452 25.5966 36.8452 25.5117C36.8452 24.1983 36.8452 22.8849 36.8452 21.5772C36.8452 21.2714 36.8727 21.2488 37.2369 21.2488C37.5117 21.2488 37.7865 21.2488 38.0682 21.2488C38.3636 21.2488 38.4117 21.2884 38.4117 21.5375C38.4117 22.2848 38.4117 23.0264 38.4117 23.7737C38.4117 25.8796 38.4117 27.9856 38.4117 30.0915C38.4117 30.3972 38.3636 30.4369 37.9995 30.4369C37.7384 30.4369 37.4842 30.4312 37.2231 30.4369C37.0101 30.4425 36.9139 30.3689 36.859 30.2048C36.378 28.8348 35.8971 27.4704 35.4093 26.1061C35.3818 26.0381 35.3474 25.9702 35.3131 25.9023C35.2787 25.9023 35.2513 25.9079 35.2169 25.9136Z" fill="white"/>
<path d="M54.5117 25.8299C54.5117 24.4259 54.5117 23.022 54.5117 21.618C54.5117 21.267 54.5323 21.25 54.9651 21.25C55.4736 21.25 55.982 21.25 56.4905 21.25C57.6104 21.2557 58.476 21.8388 58.5722 22.7559C58.6478 23.4862 58.5928 24.2278 58.5791 24.9637C58.5791 25.0826 58.5448 25.2128 58.4692 25.3091C58.2837 25.5468 58.3524 25.7393 58.5173 25.9714C58.7509 26.2998 58.8539 26.6678 58.8471 27.0527C58.8333 27.6754 58.8746 28.3038 58.7921 28.9209C58.6616 29.855 57.8302 30.4211 56.6897 30.4381C56.0919 30.4438 55.5011 30.4381 54.9033 30.4381C54.5735 30.4381 54.5186 30.3871 54.5186 30.1098C54.5117 28.6775 54.5117 27.2565 54.5117 25.8299ZM56.0919 27.7773C56.0919 28.1623 56.0919 28.5416 56.0919 28.9266C56.0919 29.0568 56.1401 29.1474 56.3118 29.17C56.9164 29.2493 57.205 29.0794 57.2394 28.5756C57.2668 28.0604 57.2668 27.5452 57.2394 27.0301C57.2119 26.5206 57.0195 26.396 56.4012 26.4073C56.1813 26.4073 56.0919 26.4866 56.0919 26.6621C56.0919 27.0301 56.0919 27.4037 56.0919 27.7773ZM56.0919 23.8145C56.0919 24.1825 56.0988 24.5505 56.0919 24.9184C56.0919 25.0883 56.1744 25.1619 56.3805 25.1675C56.7584 25.1732 56.992 25.0203 57.0194 24.6354C57.0538 24.0863 57.0401 23.5315 57.0263 22.9823C57.0263 22.8691 56.9577 22.7502 56.8889 22.6427C56.7859 22.4898 56.4973 22.4219 56.2706 22.4785C56.0438 22.5351 56.1057 22.6879 56.1057 22.8125C56.0851 23.1522 56.0919 23.4862 56.0919 23.8145Z" fill="white"/>
<path d="M0.5 25.8299C0.5 24.4259 0.5 23.0219 0.5 21.618C0.5 21.267 0.520552 21.25 0.95342 21.25C1.48248 21.25 2.0047 21.25 2.53377 21.25C3.71556 21.25 4.48511 21.7029 4.68437 22.654C4.87675 23.5654 4.86986 24.5052 4.66373 25.4223C4.6019 25.6997 4.36831 25.9544 4.17593 26.2035C4.07286 26.3394 4.01097 26.4526 4.03846 26.6168C4.2652 27.783 4.47825 28.9549 4.69812 30.1267C4.74622 30.3758 4.69119 30.4324 4.382 30.4381C4.10717 30.4381 3.83236 30.4324 3.55065 30.4381C3.31017 30.4437 3.18653 30.3588 3.15904 30.1607C3.0285 29.3511 2.89102 28.5473 2.76048 27.7377C2.71925 27.4943 2.67808 27.2452 2.64372 27.0018C2.62311 26.8489 2.54748 26.747 2.33448 26.7527C2.11461 26.764 2.07338 26.8772 2.07338 27.0301C2.07338 28.0491 2.07338 29.0737 2.07338 30.0928C2.07338 30.3985 2.03218 30.4381 1.66115 30.4381C1.41379 30.4381 1.15959 30.4381 0.912238 30.4381C0.554951 30.4381 0.5 30.3928 0.5 30.0871C0.5 28.6661 0.5 27.2508 0.5 25.8299ZM2.08026 23.9787C2.08026 24.4089 2.0734 24.8448 2.08714 25.2751C2.08714 25.3544 2.17644 25.4959 2.23828 25.5015C2.73986 25.5525 3.08343 25.5638 3.12465 25.077C3.18649 24.375 3.17964 23.6617 3.13841 22.954C3.11093 22.5351 2.91169 22.4558 2.3895 22.4672C2.1765 22.4728 2.07339 22.5407 2.08026 22.7219C2.08713 23.1408 2.08026 23.5598 2.08026 23.9787Z" fill="white"/>
<path d="M30.8197 25.8283C30.8197 26.7057 30.8265 27.5889 30.8197 28.4664C30.8197 28.9249 30.7441 29.3778 30.4212 29.7684C29.8853 30.4195 29.102 30.578 28.2088 30.4534C27.35 30.3289 26.8484 29.876 26.6423 29.1967C26.5736 28.9815 26.5392 28.7494 26.5392 28.523C26.5323 26.7284 26.5254 24.9338 26.5392 23.1392C26.5392 22.5957 26.6698 22.0749 27.1644 21.6729C27.8309 21.1238 28.6485 21.0672 29.4936 21.305C30.3113 21.5314 30.6685 22.0806 30.7785 22.7486C30.8128 22.9637 30.8197 23.1845 30.8197 23.4053C30.8197 24.2092 30.8197 25.0187 30.8197 25.8283ZM28.1264 25.8283C28.1264 26.6831 28.1195 27.5436 28.1332 28.3984C28.1332 28.5853 28.1607 28.7777 28.2088 28.9646C28.2569 29.1627 28.4355 29.2533 28.6829 29.2533C28.9302 29.2533 29.102 29.1627 29.157 28.9646C29.2051 28.7947 29.2326 28.6136 29.2326 28.4381C29.2394 26.6944 29.2394 24.9508 29.2326 23.2071C29.2326 23.0316 29.1982 22.8561 29.1501 22.6806C29.0951 22.4768 28.9028 22.3976 28.6623 22.4032C28.4287 22.4032 28.2569 22.4882 28.2019 22.6806C28.1538 22.8618 28.1264 23.043 28.1264 23.2298C28.1195 24.1016 28.1264 24.9678 28.1264 25.8283Z" fill="white"/>
<path d="M19.9795 25.8334C19.9795 24.4124 19.9795 22.9972 19.9795 21.5762C19.9795 21.2592 20.007 21.2422 20.3917 21.2422C20.9619 21.2422 21.5322 21.2422 22.1024 21.2422C23.2841 21.2478 24.136 21.8423 24.2047 22.8103C24.2734 23.7558 24.2734 24.7125 24.2047 25.6579C24.1429 26.6146 23.2978 27.2147 22.1299 27.243C22.0543 27.243 21.9718 27.243 21.8963 27.243C21.5871 27.243 21.5391 27.2827 21.5391 27.5431C21.5391 28.4036 21.5391 29.2584 21.5391 30.1189C21.5391 30.3907 21.4978 30.4303 21.1681 30.4303C20.8933 30.4303 20.6185 30.4303 20.3368 30.4303C20.0345 30.4303 19.9727 30.3793 19.9727 30.1302C19.9727 29.1961 19.9727 28.2564 19.9727 27.3223V25.8334H19.9795ZM21.5459 24.2313C21.5459 24.7351 21.539 25.239 21.5527 25.7428C21.5527 25.8334 21.6627 25.9919 21.7383 25.9976C22.2741 26.0485 22.5558 26.0259 22.6383 25.5447C22.6589 25.4484 22.6726 25.3465 22.6726 25.2503C22.6726 24.5766 22.6726 23.9029 22.6726 23.2293C22.6726 23.1387 22.6658 23.0424 22.6452 22.9575C22.549 22.5386 22.4321 22.465 21.9169 22.4707C21.6009 22.4763 21.5527 22.516 21.5459 22.7877C21.5459 23.2689 21.5459 23.7501 21.5459 24.2313Z" fill="white"/>
<path d="M49.7828 21.2511C49.9408 21.2511 50.0919 21.2568 50.25 21.2511C50.463 21.2398 50.566 21.3134 50.5935 21.4889C50.7035 22.1852 50.8271 22.8815 50.9371 23.5722C51.2119 25.2139 51.4799 26.8557 51.7548 28.5031C51.8441 29.0409 51.9403 29.5844 52.0296 30.1222C52.0709 30.3713 52.009 30.4336 51.7066 30.4336C51.4387 30.4336 51.1707 30.4279 50.9028 30.4336C50.7035 30.4392 50.6004 30.3656 50.5866 30.2014C50.5592 29.9467 50.511 29.6919 50.4904 29.4428C50.4767 29.2843 50.4012 29.2107 50.2019 29.2164C49.9339 29.2277 49.6659 29.2277 49.3979 29.2164C49.1849 29.2051 49.1025 29.29 49.0888 29.4485C49.0613 29.7033 49.0269 29.958 48.9994 30.2128C48.9857 30.3713 48.8895 30.4392 48.6971 30.4392C48.4154 30.4336 48.1268 30.4392 47.8451 30.4392C47.5908 30.4336 47.5291 30.3769 47.5634 30.1562C47.7833 28.8201 47.9963 27.4841 48.2161 26.1537C48.4635 24.6422 48.7177 23.1363 48.9719 21.6248C49.0338 21.2568 49.0338 21.2511 49.4804 21.2511C49.5766 21.2511 49.6797 21.2511 49.7828 21.2511ZM49.8171 24.7894H49.7553C49.7346 24.846 49.7141 24.9026 49.7072 24.9592C49.5973 25.8367 49.4941 26.7198 49.3911 27.5973C49.3361 28.0728 49.343 28.0728 49.9133 28.0672C50.2362 28.0672 50.2431 28.0672 50.2088 27.7898C50.0988 26.8387 49.982 25.8876 49.8583 24.9422C49.8583 24.8856 49.8377 24.8347 49.8171 24.7894Z" fill="white"/>
<path d="M16.5023 23.8918C16.358 23.8918 16.2068 23.8918 16.0625 23.8918C15.7739 23.8862 15.7258 23.8409 15.7189 23.6031C15.7052 23.337 15.7052 23.0653 15.6434 22.7992C15.6159 22.6747 15.5059 22.5275 15.3754 22.4652C15.1074 22.3237 14.7501 22.4539 14.6883 22.72C14.5302 23.4276 14.4684 24.1296 15.0868 24.741C15.6228 25.2732 16.1519 25.7997 16.6466 26.3601C17.4574 27.2772 17.478 28.3132 17.1413 29.3492C16.8871 30.1361 16.0007 30.5607 14.9494 30.4928C13.9393 30.4248 13.2247 29.887 13.0735 29.0435C13.0117 28.7038 13.0255 28.3528 13.0117 28.0075C13.0048 27.866 13.101 27.798 13.2659 27.7924C13.6164 27.7867 13.9736 27.7924 14.3309 27.7924C14.5371 27.7924 14.5852 27.8999 14.592 28.0471C14.6127 28.3528 14.6264 28.6585 14.6745 28.9586C14.7089 29.1511 14.8669 29.2699 15.1211 29.2756C15.3685 29.2813 15.561 29.1964 15.6091 28.9982C15.7671 28.3189 15.8632 27.6395 15.3067 27.0394C14.8532 26.5526 14.379 26.0714 13.9049 25.5902C12.9361 24.6221 12.8124 23.5182 13.1766 22.3577C13.4171 21.5991 14.1867 21.1858 15.1624 21.1915C16.1381 21.1971 16.9146 21.6217 17.1482 22.369C17.2788 22.7936 17.2719 23.2521 17.3062 23.6937C17.32 23.8352 17.2031 23.9088 17.0176 23.9032C16.8458 23.8862 16.674 23.8918 16.5023 23.8918Z" fill="white"/>
<path d="M44.5697 23.8916C44.4048 23.8916 44.2399 23.8859 44.075 23.8916C43.8552 23.8972 43.7727 23.8067 43.7659 23.6312C43.759 23.3764 43.7589 23.1217 43.7109 22.8669C43.6834 22.731 43.6009 22.5725 43.4773 22.4819C43.2368 22.3065 42.804 22.4197 42.7421 22.6971C42.5841 23.3651 42.4948 24.0388 43.0582 24.6332C43.4429 25.0351 43.8345 25.4314 44.2262 25.8277C44.714 26.3146 45.1675 26.8184 45.2912 27.4581C45.4148 28.0695 45.4423 28.6866 45.2225 29.2923C44.9202 30.1132 44.0956 30.5491 43.0238 30.4868C42.0138 30.4302 41.2855 29.8868 41.1412 29.0546C41.0794 28.7036 41.1 28.3469 41.0863 27.9959C41.0794 27.8544 41.1824 27.7865 41.3405 27.7865C41.684 27.7808 42.0344 27.7865 42.378 27.7865C42.5772 27.7865 42.6459 27.8714 42.6528 28.0299C42.6597 28.3073 42.6665 28.5847 42.7077 28.8564C42.7352 29.0546 42.8314 29.2301 43.12 29.2584C43.4085 29.2923 43.6147 29.2074 43.6765 28.9753C43.8552 28.279 43.917 27.594 43.3399 26.9826C42.8933 26.5127 42.4398 26.0485 41.9863 25.5843C41.3885 24.9785 41.0382 24.3048 41.0931 23.5123C41.1206 23.1783 41.1 22.8386 41.1825 22.5216C41.4092 21.6611 42.1925 21.1686 43.2437 21.1799C44.3018 21.1912 45.085 21.695 45.2843 22.5499C45.3736 22.9122 45.353 23.2972 45.3736 23.6708C45.3805 23.8293 45.2705 23.8972 45.0781 23.8916C44.8995 23.8859 44.7346 23.8916 44.5697 23.8916Z" fill="white"/>
<path d="M7.35156 25.8221C7.35156 24.4124 7.35156 23.0028 7.35156 21.5875C7.35156 21.2592 7.37904 21.2422 7.77755 21.2422C8.57458 21.2422 9.36471 21.2422 10.1617 21.2422C10.4572 21.2422 10.5053 21.2818 10.5053 21.5309C10.5053 21.729 10.4984 21.9272 10.5053 22.1253C10.5121 22.3121 10.416 22.3971 10.1824 22.3971C9.8663 22.3914 9.54336 22.4027 9.2273 22.3971C9.02118 22.3914 8.92494 22.465 8.92494 22.6348C8.92494 23.4048 8.92494 24.1803 8.92494 24.9503C8.92494 25.1314 9.02806 25.205 9.24106 25.205C9.55712 25.1994 9.88006 25.2107 10.1961 25.205C10.416 25.1994 10.5121 25.2843 10.5053 25.4598C10.4984 25.6749 10.4984 25.8844 10.5053 26.0995C10.5121 26.292 10.4022 26.3656 10.1755 26.3599C9.8663 26.3542 9.55712 26.3656 9.24106 26.3542C9.02119 26.3486 8.91815 26.4222 8.91815 26.6033C8.91815 27.4129 8.91815 28.2168 8.91815 29.0263C8.91815 29.1961 9.0143 29.2697 9.22042 29.2697C9.55023 29.2697 9.8732 29.2697 10.203 29.2697C10.4091 29.2697 10.5053 29.3433 10.5053 29.5132C10.4984 29.734 10.4984 29.9547 10.5053 30.1699C10.5121 30.334 10.4228 30.4246 10.2167 30.4246C9.36468 30.4246 8.50583 30.4246 7.65384 30.4246C7.38588 30.4246 7.35156 30.2887 7.35156 30.1133C7.35156 28.7376 7.35156 27.3619 7.35156 25.9863V25.8221Z" fill="white"/>
<path d="M67.3242 25.8391C67.3242 24.4181 67.3242 23.0028 67.3242 21.5819C67.3242 21.2648 67.3518 21.2422 67.7365 21.2422C68.5403 21.2422 69.3442 21.2478 70.148 21.2422C70.3954 21.2422 70.4984 21.3214 70.4915 21.5196C70.4847 21.7177 70.4915 21.9159 70.4915 22.114C70.4847 22.3405 70.4228 22.3971 70.1343 22.3971C69.832 22.3971 69.5296 22.4027 69.2273 22.3971C69.0006 22.3914 68.8976 22.465 68.8976 22.6575C68.9044 23.4161 68.9044 24.1747 68.8976 24.9333C68.8976 25.1371 69.0144 25.2107 69.248 25.205C69.5571 25.1994 69.8663 25.2107 70.1823 25.205C70.4022 25.1994 70.5052 25.2786 70.4983 25.4598C70.4983 25.6806 70.4983 25.9013 70.4983 26.1165C70.4983 26.2863 70.3953 26.3599 70.1961 26.3599C69.8663 26.3599 69.5365 26.3656 69.2136 26.3599C68.9937 26.3542 68.9044 26.4392 68.9044 26.6203C68.9044 27.4242 68.9044 28.2224 68.9044 29.0263C68.9044 29.2075 69.0143 29.2811 69.2205 29.2811C69.5365 29.2811 69.8594 29.2867 70.1754 29.2811C70.409 29.2754 70.5052 29.366 70.4983 29.5528C70.4915 29.7679 70.4983 29.9774 70.4983 30.1925C70.4983 30.3623 70.3953 30.4416 70.1961 30.4416C69.3442 30.4416 68.4854 30.4416 67.6334 30.4416C67.3655 30.4416 67.338 30.3001 67.338 30.1246C67.3242 28.6923 67.3242 27.2657 67.3242 25.8391Z" fill="white"/>
<path d="M61.6406 25.8277C61.6406 24.4181 61.6406 23.0028 61.6406 21.5932C61.6406 21.2648 61.6612 21.2478 62.0666 21.2422C62.3621 21.2422 62.6506 21.2422 62.9461 21.2422C63.1316 21.2422 63.2141 21.3158 63.2141 21.463C63.2141 21.5196 63.2141 21.5762 63.2141 21.6328C63.2141 24.0388 63.2141 26.4448 63.2141 28.8452C63.2141 29.1735 63.2485 29.2018 63.6401 29.2018C63.9356 29.2018 64.2242 29.2018 64.5197 29.2018C64.7052 29.2018 64.7945 29.2754 64.7945 29.4226C64.7945 29.683 64.7945 29.9491 64.7945 30.2095C64.7945 30.3567 64.6914 30.4303 64.5128 30.4303C63.647 30.4303 62.7881 30.4303 61.9223 30.4303C61.668 30.4303 61.6406 30.2944 61.6406 30.1246C61.6406 29.1395 61.6406 28.1545 61.6406 27.1638V25.8277Z" fill="white"/>
</svg>
